%TF.GenerationSoftware,KiCad,Pcbnew,7.0.9*%
%TF.CreationDate,2023-12-14T21:42:17-08:00*%
%TF.ProjectId,encoder-board,656e636f-6465-4722-9d62-6f6172642e6b,rev?*%
%TF.SameCoordinates,Original*%
%TF.FileFunction,Copper,L4,Bot*%
%TF.FilePolarity,Positive*%
%FSLAX46Y46*%
G04 Gerber Fmt 4.6, Leading zero omitted, Abs format (unit mm)*
G04 Created by KiCad (PCBNEW 7.0.9) date 2023-12-14 21:42:17*
%MOMM*%
%LPD*%
G01*
G04 APERTURE LIST*
%TA.AperFunction,ComponentPad*%
%ADD10C,3.500000*%
%TD*%
%TA.AperFunction,SMDPad,CuDef*%
%ADD11R,0.550013X0.800000*%
%TD*%
%TA.AperFunction,ViaPad*%
%ADD12C,0.500000*%
%TD*%
%TA.AperFunction,Conductor*%
%ADD13C,0.250000*%
%TD*%
G04 APERTURE END LIST*
D10*
%TO.P,H2,1,1*%
%TO.N,GND*%
X27940000Y-48260000D03*
%TD*%
%TO.P,H1,1,1*%
%TO.N,GND*%
X48260000Y-27940000D03*
%TD*%
D11*
%TO.P,U1,1*%
%TO.N,A1*%
X39662102Y-30128973D03*
%TO.P,U1,2*%
%TO.N,GND*%
X38862000Y-30128973D03*
%TO.P,U1,3,A*%
%TO.N,Net-(U1-A)*%
X38862000Y-28799027D03*
%TO.P,U1,4,K*%
%TO.N,GND*%
X39661848Y-28799027D03*
%TD*%
%TO.P,U2,1*%
%TO.N,A2*%
X37338254Y-30128973D03*
%TO.P,U2,2*%
%TO.N,GND*%
X36538152Y-30128973D03*
%TO.P,U2,3,A*%
%TO.N,Net-(U2-A)*%
X36538152Y-28799027D03*
%TO.P,U2,4,K*%
%TO.N,GND*%
X37338000Y-28799027D03*
%TD*%
D12*
%TO.N,GND*%
X45466000Y-43942000D03*
X46990000Y-34798000D03*
X28956000Y-33274000D03*
X35560000Y-44196000D03*
X31650500Y-43923154D03*
X39573200Y-40182800D03*
X35560000Y-45720000D03*
X35560000Y-44958000D03*
X39116000Y-34036000D03*
%TO.N,A2*%
X34544000Y-29972000D03*
X30327600Y-36322000D03*
X37338254Y-30632400D03*
%TO.N,A1*%
X40081200Y-29972000D03*
X45490500Y-33224747D03*
X45490500Y-37817939D03*
X41656000Y-29972000D03*
%TO.N,D2*%
X30504500Y-37846000D03*
X34239200Y-36576000D03*
X38100000Y-48268000D03*
X30276800Y-45720000D03*
%TO.N,D1*%
X45466000Y-45720000D03*
X40640000Y-44958000D03*
X41808400Y-37846000D03*
X43942000Y-37846000D03*
%TO.N,Net-(U3A--)*%
X41656000Y-36576000D03*
X43942000Y-36322000D03*
%TO.N,Net-(U3A-+)*%
X41808400Y-35306000D03*
X43942000Y-33274000D03*
%TO.N,Net-(U3B-+)*%
X34239200Y-34036000D03*
X32004000Y-34798000D03*
%TO.N,Net-(U3B--)*%
X32004000Y-36322000D03*
X34239200Y-35306000D03*
%TO.N,Net-(U1-A)*%
X38862000Y-28244800D03*
X46278800Y-30988000D03*
%TO.N,Net-(U2-A)*%
X29667200Y-30988000D03*
X36576000Y-28244800D03*
%TD*%
D13*
%TO.N,GND*%
X37342573Y-28803600D02*
X37338000Y-28799027D01*
X39666421Y-28803600D02*
X39661848Y-28799027D01*
%TO.N,A2*%
X37338254Y-30632400D02*
X37338254Y-30128973D01*
%TO.N,A1*%
X39924227Y-30128973D02*
X39662102Y-30128973D01*
X40081200Y-29972000D02*
X39924227Y-30128973D01*
%TO.N,Net-(U1-A)*%
X38862000Y-28244800D02*
X38862000Y-28799027D01*
%TO.N,Net-(U2-A)*%
X36538152Y-28282648D02*
X36538152Y-28799027D01*
X36576000Y-28244800D02*
X36538152Y-28282648D01*
%TD*%
%TA.AperFunction,Conductor*%
%TO.N,GND*%
G36*
X48261737Y-25400598D02*
G01*
X48295041Y-25402467D01*
X48375603Y-25406992D01*
X48547691Y-25417401D01*
X48554297Y-25418160D01*
X48625907Y-25430327D01*
X48690343Y-25441277D01*
X48783462Y-25458340D01*
X48839227Y-25468560D01*
X48845198Y-25469963D01*
X48982032Y-25509384D01*
X49122850Y-25553265D01*
X49128092Y-25555164D01*
X49261420Y-25610391D01*
X49394609Y-25670334D01*
X49399147Y-25672605D01*
X49472221Y-25712991D01*
X49526422Y-25742947D01*
X49526439Y-25742956D01*
X49650935Y-25818217D01*
X49654739Y-25820711D01*
X49772726Y-25904427D01*
X49775072Y-25906176D01*
X49870416Y-25980874D01*
X49888332Y-25994910D01*
X49891409Y-25997486D01*
X49999430Y-26094018D01*
X50001957Y-26096408D01*
X50103590Y-26198041D01*
X50105980Y-26200568D01*
X50202512Y-26308589D01*
X50205088Y-26311666D01*
X50293811Y-26424912D01*
X50295571Y-26427272D01*
X50379287Y-26545259D01*
X50381781Y-26549063D01*
X50457043Y-26673560D01*
X50527393Y-26800851D01*
X50529668Y-26805398D01*
X50589609Y-26938581D01*
X50644831Y-27071899D01*
X50646744Y-27077183D01*
X50669633Y-27150634D01*
X50690631Y-27218021D01*
X50730032Y-27354790D01*
X50731440Y-27360781D01*
X50758722Y-27509656D01*
X50781835Y-27645683D01*
X50782599Y-27652330D01*
X50793012Y-27824475D01*
X50799402Y-27938263D01*
X50799500Y-27941741D01*
X50799500Y-48258258D01*
X50799402Y-48261736D01*
X50793012Y-48375524D01*
X50782599Y-48547668D01*
X50781835Y-48554315D01*
X50758722Y-48690343D01*
X50731440Y-48839217D01*
X50730032Y-48845208D01*
X50690625Y-48982001D01*
X50646744Y-49122815D01*
X50644831Y-49128099D01*
X50589609Y-49261418D01*
X50529668Y-49394600D01*
X50527394Y-49399147D01*
X50457043Y-49526439D01*
X50381781Y-49650936D01*
X50379287Y-49654739D01*
X50295571Y-49772726D01*
X50293811Y-49775086D01*
X50205088Y-49888332D01*
X50202512Y-49891409D01*
X50105980Y-49999430D01*
X50103590Y-50001957D01*
X50001957Y-50103590D01*
X49999430Y-50105980D01*
X49891409Y-50202512D01*
X49888332Y-50205088D01*
X49775086Y-50293811D01*
X49772726Y-50295571D01*
X49654739Y-50379287D01*
X49650936Y-50381781D01*
X49526439Y-50457043D01*
X49399147Y-50527394D01*
X49394600Y-50529668D01*
X49261418Y-50589609D01*
X49128099Y-50644831D01*
X49122815Y-50646744D01*
X49005231Y-50683385D01*
X48981990Y-50690627D01*
X48845208Y-50730032D01*
X48839217Y-50731440D01*
X48690343Y-50758722D01*
X48554315Y-50781835D01*
X48547668Y-50782599D01*
X48375524Y-50793012D01*
X48261736Y-50799402D01*
X48258258Y-50799500D01*
X27941742Y-50799500D01*
X27938265Y-50799402D01*
X27824475Y-50793012D01*
X27652330Y-50782599D01*
X27645683Y-50781835D01*
X27509656Y-50758722D01*
X27360781Y-50731440D01*
X27354790Y-50730032D01*
X27218021Y-50690631D01*
X27150634Y-50669633D01*
X27077183Y-50646744D01*
X27071899Y-50644831D01*
X26938581Y-50589609D01*
X26805398Y-50529668D01*
X26800851Y-50527393D01*
X26673560Y-50457043D01*
X26549063Y-50381781D01*
X26545259Y-50379287D01*
X26427272Y-50295571D01*
X26424912Y-50293811D01*
X26311666Y-50205088D01*
X26308589Y-50202512D01*
X26200568Y-50105980D01*
X26198041Y-50103590D01*
X26096408Y-50001957D01*
X26094018Y-49999430D01*
X25997486Y-49891409D01*
X25994910Y-49888332D01*
X25980874Y-49870416D01*
X25906176Y-49775072D01*
X25904427Y-49772726D01*
X25828729Y-49666040D01*
X25820710Y-49654738D01*
X25818217Y-49650935D01*
X25742956Y-49526439D01*
X25672605Y-49399147D01*
X25670330Y-49394600D01*
X25667098Y-49387419D01*
X25610387Y-49261411D01*
X25555371Y-49128592D01*
X25555164Y-49128092D01*
X25553265Y-49122850D01*
X25509375Y-48982001D01*
X25469963Y-48845198D01*
X25468560Y-48839227D01*
X25450172Y-48738884D01*
X25441277Y-48690343D01*
X25425194Y-48595694D01*
X25418160Y-48554297D01*
X25417401Y-48547691D01*
X25406992Y-48375603D01*
X25402626Y-48297867D01*
X25400598Y-48261736D01*
X25400549Y-48260000D01*
X25685172Y-48260000D01*
X25704462Y-48554312D01*
X25704464Y-48554324D01*
X25762001Y-48843584D01*
X25762005Y-48843599D01*
X25856812Y-49122888D01*
X25987258Y-49387406D01*
X25987265Y-49387419D01*
X26151122Y-49632648D01*
X26180406Y-49666039D01*
X27004210Y-48842235D01*
X27104894Y-48983624D01*
X27256932Y-49128592D01*
X27359222Y-49194329D01*
X26533959Y-50019592D01*
X26533959Y-50019593D01*
X26567344Y-50048872D01*
X26567348Y-50048875D01*
X26812580Y-50212734D01*
X26812593Y-50212741D01*
X27077111Y-50343187D01*
X27356400Y-50437994D01*
X27356415Y-50437998D01*
X27645675Y-50495535D01*
X27645687Y-50495537D01*
X27940000Y-50514827D01*
X28234312Y-50495537D01*
X28234324Y-50495535D01*
X28523584Y-50437998D01*
X28523599Y-50437994D01*
X28802888Y-50343187D01*
X29067406Y-50212741D01*
X29067419Y-50212734D01*
X29312650Y-50048877D01*
X29346039Y-50019593D01*
X29346040Y-50019592D01*
X28523306Y-49196859D01*
X28537410Y-49189589D01*
X28702540Y-49059729D01*
X28840110Y-48900965D01*
X28874665Y-48841112D01*
X29699592Y-49666040D01*
X29699593Y-49666039D01*
X29728877Y-49632650D01*
X29892734Y-49387419D01*
X29892741Y-49387406D01*
X30023187Y-49122888D01*
X30117994Y-48843599D01*
X30117998Y-48843584D01*
X30175535Y-48554324D01*
X30175537Y-48554312D01*
X30194303Y-48268002D01*
X37344751Y-48268002D01*
X37363685Y-48436056D01*
X37419545Y-48595694D01*
X37419547Y-48595697D01*
X37509518Y-48738884D01*
X37509523Y-48738890D01*
X37629109Y-48858476D01*
X37629115Y-48858481D01*
X37772302Y-48948452D01*
X37772305Y-48948454D01*
X37772309Y-48948455D01*
X37772310Y-48948456D01*
X37844913Y-48973860D01*
X37931943Y-49004314D01*
X38099997Y-49023249D01*
X38100000Y-49023249D01*
X38100003Y-49023249D01*
X38268056Y-49004314D01*
X38268059Y-49004313D01*
X38427690Y-48948456D01*
X38427692Y-48948454D01*
X38427694Y-48948454D01*
X38427697Y-48948452D01*
X38570884Y-48858481D01*
X38570885Y-48858480D01*
X38570890Y-48858477D01*
X38690477Y-48738890D01*
X38702953Y-48719035D01*
X38780452Y-48595697D01*
X38780454Y-48595694D01*
X38780454Y-48595692D01*
X38780456Y-48595690D01*
X38836313Y-48436059D01*
X38836313Y-48436058D01*
X38836314Y-48436056D01*
X38855249Y-48268002D01*
X38855249Y-48267997D01*
X38836314Y-48099943D01*
X38789336Y-47965687D01*
X38780456Y-47940310D01*
X38780455Y-47940309D01*
X38780454Y-47940305D01*
X38780452Y-47940302D01*
X38690481Y-47797115D01*
X38690476Y-47797109D01*
X38570890Y-47677523D01*
X38570884Y-47677518D01*
X38427697Y-47587547D01*
X38427694Y-47587545D01*
X38268056Y-47531685D01*
X38100003Y-47512751D01*
X38099997Y-47512751D01*
X37931943Y-47531685D01*
X37772305Y-47587545D01*
X37772302Y-47587547D01*
X37629115Y-47677518D01*
X37629109Y-47677523D01*
X37509523Y-47797109D01*
X37509518Y-47797115D01*
X37419547Y-47940302D01*
X37419545Y-47940305D01*
X37363685Y-48099943D01*
X37344751Y-48267997D01*
X37344751Y-48268002D01*
X30194303Y-48268002D01*
X30194827Y-48260000D01*
X30175537Y-47965687D01*
X30175535Y-47965675D01*
X30117998Y-47676415D01*
X30117994Y-47676400D01*
X30023187Y-47397111D01*
X29892741Y-47132593D01*
X29892734Y-47132580D01*
X29728875Y-46887348D01*
X29728872Y-46887344D01*
X29699593Y-46853959D01*
X29699592Y-46853959D01*
X28875788Y-47677763D01*
X28775106Y-47536376D01*
X28623068Y-47391408D01*
X28520777Y-47325669D01*
X29346039Y-46500406D01*
X29312648Y-46471122D01*
X29067419Y-46307265D01*
X29067406Y-46307258D01*
X28802888Y-46176812D01*
X28523599Y-46082005D01*
X28523584Y-46082001D01*
X28234324Y-46024464D01*
X28234312Y-46024462D01*
X27940000Y-46005172D01*
X27645687Y-46024462D01*
X27645675Y-46024464D01*
X27356415Y-46082001D01*
X27356400Y-46082005D01*
X27077111Y-46176812D01*
X26812593Y-46307258D01*
X26812580Y-46307265D01*
X26567350Y-46471123D01*
X26533958Y-46500406D01*
X27356693Y-47323140D01*
X27342590Y-47330411D01*
X27177460Y-47460271D01*
X27039890Y-47619035D01*
X27005334Y-47678886D01*
X26180406Y-46853958D01*
X26151123Y-46887350D01*
X25987265Y-47132580D01*
X25987258Y-47132593D01*
X25856812Y-47397111D01*
X25762005Y-47676400D01*
X25762001Y-47676415D01*
X25704464Y-47965675D01*
X25704462Y-47965687D01*
X25685172Y-48260000D01*
X25400549Y-48260000D01*
X25400500Y-48258259D01*
X25400500Y-45720002D01*
X29521551Y-45720002D01*
X29540485Y-45888056D01*
X29596345Y-46047694D01*
X29596347Y-46047697D01*
X29686318Y-46190884D01*
X29686323Y-46190890D01*
X29805909Y-46310476D01*
X29805915Y-46310481D01*
X29949102Y-46400452D01*
X29949105Y-46400454D01*
X29949109Y-46400455D01*
X29949110Y-46400456D01*
X30021713Y-46425860D01*
X30108743Y-46456314D01*
X30276797Y-46475249D01*
X30276800Y-46475249D01*
X30276803Y-46475249D01*
X30444856Y-46456314D01*
X30444859Y-46456313D01*
X30604490Y-46400456D01*
X30604492Y-46400454D01*
X30604494Y-46400454D01*
X30604497Y-46400452D01*
X30747684Y-46310481D01*
X30747685Y-46310480D01*
X30747690Y-46310477D01*
X30867277Y-46190890D01*
X30876123Y-46176812D01*
X30957252Y-46047697D01*
X30957254Y-46047694D01*
X30957254Y-46047692D01*
X30957256Y-46047690D01*
X31013113Y-45888059D01*
X31013113Y-45888058D01*
X31013114Y-45888056D01*
X31032049Y-45720002D01*
X44710751Y-45720002D01*
X44729685Y-45888056D01*
X44785545Y-46047694D01*
X44785547Y-46047697D01*
X44875518Y-46190884D01*
X44875523Y-46190890D01*
X44995109Y-46310476D01*
X44995115Y-46310481D01*
X45138302Y-46400452D01*
X45138305Y-46400454D01*
X45138309Y-46400455D01*
X45138310Y-46400456D01*
X45210913Y-46425860D01*
X45297943Y-46456314D01*
X45465997Y-46475249D01*
X45466000Y-46475249D01*
X45466003Y-46475249D01*
X45634056Y-46456314D01*
X45634059Y-46456313D01*
X45793690Y-46400456D01*
X45793692Y-46400454D01*
X45793694Y-46400454D01*
X45793697Y-46400452D01*
X45936884Y-46310481D01*
X45936885Y-46310480D01*
X45936890Y-46310477D01*
X46056477Y-46190890D01*
X46065323Y-46176812D01*
X46146452Y-46047697D01*
X46146454Y-46047694D01*
X46146454Y-46047692D01*
X46146456Y-46047690D01*
X46202313Y-45888059D01*
X46202313Y-45888058D01*
X46202314Y-45888056D01*
X46221249Y-45720002D01*
X46221249Y-45719997D01*
X46202314Y-45551943D01*
X46146454Y-45392305D01*
X46146452Y-45392302D01*
X46056481Y-45249115D01*
X46056476Y-45249109D01*
X45936890Y-45129523D01*
X45936884Y-45129518D01*
X45793697Y-45039547D01*
X45793694Y-45039545D01*
X45634056Y-44983685D01*
X45466003Y-44964751D01*
X45465997Y-44964751D01*
X45297943Y-44983685D01*
X45138305Y-45039545D01*
X45138302Y-45039547D01*
X44995115Y-45129518D01*
X44995109Y-45129523D01*
X44875523Y-45249109D01*
X44875518Y-45249115D01*
X44785547Y-45392302D01*
X44785545Y-45392305D01*
X44729685Y-45551943D01*
X44710751Y-45719997D01*
X44710751Y-45720002D01*
X31032049Y-45720002D01*
X31032049Y-45719997D01*
X31013114Y-45551943D01*
X30957254Y-45392305D01*
X30957252Y-45392302D01*
X30867281Y-45249115D01*
X30867276Y-45249109D01*
X30747690Y-45129523D01*
X30747684Y-45129518D01*
X30604497Y-45039547D01*
X30604494Y-45039545D01*
X30444856Y-44983685D01*
X30276803Y-44964751D01*
X30276797Y-44964751D01*
X30108743Y-44983685D01*
X29949105Y-45039545D01*
X29949102Y-45039547D01*
X29805915Y-45129518D01*
X29805909Y-45129523D01*
X29686323Y-45249109D01*
X29686318Y-45249115D01*
X29596347Y-45392302D01*
X29596345Y-45392305D01*
X29540485Y-45551943D01*
X29521551Y-45719997D01*
X29521551Y-45720002D01*
X25400500Y-45720002D01*
X25400500Y-44958002D01*
X39884751Y-44958002D01*
X39903685Y-45126056D01*
X39959545Y-45285694D01*
X39959547Y-45285697D01*
X40049518Y-45428884D01*
X40049523Y-45428890D01*
X40169109Y-45548476D01*
X40169115Y-45548481D01*
X40312302Y-45638452D01*
X40312305Y-45638454D01*
X40312309Y-45638455D01*
X40312310Y-45638456D01*
X40384913Y-45663860D01*
X40471943Y-45694314D01*
X40639997Y-45713249D01*
X40640000Y-45713249D01*
X40640003Y-45713249D01*
X40808056Y-45694314D01*
X40808059Y-45694313D01*
X40967690Y-45638456D01*
X40967692Y-45638454D01*
X40967694Y-45638454D01*
X40967697Y-45638452D01*
X41110884Y-45548481D01*
X41110885Y-45548480D01*
X41110890Y-45548477D01*
X41230477Y-45428890D01*
X41320452Y-45285697D01*
X41320454Y-45285694D01*
X41320454Y-45285692D01*
X41320456Y-45285690D01*
X41376313Y-45126059D01*
X41376313Y-45126058D01*
X41376314Y-45126056D01*
X41395249Y-44958002D01*
X41395249Y-44957997D01*
X41376314Y-44789943D01*
X41320454Y-44630305D01*
X41320452Y-44630302D01*
X41230481Y-44487115D01*
X41230476Y-44487109D01*
X41110890Y-44367523D01*
X41110884Y-44367518D01*
X40967697Y-44277547D01*
X40967694Y-44277545D01*
X40808056Y-44221685D01*
X40640003Y-44202751D01*
X40639997Y-44202751D01*
X40471943Y-44221685D01*
X40312305Y-44277545D01*
X40312302Y-44277547D01*
X40169115Y-44367518D01*
X40169109Y-44367523D01*
X40049523Y-44487109D01*
X40049518Y-44487115D01*
X39959547Y-44630302D01*
X39959545Y-44630305D01*
X39903685Y-44789943D01*
X39884751Y-44957997D01*
X39884751Y-44958002D01*
X25400500Y-44958002D01*
X25400500Y-36322002D01*
X29572351Y-36322002D01*
X29591285Y-36490056D01*
X29647145Y-36649694D01*
X29647147Y-36649697D01*
X29737118Y-36792884D01*
X29737123Y-36792890D01*
X29856709Y-36912476D01*
X29856715Y-36912481D01*
X29999902Y-37002452D01*
X29999910Y-37002456D01*
X30037206Y-37015506D01*
X30093982Y-37056227D01*
X30119731Y-37121179D01*
X30106276Y-37189741D01*
X30062228Y-37237540D01*
X30033611Y-37255522D01*
X30033609Y-37255523D01*
X29914023Y-37375109D01*
X29914018Y-37375115D01*
X29824047Y-37518302D01*
X29824045Y-37518305D01*
X29768185Y-37677943D01*
X29749251Y-37845997D01*
X29749251Y-37846002D01*
X29768185Y-38014056D01*
X29824045Y-38173694D01*
X29824047Y-38173697D01*
X29914018Y-38316884D01*
X29914023Y-38316890D01*
X30033609Y-38436476D01*
X30033615Y-38436481D01*
X30176802Y-38526452D01*
X30176805Y-38526454D01*
X30176809Y-38526455D01*
X30176810Y-38526456D01*
X30249413Y-38551860D01*
X30336443Y-38582314D01*
X30504497Y-38601249D01*
X30504500Y-38601249D01*
X30504503Y-38601249D01*
X30672556Y-38582314D01*
X30672559Y-38582313D01*
X30832190Y-38526456D01*
X30832192Y-38526454D01*
X30832194Y-38526454D01*
X30832197Y-38526452D01*
X30975384Y-38436481D01*
X30975385Y-38436480D01*
X30975390Y-38436477D01*
X31094977Y-38316890D01*
X31184952Y-38173697D01*
X31184954Y-38173694D01*
X31184954Y-38173692D01*
X31184956Y-38173690D01*
X31240813Y-38014059D01*
X31240813Y-38014058D01*
X31240814Y-38014056D01*
X31259749Y-37846002D01*
X31259749Y-37845997D01*
X31240814Y-37677943D01*
X31184954Y-37518305D01*
X31184952Y-37518302D01*
X31094981Y-37375115D01*
X31094976Y-37375109D01*
X30975390Y-37255523D01*
X30975384Y-37255518D01*
X30832197Y-37165547D01*
X30832191Y-37165544D01*
X30794892Y-37152493D01*
X30738116Y-37111771D01*
X30712368Y-37046819D01*
X30725824Y-36978257D01*
X30769875Y-36930457D01*
X30798487Y-36912479D01*
X30798487Y-36912478D01*
X30798490Y-36912477D01*
X30918077Y-36792890D01*
X31008052Y-36649697D01*
X31008054Y-36649694D01*
X31008054Y-36649692D01*
X31008056Y-36649690D01*
X31048758Y-36533368D01*
X31089480Y-36476593D01*
X31154433Y-36450846D01*
X31222994Y-36464302D01*
X31273397Y-36512689D01*
X31282842Y-36533369D01*
X31323545Y-36649694D01*
X31323547Y-36649697D01*
X31413518Y-36792884D01*
X31413523Y-36792890D01*
X31533109Y-36912476D01*
X31533115Y-36912481D01*
X31676302Y-37002452D01*
X31676305Y-37002454D01*
X31676309Y-37002455D01*
X31676310Y-37002456D01*
X31713605Y-37015506D01*
X31835943Y-37058314D01*
X32003997Y-37077249D01*
X32004000Y-37077249D01*
X32004003Y-37077249D01*
X32172056Y-37058314D01*
X32178020Y-37056227D01*
X32331690Y-37002456D01*
X32331692Y-37002454D01*
X32331694Y-37002454D01*
X32331697Y-37002452D01*
X32474884Y-36912481D01*
X32474885Y-36912480D01*
X32474890Y-36912477D01*
X32594477Y-36792890D01*
X32684452Y-36649697D01*
X32684454Y-36649694D01*
X32684454Y-36649692D01*
X32684456Y-36649690D01*
X32710240Y-36576002D01*
X33483951Y-36576002D01*
X33502885Y-36744056D01*
X33558745Y-36903694D01*
X33558747Y-36903697D01*
X33648718Y-37046884D01*
X33648723Y-37046890D01*
X33768309Y-37166476D01*
X33768315Y-37166481D01*
X33911502Y-37256452D01*
X33911505Y-37256454D01*
X33911509Y-37256455D01*
X33911510Y-37256456D01*
X33917632Y-37258598D01*
X34071143Y-37312314D01*
X34239197Y-37331249D01*
X34239200Y-37331249D01*
X34239203Y-37331249D01*
X34407256Y-37312314D01*
X34447280Y-37298309D01*
X34566890Y-37256456D01*
X34566892Y-37256454D01*
X34566894Y-37256454D01*
X34566897Y-37256452D01*
X34710084Y-37166481D01*
X34710085Y-37166480D01*
X34710090Y-37166477D01*
X34829677Y-37046890D01*
X34849397Y-37015506D01*
X34919652Y-36903697D01*
X34919654Y-36903694D01*
X34919654Y-36903692D01*
X34919656Y-36903690D01*
X34975513Y-36744059D01*
X34975513Y-36744058D01*
X34975514Y-36744056D01*
X34994449Y-36576002D01*
X40900751Y-36576002D01*
X40919685Y-36744056D01*
X40975545Y-36903694D01*
X40975547Y-36903697D01*
X41065518Y-37046884D01*
X41065523Y-37046890D01*
X41185110Y-37166477D01*
X41201730Y-37176920D01*
X41248020Y-37229256D01*
X41258667Y-37298309D01*
X41230291Y-37362157D01*
X41223441Y-37369590D01*
X41217927Y-37375104D01*
X41217920Y-37375112D01*
X41127947Y-37518302D01*
X41127945Y-37518305D01*
X41072085Y-37677943D01*
X41053151Y-37845997D01*
X41053151Y-37846002D01*
X41072085Y-38014056D01*
X41127945Y-38173694D01*
X41127947Y-38173697D01*
X41217918Y-38316884D01*
X41217923Y-38316890D01*
X41337509Y-38436476D01*
X41337515Y-38436481D01*
X41480702Y-38526452D01*
X41480705Y-38526454D01*
X41480709Y-38526455D01*
X41480710Y-38526456D01*
X41553313Y-38551860D01*
X41640343Y-38582314D01*
X41808397Y-38601249D01*
X41808400Y-38601249D01*
X41808403Y-38601249D01*
X41976456Y-38582314D01*
X41976459Y-38582313D01*
X42136090Y-38526456D01*
X42136092Y-38526454D01*
X42136094Y-38526454D01*
X42136097Y-38526452D01*
X42279284Y-38436481D01*
X42279285Y-38436480D01*
X42279290Y-38436477D01*
X42398877Y-38316890D01*
X42488852Y-38173697D01*
X42488854Y-38173694D01*
X42488854Y-38173692D01*
X42488856Y-38173690D01*
X42544713Y-38014059D01*
X42544713Y-38014058D01*
X42544714Y-38014056D01*
X42563649Y-37846002D01*
X43186751Y-37846002D01*
X43205685Y-38014056D01*
X43261545Y-38173694D01*
X43261547Y-38173697D01*
X43351518Y-38316884D01*
X43351523Y-38316890D01*
X43471109Y-38436476D01*
X43471115Y-38436481D01*
X43614302Y-38526452D01*
X43614305Y-38526454D01*
X43614309Y-38526455D01*
X43614310Y-38526456D01*
X43686913Y-38551860D01*
X43773943Y-38582314D01*
X43941997Y-38601249D01*
X43942000Y-38601249D01*
X43942003Y-38601249D01*
X44110056Y-38582314D01*
X44110059Y-38582313D01*
X44269690Y-38526456D01*
X44269692Y-38526454D01*
X44269694Y-38526454D01*
X44269697Y-38526452D01*
X44412884Y-38436481D01*
X44412885Y-38436480D01*
X44412890Y-38436477D01*
X44532477Y-38316890D01*
X44620072Y-38177483D01*
X44672407Y-38131193D01*
X44741461Y-38120545D01*
X44805309Y-38148920D01*
X44830060Y-38177484D01*
X44900023Y-38288829D01*
X45019609Y-38408415D01*
X45019615Y-38408420D01*
X45162802Y-38498391D01*
X45162805Y-38498393D01*
X45162809Y-38498394D01*
X45162810Y-38498395D01*
X45235413Y-38523799D01*
X45322443Y-38554253D01*
X45490497Y-38573188D01*
X45490500Y-38573188D01*
X45490503Y-38573188D01*
X45658556Y-38554253D01*
X45658559Y-38554252D01*
X45818190Y-38498395D01*
X45818192Y-38498393D01*
X45818194Y-38498393D01*
X45818197Y-38498391D01*
X45961384Y-38408420D01*
X45961385Y-38408419D01*
X45961390Y-38408416D01*
X46080977Y-38288829D01*
X46153320Y-38173697D01*
X46170952Y-38145636D01*
X46170954Y-38145633D01*
X46170954Y-38145631D01*
X46170956Y-38145629D01*
X46226813Y-37985998D01*
X46226813Y-37985997D01*
X46226814Y-37985995D01*
X46245749Y-37817941D01*
X46245749Y-37817936D01*
X46226814Y-37649882D01*
X46180772Y-37518302D01*
X46170956Y-37490249D01*
X46170955Y-37490248D01*
X46170954Y-37490244D01*
X46170952Y-37490241D01*
X46080981Y-37347054D01*
X46080976Y-37347048D01*
X45961390Y-37227462D01*
X45961384Y-37227457D01*
X45818197Y-37137486D01*
X45818194Y-37137484D01*
X45658556Y-37081624D01*
X45490503Y-37062690D01*
X45490497Y-37062690D01*
X45322443Y-37081624D01*
X45162805Y-37137484D01*
X45162802Y-37137486D01*
X45019615Y-37227457D01*
X45019609Y-37227462D01*
X44900023Y-37347048D01*
X44900021Y-37347051D01*
X44812426Y-37486455D01*
X44760091Y-37532746D01*
X44691037Y-37543393D01*
X44627189Y-37515017D01*
X44602439Y-37486454D01*
X44532476Y-37375109D01*
X44412890Y-37255523D01*
X44384270Y-37237540D01*
X44307009Y-37188993D01*
X44260719Y-37136659D01*
X44250071Y-37067605D01*
X44278446Y-37003757D01*
X44307010Y-36979006D01*
X44308202Y-36978257D01*
X44412890Y-36912477D01*
X44532477Y-36792890D01*
X44622452Y-36649697D01*
X44622454Y-36649694D01*
X44622454Y-36649692D01*
X44622456Y-36649690D01*
X44678313Y-36490059D01*
X44678313Y-36490058D01*
X44678314Y-36490056D01*
X44697249Y-36322002D01*
X44697249Y-36321997D01*
X44678314Y-36153943D01*
X44647860Y-36066913D01*
X44622456Y-35994310D01*
X44622455Y-35994309D01*
X44622454Y-35994305D01*
X44622452Y-35994302D01*
X44532481Y-35851115D01*
X44532476Y-35851109D01*
X44412890Y-35731523D01*
X44412884Y-35731518D01*
X44269697Y-35641547D01*
X44269694Y-35641545D01*
X44110056Y-35585685D01*
X43942003Y-35566751D01*
X43941997Y-35566751D01*
X43773943Y-35585685D01*
X43614305Y-35641545D01*
X43614302Y-35641547D01*
X43471115Y-35731518D01*
X43471109Y-35731523D01*
X43351523Y-35851109D01*
X43351518Y-35851115D01*
X43261547Y-35994302D01*
X43261545Y-35994305D01*
X43205685Y-36153943D01*
X43186751Y-36321997D01*
X43186751Y-36322002D01*
X43205685Y-36490056D01*
X43261545Y-36649694D01*
X43261547Y-36649697D01*
X43351518Y-36792884D01*
X43351523Y-36792890D01*
X43471111Y-36912478D01*
X43576990Y-36979007D01*
X43623280Y-37031342D01*
X43633928Y-37100395D01*
X43605553Y-37164243D01*
X43576990Y-37188993D01*
X43471111Y-37255521D01*
X43351523Y-37375109D01*
X43351518Y-37375115D01*
X43261547Y-37518302D01*
X43261545Y-37518305D01*
X43205685Y-37677943D01*
X43186751Y-37845997D01*
X43186751Y-37846002D01*
X42563649Y-37846002D01*
X42563649Y-37845997D01*
X42544714Y-37677943D01*
X42488854Y-37518305D01*
X42488852Y-37518302D01*
X42398881Y-37375115D01*
X42398876Y-37375109D01*
X42279290Y-37255523D01*
X42279288Y-37255522D01*
X42279286Y-37255521D01*
X42274582Y-37252564D01*
X42262668Y-37245078D01*
X42216378Y-37192742D01*
X42205732Y-37123688D01*
X42234109Y-37059841D01*
X42240966Y-37052401D01*
X42246477Y-37046890D01*
X42246522Y-37046819D01*
X42336456Y-36903690D01*
X42392313Y-36744059D01*
X42392313Y-36744058D01*
X42392314Y-36744056D01*
X42411249Y-36576002D01*
X42411249Y-36575997D01*
X42392314Y-36407943D01*
X42336454Y-36248305D01*
X42336452Y-36248302D01*
X42246481Y-36105115D01*
X42246476Y-36105109D01*
X42240961Y-36099594D01*
X42207476Y-36038271D01*
X42212460Y-35968579D01*
X42254332Y-35912646D01*
X42262657Y-35906927D01*
X42279290Y-35896477D01*
X42398877Y-35776890D01*
X42427383Y-35731523D01*
X42488852Y-35633697D01*
X42488854Y-35633694D01*
X42488854Y-35633692D01*
X42488856Y-35633690D01*
X42544713Y-35474059D01*
X42544713Y-35474058D01*
X42544714Y-35474056D01*
X42563649Y-35306002D01*
X42563649Y-35305997D01*
X42544714Y-35137943D01*
X42488854Y-34978305D01*
X42488852Y-34978302D01*
X42398881Y-34835115D01*
X42398876Y-34835109D01*
X42279290Y-34715523D01*
X42279284Y-34715518D01*
X42136097Y-34625547D01*
X42136094Y-34625545D01*
X41976456Y-34569685D01*
X41808403Y-34550751D01*
X41808397Y-34550751D01*
X41640343Y-34569685D01*
X41480705Y-34625545D01*
X41480702Y-34625547D01*
X41337515Y-34715518D01*
X41337509Y-34715523D01*
X41217923Y-34835109D01*
X41217918Y-34835115D01*
X41127947Y-34978302D01*
X41127945Y-34978305D01*
X41072085Y-35137943D01*
X41053151Y-35305997D01*
X41053151Y-35306002D01*
X41072085Y-35474056D01*
X41127945Y-35633694D01*
X41127947Y-35633697D01*
X41217918Y-35776884D01*
X41217923Y-35776890D01*
X41223438Y-35782405D01*
X41256923Y-35843728D01*
X41251939Y-35913420D01*
X41210067Y-35969353D01*
X41201732Y-35975078D01*
X41185111Y-35985522D01*
X41185109Y-35985523D01*
X41065523Y-36105109D01*
X41065518Y-36105115D01*
X40975547Y-36248302D01*
X40975545Y-36248305D01*
X40919685Y-36407943D01*
X40900751Y-36575997D01*
X40900751Y-36576002D01*
X34994449Y-36576002D01*
X34994449Y-36575997D01*
X34975514Y-36407943D01*
X34919654Y-36248305D01*
X34919652Y-36248302D01*
X34829681Y-36105115D01*
X34829676Y-36105109D01*
X34753248Y-36028681D01*
X34719763Y-35967358D01*
X34724747Y-35897666D01*
X34753248Y-35853319D01*
X34762839Y-35843728D01*
X34829677Y-35776890D01*
X34858183Y-35731523D01*
X34919652Y-35633697D01*
X34919654Y-35633694D01*
X34919654Y-35633692D01*
X34919656Y-35633690D01*
X34975513Y-35474059D01*
X34975513Y-35474058D01*
X34975514Y-35474056D01*
X34994449Y-35306002D01*
X34994449Y-35305997D01*
X34975514Y-35137943D01*
X34919654Y-34978305D01*
X34919652Y-34978302D01*
X34829681Y-34835115D01*
X34829676Y-34835109D01*
X34753248Y-34758681D01*
X34719763Y-34697358D01*
X34724747Y-34627666D01*
X34753248Y-34583319D01*
X34785816Y-34550751D01*
X34829677Y-34506890D01*
X34919652Y-34363697D01*
X34919654Y-34363694D01*
X34919654Y-34363692D01*
X34919656Y-34363690D01*
X34975513Y-34204059D01*
X34975513Y-34204058D01*
X34975514Y-34204056D01*
X34994449Y-34036002D01*
X34994449Y-34035997D01*
X34975514Y-33867943D01*
X34919654Y-33708305D01*
X34919652Y-33708302D01*
X34829681Y-33565115D01*
X34829676Y-33565109D01*
X34710090Y-33445523D01*
X34710084Y-33445518D01*
X34566897Y-33355547D01*
X34566894Y-33355545D01*
X34407256Y-33299685D01*
X34239203Y-33280751D01*
X34239197Y-33280751D01*
X34071143Y-33299685D01*
X33911505Y-33355545D01*
X33911502Y-33355547D01*
X33768315Y-33445518D01*
X33768309Y-33445523D01*
X33648723Y-33565109D01*
X33648718Y-33565115D01*
X33558747Y-33708302D01*
X33558745Y-33708305D01*
X33502885Y-33867943D01*
X33483951Y-34035997D01*
X33483951Y-34036002D01*
X33502885Y-34204056D01*
X33558745Y-34363694D01*
X33558747Y-34363697D01*
X33648718Y-34506884D01*
X33648723Y-34506890D01*
X33725152Y-34583319D01*
X33758637Y-34644642D01*
X33753653Y-34714334D01*
X33725152Y-34758681D01*
X33648723Y-34835109D01*
X33648718Y-34835115D01*
X33558747Y-34978302D01*
X33558745Y-34978305D01*
X33502885Y-35137943D01*
X33483951Y-35305997D01*
X33483951Y-35306002D01*
X33502885Y-35474056D01*
X33558745Y-35633694D01*
X33558747Y-35633697D01*
X33648718Y-35776884D01*
X33648723Y-35776890D01*
X33725152Y-35853319D01*
X33758637Y-35914642D01*
X33753653Y-35984334D01*
X33725152Y-36028681D01*
X33648723Y-36105109D01*
X33648718Y-36105115D01*
X33558747Y-36248302D01*
X33558745Y-36248305D01*
X33502885Y-36407943D01*
X33483951Y-36575997D01*
X33483951Y-36576002D01*
X32710240Y-36576002D01*
X32740313Y-36490059D01*
X32740313Y-36490058D01*
X32740314Y-36490056D01*
X32759249Y-36322002D01*
X32759249Y-36321997D01*
X32740314Y-36153943D01*
X32709860Y-36066913D01*
X32684456Y-35994310D01*
X32684455Y-35994309D01*
X32684454Y-35994305D01*
X32684452Y-35994302D01*
X32594481Y-35851115D01*
X32594476Y-35851109D01*
X32474890Y-35731523D01*
X32369010Y-35664994D01*
X32322719Y-35612659D01*
X32312071Y-35543605D01*
X32340446Y-35479757D01*
X32369010Y-35455006D01*
X32474890Y-35388477D01*
X32594477Y-35268890D01*
X32676757Y-35137943D01*
X32684452Y-35125697D01*
X32684454Y-35125694D01*
X32684454Y-35125692D01*
X32684456Y-35125690D01*
X32740313Y-34966059D01*
X32740313Y-34966058D01*
X32740314Y-34966056D01*
X32759249Y-34798002D01*
X32759249Y-34797997D01*
X32740314Y-34629943D01*
X32684454Y-34470305D01*
X32684452Y-34470302D01*
X32594481Y-34327115D01*
X32594476Y-34327109D01*
X32474890Y-34207523D01*
X32474884Y-34207518D01*
X32331697Y-34117547D01*
X32331694Y-34117545D01*
X32172056Y-34061685D01*
X32004003Y-34042751D01*
X32003997Y-34042751D01*
X31835943Y-34061685D01*
X31676305Y-34117545D01*
X31676302Y-34117547D01*
X31533115Y-34207518D01*
X31533109Y-34207523D01*
X31413523Y-34327109D01*
X31413518Y-34327115D01*
X31323547Y-34470302D01*
X31323545Y-34470305D01*
X31267685Y-34629943D01*
X31248751Y-34797997D01*
X31248751Y-34798002D01*
X31267685Y-34966056D01*
X31323545Y-35125694D01*
X31323547Y-35125697D01*
X31413518Y-35268884D01*
X31413523Y-35268890D01*
X31533111Y-35388478D01*
X31638990Y-35455007D01*
X31685280Y-35507342D01*
X31695928Y-35576395D01*
X31667553Y-35640243D01*
X31638990Y-35664993D01*
X31533111Y-35731521D01*
X31413523Y-35851109D01*
X31413518Y-35851115D01*
X31323547Y-35994302D01*
X31323542Y-35994313D01*
X31282841Y-36110630D01*
X31242120Y-36167406D01*
X31177167Y-36193153D01*
X31108605Y-36179697D01*
X31058203Y-36131309D01*
X31048759Y-36110630D01*
X31008057Y-35994313D01*
X31008052Y-35994302D01*
X30918081Y-35851115D01*
X30918076Y-35851109D01*
X30798490Y-35731523D01*
X30798484Y-35731518D01*
X30655297Y-35641547D01*
X30655294Y-35641545D01*
X30495656Y-35585685D01*
X30327603Y-35566751D01*
X30327597Y-35566751D01*
X30159543Y-35585685D01*
X29999905Y-35641545D01*
X29999902Y-35641547D01*
X29856715Y-35731518D01*
X29856709Y-35731523D01*
X29737123Y-35851109D01*
X29737118Y-35851115D01*
X29647147Y-35994302D01*
X29647145Y-35994305D01*
X29591285Y-36153943D01*
X29572351Y-36321997D01*
X29572351Y-36322002D01*
X25400500Y-36322002D01*
X25400500Y-33274002D01*
X43186751Y-33274002D01*
X43205685Y-33442056D01*
X43261545Y-33601694D01*
X43261547Y-33601697D01*
X43351518Y-33744884D01*
X43351523Y-33744890D01*
X43471109Y-33864476D01*
X43471115Y-33864481D01*
X43614302Y-33954452D01*
X43614305Y-33954454D01*
X43614309Y-33954455D01*
X43614310Y-33954456D01*
X43686913Y-33979860D01*
X43773943Y-34010314D01*
X43941997Y-34029249D01*
X43942000Y-34029249D01*
X43942003Y-34029249D01*
X44110056Y-34010314D01*
X44110059Y-34010313D01*
X44269690Y-33954456D01*
X44269692Y-33954454D01*
X44269694Y-33954454D01*
X44269697Y-33954452D01*
X44412884Y-33864481D01*
X44412885Y-33864480D01*
X44412890Y-33864477D01*
X44532477Y-33744890D01*
X44563425Y-33695637D01*
X44626162Y-33595794D01*
X44628620Y-33597338D01*
X44666659Y-33555135D01*
X44734070Y-33536764D01*
X44800712Y-33557754D01*
X44836641Y-33594767D01*
X44900021Y-33695635D01*
X45019609Y-33815223D01*
X45019615Y-33815228D01*
X45162802Y-33905199D01*
X45162805Y-33905201D01*
X45162809Y-33905202D01*
X45162810Y-33905203D01*
X45235413Y-33930607D01*
X45322443Y-33961061D01*
X45490497Y-33979996D01*
X45490500Y-33979996D01*
X45490503Y-33979996D01*
X45658556Y-33961061D01*
X45677438Y-33954454D01*
X45818190Y-33905203D01*
X45818192Y-33905201D01*
X45818194Y-33905201D01*
X45818197Y-33905199D01*
X45961384Y-33815228D01*
X45961385Y-33815227D01*
X45961390Y-33815224D01*
X46080977Y-33695637D01*
X46143713Y-33595794D01*
X46170952Y-33552444D01*
X46170954Y-33552441D01*
X46170954Y-33552439D01*
X46170956Y-33552437D01*
X46226813Y-33392806D01*
X46226813Y-33392805D01*
X46226814Y-33392803D01*
X46245749Y-33224749D01*
X46245749Y-33224744D01*
X46226814Y-33056690D01*
X46188190Y-32946310D01*
X46170956Y-32897057D01*
X46170955Y-32897056D01*
X46170954Y-32897052D01*
X46170952Y-32897049D01*
X46080981Y-32753862D01*
X46080976Y-32753856D01*
X45961390Y-32634270D01*
X45961384Y-32634265D01*
X45818197Y-32544294D01*
X45818194Y-32544292D01*
X45658556Y-32488432D01*
X45490503Y-32469498D01*
X45490497Y-32469498D01*
X45322443Y-32488432D01*
X45162805Y-32544292D01*
X45162802Y-32544294D01*
X45019615Y-32634265D01*
X45019609Y-32634270D01*
X44900023Y-32753856D01*
X44900018Y-32753862D01*
X44806338Y-32902953D01*
X44803900Y-32901421D01*
X44765716Y-32943687D01*
X44698284Y-32961979D01*
X44631666Y-32940911D01*
X44595858Y-32903978D01*
X44532481Y-32803115D01*
X44532476Y-32803109D01*
X44412890Y-32683523D01*
X44412884Y-32683518D01*
X44269697Y-32593547D01*
X44269694Y-32593545D01*
X44110056Y-32537685D01*
X43942003Y-32518751D01*
X43941997Y-32518751D01*
X43773943Y-32537685D01*
X43614305Y-32593545D01*
X43614302Y-32593547D01*
X43471115Y-32683518D01*
X43471109Y-32683523D01*
X43351523Y-32803109D01*
X43351518Y-32803115D01*
X43261547Y-32946302D01*
X43261545Y-32946305D01*
X43205685Y-33105943D01*
X43186751Y-33273997D01*
X43186751Y-33274002D01*
X25400500Y-33274002D01*
X25400500Y-30988002D01*
X28911951Y-30988002D01*
X28930885Y-31156056D01*
X28986745Y-31315694D01*
X28986747Y-31315697D01*
X29076718Y-31458884D01*
X29076723Y-31458890D01*
X29196309Y-31578476D01*
X29196315Y-31578481D01*
X29339502Y-31668452D01*
X29339505Y-31668454D01*
X29339509Y-31668455D01*
X29339510Y-31668456D01*
X29412113Y-31693860D01*
X29499143Y-31724314D01*
X29667197Y-31743249D01*
X29667200Y-31743249D01*
X29667203Y-31743249D01*
X29835256Y-31724314D01*
X29835259Y-31724313D01*
X29994890Y-31668456D01*
X29994892Y-31668454D01*
X29994894Y-31668454D01*
X29994897Y-31668452D01*
X30138084Y-31578481D01*
X30138085Y-31578480D01*
X30138090Y-31578477D01*
X30257677Y-31458890D01*
X30314339Y-31368714D01*
X30347652Y-31315697D01*
X30347654Y-31315694D01*
X30347654Y-31315692D01*
X30347656Y-31315690D01*
X30403513Y-31156059D01*
X30403513Y-31156058D01*
X30403514Y-31156056D01*
X30422449Y-30988002D01*
X30422449Y-30987997D01*
X30403514Y-30819943D01*
X30347654Y-30660305D01*
X30347652Y-30660302D01*
X30257681Y-30517115D01*
X30257676Y-30517109D01*
X30138090Y-30397523D01*
X30138084Y-30397518D01*
X29994897Y-30307547D01*
X29994894Y-30307545D01*
X29835256Y-30251685D01*
X29667203Y-30232751D01*
X29667197Y-30232751D01*
X29499143Y-30251685D01*
X29339505Y-30307545D01*
X29339502Y-30307547D01*
X29196315Y-30397518D01*
X29196309Y-30397523D01*
X29076723Y-30517109D01*
X29076718Y-30517115D01*
X28986747Y-30660302D01*
X28986745Y-30660305D01*
X28930885Y-30819943D01*
X28911951Y-30987997D01*
X28911951Y-30988002D01*
X25400500Y-30988002D01*
X25400500Y-29972002D01*
X33788751Y-29972002D01*
X33807685Y-30140056D01*
X33863545Y-30299694D01*
X33863547Y-30299697D01*
X33953518Y-30442884D01*
X33953523Y-30442890D01*
X34073109Y-30562476D01*
X34073115Y-30562481D01*
X34216302Y-30652452D01*
X34216305Y-30652454D01*
X34216309Y-30652455D01*
X34216310Y-30652456D01*
X34238756Y-30660310D01*
X34375943Y-30708314D01*
X34543997Y-30727249D01*
X34544000Y-30727249D01*
X34544003Y-30727249D01*
X34712056Y-30708314D01*
X34717037Y-30706571D01*
X34871690Y-30652456D01*
X34871692Y-30652454D01*
X34871694Y-30652454D01*
X34871697Y-30652452D01*
X35014884Y-30562481D01*
X35014888Y-30562478D01*
X35014890Y-30562477D01*
X35134477Y-30442890D01*
X35162983Y-30397523D01*
X35174639Y-30378973D01*
X35763145Y-30378973D01*
X35763145Y-30576817D01*
X35769546Y-30636345D01*
X35769548Y-30636352D01*
X35819790Y-30771059D01*
X35819794Y-30771066D01*
X35905954Y-30886160D01*
X35905957Y-30886163D01*
X36021051Y-30972323D01*
X36021058Y-30972327D01*
X36155765Y-31022569D01*
X36155772Y-31022571D01*
X36215300Y-31028972D01*
X36215317Y-31028973D01*
X36288152Y-31028973D01*
X36288152Y-30378973D01*
X35763145Y-30378973D01*
X35174639Y-30378973D01*
X35224452Y-30299697D01*
X35224454Y-30299694D01*
X35224454Y-30299692D01*
X35224456Y-30299690D01*
X35280313Y-30140059D01*
X35280313Y-30140058D01*
X35280314Y-30140056D01*
X35299249Y-29972002D01*
X35299249Y-29971997D01*
X35280314Y-29803943D01*
X35241740Y-29693704D01*
X35224456Y-29644310D01*
X35224455Y-29644309D01*
X35224454Y-29644305D01*
X35224452Y-29644302D01*
X35134481Y-29501115D01*
X35134476Y-29501109D01*
X35014890Y-29381523D01*
X35014884Y-29381518D01*
X34871697Y-29291547D01*
X34871694Y-29291545D01*
X34744098Y-29246897D01*
X35762645Y-29246897D01*
X35762646Y-29246903D01*
X35769053Y-29306510D01*
X35811898Y-29421382D01*
X35816882Y-29491074D01*
X35811898Y-29508048D01*
X35769548Y-29621593D01*
X35769546Y-29621600D01*
X35763145Y-29681128D01*
X35763145Y-29878973D01*
X36438747Y-29878973D01*
X36505786Y-29898658D01*
X36551541Y-29951462D01*
X36562747Y-30002973D01*
X36562747Y-30576843D01*
X36562748Y-30576849D01*
X36569155Y-30636456D01*
X36584323Y-30677123D01*
X36591361Y-30706571D01*
X36601939Y-30800453D01*
X36657798Y-30960092D01*
X36657801Y-30960097D01*
X36747772Y-31103284D01*
X36747777Y-31103290D01*
X36867363Y-31222876D01*
X36867369Y-31222881D01*
X37010556Y-31312852D01*
X37010559Y-31312854D01*
X37010563Y-31312855D01*
X37010564Y-31312856D01*
X37083167Y-31338260D01*
X37170197Y-31368714D01*
X37338251Y-31387649D01*
X37338254Y-31387649D01*
X37338257Y-31387649D01*
X37506310Y-31368714D01*
X37506313Y-31368713D01*
X37665944Y-31312856D01*
X37665946Y-31312854D01*
X37665948Y-31312854D01*
X37665951Y-31312852D01*
X37809138Y-31222881D01*
X37809139Y-31222880D01*
X37809144Y-31222877D01*
X37928731Y-31103290D01*
X37975428Y-31028973D01*
X38018706Y-30960097D01*
X38018707Y-30960093D01*
X38018710Y-30960090D01*
X38027412Y-30935221D01*
X38068133Y-30878444D01*
X38133085Y-30852696D01*
X38201647Y-30866152D01*
X38222349Y-30881322D01*
X38222705Y-30880848D01*
X38344899Y-30972323D01*
X38344906Y-30972327D01*
X38479613Y-31022569D01*
X38479620Y-31022571D01*
X38539148Y-31028972D01*
X38539165Y-31028973D01*
X38612000Y-31028973D01*
X38612000Y-30002973D01*
X38631685Y-29935934D01*
X38684489Y-29890179D01*
X38736000Y-29878973D01*
X38762595Y-29878973D01*
X38829634Y-29898658D01*
X38875389Y-29951462D01*
X38886595Y-30002973D01*
X38886595Y-30576843D01*
X38886596Y-30576849D01*
X38893003Y-30636456D01*
X38943297Y-30771301D01*
X38943298Y-30771302D01*
X38943299Y-30771304D01*
X39029547Y-30886516D01*
X39029546Y-30886516D01*
X39029547Y-30886517D01*
X39029549Y-30886519D01*
X39062313Y-30911046D01*
X39104181Y-30966975D01*
X39112000Y-31010310D01*
X39112000Y-31028973D01*
X39184835Y-31028973D01*
X39184849Y-31028972D01*
X39246447Y-31022349D01*
X39272959Y-31022348D01*
X39279608Y-31023062D01*
X39279612Y-31023064D01*
X39339222Y-31029473D01*
X39984981Y-31029472D01*
X40044592Y-31023064D01*
X40138598Y-30988002D01*
X45523551Y-30988002D01*
X45542485Y-31156056D01*
X45598345Y-31315694D01*
X45598347Y-31315697D01*
X45688318Y-31458884D01*
X45688323Y-31458890D01*
X45807909Y-31578476D01*
X45807915Y-31578481D01*
X45951102Y-31668452D01*
X45951105Y-31668454D01*
X45951109Y-31668455D01*
X45951110Y-31668456D01*
X46023713Y-31693860D01*
X46110743Y-31724314D01*
X46278797Y-31743249D01*
X46278800Y-31743249D01*
X46278803Y-31743249D01*
X46446856Y-31724314D01*
X46446859Y-31724313D01*
X46606490Y-31668456D01*
X46606492Y-31668454D01*
X46606494Y-31668454D01*
X46606497Y-31668452D01*
X46749684Y-31578481D01*
X46749685Y-31578480D01*
X46749690Y-31578477D01*
X46869277Y-31458890D01*
X46925939Y-31368714D01*
X46959252Y-31315697D01*
X46959254Y-31315694D01*
X46959254Y-31315692D01*
X46959256Y-31315690D01*
X47015113Y-31156059D01*
X47015113Y-31156058D01*
X47015114Y-31156056D01*
X47034049Y-30988002D01*
X47034049Y-30987997D01*
X47015114Y-30819943D01*
X46959254Y-30660305D01*
X46959252Y-30660302D01*
X46869281Y-30517115D01*
X46869276Y-30517109D01*
X46749690Y-30397523D01*
X46749684Y-30397518D01*
X46606497Y-30307547D01*
X46606494Y-30307545D01*
X46446856Y-30251685D01*
X46278803Y-30232751D01*
X46278797Y-30232751D01*
X46110743Y-30251685D01*
X45951105Y-30307545D01*
X45951102Y-30307547D01*
X45807915Y-30397518D01*
X45807909Y-30397523D01*
X45688323Y-30517109D01*
X45688318Y-30517115D01*
X45598347Y-30660302D01*
X45598345Y-30660305D01*
X45542485Y-30819943D01*
X45523551Y-30987997D01*
X45523551Y-30988002D01*
X40138598Y-30988002D01*
X40179440Y-30972769D01*
X40294655Y-30886519D01*
X40380905Y-30771304D01*
X40415565Y-30678371D01*
X40457435Y-30622439D01*
X40465766Y-30616717D01*
X40552090Y-30562477D01*
X40671677Y-30442890D01*
X40671681Y-30442884D01*
X40763607Y-30296587D01*
X40815941Y-30250296D01*
X40884995Y-30239648D01*
X40948843Y-30268023D01*
X40973593Y-30296587D01*
X41065518Y-30442884D01*
X41065523Y-30442890D01*
X41185109Y-30562476D01*
X41185115Y-30562481D01*
X41328302Y-30652452D01*
X41328305Y-30652454D01*
X41328309Y-30652455D01*
X41328310Y-30652456D01*
X41350756Y-30660310D01*
X41487943Y-30708314D01*
X41655997Y-30727249D01*
X41656000Y-30727249D01*
X41656003Y-30727249D01*
X41824056Y-30708314D01*
X41829037Y-30706571D01*
X41983690Y-30652456D01*
X41983692Y-30652454D01*
X41983694Y-30652454D01*
X41983697Y-30652452D01*
X42126884Y-30562481D01*
X42126888Y-30562478D01*
X42126890Y-30562477D01*
X42246477Y-30442890D01*
X42274983Y-30397523D01*
X42336452Y-30299697D01*
X42336454Y-30299694D01*
X42336454Y-30299692D01*
X42336456Y-30299690D01*
X42392313Y-30140059D01*
X42392313Y-30140058D01*
X42392314Y-30140056D01*
X42411249Y-29972002D01*
X42411249Y-29971997D01*
X42392314Y-29803943D01*
X42353740Y-29693704D01*
X42336456Y-29644310D01*
X42336455Y-29644309D01*
X42336454Y-29644305D01*
X42336452Y-29644302D01*
X42246481Y-29501115D01*
X42246476Y-29501109D01*
X42126890Y-29381523D01*
X42126884Y-29381518D01*
X41983697Y-29291547D01*
X41983694Y-29291545D01*
X41824056Y-29235685D01*
X41656003Y-29216751D01*
X41655997Y-29216751D01*
X41487943Y-29235685D01*
X41328305Y-29291545D01*
X41328302Y-29291547D01*
X41185115Y-29381518D01*
X41185109Y-29381523D01*
X41065521Y-29501111D01*
X40973593Y-29647413D01*
X40921258Y-29693704D01*
X40852205Y-29704351D01*
X40788357Y-29675976D01*
X40763607Y-29647413D01*
X40671678Y-29501111D01*
X40552086Y-29381519D01*
X40494882Y-29345575D01*
X40448591Y-29293240D01*
X40436855Y-29240582D01*
X40436855Y-29049027D01*
X39761506Y-29049027D01*
X39694467Y-29029342D01*
X39648712Y-28976538D01*
X39637506Y-28925027D01*
X39637506Y-28351156D01*
X39637505Y-28351150D01*
X39637504Y-28351143D01*
X39631098Y-28291544D01*
X39624131Y-28272864D01*
X39617093Y-28243414D01*
X39598314Y-28076744D01*
X39568863Y-27992578D01*
X39542456Y-27917110D01*
X39542455Y-27917109D01*
X39542454Y-27917105D01*
X39542452Y-27917102D01*
X39531095Y-27899027D01*
X39911848Y-27899027D01*
X39911848Y-28549027D01*
X40436855Y-28549027D01*
X40436855Y-28351199D01*
X40436854Y-28351182D01*
X40430453Y-28291654D01*
X40430451Y-28291647D01*
X40380209Y-28156940D01*
X40380205Y-28156933D01*
X40294045Y-28041839D01*
X40294042Y-28041836D01*
X40178948Y-27955676D01*
X40178941Y-27955672D01*
X40136922Y-27940000D01*
X46005172Y-27940000D01*
X46024462Y-28234312D01*
X46024464Y-28234324D01*
X46082001Y-28523584D01*
X46082005Y-28523599D01*
X46176812Y-28802888D01*
X46307258Y-29067406D01*
X46307265Y-29067419D01*
X46471122Y-29312648D01*
X46500406Y-29346039D01*
X47324210Y-28522235D01*
X47424894Y-28663624D01*
X47576932Y-28808592D01*
X47679222Y-28874329D01*
X46853959Y-29699592D01*
X46853959Y-29699593D01*
X46887344Y-29728872D01*
X46887348Y-29728875D01*
X47132580Y-29892734D01*
X47132593Y-29892741D01*
X47397111Y-30023187D01*
X47676400Y-30117994D01*
X47676415Y-30117998D01*
X47965675Y-30175535D01*
X47965687Y-30175537D01*
X48260000Y-30194827D01*
X48554312Y-30175537D01*
X48554324Y-30175535D01*
X48843584Y-30117998D01*
X48843599Y-30117994D01*
X49122888Y-30023187D01*
X49387406Y-29892741D01*
X49387419Y-29892734D01*
X49632650Y-29728877D01*
X49666039Y-29699593D01*
X49666040Y-29699592D01*
X48843306Y-28876859D01*
X48857410Y-28869589D01*
X49022540Y-28739729D01*
X49160110Y-28580965D01*
X49194665Y-28521112D01*
X50019592Y-29346040D01*
X50019593Y-29346039D01*
X50048877Y-29312650D01*
X50212734Y-29067419D01*
X50212741Y-29067406D01*
X50343187Y-28802888D01*
X50437994Y-28523599D01*
X50437998Y-28523584D01*
X50495535Y-28234324D01*
X50495537Y-28234312D01*
X50514827Y-27940000D01*
X50495537Y-27645682D01*
X50495535Y-27645675D01*
X50437998Y-27356415D01*
X50437994Y-27356400D01*
X50343187Y-27077111D01*
X50212741Y-26812593D01*
X50212734Y-26812580D01*
X50048875Y-26567348D01*
X50048872Y-26567344D01*
X50019593Y-26533959D01*
X50019592Y-26533959D01*
X49195788Y-27357763D01*
X49095106Y-27216376D01*
X48943068Y-27071408D01*
X48840777Y-27005669D01*
X49666039Y-26180406D01*
X49632648Y-26151122D01*
X49387419Y-25987265D01*
X49387406Y-25987258D01*
X49122888Y-25856812D01*
X48843599Y-25762005D01*
X48843584Y-25762001D01*
X48554324Y-25704464D01*
X48554312Y-25704462D01*
X48260000Y-25685172D01*
X47965687Y-25704462D01*
X47965675Y-25704464D01*
X47676415Y-25762001D01*
X47676400Y-25762005D01*
X47397111Y-25856812D01*
X47132593Y-25987258D01*
X47132580Y-25987265D01*
X46887350Y-26151123D01*
X46853958Y-26180406D01*
X47676693Y-27003140D01*
X47662590Y-27010411D01*
X47497460Y-27140271D01*
X47359890Y-27299035D01*
X47325334Y-27358886D01*
X46500406Y-26533958D01*
X46471123Y-26567350D01*
X46307265Y-26812580D01*
X46307258Y-26812593D01*
X46176812Y-27077111D01*
X46082005Y-27356400D01*
X46082001Y-27356415D01*
X46024464Y-27645675D01*
X46024463Y-27645682D01*
X46005172Y-27940000D01*
X40136922Y-27940000D01*
X40044234Y-27905430D01*
X40044227Y-27905428D01*
X39984699Y-27899027D01*
X39911848Y-27899027D01*
X39531095Y-27899027D01*
X39452481Y-27773915D01*
X39452476Y-27773909D01*
X39332890Y-27654323D01*
X39332884Y-27654318D01*
X39189697Y-27564347D01*
X39189694Y-27564345D01*
X39030056Y-27508485D01*
X38862003Y-27489551D01*
X38861997Y-27489551D01*
X38693943Y-27508485D01*
X38534305Y-27564345D01*
X38534302Y-27564347D01*
X38391115Y-27654318D01*
X38391109Y-27654323D01*
X38271523Y-27773909D01*
X38271518Y-27773915D01*
X38181547Y-27917102D01*
X38181543Y-27917111D01*
X38158976Y-27981602D01*
X38118254Y-28038378D01*
X38053301Y-28064124D01*
X37984739Y-28050667D01*
X37967624Y-28039912D01*
X37855100Y-27955676D01*
X37855093Y-27955672D01*
X37720386Y-27905430D01*
X37720379Y-27905428D01*
X37660851Y-27899027D01*
X37588000Y-27899027D01*
X37588000Y-28925027D01*
X37568315Y-28992066D01*
X37515511Y-29037821D01*
X37464000Y-29049027D01*
X37437658Y-29049027D01*
X37370619Y-29029342D01*
X37324864Y-28976538D01*
X37313658Y-28925027D01*
X37313658Y-28404403D01*
X37314047Y-28397464D01*
X37331249Y-28244800D01*
X37330069Y-28234324D01*
X37312314Y-28076743D01*
X37264640Y-27940500D01*
X37256456Y-27917110D01*
X37256455Y-27917109D01*
X37256454Y-27917105D01*
X37256452Y-27917102D01*
X37166481Y-27773915D01*
X37166476Y-27773909D01*
X37046890Y-27654323D01*
X37046884Y-27654318D01*
X36903697Y-27564347D01*
X36903694Y-27564345D01*
X36744056Y-27508485D01*
X36576003Y-27489551D01*
X36575997Y-27489551D01*
X36407943Y-27508485D01*
X36248305Y-27564345D01*
X36248302Y-27564347D01*
X36105115Y-27654318D01*
X36105109Y-27654323D01*
X35985523Y-27773909D01*
X35985518Y-27773915D01*
X35895547Y-27917102D01*
X35895544Y-27917107D01*
X35839687Y-28076741D01*
X35836348Y-28106372D01*
X35821965Y-28151904D01*
X35819349Y-28156695D01*
X35769053Y-28291544D01*
X35762646Y-28351143D01*
X35762646Y-28351150D01*
X35762645Y-28351162D01*
X35762645Y-29246897D01*
X34744098Y-29246897D01*
X34712056Y-29235685D01*
X34544003Y-29216751D01*
X34543997Y-29216751D01*
X34375943Y-29235685D01*
X34216305Y-29291545D01*
X34216302Y-29291547D01*
X34073115Y-29381518D01*
X34073109Y-29381523D01*
X33953523Y-29501109D01*
X33953518Y-29501115D01*
X33863547Y-29644302D01*
X33863545Y-29644305D01*
X33807685Y-29803943D01*
X33788751Y-29971997D01*
X33788751Y-29972002D01*
X25400500Y-29972002D01*
X25400500Y-27941740D01*
X25400598Y-27938263D01*
X25402441Y-27905430D01*
X25406995Y-27824333D01*
X25417401Y-27652304D01*
X25418160Y-27645706D01*
X25440576Y-27513780D01*
X25441277Y-27509656D01*
X25453432Y-27443324D01*
X25468562Y-27360763D01*
X25469961Y-27354810D01*
X25509387Y-27217956D01*
X25553270Y-27077135D01*
X25555158Y-27071921D01*
X25610397Y-26938565D01*
X25670343Y-26805370D01*
X25672599Y-26800861D01*
X25742958Y-26673557D01*
X25818228Y-26549044D01*
X25820693Y-26545286D01*
X25904461Y-26427226D01*
X25906145Y-26424967D01*
X25994932Y-26311638D01*
X25997472Y-26308605D01*
X26094052Y-26200531D01*
X26096373Y-26198077D01*
X26198077Y-26096373D01*
X26200531Y-26094052D01*
X26308605Y-25997472D01*
X26311638Y-25994932D01*
X26424967Y-25906145D01*
X26427226Y-25904461D01*
X26545286Y-25820693D01*
X26549044Y-25818228D01*
X26673561Y-25742956D01*
X26800861Y-25672599D01*
X26805370Y-25670343D01*
X26938565Y-25610397D01*
X27071921Y-25555158D01*
X27077135Y-25553270D01*
X27217956Y-25509387D01*
X27354810Y-25469961D01*
X27360763Y-25468562D01*
X27443324Y-25453432D01*
X27509656Y-25441277D01*
X27557941Y-25433072D01*
X27645706Y-25418160D01*
X27652304Y-25417401D01*
X27824333Y-25406995D01*
X27910782Y-25402140D01*
X27938263Y-25400598D01*
X27941740Y-25400500D01*
X48258260Y-25400500D01*
X48261737Y-25400598D01*
G37*
%TD.AperFunction*%
%TD*%
M02*
