%TF.GenerationSoftware,KiCad,Pcbnew,7.0.9*%
%TF.CreationDate,2023-12-14T21:42:17-08:00*%
%TF.ProjectId,encoder-board,656e636f-6465-4722-9d62-6f6172642e6b,rev?*%
%TF.SameCoordinates,Original*%
%TF.FileFunction,Copper,L3,Inr*%
%TF.FilePolarity,Positive*%
%FSLAX46Y46*%
G04 Gerber Fmt 4.6, Leading zero omitted, Abs format (unit mm)*
G04 Created by KiCad (PCBNEW 7.0.9) date 2023-12-14 21:42:17*
%MOMM*%
%LPD*%
G01*
G04 APERTURE LIST*
%TA.AperFunction,ComponentPad*%
%ADD10C,3.500000*%
%TD*%
%TA.AperFunction,ViaPad*%
%ADD11C,0.500000*%
%TD*%
%TA.AperFunction,Conductor*%
%ADD12C,0.250000*%
%TD*%
G04 APERTURE END LIST*
D10*
%TO.N,GND*%
%TO.C,H2*%
X27940000Y-48260000D03*
%TD*%
%TO.N,GND*%
%TO.C,H1*%
X48260000Y-27940000D03*
%TD*%
D11*
%TO.N,GND*%
X45466000Y-43942000D03*
X46990000Y-34798000D03*
X28956000Y-33274000D03*
X35560000Y-44196000D03*
X31650500Y-43923154D03*
X39573200Y-40182800D03*
X35560000Y-45720000D03*
X35560000Y-44958000D03*
X39116000Y-34036000D03*
%TO.N,A2*%
X34544000Y-29972000D03*
X30327600Y-36322000D03*
X37338254Y-30632400D03*
%TO.N,A1*%
X40081200Y-29972000D03*
X45490500Y-33224747D03*
X45490500Y-37817939D03*
X41656000Y-29972000D03*
%TO.N,D2*%
X30504500Y-37846000D03*
X34239200Y-36576000D03*
X38100000Y-48268000D03*
X30276800Y-45720000D03*
%TO.N,D1*%
X45466000Y-45720000D03*
X40640000Y-44958000D03*
X41808400Y-37846000D03*
X43942000Y-37846000D03*
%TO.N,Net-(U3A--)*%
X41656000Y-36576000D03*
X43942000Y-36322000D03*
%TO.N,Net-(U3A-+)*%
X41808400Y-35306000D03*
X43942000Y-33274000D03*
%TO.N,Net-(U3B-+)*%
X34239200Y-34036000D03*
X32004000Y-34798000D03*
%TO.N,Net-(U3B--)*%
X32004000Y-36322000D03*
X34239200Y-35306000D03*
%TO.N,Net-(U1-A)*%
X38862000Y-28244800D03*
X46278800Y-30988000D03*
%TO.N,Net-(U2-A)*%
X29667200Y-30988000D03*
X36576000Y-28244800D03*
%TD*%
D12*
%TO.N,Net-(U1-A)*%
X46278800Y-30988000D02*
X42926000Y-27635200D01*
X39471600Y-27635200D02*
X38862000Y-28244800D01*
X42926000Y-27635200D02*
X39471600Y-27635200D01*
%TO.N,Net-(U2-A)*%
X29667200Y-30175200D02*
X32308800Y-27533600D01*
X29667200Y-30988000D02*
X29667200Y-30175200D01*
X32308800Y-27533600D02*
X35864800Y-27533600D01*
X35864800Y-27533600D02*
X36576000Y-28244800D01*
%TD*%
M02*
