%TF.GenerationSoftware,KiCad,Pcbnew,7.0.9*%
%TF.CreationDate,2023-12-14T21:42:17-08:00*%
%TF.ProjectId,encoder-board,656e636f-6465-4722-9d62-6f6172642e6b,rev?*%
%TF.SameCoordinates,Original*%
%TF.FileFunction,Legend,Top*%
%TF.FilePolarity,Positive*%
%FSLAX46Y46*%
G04 Gerber Fmt 4.6, Leading zero omitted, Abs format (unit mm)*
G04 Created by KiCad (PCBNEW 7.0.9) date 2023-12-14 21:42:17*
%MOMM*%
%LPD*%
G01*
G04 APERTURE LIST*
G04 Aperture macros list*
%AMRoundRect*
0 Rectangle with rounded corners*
0 $1 Rounding radius*
0 $2 $3 $4 $5 $6 $7 $8 $9 X,Y pos of 4 corners*
0 Add a 4 corners polygon primitive as box body*
4,1,4,$2,$3,$4,$5,$6,$7,$8,$9,$2,$3,0*
0 Add four circle primitives for the rounded corners*
1,1,$1+$1,$2,$3*
1,1,$1+$1,$4,$5*
1,1,$1+$1,$6,$7*
1,1,$1+$1,$8,$9*
0 Add four rect primitives between the rounded corners*
20,1,$1+$1,$2,$3,$4,$5,0*
20,1,$1+$1,$4,$5,$6,$7,0*
20,1,$1+$1,$6,$7,$8,$9,0*
20,1,$1+$1,$8,$9,$2,$3,0*%
G04 Aperture macros list end*
%ADD10C,0.125000*%
%ADD11C,0.150000*%
%ADD12C,0.120000*%
%ADD13RoundRect,0.200000X-0.200000X-0.275000X0.200000X-0.275000X0.200000X0.275000X-0.200000X0.275000X0*%
%ADD14RoundRect,0.200000X0.200000X0.275000X-0.200000X0.275000X-0.200000X-0.275000X0.200000X-0.275000X0*%
%ADD15RoundRect,0.218750X-0.218750X-0.256250X0.218750X-0.256250X0.218750X0.256250X-0.218750X0.256250X0*%
%ADD16RoundRect,0.150000X0.825000X0.150000X-0.825000X0.150000X-0.825000X-0.150000X0.825000X-0.150000X0*%
%ADD17C,1.000000*%
%ADD18C,3.500000*%
%ADD19R,1.000000X2.510000*%
%ADD20RoundRect,0.218750X0.218750X0.256250X-0.218750X0.256250X-0.218750X-0.256250X0.218750X-0.256250X0*%
G04 APERTURE END LIST*
D10*
X34845245Y-46216719D02*
X34845245Y-46931004D01*
X34845245Y-46931004D02*
X34797626Y-47073861D01*
X34797626Y-47073861D02*
X34702388Y-47169100D01*
X34702388Y-47169100D02*
X34559531Y-47216719D01*
X34559531Y-47216719D02*
X34464293Y-47216719D01*
X35797626Y-47216719D02*
X35321436Y-47216719D01*
X35321436Y-47216719D02*
X35321436Y-46216719D01*
X36702388Y-47121480D02*
X36654769Y-47169100D01*
X36654769Y-47169100D02*
X36511912Y-47216719D01*
X36511912Y-47216719D02*
X36416674Y-47216719D01*
X36416674Y-47216719D02*
X36273817Y-47169100D01*
X36273817Y-47169100D02*
X36178579Y-47073861D01*
X36178579Y-47073861D02*
X36130960Y-46978623D01*
X36130960Y-46978623D02*
X36083341Y-46788147D01*
X36083341Y-46788147D02*
X36083341Y-46645290D01*
X36083341Y-46645290D02*
X36130960Y-46454814D01*
X36130960Y-46454814D02*
X36178579Y-46359576D01*
X36178579Y-46359576D02*
X36273817Y-46264338D01*
X36273817Y-46264338D02*
X36416674Y-46216719D01*
X36416674Y-46216719D02*
X36511912Y-46216719D01*
X36511912Y-46216719D02*
X36654769Y-46264338D01*
X36654769Y-46264338D02*
X36702388Y-46311957D01*
X37416674Y-46216719D02*
X37416674Y-46931004D01*
X37416674Y-46931004D02*
X37369055Y-47073861D01*
X37369055Y-47073861D02*
X37273817Y-47169100D01*
X37273817Y-47169100D02*
X37130960Y-47216719D01*
X37130960Y-47216719D02*
X37035722Y-47216719D01*
X38369055Y-47216719D02*
X37892865Y-47216719D01*
X37892865Y-47216719D02*
X37892865Y-46216719D01*
X39273817Y-47121480D02*
X39226198Y-47169100D01*
X39226198Y-47169100D02*
X39083341Y-47216719D01*
X39083341Y-47216719D02*
X38988103Y-47216719D01*
X38988103Y-47216719D02*
X38845246Y-47169100D01*
X38845246Y-47169100D02*
X38750008Y-47073861D01*
X38750008Y-47073861D02*
X38702389Y-46978623D01*
X38702389Y-46978623D02*
X38654770Y-46788147D01*
X38654770Y-46788147D02*
X38654770Y-46645290D01*
X38654770Y-46645290D02*
X38702389Y-46454814D01*
X38702389Y-46454814D02*
X38750008Y-46359576D01*
X38750008Y-46359576D02*
X38845246Y-46264338D01*
X38845246Y-46264338D02*
X38988103Y-46216719D01*
X38988103Y-46216719D02*
X39083341Y-46216719D01*
X39083341Y-46216719D02*
X39226198Y-46264338D01*
X39226198Y-46264338D02*
X39273817Y-46311957D01*
X39988103Y-46216719D02*
X39988103Y-46931004D01*
X39988103Y-46931004D02*
X39940484Y-47073861D01*
X39940484Y-47073861D02*
X39845246Y-47169100D01*
X39845246Y-47169100D02*
X39702389Y-47216719D01*
X39702389Y-47216719D02*
X39607151Y-47216719D01*
X40940484Y-47216719D02*
X40464294Y-47216719D01*
X40464294Y-47216719D02*
X40464294Y-46216719D01*
X41845246Y-47121480D02*
X41797627Y-47169100D01*
X41797627Y-47169100D02*
X41654770Y-47216719D01*
X41654770Y-47216719D02*
X41559532Y-47216719D01*
X41559532Y-47216719D02*
X41416675Y-47169100D01*
X41416675Y-47169100D02*
X41321437Y-47073861D01*
X41321437Y-47073861D02*
X41273818Y-46978623D01*
X41273818Y-46978623D02*
X41226199Y-46788147D01*
X41226199Y-46788147D02*
X41226199Y-46645290D01*
X41226199Y-46645290D02*
X41273818Y-46454814D01*
X41273818Y-46454814D02*
X41321437Y-46359576D01*
X41321437Y-46359576D02*
X41416675Y-46264338D01*
X41416675Y-46264338D02*
X41559532Y-46216719D01*
X41559532Y-46216719D02*
X41654770Y-46216719D01*
X41654770Y-46216719D02*
X41797627Y-46264338D01*
X41797627Y-46264338D02*
X41845246Y-46311957D01*
X42559532Y-46216719D02*
X42559532Y-46931004D01*
X42559532Y-46931004D02*
X42511913Y-47073861D01*
X42511913Y-47073861D02*
X42416675Y-47169100D01*
X42416675Y-47169100D02*
X42273818Y-47216719D01*
X42273818Y-47216719D02*
X42178580Y-47216719D01*
X43511913Y-47216719D02*
X43035723Y-47216719D01*
X43035723Y-47216719D02*
X43035723Y-46216719D01*
X44416675Y-47121480D02*
X44369056Y-47169100D01*
X44369056Y-47169100D02*
X44226199Y-47216719D01*
X44226199Y-47216719D02*
X44130961Y-47216719D01*
X44130961Y-47216719D02*
X43988104Y-47169100D01*
X43988104Y-47169100D02*
X43892866Y-47073861D01*
X43892866Y-47073861D02*
X43845247Y-46978623D01*
X43845247Y-46978623D02*
X43797628Y-46788147D01*
X43797628Y-46788147D02*
X43797628Y-46645290D01*
X43797628Y-46645290D02*
X43845247Y-46454814D01*
X43845247Y-46454814D02*
X43892866Y-46359576D01*
X43892866Y-46359576D02*
X43988104Y-46264338D01*
X43988104Y-46264338D02*
X44130961Y-46216719D01*
X44130961Y-46216719D02*
X44226199Y-46216719D01*
X44226199Y-46216719D02*
X44369056Y-46264338D01*
X44369056Y-46264338D02*
X44416675Y-46311957D01*
D11*
X42405541Y-43827819D02*
X43024588Y-43827819D01*
X43024588Y-43827819D02*
X42691255Y-44208771D01*
X42691255Y-44208771D02*
X42834112Y-44208771D01*
X42834112Y-44208771D02*
X42929350Y-44256390D01*
X42929350Y-44256390D02*
X42976969Y-44304009D01*
X42976969Y-44304009D02*
X43024588Y-44399247D01*
X43024588Y-44399247D02*
X43024588Y-44637342D01*
X43024588Y-44637342D02*
X42976969Y-44732580D01*
X42976969Y-44732580D02*
X42929350Y-44780200D01*
X42929350Y-44780200D02*
X42834112Y-44827819D01*
X42834112Y-44827819D02*
X42548398Y-44827819D01*
X42548398Y-44827819D02*
X42453160Y-44780200D01*
X42453160Y-44780200D02*
X42405541Y-44732580D01*
X43310303Y-43827819D02*
X43643636Y-44827819D01*
X43643636Y-44827819D02*
X43976969Y-43827819D01*
X37420779Y-44573819D02*
X37420779Y-43573819D01*
X37420779Y-43573819D02*
X37658874Y-43573819D01*
X37658874Y-43573819D02*
X37801731Y-43621438D01*
X37801731Y-43621438D02*
X37896969Y-43716676D01*
X37896969Y-43716676D02*
X37944588Y-43811914D01*
X37944588Y-43811914D02*
X37992207Y-44002390D01*
X37992207Y-44002390D02*
X37992207Y-44145247D01*
X37992207Y-44145247D02*
X37944588Y-44335723D01*
X37944588Y-44335723D02*
X37896969Y-44430961D01*
X37896969Y-44430961D02*
X37801731Y-44526200D01*
X37801731Y-44526200D02*
X37658874Y-44573819D01*
X37658874Y-44573819D02*
X37420779Y-44573819D01*
X38373160Y-43669057D02*
X38420779Y-43621438D01*
X38420779Y-43621438D02*
X38516017Y-43573819D01*
X38516017Y-43573819D02*
X38754112Y-43573819D01*
X38754112Y-43573819D02*
X38849350Y-43621438D01*
X38849350Y-43621438D02*
X38896969Y-43669057D01*
X38896969Y-43669057D02*
X38944588Y-43764295D01*
X38944588Y-43764295D02*
X38944588Y-43859533D01*
X38944588Y-43859533D02*
X38896969Y-44002390D01*
X38896969Y-44002390D02*
X38325541Y-44573819D01*
X38325541Y-44573819D02*
X38944588Y-44573819D01*
X40214779Y-49399819D02*
X40214779Y-48399819D01*
X40214779Y-48399819D02*
X40452874Y-48399819D01*
X40452874Y-48399819D02*
X40595731Y-48447438D01*
X40595731Y-48447438D02*
X40690969Y-48542676D01*
X40690969Y-48542676D02*
X40738588Y-48637914D01*
X40738588Y-48637914D02*
X40786207Y-48828390D01*
X40786207Y-48828390D02*
X40786207Y-48971247D01*
X40786207Y-48971247D02*
X40738588Y-49161723D01*
X40738588Y-49161723D02*
X40690969Y-49256961D01*
X40690969Y-49256961D02*
X40595731Y-49352200D01*
X40595731Y-49352200D02*
X40452874Y-49399819D01*
X40452874Y-49399819D02*
X40214779Y-49399819D01*
X41738588Y-49399819D02*
X41167160Y-49399819D01*
X41452874Y-49399819D02*
X41452874Y-48399819D01*
X41452874Y-48399819D02*
X41357636Y-48542676D01*
X41357636Y-48542676D02*
X41262398Y-48637914D01*
X41262398Y-48637914D02*
X41167160Y-48685533D01*
X35658588Y-48447438D02*
X35563350Y-48399819D01*
X35563350Y-48399819D02*
X35420493Y-48399819D01*
X35420493Y-48399819D02*
X35277636Y-48447438D01*
X35277636Y-48447438D02*
X35182398Y-48542676D01*
X35182398Y-48542676D02*
X35134779Y-48637914D01*
X35134779Y-48637914D02*
X35087160Y-48828390D01*
X35087160Y-48828390D02*
X35087160Y-48971247D01*
X35087160Y-48971247D02*
X35134779Y-49161723D01*
X35134779Y-49161723D02*
X35182398Y-49256961D01*
X35182398Y-49256961D02*
X35277636Y-49352200D01*
X35277636Y-49352200D02*
X35420493Y-49399819D01*
X35420493Y-49399819D02*
X35515731Y-49399819D01*
X35515731Y-49399819D02*
X35658588Y-49352200D01*
X35658588Y-49352200D02*
X35706207Y-49304580D01*
X35706207Y-49304580D02*
X35706207Y-48971247D01*
X35706207Y-48971247D02*
X35515731Y-48971247D01*
X34626779Y-41322619D02*
X34626779Y-40322619D01*
X34626779Y-40322619D02*
X35007731Y-40322619D01*
X35007731Y-40322619D02*
X35102969Y-40370238D01*
X35102969Y-40370238D02*
X35150588Y-40417857D01*
X35150588Y-40417857D02*
X35198207Y-40513095D01*
X35198207Y-40513095D02*
X35198207Y-40655952D01*
X35198207Y-40655952D02*
X35150588Y-40751190D01*
X35150588Y-40751190D02*
X35102969Y-40798809D01*
X35102969Y-40798809D02*
X35007731Y-40846428D01*
X35007731Y-40846428D02*
X34626779Y-40846428D01*
X35531541Y-40322619D02*
X35769636Y-41322619D01*
X35769636Y-41322619D02*
X35960112Y-40608333D01*
X35960112Y-40608333D02*
X36150588Y-41322619D01*
X36150588Y-41322619D02*
X36388684Y-40322619D01*
X28471905Y-44396819D02*
X28471905Y-43396819D01*
X28471905Y-43396819D02*
X28710000Y-43396819D01*
X28710000Y-43396819D02*
X28852857Y-43444438D01*
X28852857Y-43444438D02*
X28948095Y-43539676D01*
X28948095Y-43539676D02*
X28995714Y-43634914D01*
X28995714Y-43634914D02*
X29043333Y-43825390D01*
X29043333Y-43825390D02*
X29043333Y-43968247D01*
X29043333Y-43968247D02*
X28995714Y-44158723D01*
X28995714Y-44158723D02*
X28948095Y-44253961D01*
X28948095Y-44253961D02*
X28852857Y-44349200D01*
X28852857Y-44349200D02*
X28710000Y-44396819D01*
X28710000Y-44396819D02*
X28471905Y-44396819D01*
X29424286Y-43492057D02*
X29471905Y-43444438D01*
X29471905Y-43444438D02*
X29567143Y-43396819D01*
X29567143Y-43396819D02*
X29805238Y-43396819D01*
X29805238Y-43396819D02*
X29900476Y-43444438D01*
X29900476Y-43444438D02*
X29948095Y-43492057D01*
X29948095Y-43492057D02*
X29995714Y-43587295D01*
X29995714Y-43587295D02*
X29995714Y-43682533D01*
X29995714Y-43682533D02*
X29948095Y-43825390D01*
X29948095Y-43825390D02*
X29376667Y-44396819D01*
X29376667Y-44396819D02*
X29995714Y-44396819D01*
X37338095Y-35395819D02*
X37338095Y-36205342D01*
X37338095Y-36205342D02*
X37385714Y-36300580D01*
X37385714Y-36300580D02*
X37433333Y-36348200D01*
X37433333Y-36348200D02*
X37528571Y-36395819D01*
X37528571Y-36395819D02*
X37719047Y-36395819D01*
X37719047Y-36395819D02*
X37814285Y-36348200D01*
X37814285Y-36348200D02*
X37861904Y-36300580D01*
X37861904Y-36300580D02*
X37909523Y-36205342D01*
X37909523Y-36205342D02*
X37909523Y-35395819D01*
X38290476Y-35395819D02*
X38909523Y-35395819D01*
X38909523Y-35395819D02*
X38576190Y-35776771D01*
X38576190Y-35776771D02*
X38719047Y-35776771D01*
X38719047Y-35776771D02*
X38814285Y-35824390D01*
X38814285Y-35824390D02*
X38861904Y-35872009D01*
X38861904Y-35872009D02*
X38909523Y-35967247D01*
X38909523Y-35967247D02*
X38909523Y-36205342D01*
X38909523Y-36205342D02*
X38861904Y-36300580D01*
X38861904Y-36300580D02*
X38814285Y-36348200D01*
X38814285Y-36348200D02*
X38719047Y-36395819D01*
X38719047Y-36395819D02*
X38433333Y-36395819D01*
X38433333Y-36395819D02*
X38338095Y-36348200D01*
X38338095Y-36348200D02*
X38290476Y-36300580D01*
X40394095Y-26962819D02*
X40965523Y-26962819D01*
X40679809Y-27962819D02*
X40679809Y-26962819D01*
X41298857Y-27962819D02*
X41298857Y-26962819D01*
X41298857Y-26962819D02*
X41679809Y-26962819D01*
X41679809Y-26962819D02*
X41775047Y-27010438D01*
X41775047Y-27010438D02*
X41822666Y-27058057D01*
X41822666Y-27058057D02*
X41870285Y-27153295D01*
X41870285Y-27153295D02*
X41870285Y-27296152D01*
X41870285Y-27296152D02*
X41822666Y-27391390D01*
X41822666Y-27391390D02*
X41775047Y-27439009D01*
X41775047Y-27439009D02*
X41679809Y-27486628D01*
X41679809Y-27486628D02*
X41298857Y-27486628D01*
X42822666Y-27962819D02*
X42251238Y-27962819D01*
X42536952Y-27962819D02*
X42536952Y-26962819D01*
X42536952Y-26962819D02*
X42441714Y-27105676D01*
X42441714Y-27105676D02*
X42346476Y-27200914D01*
X42346476Y-27200914D02*
X42251238Y-27248533D01*
X33282095Y-26962819D02*
X33853523Y-26962819D01*
X33567809Y-27962819D02*
X33567809Y-26962819D01*
X34186857Y-27962819D02*
X34186857Y-26962819D01*
X34186857Y-26962819D02*
X34567809Y-26962819D01*
X34567809Y-26962819D02*
X34663047Y-27010438D01*
X34663047Y-27010438D02*
X34710666Y-27058057D01*
X34710666Y-27058057D02*
X34758285Y-27153295D01*
X34758285Y-27153295D02*
X34758285Y-27296152D01*
X34758285Y-27296152D02*
X34710666Y-27391390D01*
X34710666Y-27391390D02*
X34663047Y-27439009D01*
X34663047Y-27439009D02*
X34567809Y-27486628D01*
X34567809Y-27486628D02*
X34186857Y-27486628D01*
X35139238Y-27058057D02*
X35186857Y-27010438D01*
X35186857Y-27010438D02*
X35282095Y-26962819D01*
X35282095Y-26962819D02*
X35520190Y-26962819D01*
X35520190Y-26962819D02*
X35615428Y-27010438D01*
X35615428Y-27010438D02*
X35663047Y-27058057D01*
X35663047Y-27058057D02*
X35710666Y-27153295D01*
X35710666Y-27153295D02*
X35710666Y-27248533D01*
X35710666Y-27248533D02*
X35663047Y-27391390D01*
X35663047Y-27391390D02*
X35091619Y-27962819D01*
X35091619Y-27962819D02*
X35710666Y-27962819D01*
X48766405Y-44904819D02*
X48766405Y-43904819D01*
X48766405Y-43904819D02*
X49004500Y-43904819D01*
X49004500Y-43904819D02*
X49147357Y-43952438D01*
X49147357Y-43952438D02*
X49242595Y-44047676D01*
X49242595Y-44047676D02*
X49290214Y-44142914D01*
X49290214Y-44142914D02*
X49337833Y-44333390D01*
X49337833Y-44333390D02*
X49337833Y-44476247D01*
X49337833Y-44476247D02*
X49290214Y-44666723D01*
X49290214Y-44666723D02*
X49242595Y-44761961D01*
X49242595Y-44761961D02*
X49147357Y-44857200D01*
X49147357Y-44857200D02*
X49004500Y-44904819D01*
X49004500Y-44904819D02*
X48766405Y-44904819D01*
X50290214Y-44904819D02*
X49718786Y-44904819D01*
X50004500Y-44904819D02*
X50004500Y-43904819D01*
X50004500Y-43904819D02*
X49909262Y-44047676D01*
X49909262Y-44047676D02*
X49814024Y-44142914D01*
X49814024Y-44142914D02*
X49718786Y-44190533D01*
D12*
%TO.C,R15*%
X30242742Y-32751500D02*
X30717258Y-32751500D01*
X30242742Y-33796500D02*
X30717258Y-33796500D01*
%TO.C,R11*%
X30242742Y-34275500D02*
X30717258Y-34275500D01*
X30242742Y-35320500D02*
X30717258Y-35320500D01*
%TO.C,R2*%
X30717258Y-39892500D02*
X30242742Y-39892500D01*
X30717258Y-38847500D02*
X30242742Y-38847500D01*
%TO.C,R13*%
X30717258Y-38368500D02*
X30242742Y-38368500D01*
X30717258Y-37323500D02*
X30242742Y-37323500D01*
%TO.C,D2*%
X30265000Y-43207000D02*
X30265000Y-44677000D01*
X30265000Y-44677000D02*
X32550000Y-44677000D01*
X32550000Y-43207000D02*
X30265000Y-43207000D01*
%TO.C,R9*%
X45228742Y-32751500D02*
X45703258Y-32751500D01*
X45228742Y-33796500D02*
X45703258Y-33796500D01*
%TO.C,R3*%
X45703258Y-32272500D02*
X45228742Y-32272500D01*
X45703258Y-31227500D02*
X45228742Y-31227500D01*
%TO.C,U3*%
X38100000Y-33381000D02*
X36150000Y-33381000D01*
X38100000Y-33381000D02*
X40050000Y-33381000D01*
X38100000Y-38501000D02*
X36150000Y-38501000D01*
X38100000Y-38501000D02*
X41550000Y-38501000D01*
%TO.C,TP1*%
X42356000Y-28956000D02*
G75*
G03*
X42356000Y-28956000I-700000J0D01*
G01*
%TO.C,R10*%
X45228742Y-37323500D02*
X45703258Y-37323500D01*
X45228742Y-38368500D02*
X45703258Y-38368500D01*
%TO.C,R6*%
X46752742Y-45197500D02*
X47227258Y-45197500D01*
X46752742Y-46242500D02*
X47227258Y-46242500D01*
%TO.C,R12*%
X30717258Y-36844500D02*
X30242742Y-36844500D01*
X30717258Y-35799500D02*
X30242742Y-35799500D01*
%TO.C,R14*%
X45703258Y-35320500D02*
X45228742Y-35320500D01*
X45703258Y-34275500D02*
X45228742Y-34275500D01*
%TO.C,R8*%
X45703258Y-36844500D02*
X45228742Y-36844500D01*
X45703258Y-35799500D02*
X45228742Y-35799500D01*
%TO.C,TP2*%
X35244000Y-28956000D02*
G75*
G03*
X35244000Y-28956000I-700000J0D01*
G01*
%TO.C,J1*%
X34230000Y-47943000D02*
X37340000Y-47943000D01*
X34230000Y-47943000D02*
X34230000Y-45283000D01*
X38860000Y-47943000D02*
X42420000Y-47943000D01*
X43940000Y-47943000D02*
X44510000Y-47943000D01*
X44510000Y-47943000D02*
X44510000Y-45283000D01*
X34230000Y-45283000D02*
X34800000Y-45283000D01*
X34800000Y-45283000D02*
X34800000Y-43763000D01*
X36320000Y-45283000D02*
X39880000Y-45283000D01*
X41400000Y-45283000D02*
X44510000Y-45283000D01*
%TO.C,R5*%
X38337258Y-42178500D02*
X37862742Y-42178500D01*
X38337258Y-41133500D02*
X37862742Y-41133500D01*
%TO.C,PW1*%
X39585000Y-40867000D02*
X39585000Y-39397000D01*
X39585000Y-39397000D02*
X37300000Y-39397000D01*
X37300000Y-40867000D02*
X39585000Y-40867000D01*
%TO.C,R4*%
X30242742Y-31227500D02*
X30717258Y-31227500D01*
X30242742Y-32272500D02*
X30717258Y-32272500D01*
%TO.C,R7*%
X31512742Y-45197500D02*
X31987258Y-45197500D01*
X31512742Y-46242500D02*
X31987258Y-46242500D01*
%TO.C,D1*%
X45505000Y-43207000D02*
X45505000Y-44677000D01*
X45505000Y-44677000D02*
X47790000Y-44677000D01*
X47790000Y-43207000D02*
X45505000Y-43207000D01*
%TO.C,R1*%
X45228742Y-38847500D02*
X45703258Y-38847500D01*
X45228742Y-39892500D02*
X45703258Y-39892500D01*
%TD*%
%LPC*%
D13*
%TO.C,R15*%
X29655000Y-33274000D03*
X31305000Y-33274000D03*
%TD*%
%TO.C,R11*%
X29655000Y-34798000D03*
X31305000Y-34798000D03*
%TD*%
D14*
%TO.C,R2*%
X31305000Y-39370000D03*
X29655000Y-39370000D03*
%TD*%
%TO.C,R13*%
X31305000Y-37846000D03*
X29655000Y-37846000D03*
%TD*%
D15*
%TO.C,D2*%
X30962500Y-43942000D03*
X32537500Y-43942000D03*
%TD*%
D13*
%TO.C,R9*%
X44641000Y-33274000D03*
X46291000Y-33274000D03*
%TD*%
D14*
%TO.C,R3*%
X46291000Y-31750000D03*
X44641000Y-31750000D03*
%TD*%
D16*
%TO.C,U3*%
X35625000Y-37846000D03*
X35625000Y-36576000D03*
X35625000Y-35306000D03*
X35625000Y-34036000D03*
X40575000Y-34036000D03*
X40575000Y-35306000D03*
X40575000Y-36576000D03*
X40575000Y-37846000D03*
%TD*%
D17*
%TO.C,TP1*%
X41656000Y-28956000D03*
%TD*%
D18*
%TO.C,H2*%
X27940000Y-48260000D03*
%TD*%
D13*
%TO.C,R10*%
X44641000Y-37846000D03*
X46291000Y-37846000D03*
%TD*%
D18*
%TO.C,H1*%
X48260000Y-27940000D03*
%TD*%
D13*
%TO.C,R6*%
X46165000Y-45720000D03*
X47815000Y-45720000D03*
%TD*%
D14*
%TO.C,R12*%
X31305000Y-36322000D03*
X29655000Y-36322000D03*
%TD*%
%TO.C,R14*%
X46291000Y-34798000D03*
X44641000Y-34798000D03*
%TD*%
%TO.C,R8*%
X46291000Y-36322000D03*
X44641000Y-36322000D03*
%TD*%
D17*
%TO.C,TP2*%
X34544000Y-28956000D03*
%TD*%
D19*
%TO.C,J1*%
X35560000Y-44958000D03*
X38100000Y-48268000D03*
X40640000Y-44958000D03*
X43180000Y-48268000D03*
%TD*%
D14*
%TO.C,R5*%
X38925000Y-41656000D03*
X37275000Y-41656000D03*
%TD*%
D20*
%TO.C,PW1*%
X38887500Y-40132000D03*
X37312500Y-40132000D03*
%TD*%
D13*
%TO.C,R4*%
X29655000Y-31750000D03*
X31305000Y-31750000D03*
%TD*%
%TO.C,R7*%
X30925000Y-45720000D03*
X32575000Y-45720000D03*
%TD*%
D15*
%TO.C,D1*%
X46202500Y-43942000D03*
X47777500Y-43942000D03*
%TD*%
D13*
%TO.C,R1*%
X44641000Y-39370000D03*
X46291000Y-39370000D03*
%TD*%
%LPD*%
M02*
