%TF.GenerationSoftware,KiCad,Pcbnew,7.0.9*%
%TF.CreationDate,2023-12-14T21:42:17-08:00*%
%TF.ProjectId,encoder-board,656e636f-6465-4722-9d62-6f6172642e6b,rev?*%
%TF.SameCoordinates,Original*%
%TF.FileFunction,Copper,L1,Top*%
%TF.FilePolarity,Positive*%
%FSLAX46Y46*%
G04 Gerber Fmt 4.6, Leading zero omitted, Abs format (unit mm)*
G04 Created by KiCad (PCBNEW 7.0.9) date 2023-12-14 21:42:17*
%MOMM*%
%LPD*%
G01*
G04 APERTURE LIST*
G04 Aperture macros list*
%AMRoundRect*
0 Rectangle with rounded corners*
0 $1 Rounding radius*
0 $2 $3 $4 $5 $6 $7 $8 $9 X,Y pos of 4 corners*
0 Add a 4 corners polygon primitive as box body*
4,1,4,$2,$3,$4,$5,$6,$7,$8,$9,$2,$3,0*
0 Add four circle primitives for the rounded corners*
1,1,$1+$1,$2,$3*
1,1,$1+$1,$4,$5*
1,1,$1+$1,$6,$7*
1,1,$1+$1,$8,$9*
0 Add four rect primitives between the rounded corners*
20,1,$1+$1,$2,$3,$4,$5,0*
20,1,$1+$1,$4,$5,$6,$7,0*
20,1,$1+$1,$6,$7,$8,$9,0*
20,1,$1+$1,$8,$9,$2,$3,0*%
G04 Aperture macros list end*
%TA.AperFunction,SMDPad,CuDef*%
%ADD10RoundRect,0.200000X-0.200000X-0.275000X0.200000X-0.275000X0.200000X0.275000X-0.200000X0.275000X0*%
%TD*%
%TA.AperFunction,SMDPad,CuDef*%
%ADD11RoundRect,0.200000X0.200000X0.275000X-0.200000X0.275000X-0.200000X-0.275000X0.200000X-0.275000X0*%
%TD*%
%TA.AperFunction,SMDPad,CuDef*%
%ADD12RoundRect,0.218750X-0.218750X-0.256250X0.218750X-0.256250X0.218750X0.256250X-0.218750X0.256250X0*%
%TD*%
%TA.AperFunction,SMDPad,CuDef*%
%ADD13RoundRect,0.150000X0.825000X0.150000X-0.825000X0.150000X-0.825000X-0.150000X0.825000X-0.150000X0*%
%TD*%
%TA.AperFunction,SMDPad,CuDef*%
%ADD14C,1.000000*%
%TD*%
%TA.AperFunction,ComponentPad*%
%ADD15C,3.500000*%
%TD*%
%TA.AperFunction,SMDPad,CuDef*%
%ADD16R,1.000000X2.510000*%
%TD*%
%TA.AperFunction,SMDPad,CuDef*%
%ADD17RoundRect,0.218750X0.218750X0.256250X-0.218750X0.256250X-0.218750X-0.256250X0.218750X-0.256250X0*%
%TD*%
%TA.AperFunction,ViaPad*%
%ADD18C,0.500000*%
%TD*%
%TA.AperFunction,Conductor*%
%ADD19C,0.250000*%
%TD*%
G04 APERTURE END LIST*
D10*
%TO.P,R15,1*%
%TO.N,GND*%
X29655000Y-33274000D03*
%TO.P,R15,2*%
%TO.N,Net-(U3B-+)*%
X31305000Y-33274000D03*
%TD*%
%TO.P,R11,1*%
%TO.N,+3V3*%
X29655000Y-34798000D03*
%TO.P,R11,2*%
%TO.N,Net-(U3B-+)*%
X31305000Y-34798000D03*
%TD*%
D11*
%TO.P,R2,1*%
%TO.N,+3V3*%
X31305000Y-39370000D03*
%TO.P,R2,2*%
%TO.N,A2*%
X29655000Y-39370000D03*
%TD*%
%TO.P,R13,1*%
%TO.N,D2*%
X31305000Y-37846000D03*
%TO.P,R13,2*%
%TO.N,A2*%
X29655000Y-37846000D03*
%TD*%
D12*
%TO.P,D2,1,K*%
%TO.N,GND*%
X30962500Y-43942000D03*
%TO.P,D2,2,A*%
%TO.N,Net-(D2-A)*%
X32537500Y-43942000D03*
%TD*%
D10*
%TO.P,R9,1*%
%TO.N,Net-(U3A-+)*%
X44641000Y-33274000D03*
%TO.P,R9,2*%
%TO.N,A1*%
X46291000Y-33274000D03*
%TD*%
D11*
%TO.P,R3,1*%
%TO.N,Net-(U1-A)*%
X46291000Y-31750000D03*
%TO.P,R3,2*%
%TO.N,+3V3*%
X44641000Y-31750000D03*
%TD*%
D13*
%TO.P,U3,8,V+*%
%TO.N,+3V3*%
X35625000Y-37846000D03*
%TO.P,U3,7*%
%TO.N,D2*%
X35625000Y-36576000D03*
%TO.P,U3,6,-*%
%TO.N,Net-(U3B--)*%
X35625000Y-35306000D03*
%TO.P,U3,5,+*%
%TO.N,Net-(U3B-+)*%
X35625000Y-34036000D03*
%TO.P,U3,4,V-*%
%TO.N,GND*%
X40575000Y-34036000D03*
%TO.P,U3,3,+*%
%TO.N,Net-(U3A-+)*%
X40575000Y-35306000D03*
%TO.P,U3,2,-*%
%TO.N,Net-(U3A--)*%
X40575000Y-36576000D03*
%TO.P,U3,1*%
%TO.N,D1*%
X40575000Y-37846000D03*
%TD*%
D14*
%TO.P,TP1,1,1*%
%TO.N,A1*%
X41656000Y-28956000D03*
%TD*%
D15*
%TO.P,H2,1,1*%
%TO.N,GND*%
X27940000Y-48260000D03*
%TD*%
D10*
%TO.P,R10,1*%
%TO.N,D1*%
X44641000Y-37846000D03*
%TO.P,R10,2*%
%TO.N,A1*%
X46291000Y-37846000D03*
%TD*%
D15*
%TO.P,H1,1,1*%
%TO.N,GND*%
X48260000Y-27940000D03*
%TD*%
D10*
%TO.P,R6,1*%
%TO.N,D1*%
X46165000Y-45720000D03*
%TO.P,R6,2*%
%TO.N,Net-(D1-A)*%
X47815000Y-45720000D03*
%TD*%
D11*
%TO.P,R12,1*%
%TO.N,Net-(U3B--)*%
X31305000Y-36322000D03*
%TO.P,R12,2*%
%TO.N,A2*%
X29655000Y-36322000D03*
%TD*%
%TO.P,R14,1*%
%TO.N,GND*%
X46291000Y-34798000D03*
%TO.P,R14,2*%
%TO.N,Net-(U3A--)*%
X44641000Y-34798000D03*
%TD*%
%TO.P,R8,1*%
%TO.N,+3V3*%
X46291000Y-36322000D03*
%TO.P,R8,2*%
%TO.N,Net-(U3A--)*%
X44641000Y-36322000D03*
%TD*%
D14*
%TO.P,TP2,1,1*%
%TO.N,A2*%
X34544000Y-28956000D03*
%TD*%
D16*
%TO.P,J1,1,Pin_1*%
%TO.N,GND*%
X35560000Y-44958000D03*
%TO.P,J1,2,Pin_2*%
%TO.N,D2*%
X38100000Y-48268000D03*
%TO.P,J1,3,Pin_3*%
%TO.N,D1*%
X40640000Y-44958000D03*
%TO.P,J1,4,Pin_4*%
%TO.N,+3V3*%
X43180000Y-48268000D03*
%TD*%
D11*
%TO.P,R5,1*%
%TO.N,+3V3*%
X38925000Y-41656000D03*
%TO.P,R5,2*%
%TO.N,Net-(PW1-A)*%
X37275000Y-41656000D03*
%TD*%
D17*
%TO.P,PW1,1,K*%
%TO.N,GND*%
X38887500Y-40132000D03*
%TO.P,PW1,2,A*%
%TO.N,Net-(PW1-A)*%
X37312500Y-40132000D03*
%TD*%
D10*
%TO.P,R4,1*%
%TO.N,Net-(U2-A)*%
X29655000Y-31750000D03*
%TO.P,R4,2*%
%TO.N,+3V3*%
X31305000Y-31750000D03*
%TD*%
%TO.P,R7,1*%
%TO.N,D2*%
X30925000Y-45720000D03*
%TO.P,R7,2*%
%TO.N,Net-(D2-A)*%
X32575000Y-45720000D03*
%TD*%
D12*
%TO.P,D1,1,K*%
%TO.N,GND*%
X46202500Y-43942000D03*
%TO.P,D1,2,A*%
%TO.N,Net-(D1-A)*%
X47777500Y-43942000D03*
%TD*%
D10*
%TO.P,R1,1*%
%TO.N,+3V3*%
X44641000Y-39370000D03*
%TO.P,R1,2*%
%TO.N,A1*%
X46291000Y-39370000D03*
%TD*%
D18*
%TO.N,GND*%
X45466000Y-43942000D03*
X46990000Y-34798000D03*
X28956000Y-33274000D03*
X35560000Y-44196000D03*
X31650500Y-43923154D03*
X39573200Y-40182800D03*
X35560000Y-45720000D03*
X35560000Y-44958000D03*
X39116000Y-34036000D03*
%TO.N,A2*%
X34544000Y-29972000D03*
X30327600Y-36322000D03*
X37338254Y-30632400D03*
%TO.N,A1*%
X40081200Y-29972000D03*
X45490500Y-33224747D03*
X45490500Y-37817939D03*
X41656000Y-29972000D03*
%TO.N,D2*%
X30504500Y-37846000D03*
X34239200Y-36576000D03*
X38100000Y-48268000D03*
X30276800Y-45720000D03*
%TO.N,D1*%
X45466000Y-45720000D03*
X40640000Y-44958000D03*
X41808400Y-37846000D03*
X43942000Y-37846000D03*
%TO.N,Net-(U3A--)*%
X41656000Y-36576000D03*
X43942000Y-36322000D03*
%TO.N,Net-(U3A-+)*%
X41808400Y-35306000D03*
X43942000Y-33274000D03*
%TO.N,Net-(U3B-+)*%
X34239200Y-34036000D03*
X32004000Y-34798000D03*
%TO.N,Net-(U3B--)*%
X32004000Y-36322000D03*
X34239200Y-35306000D03*
%TO.N,Net-(U1-A)*%
X38862000Y-28244800D03*
X46278800Y-30988000D03*
%TO.N,Net-(U2-A)*%
X29667200Y-30988000D03*
X36576000Y-28244800D03*
%TD*%
D19*
%TO.N,GND*%
X40575000Y-34036000D02*
X39116000Y-34036000D01*
X30962500Y-43942000D02*
X31631654Y-43942000D01*
X31631654Y-43942000D02*
X31650500Y-43923154D01*
X29655000Y-33274000D02*
X28956000Y-33274000D01*
X46291000Y-34798000D02*
X46990000Y-34798000D01*
X46202500Y-43942000D02*
X45466000Y-43942000D01*
%TO.N,A2*%
X34544000Y-28956000D02*
X34544000Y-29972000D01*
X29655000Y-36322000D02*
X30327600Y-36322000D01*
X29655000Y-36322000D02*
X29655000Y-39370000D01*
%TO.N,A1*%
X46291000Y-37846000D02*
X46291000Y-39370000D01*
X45518561Y-37846000D02*
X46291000Y-37846000D01*
X41656000Y-28956000D02*
X41656000Y-29972000D01*
X46291000Y-33274000D02*
X45539753Y-33274000D01*
X45539753Y-33274000D02*
X45490500Y-33224747D01*
X45490500Y-37817939D02*
X45518561Y-37846000D01*
%TO.N,D2*%
X35625000Y-36576000D02*
X34239200Y-36576000D01*
X30962500Y-45682500D02*
X30925000Y-45720000D01*
X30925000Y-45720000D02*
X30276800Y-45720000D01*
X31305000Y-37846000D02*
X30504500Y-37846000D01*
X30962500Y-45428500D02*
X30925000Y-45466000D01*
%TO.N,D1*%
X46202500Y-45682500D02*
X46165000Y-45720000D01*
X44641000Y-37846000D02*
X43942000Y-37846000D01*
X40575000Y-37846000D02*
X41808400Y-37846000D01*
X46165000Y-45720000D02*
X45466000Y-45720000D01*
%TO.N,+3V3*%
X38887500Y-41618500D02*
X38925000Y-41656000D01*
%TO.N,Net-(D1-A)*%
X47777500Y-43942000D02*
X47777500Y-45682500D01*
X47777500Y-45682500D02*
X47815000Y-45720000D01*
%TO.N,Net-(D2-A)*%
X32537500Y-43942000D02*
X32537500Y-45682500D01*
X32537500Y-45682500D02*
X32575000Y-45720000D01*
%TO.N,Net-(U3A--)*%
X44641000Y-36322000D02*
X43942000Y-36322000D01*
X44641000Y-34798000D02*
X44641000Y-36322000D01*
X40575000Y-36576000D02*
X41656000Y-36576000D01*
%TO.N,Net-(U3A-+)*%
X41808400Y-35306000D02*
X40575000Y-35306000D01*
X44641000Y-33274000D02*
X43942000Y-33274000D01*
%TO.N,Net-(U3B-+)*%
X31305000Y-34798000D02*
X32004000Y-34798000D01*
X31305000Y-33274000D02*
X31305000Y-34798000D01*
X35625000Y-34036000D02*
X34239200Y-34036000D01*
%TO.N,Net-(U3B--)*%
X31305000Y-36322000D02*
X32004000Y-36322000D01*
X35625000Y-35306000D02*
X34239200Y-35306000D01*
%TO.N,Net-(PW1-A)*%
X37312500Y-40132000D02*
X37312500Y-41618500D01*
X37312500Y-41618500D02*
X37275000Y-41656000D01*
%TO.N,Net-(U1-A)*%
X46291000Y-31000200D02*
X46278800Y-30988000D01*
X46291000Y-31750000D02*
X46291000Y-31000200D01*
%TO.N,Net-(U2-A)*%
X29655000Y-31000200D02*
X29655000Y-31750000D01*
X29667200Y-30988000D02*
X29655000Y-31000200D01*
%TD*%
%TA.AperFunction,Conductor*%
%TO.N,+3V3*%
G36*
X48261737Y-25400598D02*
G01*
X48295041Y-25402467D01*
X48375603Y-25406992D01*
X48547691Y-25417401D01*
X48554297Y-25418160D01*
X48625907Y-25430327D01*
X48690343Y-25441277D01*
X48783462Y-25458340D01*
X48839227Y-25468560D01*
X48845198Y-25469963D01*
X48982032Y-25509384D01*
X49122850Y-25553265D01*
X49128092Y-25555164D01*
X49261420Y-25610391D01*
X49394609Y-25670334D01*
X49399147Y-25672605D01*
X49455891Y-25703966D01*
X49526422Y-25742947D01*
X49526439Y-25742956D01*
X49650935Y-25818217D01*
X49654739Y-25820711D01*
X49772726Y-25904427D01*
X49775072Y-25906176D01*
X49870416Y-25980874D01*
X49888332Y-25994910D01*
X49891409Y-25997486D01*
X49999430Y-26094018D01*
X50001957Y-26096408D01*
X50103590Y-26198041D01*
X50105980Y-26200568D01*
X50202512Y-26308589D01*
X50205088Y-26311666D01*
X50293811Y-26424912D01*
X50295571Y-26427272D01*
X50379287Y-26545259D01*
X50381781Y-26549063D01*
X50457043Y-26673560D01*
X50527393Y-26800851D01*
X50529668Y-26805398D01*
X50589609Y-26938581D01*
X50644831Y-27071899D01*
X50646744Y-27077183D01*
X50669633Y-27150634D01*
X50690631Y-27218021D01*
X50730032Y-27354790D01*
X50731440Y-27360781D01*
X50758722Y-27509656D01*
X50781835Y-27645683D01*
X50782599Y-27652330D01*
X50793012Y-27824475D01*
X50799402Y-27938263D01*
X50799500Y-27941741D01*
X50799500Y-48258258D01*
X50799402Y-48261736D01*
X50793012Y-48375524D01*
X50782599Y-48547668D01*
X50781835Y-48554315D01*
X50758722Y-48690343D01*
X50731440Y-48839217D01*
X50730032Y-48845208D01*
X50690625Y-48982001D01*
X50646744Y-49122815D01*
X50644831Y-49128099D01*
X50589609Y-49261418D01*
X50529668Y-49394600D01*
X50527394Y-49399147D01*
X50457043Y-49526439D01*
X50381781Y-49650936D01*
X50379287Y-49654739D01*
X50295571Y-49772726D01*
X50293811Y-49775086D01*
X50205088Y-49888332D01*
X50202512Y-49891409D01*
X50105980Y-49999430D01*
X50103590Y-50001957D01*
X50001957Y-50103590D01*
X49999430Y-50105980D01*
X49891409Y-50202512D01*
X49888332Y-50205088D01*
X49775086Y-50293811D01*
X49772726Y-50295571D01*
X49654739Y-50379287D01*
X49650936Y-50381781D01*
X49526439Y-50457043D01*
X49399147Y-50527394D01*
X49394600Y-50529668D01*
X49261418Y-50589609D01*
X49128099Y-50644831D01*
X49122815Y-50646744D01*
X49005231Y-50683385D01*
X48981990Y-50690627D01*
X48845208Y-50730032D01*
X48839217Y-50731440D01*
X48690343Y-50758722D01*
X48554315Y-50781835D01*
X48547668Y-50782599D01*
X48375524Y-50793012D01*
X48261736Y-50799402D01*
X48258258Y-50799500D01*
X27941742Y-50799500D01*
X27938265Y-50799402D01*
X27824475Y-50793012D01*
X27652330Y-50782599D01*
X27645683Y-50781835D01*
X27509656Y-50758722D01*
X27360781Y-50731440D01*
X27354790Y-50730032D01*
X27218021Y-50690631D01*
X27150634Y-50669633D01*
X27077183Y-50646744D01*
X27071899Y-50644831D01*
X26938581Y-50589609D01*
X26805398Y-50529668D01*
X26800851Y-50527393D01*
X26673560Y-50457043D01*
X26549063Y-50381781D01*
X26545259Y-50379287D01*
X26427272Y-50295571D01*
X26424912Y-50293811D01*
X26311666Y-50205088D01*
X26308589Y-50202512D01*
X26200568Y-50105980D01*
X26198041Y-50103590D01*
X26096408Y-50001957D01*
X26094018Y-49999430D01*
X25997486Y-49891409D01*
X25994910Y-49888332D01*
X25968606Y-49854758D01*
X25906176Y-49775072D01*
X25904427Y-49772726D01*
X25820711Y-49654739D01*
X25818217Y-49650935D01*
X25742956Y-49526439D01*
X25672605Y-49399147D01*
X25670330Y-49394600D01*
X25610390Y-49261418D01*
X25555167Y-49128099D01*
X25553265Y-49122850D01*
X25509375Y-48982001D01*
X25469963Y-48845198D01*
X25468560Y-48839227D01*
X25458340Y-48783462D01*
X25441277Y-48690343D01*
X25430327Y-48625907D01*
X25418160Y-48554297D01*
X25417401Y-48547691D01*
X25406992Y-48375603D01*
X25402626Y-48297867D01*
X25400598Y-48261736D01*
X25400549Y-48260007D01*
X25684671Y-48260007D01*
X25703964Y-48554363D01*
X25703965Y-48554373D01*
X25703966Y-48554380D01*
X25703968Y-48554390D01*
X25761518Y-48843716D01*
X25761521Y-48843730D01*
X25856349Y-49123080D01*
X25986825Y-49387660D01*
X25986829Y-49387667D01*
X26150725Y-49632955D01*
X26345241Y-49854758D01*
X26567044Y-50049274D01*
X26648334Y-50103590D01*
X26812335Y-50213172D01*
X27076923Y-50343652D01*
X27356278Y-50438481D01*
X27645620Y-50496034D01*
X27673888Y-50497886D01*
X27939993Y-50515329D01*
X27940000Y-50515329D01*
X27940007Y-50515329D01*
X28175675Y-50499881D01*
X28234380Y-50496034D01*
X28523722Y-50438481D01*
X28803077Y-50343652D01*
X29067665Y-50213172D01*
X29312957Y-50049273D01*
X29534758Y-49854758D01*
X29729273Y-49632957D01*
X29770758Y-49570870D01*
X37099500Y-49570870D01*
X37099501Y-49570876D01*
X37105908Y-49630483D01*
X37156202Y-49765328D01*
X37156206Y-49765335D01*
X37242452Y-49880544D01*
X37242455Y-49880547D01*
X37357664Y-49966793D01*
X37357671Y-49966797D01*
X37492517Y-50017091D01*
X37492516Y-50017091D01*
X37499444Y-50017835D01*
X37552127Y-50023500D01*
X38647872Y-50023499D01*
X38707483Y-50017091D01*
X38842331Y-49966796D01*
X38957546Y-49880546D01*
X39043796Y-49765331D01*
X39094091Y-49630483D01*
X39100500Y-49570873D01*
X39100499Y-48518000D01*
X42180000Y-48518000D01*
X42180000Y-49570844D01*
X42186401Y-49630372D01*
X42186403Y-49630379D01*
X42236645Y-49765086D01*
X42236649Y-49765093D01*
X42322809Y-49880187D01*
X42322812Y-49880190D01*
X42437906Y-49966350D01*
X42437913Y-49966354D01*
X42572620Y-50016596D01*
X42572627Y-50016598D01*
X42632155Y-50022999D01*
X42632172Y-50023000D01*
X42930000Y-50023000D01*
X42930000Y-48518000D01*
X43430000Y-48518000D01*
X43430000Y-50023000D01*
X43727828Y-50023000D01*
X43727844Y-50022999D01*
X43787372Y-50016598D01*
X43787379Y-50016596D01*
X43922086Y-49966354D01*
X43922093Y-49966350D01*
X44037187Y-49880190D01*
X44037190Y-49880187D01*
X44123350Y-49765093D01*
X44123354Y-49765086D01*
X44173596Y-49630379D01*
X44173598Y-49630372D01*
X44179999Y-49570844D01*
X44180000Y-49570827D01*
X44180000Y-48518000D01*
X43430000Y-48518000D01*
X42930000Y-48518000D01*
X42180000Y-48518000D01*
X39100499Y-48518000D01*
X39100499Y-48018000D01*
X42180000Y-48018000D01*
X42930000Y-48018000D01*
X42930000Y-46513000D01*
X43430000Y-46513000D01*
X43430000Y-48018000D01*
X44180000Y-48018000D01*
X44180000Y-46965172D01*
X44179999Y-46965155D01*
X44173598Y-46905627D01*
X44173596Y-46905620D01*
X44123354Y-46770913D01*
X44123350Y-46770906D01*
X44037190Y-46655812D01*
X44037187Y-46655809D01*
X43922093Y-46569649D01*
X43922086Y-46569645D01*
X43787379Y-46519403D01*
X43787372Y-46519401D01*
X43727844Y-46513000D01*
X43430000Y-46513000D01*
X42930000Y-46513000D01*
X42632155Y-46513000D01*
X42572627Y-46519401D01*
X42572620Y-46519403D01*
X42437913Y-46569645D01*
X42437906Y-46569649D01*
X42322812Y-46655809D01*
X42322809Y-46655812D01*
X42236649Y-46770906D01*
X42236645Y-46770913D01*
X42186403Y-46905620D01*
X42186401Y-46905627D01*
X42180000Y-46965155D01*
X42180000Y-48018000D01*
X39100499Y-48018000D01*
X39100499Y-46965128D01*
X39094091Y-46905517D01*
X39043884Y-46770906D01*
X39043797Y-46770671D01*
X39043793Y-46770664D01*
X38957547Y-46655455D01*
X38957544Y-46655452D01*
X38842335Y-46569206D01*
X38842328Y-46569202D01*
X38707482Y-46518908D01*
X38707483Y-46518908D01*
X38647883Y-46512501D01*
X38647881Y-46512500D01*
X38647873Y-46512500D01*
X38647864Y-46512500D01*
X37552129Y-46512500D01*
X37552123Y-46512501D01*
X37492516Y-46518908D01*
X37357671Y-46569202D01*
X37357664Y-46569206D01*
X37242455Y-46655452D01*
X37242452Y-46655455D01*
X37156206Y-46770664D01*
X37156202Y-46770671D01*
X37105908Y-46905517D01*
X37099501Y-46965116D01*
X37099501Y-46965123D01*
X37099500Y-46965135D01*
X37099500Y-49570870D01*
X29770758Y-49570870D01*
X29893172Y-49387665D01*
X30023652Y-49123077D01*
X30118481Y-48843722D01*
X30176034Y-48554380D01*
X30187757Y-48375524D01*
X30195329Y-48260007D01*
X30195329Y-48259992D01*
X30176035Y-47965636D01*
X30176034Y-47965620D01*
X30118481Y-47676278D01*
X30023652Y-47396923D01*
X29893172Y-47132336D01*
X29729273Y-46887043D01*
X29686655Y-46838447D01*
X29534758Y-46665241D01*
X29312955Y-46470725D01*
X29067667Y-46306829D01*
X29067660Y-46306825D01*
X28803080Y-46176349D01*
X28523730Y-46081521D01*
X28523724Y-46081519D01*
X28523722Y-46081519D01*
X28234380Y-46023966D01*
X28234373Y-46023965D01*
X28234363Y-46023964D01*
X27940007Y-46004671D01*
X27939993Y-46004671D01*
X27645636Y-46023964D01*
X27645624Y-46023965D01*
X27645620Y-46023966D01*
X27645612Y-46023967D01*
X27645609Y-46023968D01*
X27356283Y-46081518D01*
X27356269Y-46081521D01*
X27076919Y-46176349D01*
X26812334Y-46306828D01*
X26567041Y-46470728D01*
X26345241Y-46665241D01*
X26150728Y-46887041D01*
X25986828Y-47132334D01*
X25856349Y-47396919D01*
X25761521Y-47676269D01*
X25761518Y-47676283D01*
X25703968Y-47965609D01*
X25703964Y-47965636D01*
X25684671Y-48259992D01*
X25684671Y-48260007D01*
X25400549Y-48260007D01*
X25400500Y-48258259D01*
X25400500Y-45720002D01*
X29521551Y-45720002D01*
X29540485Y-45888056D01*
X29596345Y-46047694D01*
X29596347Y-46047697D01*
X29686318Y-46190884D01*
X29686323Y-46190890D01*
X29805909Y-46310476D01*
X29805915Y-46310481D01*
X29949102Y-46400452D01*
X29949108Y-46400455D01*
X29949110Y-46400456D01*
X30108741Y-46456313D01*
X30163575Y-46462491D01*
X30227987Y-46489556D01*
X30237372Y-46498030D01*
X30289811Y-46550469D01*
X30289813Y-46550470D01*
X30289815Y-46550472D01*
X30435394Y-46638478D01*
X30597804Y-46689086D01*
X30668384Y-46695500D01*
X30668387Y-46695500D01*
X31181613Y-46695500D01*
X31181616Y-46695500D01*
X31252196Y-46689086D01*
X31414606Y-46638478D01*
X31560185Y-46550472D01*
X31606176Y-46504481D01*
X31662319Y-46448339D01*
X31723642Y-46414854D01*
X31793334Y-46419838D01*
X31837681Y-46448339D01*
X31939811Y-46550469D01*
X31939813Y-46550470D01*
X31939815Y-46550472D01*
X32085394Y-46638478D01*
X32247804Y-46689086D01*
X32318384Y-46695500D01*
X32318387Y-46695500D01*
X32831613Y-46695500D01*
X32831616Y-46695500D01*
X32902196Y-46689086D01*
X33064606Y-46638478D01*
X33210185Y-46550472D01*
X33330472Y-46430185D01*
X33418478Y-46284606D01*
X33425874Y-46260870D01*
X34559500Y-46260870D01*
X34559501Y-46260876D01*
X34565908Y-46320483D01*
X34616202Y-46455328D01*
X34616206Y-46455335D01*
X34702452Y-46570544D01*
X34702455Y-46570547D01*
X34817664Y-46656793D01*
X34817671Y-46656797D01*
X34952517Y-46707091D01*
X34952516Y-46707091D01*
X34959444Y-46707835D01*
X35012127Y-46713500D01*
X36107872Y-46713499D01*
X36167483Y-46707091D01*
X36302331Y-46656796D01*
X36417546Y-46570546D01*
X36503796Y-46455331D01*
X36554091Y-46320483D01*
X36560500Y-46260873D01*
X36560500Y-46260870D01*
X39639500Y-46260870D01*
X39639501Y-46260876D01*
X39645908Y-46320483D01*
X39696202Y-46455328D01*
X39696206Y-46455335D01*
X39782452Y-46570544D01*
X39782455Y-46570547D01*
X39897664Y-46656793D01*
X39897671Y-46656797D01*
X40032517Y-46707091D01*
X40032516Y-46707091D01*
X40039444Y-46707835D01*
X40092127Y-46713500D01*
X41187872Y-46713499D01*
X41247483Y-46707091D01*
X41382331Y-46656796D01*
X41497546Y-46570546D01*
X41583796Y-46455331D01*
X41634091Y-46320483D01*
X41640500Y-46260873D01*
X41640500Y-45720002D01*
X44710751Y-45720002D01*
X44729685Y-45888056D01*
X44785545Y-46047694D01*
X44785547Y-46047697D01*
X44875518Y-46190884D01*
X44875523Y-46190890D01*
X44995109Y-46310476D01*
X44995115Y-46310481D01*
X45138302Y-46400452D01*
X45138305Y-46400454D01*
X45138309Y-46400455D01*
X45138310Y-46400456D01*
X45295126Y-46455328D01*
X45297941Y-46456313D01*
X45297946Y-46456314D01*
X45410025Y-46468942D01*
X45474439Y-46496008D01*
X45483823Y-46504481D01*
X45529811Y-46550469D01*
X45529813Y-46550470D01*
X45529815Y-46550472D01*
X45675394Y-46638478D01*
X45837804Y-46689086D01*
X45908384Y-46695500D01*
X45908387Y-46695500D01*
X46421613Y-46695500D01*
X46421616Y-46695500D01*
X46492196Y-46689086D01*
X46654606Y-46638478D01*
X46800185Y-46550472D01*
X46846176Y-46504481D01*
X46902319Y-46448339D01*
X46963642Y-46414854D01*
X47033334Y-46419838D01*
X47077681Y-46448339D01*
X47179811Y-46550469D01*
X47179813Y-46550470D01*
X47179815Y-46550472D01*
X47325394Y-46638478D01*
X47487804Y-46689086D01*
X47558384Y-46695500D01*
X47558387Y-46695500D01*
X48071613Y-46695500D01*
X48071616Y-46695500D01*
X48142196Y-46689086D01*
X48304606Y-46638478D01*
X48450185Y-46550472D01*
X48570472Y-46430185D01*
X48658478Y-46284606D01*
X48709086Y-46122196D01*
X48715500Y-46051616D01*
X48715500Y-45388384D01*
X48709086Y-45317804D01*
X48658478Y-45155394D01*
X48570472Y-45009815D01*
X48570470Y-45009813D01*
X48570469Y-45009811D01*
X48473846Y-44913188D01*
X48440361Y-44851865D01*
X48445345Y-44782173D01*
X48473846Y-44737826D01*
X48514477Y-44697195D01*
X48564281Y-44647391D01*
X48652549Y-44504287D01*
X48705436Y-44344685D01*
X48715500Y-44246174D01*
X48715500Y-43637826D01*
X48705436Y-43539315D01*
X48652549Y-43379713D01*
X48652545Y-43379707D01*
X48652544Y-43379704D01*
X48564283Y-43236612D01*
X48564280Y-43236608D01*
X48445391Y-43117719D01*
X48445387Y-43117716D01*
X48302295Y-43029455D01*
X48302289Y-43029452D01*
X48302287Y-43029451D01*
X48142685Y-42976564D01*
X48142683Y-42976563D01*
X48044181Y-42966500D01*
X48044174Y-42966500D01*
X47510826Y-42966500D01*
X47510818Y-42966500D01*
X47412316Y-42976563D01*
X47412315Y-42976564D01*
X47333219Y-43002773D01*
X47252715Y-43029450D01*
X47252704Y-43029455D01*
X47109612Y-43117716D01*
X47109608Y-43117719D01*
X47077681Y-43149647D01*
X47016358Y-43183132D01*
X46946666Y-43178148D01*
X46902319Y-43149647D01*
X46870391Y-43117719D01*
X46870387Y-43117716D01*
X46727295Y-43029455D01*
X46727289Y-43029452D01*
X46727287Y-43029451D01*
X46567685Y-42976564D01*
X46567683Y-42976563D01*
X46469181Y-42966500D01*
X46469174Y-42966500D01*
X45935826Y-42966500D01*
X45935818Y-42966500D01*
X45837316Y-42976563D01*
X45837315Y-42976564D01*
X45758219Y-43002773D01*
X45677715Y-43029450D01*
X45677704Y-43029455D01*
X45534609Y-43117717D01*
X45496202Y-43156124D01*
X45434879Y-43189609D01*
X45422406Y-43191662D01*
X45297946Y-43205685D01*
X45138307Y-43261544D01*
X45138302Y-43261547D01*
X44995115Y-43351518D01*
X44995109Y-43351523D01*
X44875523Y-43471109D01*
X44875518Y-43471115D01*
X44785547Y-43614302D01*
X44785545Y-43614305D01*
X44729685Y-43773943D01*
X44710751Y-43941997D01*
X44710751Y-43942002D01*
X44729685Y-44110056D01*
X44785545Y-44269694D01*
X44785547Y-44269697D01*
X44875518Y-44412884D01*
X44875523Y-44412890D01*
X44995109Y-44532476D01*
X44995115Y-44532481D01*
X45138302Y-44622452D01*
X45138305Y-44622454D01*
X45138309Y-44622455D01*
X45138310Y-44622456D01*
X45273604Y-44669797D01*
X45297941Y-44678313D01*
X45297946Y-44678314D01*
X45422406Y-44692337D01*
X45486820Y-44719403D01*
X45496204Y-44727876D01*
X45506154Y-44737826D01*
X45539639Y-44799149D01*
X45534655Y-44868841D01*
X45506152Y-44913190D01*
X45483821Y-44935520D01*
X45422497Y-44969004D01*
X45410026Y-44971057D01*
X45297946Y-44983685D01*
X45138307Y-45039544D01*
X45138302Y-45039547D01*
X44995115Y-45129518D01*
X44995109Y-45129523D01*
X44875523Y-45249109D01*
X44875518Y-45249115D01*
X44785547Y-45392302D01*
X44785545Y-45392305D01*
X44729685Y-45551943D01*
X44710751Y-45719997D01*
X44710751Y-45720002D01*
X41640500Y-45720002D01*
X41640499Y-43655128D01*
X41634091Y-43595517D01*
X41613129Y-43539316D01*
X41583797Y-43460671D01*
X41583793Y-43460664D01*
X41497547Y-43345455D01*
X41497544Y-43345452D01*
X41382335Y-43259206D01*
X41382328Y-43259202D01*
X41247482Y-43208908D01*
X41247483Y-43208908D01*
X41187883Y-43202501D01*
X41187881Y-43202500D01*
X41187873Y-43202500D01*
X41187864Y-43202500D01*
X40092129Y-43202500D01*
X40092123Y-43202501D01*
X40032516Y-43208908D01*
X39897671Y-43259202D01*
X39897664Y-43259206D01*
X39782455Y-43345452D01*
X39782452Y-43345455D01*
X39696206Y-43460664D01*
X39696202Y-43460671D01*
X39645908Y-43595517D01*
X39639501Y-43655116D01*
X39639501Y-43655123D01*
X39639500Y-43655135D01*
X39639500Y-46260870D01*
X36560500Y-46260870D01*
X36560499Y-43655128D01*
X36554091Y-43595517D01*
X36533129Y-43539316D01*
X36503797Y-43460671D01*
X36503793Y-43460664D01*
X36417547Y-43345455D01*
X36417544Y-43345452D01*
X36302335Y-43259206D01*
X36302328Y-43259202D01*
X36167482Y-43208908D01*
X36167483Y-43208908D01*
X36107883Y-43202501D01*
X36107881Y-43202500D01*
X36107873Y-43202500D01*
X36107864Y-43202500D01*
X35012129Y-43202500D01*
X35012123Y-43202501D01*
X34952516Y-43208908D01*
X34817671Y-43259202D01*
X34817664Y-43259206D01*
X34702455Y-43345452D01*
X34702452Y-43345455D01*
X34616206Y-43460664D01*
X34616202Y-43460671D01*
X34565908Y-43595517D01*
X34559501Y-43655116D01*
X34559501Y-43655123D01*
X34559500Y-43655135D01*
X34559500Y-46260870D01*
X33425874Y-46260870D01*
X33469086Y-46122196D01*
X33475500Y-46051616D01*
X33475500Y-45388384D01*
X33469086Y-45317804D01*
X33418478Y-45155394D01*
X33330472Y-45009815D01*
X33330470Y-45009813D01*
X33330469Y-45009811D01*
X33233846Y-44913188D01*
X33200361Y-44851865D01*
X33205345Y-44782173D01*
X33233846Y-44737826D01*
X33274477Y-44697195D01*
X33324281Y-44647391D01*
X33412549Y-44504287D01*
X33465436Y-44344685D01*
X33475500Y-44246174D01*
X33475500Y-43637826D01*
X33465436Y-43539315D01*
X33412549Y-43379713D01*
X33412545Y-43379707D01*
X33412544Y-43379704D01*
X33324283Y-43236612D01*
X33324280Y-43236608D01*
X33205391Y-43117719D01*
X33205387Y-43117716D01*
X33062295Y-43029455D01*
X33062289Y-43029452D01*
X33062287Y-43029451D01*
X32902685Y-42976564D01*
X32902683Y-42976563D01*
X32804181Y-42966500D01*
X32804174Y-42966500D01*
X32270826Y-42966500D01*
X32270818Y-42966500D01*
X32172316Y-42976563D01*
X32172315Y-42976564D01*
X32093219Y-43002773D01*
X32012715Y-43029450D01*
X32012704Y-43029455D01*
X31869609Y-43117717D01*
X31844540Y-43142787D01*
X31783216Y-43176271D01*
X31742973Y-43178323D01*
X31734400Y-43177357D01*
X31727507Y-43176581D01*
X31663094Y-43149512D01*
X31653714Y-43141042D01*
X31630391Y-43117719D01*
X31630387Y-43117716D01*
X31487295Y-43029455D01*
X31487289Y-43029452D01*
X31487287Y-43029451D01*
X31327685Y-42976564D01*
X31327683Y-42976563D01*
X31229181Y-42966500D01*
X31229174Y-42966500D01*
X30695826Y-42966500D01*
X30695818Y-42966500D01*
X30597316Y-42976563D01*
X30597315Y-42976564D01*
X30518219Y-43002773D01*
X30437715Y-43029450D01*
X30437704Y-43029455D01*
X30294612Y-43117716D01*
X30294608Y-43117719D01*
X30175719Y-43236608D01*
X30175716Y-43236612D01*
X30087455Y-43379704D01*
X30087451Y-43379713D01*
X30034564Y-43539315D01*
X30034564Y-43539316D01*
X30034563Y-43539316D01*
X30024500Y-43637818D01*
X30024500Y-44246181D01*
X30034563Y-44344683D01*
X30087450Y-44504284D01*
X30087455Y-44504295D01*
X30175716Y-44647387D01*
X30175719Y-44647391D01*
X30266154Y-44737826D01*
X30299639Y-44799149D01*
X30294655Y-44868841D01*
X30266151Y-44913191D01*
X30237369Y-44941971D01*
X30176045Y-44975454D01*
X30163577Y-44977507D01*
X30108746Y-44983685D01*
X29949107Y-45039544D01*
X29949102Y-45039547D01*
X29805915Y-45129518D01*
X29805909Y-45129523D01*
X29686323Y-45249109D01*
X29686318Y-45249115D01*
X29596347Y-45392302D01*
X29596345Y-45392305D01*
X29540485Y-45551943D01*
X29521551Y-45719997D01*
X29521551Y-45720002D01*
X25400500Y-45720002D01*
X25400500Y-41987613D01*
X36374500Y-41987613D01*
X36380913Y-42058192D01*
X36380913Y-42058194D01*
X36380914Y-42058196D01*
X36431522Y-42220606D01*
X36513058Y-42355483D01*
X36519530Y-42366188D01*
X36639811Y-42486469D01*
X36639813Y-42486470D01*
X36639815Y-42486472D01*
X36785394Y-42574478D01*
X36947804Y-42625086D01*
X37018384Y-42631500D01*
X37018387Y-42631500D01*
X37531613Y-42631500D01*
X37531616Y-42631500D01*
X37602196Y-42625086D01*
X37764606Y-42574478D01*
X37910185Y-42486472D01*
X38012673Y-42383983D01*
X38073994Y-42350499D01*
X38143685Y-42355483D01*
X38188034Y-42383984D01*
X38290122Y-42486072D01*
X38435604Y-42574019D01*
X38435603Y-42574019D01*
X38597894Y-42624590D01*
X38597893Y-42624590D01*
X38668408Y-42630998D01*
X38668426Y-42630999D01*
X38674999Y-42630998D01*
X38675000Y-42630998D01*
X38675000Y-41906000D01*
X39175000Y-41906000D01*
X39175000Y-42630999D01*
X39181581Y-42630999D01*
X39252102Y-42624591D01*
X39252107Y-42624590D01*
X39414396Y-42574018D01*
X39559877Y-42486072D01*
X39680072Y-42365877D01*
X39768019Y-42220395D01*
X39818590Y-42058106D01*
X39825000Y-41987572D01*
X39825000Y-41906000D01*
X39175000Y-41906000D01*
X38675000Y-41906000D01*
X38675000Y-41530000D01*
X38694685Y-41462961D01*
X38747489Y-41417206D01*
X38799000Y-41406000D01*
X39824999Y-41406000D01*
X39824999Y-41324417D01*
X39818591Y-41253897D01*
X39818590Y-41253892D01*
X39768018Y-41091603D01*
X39756311Y-41072236D01*
X39738475Y-41004681D01*
X39759993Y-40938208D01*
X39814033Y-40893920D01*
X39821454Y-40891051D01*
X39900890Y-40863256D01*
X39900892Y-40863255D01*
X39900897Y-40863252D01*
X40044084Y-40773281D01*
X40044085Y-40773280D01*
X40044090Y-40773277D01*
X40163677Y-40653690D01*
X40163681Y-40653684D01*
X40253652Y-40510497D01*
X40253654Y-40510494D01*
X40253654Y-40510492D01*
X40253656Y-40510490D01*
X40309513Y-40350859D01*
X40309513Y-40350858D01*
X40309514Y-40350856D01*
X40328449Y-40182802D01*
X40328449Y-40182797D01*
X40309514Y-40014743D01*
X40253654Y-39855105D01*
X40253652Y-39855102D01*
X40163681Y-39711915D01*
X40163676Y-39711909D01*
X40071767Y-39620000D01*
X43741001Y-39620000D01*
X43741001Y-39701582D01*
X43747408Y-39772102D01*
X43747409Y-39772107D01*
X43797981Y-39934396D01*
X43885927Y-40079877D01*
X44006122Y-40200072D01*
X44151604Y-40288019D01*
X44151603Y-40288019D01*
X44313894Y-40338590D01*
X44313893Y-40338590D01*
X44384408Y-40344998D01*
X44384426Y-40344999D01*
X44390999Y-40344998D01*
X44391000Y-40344998D01*
X44391000Y-39620000D01*
X43741001Y-39620000D01*
X40071767Y-39620000D01*
X40044090Y-39592323D01*
X40044084Y-39592318D01*
X39900897Y-39502347D01*
X39900892Y-39502344D01*
X39741254Y-39446485D01*
X39731290Y-39445363D01*
X39666877Y-39418295D01*
X39657496Y-39409824D01*
X39555391Y-39307719D01*
X39555387Y-39307716D01*
X39412295Y-39219455D01*
X39412289Y-39219452D01*
X39412287Y-39219451D01*
X39252685Y-39166564D01*
X39252683Y-39166563D01*
X39154181Y-39156500D01*
X39154174Y-39156500D01*
X38620826Y-39156500D01*
X38620818Y-39156500D01*
X38522316Y-39166563D01*
X38522315Y-39166564D01*
X38444079Y-39192489D01*
X38362715Y-39219450D01*
X38362704Y-39219455D01*
X38219612Y-39307716D01*
X38219608Y-39307719D01*
X38187681Y-39339647D01*
X38126358Y-39373132D01*
X38056666Y-39368148D01*
X38012319Y-39339647D01*
X37980391Y-39307719D01*
X37980387Y-39307716D01*
X37837295Y-39219455D01*
X37837289Y-39219452D01*
X37837287Y-39219451D01*
X37677685Y-39166564D01*
X37677683Y-39166563D01*
X37579181Y-39156500D01*
X37579174Y-39156500D01*
X37045826Y-39156500D01*
X37045818Y-39156500D01*
X36947316Y-39166563D01*
X36947315Y-39166564D01*
X36869079Y-39192489D01*
X36787715Y-39219450D01*
X36787704Y-39219455D01*
X36644612Y-39307716D01*
X36644608Y-39307719D01*
X36525719Y-39426608D01*
X36525716Y-39426612D01*
X36437455Y-39569704D01*
X36437451Y-39569713D01*
X36384564Y-39729315D01*
X36384564Y-39729316D01*
X36384563Y-39729316D01*
X36374500Y-39827818D01*
X36374500Y-40436181D01*
X36384563Y-40534683D01*
X36437450Y-40694284D01*
X36437455Y-40694295D01*
X36515942Y-40821541D01*
X36534383Y-40888933D01*
X36516521Y-40950788D01*
X36431522Y-41091393D01*
X36380913Y-41253807D01*
X36374500Y-41324386D01*
X36374500Y-41987613D01*
X25400500Y-41987613D01*
X25400500Y-33274002D01*
X28200751Y-33274002D01*
X28219685Y-33442056D01*
X28275545Y-33601694D01*
X28275547Y-33601697D01*
X28365518Y-33744884D01*
X28365523Y-33744890D01*
X28485109Y-33864476D01*
X28485115Y-33864481D01*
X28628302Y-33954452D01*
X28628305Y-33954454D01*
X28628309Y-33954455D01*
X28628310Y-33954456D01*
X28774521Y-34005617D01*
X28775004Y-34005786D01*
X28831780Y-34046508D01*
X28857527Y-34111461D01*
X28844071Y-34180022D01*
X28840167Y-34186976D01*
X28811981Y-34233601D01*
X28811980Y-34233603D01*
X28761409Y-34395893D01*
X28755000Y-34466427D01*
X28755000Y-34548000D01*
X29781000Y-34548000D01*
X29848039Y-34567685D01*
X29893794Y-34620489D01*
X29905000Y-34672000D01*
X29905000Y-34924000D01*
X29885315Y-34991039D01*
X29832511Y-35036794D01*
X29781000Y-35048000D01*
X28755001Y-35048000D01*
X28755001Y-35129582D01*
X28761408Y-35200102D01*
X28761409Y-35200107D01*
X28811981Y-35362396D01*
X28892364Y-35495366D01*
X28910200Y-35562921D01*
X28892364Y-35623665D01*
X28886304Y-35633690D01*
X28811522Y-35757393D01*
X28760913Y-35919807D01*
X28754500Y-35990386D01*
X28754500Y-36653613D01*
X28760913Y-36724192D01*
X28760913Y-36724194D01*
X28760914Y-36724196D01*
X28793437Y-36828567D01*
X28811522Y-36886606D01*
X28892071Y-37019850D01*
X28909907Y-37087405D01*
X28892071Y-37148150D01*
X28811522Y-37281393D01*
X28760913Y-37443807D01*
X28754500Y-37514386D01*
X28754500Y-38177613D01*
X28760913Y-38248192D01*
X28760913Y-38248194D01*
X28760914Y-38248196D01*
X28807454Y-38397552D01*
X28811522Y-38410606D01*
X28892071Y-38543850D01*
X28909907Y-38611405D01*
X28892071Y-38672150D01*
X28811522Y-38805393D01*
X28760913Y-38967807D01*
X28755782Y-39024275D01*
X28754500Y-39038384D01*
X28754500Y-39701616D01*
X28755436Y-39711915D01*
X28760913Y-39772192D01*
X28760913Y-39772194D01*
X28760914Y-39772196D01*
X28811522Y-39934606D01*
X28893058Y-40069483D01*
X28899530Y-40080188D01*
X29019811Y-40200469D01*
X29019813Y-40200470D01*
X29019815Y-40200472D01*
X29165394Y-40288478D01*
X29327804Y-40339086D01*
X29398384Y-40345500D01*
X29398387Y-40345500D01*
X29911613Y-40345500D01*
X29911616Y-40345500D01*
X29982196Y-40339086D01*
X30144606Y-40288478D01*
X30290185Y-40200472D01*
X30392673Y-40097983D01*
X30453994Y-40064499D01*
X30523685Y-40069483D01*
X30568034Y-40097984D01*
X30670122Y-40200072D01*
X30815604Y-40288019D01*
X30815603Y-40288019D01*
X30977894Y-40338590D01*
X30977893Y-40338590D01*
X31048408Y-40344998D01*
X31048426Y-40344999D01*
X31054999Y-40344998D01*
X31055000Y-40344998D01*
X31055000Y-39620000D01*
X31555000Y-39620000D01*
X31555000Y-40344999D01*
X31561581Y-40344999D01*
X31632102Y-40338591D01*
X31632107Y-40338590D01*
X31794396Y-40288018D01*
X31939877Y-40200072D01*
X32060072Y-40079877D01*
X32148019Y-39934395D01*
X32198590Y-39772106D01*
X32205000Y-39701572D01*
X32205000Y-39620000D01*
X31555000Y-39620000D01*
X31055000Y-39620000D01*
X31055000Y-39244000D01*
X31074685Y-39176961D01*
X31127489Y-39131206D01*
X31179000Y-39120000D01*
X32204999Y-39120000D01*
X32204999Y-39038417D01*
X32198591Y-38967897D01*
X32198590Y-38967892D01*
X32148018Y-38805603D01*
X32067635Y-38672633D01*
X32049799Y-38605079D01*
X32067634Y-38544336D01*
X32148478Y-38410606D01*
X32199086Y-38248196D01*
X32205500Y-38177616D01*
X32205500Y-38096001D01*
X34152704Y-38096001D01*
X34152899Y-38098486D01*
X34198718Y-38256198D01*
X34282314Y-38397552D01*
X34282321Y-38397561D01*
X34398438Y-38513678D01*
X34398447Y-38513685D01*
X34539803Y-38597282D01*
X34539806Y-38597283D01*
X34697504Y-38643099D01*
X34697510Y-38643100D01*
X34734356Y-38646000D01*
X35375000Y-38646000D01*
X35375000Y-38096000D01*
X35875000Y-38096000D01*
X35875000Y-38646000D01*
X36515644Y-38646000D01*
X36552489Y-38643100D01*
X36552495Y-38643099D01*
X36710193Y-38597283D01*
X36710196Y-38597282D01*
X36851552Y-38513685D01*
X36851561Y-38513678D01*
X36967678Y-38397561D01*
X36967685Y-38397552D01*
X37051281Y-38256198D01*
X37097100Y-38098486D01*
X37097295Y-38096001D01*
X37097295Y-38096000D01*
X35875000Y-38096000D01*
X35375000Y-38096000D01*
X34152705Y-38096000D01*
X34152704Y-38096001D01*
X32205500Y-38096001D01*
X32205500Y-37514384D01*
X32199086Y-37443804D01*
X32148478Y-37281394D01*
X32120315Y-37234808D01*
X32102480Y-37167254D01*
X32123998Y-37100780D01*
X32178038Y-37056493D01*
X32185479Y-37053617D01*
X32331690Y-37002456D01*
X32331693Y-37002453D01*
X32331697Y-37002452D01*
X32474884Y-36912481D01*
X32474888Y-36912478D01*
X32474890Y-36912477D01*
X32594477Y-36792890D01*
X32637697Y-36724106D01*
X32684452Y-36649697D01*
X32684454Y-36649694D01*
X32684454Y-36649692D01*
X32684456Y-36649690D01*
X32710240Y-36576002D01*
X33483951Y-36576002D01*
X33502885Y-36744056D01*
X33558745Y-36903694D01*
X33558747Y-36903697D01*
X33648718Y-37046884D01*
X33648723Y-37046890D01*
X33768309Y-37166476D01*
X33768315Y-37166481D01*
X33911502Y-37256452D01*
X33911505Y-37256454D01*
X33911509Y-37256455D01*
X33911510Y-37256456D01*
X34071141Y-37312313D01*
X34083154Y-37313666D01*
X34147569Y-37340730D01*
X34187126Y-37398323D01*
X34189267Y-37468160D01*
X34188352Y-37471481D01*
X34152899Y-37593511D01*
X34152704Y-37595998D01*
X34152705Y-37596000D01*
X37097295Y-37596000D01*
X37097295Y-37595998D01*
X37097100Y-37593513D01*
X37051281Y-37435801D01*
X36967685Y-37294447D01*
X36962900Y-37288278D01*
X36965366Y-37286364D01*
X36938802Y-37237776D01*
X36943749Y-37168082D01*
X36964856Y-37135232D01*
X36963301Y-37134026D01*
X36968077Y-37127868D01*
X36968081Y-37127865D01*
X37051744Y-36986398D01*
X37097598Y-36828569D01*
X37100500Y-36791694D01*
X37100500Y-36360306D01*
X37097598Y-36323431D01*
X37097182Y-36322000D01*
X37063836Y-36207224D01*
X37051744Y-36165602D01*
X36968081Y-36024135D01*
X36968078Y-36024132D01*
X36963298Y-36017969D01*
X36965750Y-36016066D01*
X36939155Y-35967421D01*
X36944104Y-35897726D01*
X36964940Y-35865304D01*
X36963298Y-35864031D01*
X36968075Y-35857870D01*
X36968081Y-35857865D01*
X37051744Y-35716398D01*
X37097598Y-35558569D01*
X37100500Y-35521694D01*
X37100500Y-35090306D01*
X37097598Y-35053431D01*
X37096020Y-35048000D01*
X37051745Y-34895606D01*
X37051744Y-34895603D01*
X37051744Y-34895602D01*
X36968081Y-34754135D01*
X36968078Y-34754132D01*
X36963298Y-34747969D01*
X36965750Y-34746066D01*
X36939155Y-34697421D01*
X36944104Y-34627726D01*
X36964940Y-34595304D01*
X36963298Y-34594031D01*
X36968075Y-34587870D01*
X36968081Y-34587865D01*
X37051744Y-34446398D01*
X37097598Y-34288569D01*
X37100500Y-34251694D01*
X37100500Y-34036002D01*
X38360751Y-34036002D01*
X38379685Y-34204056D01*
X38435545Y-34363694D01*
X38435547Y-34363697D01*
X38525518Y-34506884D01*
X38525523Y-34506890D01*
X38645109Y-34626476D01*
X38645115Y-34626481D01*
X38788302Y-34716452D01*
X38788305Y-34716454D01*
X38788309Y-34716455D01*
X38788310Y-34716456D01*
X38895991Y-34754135D01*
X38947944Y-34772314D01*
X39030334Y-34781597D01*
X39094748Y-34808663D01*
X39134303Y-34866258D01*
X39136441Y-34936095D01*
X39135527Y-34939412D01*
X39102402Y-35053426D01*
X39102401Y-35053432D01*
X39099500Y-35090304D01*
X39099500Y-35521696D01*
X39102401Y-35558567D01*
X39102402Y-35558573D01*
X39148254Y-35716393D01*
X39148255Y-35716396D01*
X39148256Y-35716398D01*
X39178233Y-35767086D01*
X39231917Y-35857862D01*
X39236702Y-35864031D01*
X39234256Y-35865927D01*
X39260857Y-35914642D01*
X39255873Y-35984334D01*
X39235069Y-36016703D01*
X39236702Y-36017969D01*
X39231917Y-36024137D01*
X39148255Y-36165603D01*
X39148254Y-36165606D01*
X39102402Y-36323426D01*
X39102401Y-36323432D01*
X39099500Y-36360304D01*
X39099500Y-36791696D01*
X39102401Y-36828567D01*
X39102402Y-36828573D01*
X39148254Y-36986393D01*
X39148255Y-36986396D01*
X39231917Y-37127862D01*
X39236702Y-37134031D01*
X39234256Y-37135927D01*
X39260857Y-37184642D01*
X39255873Y-37254334D01*
X39235069Y-37286703D01*
X39236702Y-37287969D01*
X39231917Y-37294137D01*
X39148255Y-37435603D01*
X39148254Y-37435606D01*
X39102402Y-37593426D01*
X39102401Y-37593432D01*
X39099500Y-37630304D01*
X39099500Y-38061696D01*
X39102401Y-38098567D01*
X39102402Y-38098573D01*
X39148254Y-38256393D01*
X39148255Y-38256396D01*
X39231917Y-38397862D01*
X39231923Y-38397870D01*
X39348129Y-38514076D01*
X39348133Y-38514079D01*
X39348135Y-38514081D01*
X39489602Y-38597744D01*
X39513187Y-38604596D01*
X39647426Y-38643597D01*
X39647429Y-38643597D01*
X39647431Y-38643598D01*
X39659722Y-38644565D01*
X39684304Y-38646500D01*
X39684306Y-38646500D01*
X41465696Y-38646500D01*
X41484131Y-38645049D01*
X41502569Y-38643598D01*
X41502571Y-38643597D01*
X41502573Y-38643597D01*
X41667891Y-38595568D01*
X41668678Y-38598278D01*
X41717366Y-38590991D01*
X41793989Y-38599625D01*
X41808399Y-38601249D01*
X41808400Y-38601249D01*
X41808403Y-38601249D01*
X41976456Y-38582314D01*
X41989396Y-38577786D01*
X42136090Y-38526456D01*
X42136092Y-38526454D01*
X42136094Y-38526454D01*
X42136097Y-38526452D01*
X42279284Y-38436481D01*
X42279285Y-38436480D01*
X42279290Y-38436477D01*
X42398877Y-38316890D01*
X42442043Y-38248192D01*
X42488852Y-38173697D01*
X42488854Y-38173694D01*
X42488854Y-38173692D01*
X42488856Y-38173690D01*
X42544713Y-38014059D01*
X42544713Y-38014058D01*
X42544714Y-38014056D01*
X42563649Y-37846002D01*
X43186751Y-37846002D01*
X43205685Y-38014056D01*
X43261545Y-38173694D01*
X43261547Y-38173697D01*
X43351518Y-38316884D01*
X43351523Y-38316890D01*
X43471109Y-38436476D01*
X43471115Y-38436481D01*
X43614302Y-38526452D01*
X43614305Y-38526454D01*
X43614309Y-38526455D01*
X43614310Y-38526456D01*
X43761004Y-38577786D01*
X43817780Y-38618508D01*
X43843527Y-38683461D01*
X43830071Y-38752022D01*
X43826167Y-38758976D01*
X43797981Y-38805601D01*
X43797980Y-38805603D01*
X43747409Y-38967893D01*
X43741000Y-39038427D01*
X43741000Y-39120000D01*
X44767000Y-39120000D01*
X44834039Y-39139685D01*
X44879794Y-39192489D01*
X44891000Y-39244000D01*
X44891000Y-40344999D01*
X44897581Y-40344999D01*
X44968102Y-40338591D01*
X44968107Y-40338590D01*
X45130396Y-40288018D01*
X45275877Y-40200072D01*
X45275878Y-40200071D01*
X45377963Y-40097985D01*
X45439286Y-40064499D01*
X45508977Y-40069483D01*
X45553326Y-40097984D01*
X45655811Y-40200469D01*
X45655813Y-40200470D01*
X45655815Y-40200472D01*
X45801394Y-40288478D01*
X45963804Y-40339086D01*
X46034384Y-40345500D01*
X46034387Y-40345500D01*
X46547613Y-40345500D01*
X46547616Y-40345500D01*
X46618196Y-40339086D01*
X46780606Y-40288478D01*
X46926185Y-40200472D01*
X47046472Y-40080185D01*
X47134478Y-39934606D01*
X47185086Y-39772196D01*
X47191500Y-39701616D01*
X47191500Y-39038384D01*
X47185086Y-38967804D01*
X47134478Y-38805394D01*
X47053927Y-38672147D01*
X47036092Y-38604596D01*
X47053927Y-38543852D01*
X47134478Y-38410606D01*
X47185086Y-38248196D01*
X47191500Y-38177616D01*
X47191500Y-37514384D01*
X47185086Y-37443804D01*
X47134478Y-37281394D01*
X47053635Y-37147664D01*
X47035799Y-37080112D01*
X47053636Y-37019365D01*
X47134018Y-36886398D01*
X47134019Y-36886396D01*
X47184590Y-36724106D01*
X47191000Y-36653572D01*
X47191000Y-36572000D01*
X46165000Y-36572000D01*
X46097961Y-36552315D01*
X46052206Y-36499511D01*
X46041000Y-36448000D01*
X46041000Y-36196000D01*
X46060685Y-36128961D01*
X46113489Y-36083206D01*
X46165000Y-36072000D01*
X47190999Y-36072000D01*
X47190999Y-35990417D01*
X47184591Y-35919897D01*
X47184590Y-35919892D01*
X47134018Y-35757603D01*
X47105833Y-35710978D01*
X47087997Y-35643423D01*
X47109515Y-35576950D01*
X47163555Y-35532662D01*
X47170996Y-35529786D01*
X47317690Y-35478456D01*
X47317693Y-35478453D01*
X47317697Y-35478452D01*
X47460884Y-35388481D01*
X47460885Y-35388480D01*
X47460890Y-35388477D01*
X47580477Y-35268890D01*
X47623643Y-35200192D01*
X47670452Y-35125697D01*
X47670454Y-35125694D01*
X47670454Y-35125692D01*
X47670456Y-35125690D01*
X47726313Y-34966059D01*
X47726313Y-34966058D01*
X47726314Y-34966056D01*
X47745249Y-34798002D01*
X47745249Y-34797997D01*
X47726314Y-34629943D01*
X47670454Y-34470305D01*
X47670452Y-34470302D01*
X47580481Y-34327115D01*
X47580476Y-34327109D01*
X47460890Y-34207523D01*
X47460884Y-34207518D01*
X47317697Y-34117547D01*
X47317692Y-34117544D01*
X47232729Y-34087815D01*
X47171476Y-34066381D01*
X47114702Y-34025661D01*
X47088954Y-33960709D01*
X47102410Y-33892147D01*
X47106304Y-33885209D01*
X47134478Y-33838606D01*
X47185086Y-33676196D01*
X47191500Y-33605616D01*
X47191500Y-32942384D01*
X47185086Y-32871804D01*
X47134478Y-32709394D01*
X47053927Y-32576147D01*
X47036092Y-32508596D01*
X47053927Y-32447852D01*
X47134478Y-32314606D01*
X47185086Y-32152196D01*
X47191500Y-32081616D01*
X47191500Y-31418384D01*
X47185086Y-31347804D01*
X47134478Y-31185394D01*
X47051931Y-31048846D01*
X47036835Y-30994693D01*
X47034829Y-30994920D01*
X47015114Y-30819944D01*
X46999388Y-30775001D01*
X46959256Y-30660310D01*
X46959255Y-30660309D01*
X46959254Y-30660305D01*
X46959252Y-30660302D01*
X46869281Y-30517115D01*
X46869276Y-30517109D01*
X46749690Y-30397523D01*
X46749684Y-30397518D01*
X46606497Y-30307547D01*
X46606494Y-30307545D01*
X46446856Y-30251685D01*
X46278803Y-30232751D01*
X46278797Y-30232751D01*
X46110743Y-30251685D01*
X45951105Y-30307545D01*
X45951102Y-30307547D01*
X45807915Y-30397518D01*
X45807909Y-30397523D01*
X45688323Y-30517109D01*
X45688318Y-30517115D01*
X45598347Y-30660302D01*
X45598345Y-30660305D01*
X45542485Y-30819943D01*
X45534193Y-30893545D01*
X45507126Y-30957959D01*
X45449531Y-30997514D01*
X45379694Y-30999651D01*
X45323292Y-30967342D01*
X45275877Y-30919927D01*
X45130395Y-30831980D01*
X45130396Y-30831980D01*
X44968105Y-30781409D01*
X44968106Y-30781409D01*
X44897572Y-30775000D01*
X44891000Y-30775000D01*
X44891000Y-31876000D01*
X44871315Y-31943039D01*
X44818511Y-31988794D01*
X44767000Y-32000000D01*
X43741001Y-32000000D01*
X43741001Y-32081582D01*
X43747408Y-32152102D01*
X43747409Y-32152107D01*
X43797981Y-32314396D01*
X43826167Y-32361022D01*
X43844003Y-32428577D01*
X43822485Y-32495050D01*
X43768445Y-32539338D01*
X43761004Y-32542214D01*
X43614308Y-32593544D01*
X43614302Y-32593547D01*
X43471115Y-32683518D01*
X43471109Y-32683523D01*
X43351523Y-32803109D01*
X43351518Y-32803115D01*
X43261547Y-32946302D01*
X43261545Y-32946305D01*
X43205685Y-33105943D01*
X43186751Y-33273997D01*
X43186751Y-33274002D01*
X43205685Y-33442056D01*
X43261545Y-33601694D01*
X43261547Y-33601697D01*
X43351518Y-33744884D01*
X43351523Y-33744890D01*
X43471109Y-33864476D01*
X43471115Y-33864481D01*
X43614302Y-33954452D01*
X43614305Y-33954454D01*
X43614309Y-33954455D01*
X43614310Y-33954456D01*
X43760521Y-34005617D01*
X43817297Y-34046339D01*
X43843044Y-34111292D01*
X43829588Y-34179853D01*
X43825684Y-34186807D01*
X43797523Y-34233392D01*
X43797522Y-34233394D01*
X43768318Y-34327115D01*
X43746913Y-34395807D01*
X43740500Y-34466386D01*
X43740500Y-35129613D01*
X43746913Y-35200192D01*
X43746913Y-35200194D01*
X43746914Y-35200196D01*
X43779882Y-35305997D01*
X43797522Y-35362606D01*
X43825684Y-35409191D01*
X43843520Y-35476746D01*
X43822002Y-35543220D01*
X43767962Y-35587507D01*
X43760521Y-35590383D01*
X43614308Y-35641544D01*
X43614302Y-35641547D01*
X43471115Y-35731518D01*
X43471109Y-35731523D01*
X43351523Y-35851109D01*
X43351518Y-35851115D01*
X43261547Y-35994302D01*
X43261545Y-35994305D01*
X43205685Y-36153943D01*
X43186751Y-36321997D01*
X43186751Y-36322002D01*
X43205685Y-36490056D01*
X43261545Y-36649694D01*
X43261547Y-36649697D01*
X43351518Y-36792884D01*
X43351523Y-36792890D01*
X43471111Y-36912478D01*
X43576990Y-36979007D01*
X43623280Y-37031342D01*
X43633928Y-37100395D01*
X43605553Y-37164243D01*
X43576990Y-37188993D01*
X43471111Y-37255521D01*
X43351523Y-37375109D01*
X43351518Y-37375115D01*
X43261547Y-37518302D01*
X43261545Y-37518305D01*
X43205685Y-37677943D01*
X43186751Y-37845997D01*
X43186751Y-37846002D01*
X42563649Y-37846002D01*
X42563649Y-37845997D01*
X42544714Y-37677943D01*
X42488854Y-37518305D01*
X42488852Y-37518302D01*
X42398881Y-37375115D01*
X42398876Y-37375109D01*
X42279290Y-37255523D01*
X42279288Y-37255522D01*
X42279286Y-37255521D01*
X42274582Y-37252564D01*
X42262668Y-37245078D01*
X42216378Y-37192742D01*
X42205732Y-37123688D01*
X42234109Y-37059841D01*
X42240966Y-37052401D01*
X42246477Y-37046890D01*
X42255717Y-37032185D01*
X42336456Y-36903690D01*
X42392313Y-36744059D01*
X42392313Y-36744058D01*
X42392314Y-36744056D01*
X42411249Y-36576002D01*
X42411249Y-36575997D01*
X42392314Y-36407943D01*
X42336454Y-36248305D01*
X42336452Y-36248302D01*
X42246481Y-36105115D01*
X42246476Y-36105109D01*
X42240961Y-36099594D01*
X42207476Y-36038271D01*
X42212460Y-35968579D01*
X42254332Y-35912646D01*
X42262657Y-35906927D01*
X42279290Y-35896477D01*
X42398877Y-35776890D01*
X42401007Y-35773500D01*
X42488852Y-35633697D01*
X42488854Y-35633694D01*
X42488854Y-35633692D01*
X42488856Y-35633690D01*
X42544713Y-35474059D01*
X42544713Y-35474058D01*
X42544714Y-35474056D01*
X42563649Y-35306002D01*
X42563649Y-35305997D01*
X42544714Y-35137943D01*
X42488854Y-34978305D01*
X42488852Y-34978302D01*
X42398881Y-34835115D01*
X42398876Y-34835109D01*
X42279290Y-34715523D01*
X42279284Y-34715518D01*
X42136097Y-34625547D01*
X42136086Y-34625542D01*
X42077799Y-34605146D01*
X42021023Y-34564424D01*
X41995276Y-34499471D01*
X41999678Y-34453510D01*
X42047597Y-34288573D01*
X42047598Y-34288567D01*
X42050500Y-34251696D01*
X42050500Y-33820304D01*
X42047598Y-33783432D01*
X42047597Y-33783426D01*
X42001745Y-33625606D01*
X42001744Y-33625603D01*
X42001744Y-33625602D01*
X41918081Y-33484135D01*
X41918079Y-33484133D01*
X41918076Y-33484129D01*
X41801870Y-33367923D01*
X41801862Y-33367917D01*
X41693778Y-33303997D01*
X41660398Y-33284256D01*
X41660397Y-33284255D01*
X41660396Y-33284255D01*
X41660393Y-33284254D01*
X41502573Y-33238402D01*
X41502567Y-33238401D01*
X41465696Y-33235500D01*
X41465694Y-33235500D01*
X39684306Y-33235500D01*
X39684304Y-33235500D01*
X39647432Y-33238401D01*
X39647426Y-33238402D01*
X39489606Y-33284254D01*
X39489599Y-33284257D01*
X39446442Y-33309780D01*
X39378718Y-33326963D01*
X39342368Y-33320090D01*
X39284057Y-33299686D01*
X39284054Y-33299685D01*
X39116003Y-33280751D01*
X39115997Y-33280751D01*
X38947943Y-33299685D01*
X38788305Y-33355545D01*
X38788302Y-33355547D01*
X38645115Y-33445518D01*
X38645109Y-33445523D01*
X38525523Y-33565109D01*
X38525518Y-33565115D01*
X38435547Y-33708302D01*
X38435545Y-33708305D01*
X38379685Y-33867943D01*
X38360751Y-34035997D01*
X38360751Y-34036002D01*
X37100500Y-34036002D01*
X37100500Y-33820306D01*
X37097598Y-33783431D01*
X37051744Y-33625602D01*
X36968081Y-33484135D01*
X36968079Y-33484133D01*
X36968076Y-33484129D01*
X36851870Y-33367923D01*
X36851862Y-33367917D01*
X36743778Y-33303997D01*
X36710398Y-33284256D01*
X36710397Y-33284255D01*
X36710396Y-33284255D01*
X36710393Y-33284254D01*
X36552573Y-33238402D01*
X36552567Y-33238401D01*
X36515696Y-33235500D01*
X36515694Y-33235500D01*
X34734306Y-33235500D01*
X34734304Y-33235500D01*
X34697432Y-33238401D01*
X34697426Y-33238402D01*
X34539607Y-33284254D01*
X34539596Y-33284258D01*
X34523650Y-33293689D01*
X34455926Y-33310870D01*
X34419576Y-33303997D01*
X34407255Y-33299685D01*
X34239203Y-33280751D01*
X34239197Y-33280751D01*
X34071143Y-33299685D01*
X33911505Y-33355545D01*
X33911502Y-33355547D01*
X33768315Y-33445518D01*
X33768309Y-33445523D01*
X33648723Y-33565109D01*
X33648718Y-33565115D01*
X33558747Y-33708302D01*
X33558745Y-33708305D01*
X33502885Y-33867943D01*
X33483951Y-34035997D01*
X33483951Y-34036002D01*
X33502885Y-34204056D01*
X33558745Y-34363694D01*
X33558747Y-34363697D01*
X33648718Y-34506884D01*
X33648723Y-34506890D01*
X33725152Y-34583319D01*
X33758637Y-34644642D01*
X33753653Y-34714334D01*
X33725152Y-34758681D01*
X33648723Y-34835109D01*
X33648718Y-34835115D01*
X33558747Y-34978302D01*
X33558745Y-34978305D01*
X33502885Y-35137943D01*
X33483951Y-35305997D01*
X33483951Y-35306002D01*
X33502885Y-35474056D01*
X33558745Y-35633694D01*
X33558747Y-35633697D01*
X33648718Y-35776884D01*
X33648723Y-35776890D01*
X33725152Y-35853319D01*
X33758637Y-35914642D01*
X33753653Y-35984334D01*
X33725152Y-36028681D01*
X33648723Y-36105109D01*
X33648718Y-36105115D01*
X33558747Y-36248302D01*
X33558745Y-36248305D01*
X33502885Y-36407943D01*
X33483951Y-36575997D01*
X33483951Y-36576002D01*
X32710240Y-36576002D01*
X32740313Y-36490059D01*
X32740313Y-36490058D01*
X32740314Y-36490056D01*
X32759249Y-36322002D01*
X32759249Y-36321997D01*
X32740314Y-36153943D01*
X32709860Y-36066913D01*
X32684456Y-35994310D01*
X32684455Y-35994309D01*
X32684454Y-35994305D01*
X32684452Y-35994302D01*
X32594481Y-35851115D01*
X32594476Y-35851109D01*
X32474890Y-35731523D01*
X32369010Y-35664994D01*
X32322719Y-35612659D01*
X32312071Y-35543605D01*
X32340446Y-35479757D01*
X32369010Y-35455006D01*
X32474890Y-35388477D01*
X32594477Y-35268890D01*
X32637643Y-35200192D01*
X32684452Y-35125697D01*
X32684454Y-35125694D01*
X32684454Y-35125692D01*
X32684456Y-35125690D01*
X32740313Y-34966059D01*
X32740313Y-34966058D01*
X32740314Y-34966056D01*
X32759249Y-34798002D01*
X32759249Y-34797997D01*
X32740314Y-34629943D01*
X32684454Y-34470305D01*
X32684452Y-34470302D01*
X32594481Y-34327115D01*
X32594476Y-34327109D01*
X32474890Y-34207523D01*
X32474884Y-34207518D01*
X32331697Y-34117547D01*
X32331692Y-34117544D01*
X32246729Y-34087815D01*
X32185476Y-34066381D01*
X32128702Y-34025661D01*
X32102954Y-33960709D01*
X32116410Y-33892147D01*
X32120304Y-33885209D01*
X32148478Y-33838606D01*
X32199086Y-33676196D01*
X32205500Y-33605616D01*
X32205500Y-32942384D01*
X32199086Y-32871804D01*
X32148478Y-32709394D01*
X32067635Y-32575664D01*
X32049799Y-32508112D01*
X32067636Y-32447365D01*
X32148018Y-32314398D01*
X32148019Y-32314396D01*
X32198590Y-32152106D01*
X32205000Y-32081572D01*
X32205000Y-32000000D01*
X31179000Y-32000000D01*
X31111961Y-31980315D01*
X31066206Y-31927511D01*
X31055000Y-31876000D01*
X31055000Y-30775000D01*
X31555000Y-30775000D01*
X31555000Y-31500000D01*
X32204999Y-31500000D01*
X43741000Y-31500000D01*
X44391000Y-31500000D01*
X44391000Y-30775000D01*
X44390999Y-30774999D01*
X44384436Y-30775000D01*
X44384417Y-30775001D01*
X44313897Y-30781408D01*
X44313892Y-30781409D01*
X44151603Y-30831981D01*
X44006122Y-30919927D01*
X43885927Y-31040122D01*
X43797980Y-31185604D01*
X43747409Y-31347893D01*
X43741000Y-31418427D01*
X43741000Y-31500000D01*
X32204999Y-31500000D01*
X32204999Y-31418417D01*
X32198591Y-31347897D01*
X32198590Y-31347892D01*
X32148018Y-31185603D01*
X32060072Y-31040122D01*
X31939877Y-30919927D01*
X31794395Y-30831980D01*
X31794396Y-30831980D01*
X31632105Y-30781409D01*
X31632106Y-30781409D01*
X31561572Y-30775000D01*
X31555000Y-30775000D01*
X31055000Y-30775000D01*
X31054999Y-30774999D01*
X31048436Y-30775000D01*
X31048417Y-30775001D01*
X30977897Y-30781408D01*
X30977892Y-30781409D01*
X30815603Y-30831981D01*
X30670122Y-30919927D01*
X30622706Y-30967343D01*
X30561383Y-31000827D01*
X30491691Y-30995842D01*
X30435758Y-30953970D01*
X30411806Y-30893543D01*
X30403514Y-30819944D01*
X30387788Y-30775001D01*
X30347656Y-30660310D01*
X30347655Y-30660309D01*
X30347654Y-30660305D01*
X30347652Y-30660302D01*
X30257681Y-30517115D01*
X30257676Y-30517109D01*
X30138090Y-30397523D01*
X30138084Y-30397518D01*
X29994897Y-30307547D01*
X29994894Y-30307545D01*
X29835256Y-30251685D01*
X29667203Y-30232751D01*
X29667197Y-30232751D01*
X29499143Y-30251685D01*
X29339505Y-30307545D01*
X29339502Y-30307547D01*
X29196315Y-30397518D01*
X29196309Y-30397523D01*
X29076723Y-30517109D01*
X29076718Y-30517115D01*
X28986747Y-30660302D01*
X28986745Y-30660305D01*
X28930885Y-30819943D01*
X28911171Y-30994920D01*
X28909164Y-30994693D01*
X28894068Y-31048847D01*
X28811522Y-31185393D01*
X28760913Y-31347807D01*
X28754500Y-31418386D01*
X28754500Y-32081613D01*
X28760913Y-32152192D01*
X28811522Y-32314606D01*
X28839684Y-32361191D01*
X28857520Y-32428746D01*
X28836002Y-32495220D01*
X28781962Y-32539507D01*
X28774521Y-32542383D01*
X28628308Y-32593544D01*
X28628302Y-32593547D01*
X28485115Y-32683518D01*
X28485109Y-32683523D01*
X28365523Y-32803109D01*
X28365518Y-32803115D01*
X28275547Y-32946302D01*
X28275545Y-32946305D01*
X28219685Y-33105943D01*
X28200751Y-33273997D01*
X28200751Y-33274002D01*
X25400500Y-33274002D01*
X25400500Y-28956000D01*
X33538659Y-28956000D01*
X33557975Y-29152129D01*
X33557976Y-29152132D01*
X33606761Y-29312955D01*
X33615188Y-29340733D01*
X33708086Y-29514532D01*
X33708090Y-29514539D01*
X33804711Y-29632270D01*
X33832024Y-29696579D01*
X33825900Y-29751888D01*
X33807686Y-29803941D01*
X33788751Y-29971997D01*
X33788751Y-29972002D01*
X33807685Y-30140056D01*
X33863545Y-30299694D01*
X33863547Y-30299697D01*
X33953518Y-30442884D01*
X33953523Y-30442890D01*
X34073109Y-30562476D01*
X34073115Y-30562481D01*
X34216302Y-30652452D01*
X34216305Y-30652454D01*
X34216309Y-30652455D01*
X34216310Y-30652456D01*
X34238756Y-30660310D01*
X34375943Y-30708314D01*
X34543997Y-30727249D01*
X34544000Y-30727249D01*
X34544003Y-30727249D01*
X34712056Y-30708314D01*
X34712059Y-30708313D01*
X34871690Y-30652456D01*
X34871692Y-30652454D01*
X34871694Y-30652454D01*
X34871697Y-30652452D01*
X34903606Y-30632402D01*
X36583005Y-30632402D01*
X36601939Y-30800456D01*
X36657799Y-30960094D01*
X36657801Y-30960097D01*
X36747772Y-31103284D01*
X36747777Y-31103290D01*
X36867363Y-31222876D01*
X36867369Y-31222881D01*
X37010556Y-31312852D01*
X37010559Y-31312854D01*
X37010563Y-31312855D01*
X37010564Y-31312856D01*
X37083167Y-31338260D01*
X37170197Y-31368714D01*
X37338251Y-31387649D01*
X37338254Y-31387649D01*
X37338257Y-31387649D01*
X37506310Y-31368714D01*
X37506313Y-31368713D01*
X37665944Y-31312856D01*
X37665946Y-31312854D01*
X37665948Y-31312854D01*
X37665951Y-31312852D01*
X37809138Y-31222881D01*
X37809139Y-31222880D01*
X37809144Y-31222877D01*
X37928731Y-31103290D01*
X37963237Y-31048374D01*
X38018706Y-30960097D01*
X38018708Y-30960094D01*
X38018708Y-30960092D01*
X38018710Y-30960090D01*
X38074567Y-30800459D01*
X38074567Y-30800458D01*
X38074568Y-30800456D01*
X38093503Y-30632402D01*
X38093503Y-30632397D01*
X38074568Y-30464343D01*
X38044114Y-30377313D01*
X38018710Y-30304710D01*
X38018709Y-30304709D01*
X38018708Y-30304705D01*
X38018706Y-30304702D01*
X37928735Y-30161515D01*
X37928730Y-30161509D01*
X37809144Y-30041923D01*
X37809138Y-30041918D01*
X37697868Y-29972002D01*
X39325951Y-29972002D01*
X39344885Y-30140056D01*
X39400745Y-30299694D01*
X39400747Y-30299697D01*
X39490718Y-30442884D01*
X39490723Y-30442890D01*
X39610309Y-30562476D01*
X39610315Y-30562481D01*
X39753502Y-30652452D01*
X39753505Y-30652454D01*
X39753509Y-30652455D01*
X39753510Y-30652456D01*
X39775956Y-30660310D01*
X39913143Y-30708314D01*
X40081197Y-30727249D01*
X40081200Y-30727249D01*
X40081203Y-30727249D01*
X40249256Y-30708314D01*
X40249259Y-30708313D01*
X40408890Y-30652456D01*
X40408892Y-30652454D01*
X40408894Y-30652454D01*
X40408897Y-30652452D01*
X40552084Y-30562481D01*
X40552085Y-30562480D01*
X40552090Y-30562477D01*
X40671677Y-30442890D01*
X40671681Y-30442884D01*
X40763607Y-30296587D01*
X40815941Y-30250296D01*
X40884995Y-30239648D01*
X40948843Y-30268023D01*
X40973593Y-30296587D01*
X41065518Y-30442884D01*
X41065523Y-30442890D01*
X41185109Y-30562476D01*
X41185115Y-30562481D01*
X41328302Y-30652452D01*
X41328305Y-30652454D01*
X41328309Y-30652455D01*
X41328310Y-30652456D01*
X41350756Y-30660310D01*
X41487943Y-30708314D01*
X41655997Y-30727249D01*
X41656000Y-30727249D01*
X41656003Y-30727249D01*
X41824056Y-30708314D01*
X41824059Y-30708313D01*
X41983690Y-30652456D01*
X41983692Y-30652454D01*
X41983694Y-30652454D01*
X41983697Y-30652452D01*
X42126884Y-30562481D01*
X42126885Y-30562480D01*
X42126890Y-30562477D01*
X42246477Y-30442890D01*
X42274983Y-30397523D01*
X42336452Y-30299697D01*
X42336454Y-30299694D01*
X42336454Y-30299692D01*
X42336456Y-30299690D01*
X42392313Y-30140059D01*
X42392313Y-30140058D01*
X42392314Y-30140056D01*
X42411249Y-29972002D01*
X42411249Y-29971997D01*
X42392314Y-29803946D01*
X42392313Y-29803943D01*
X42392313Y-29803941D01*
X42374098Y-29751888D01*
X42370538Y-29682112D01*
X42395288Y-29632271D01*
X42491909Y-29514539D01*
X42491913Y-29514532D01*
X42584811Y-29340733D01*
X42584811Y-29340732D01*
X42584814Y-29340727D01*
X42642024Y-29152132D01*
X42661341Y-28956000D01*
X42642024Y-28759868D01*
X42584814Y-28571273D01*
X42584811Y-28571269D01*
X42584811Y-28571266D01*
X42491913Y-28397467D01*
X42491909Y-28397460D01*
X42366883Y-28245116D01*
X42214539Y-28120090D01*
X42214532Y-28120086D01*
X42040733Y-28027188D01*
X42040727Y-28027186D01*
X41852132Y-27969976D01*
X41852129Y-27969975D01*
X41656000Y-27950659D01*
X41459870Y-27969975D01*
X41271266Y-28027188D01*
X41097467Y-28120086D01*
X41097460Y-28120090D01*
X40945116Y-28245116D01*
X40820090Y-28397460D01*
X40820086Y-28397467D01*
X40727188Y-28571266D01*
X40669975Y-28759870D01*
X40650659Y-28956000D01*
X40669975Y-29152130D01*
X40687389Y-29209535D01*
X40688012Y-29279402D01*
X40650764Y-29338515D01*
X40587469Y-29368106D01*
X40518225Y-29358779D01*
X40502756Y-29350524D01*
X40408892Y-29291545D01*
X40408891Y-29291544D01*
X40408890Y-29291544D01*
X40370570Y-29278135D01*
X40249256Y-29235685D01*
X40081203Y-29216751D01*
X40081197Y-29216751D01*
X39913143Y-29235685D01*
X39753505Y-29291545D01*
X39753502Y-29291547D01*
X39610315Y-29381518D01*
X39610309Y-29381523D01*
X39490723Y-29501109D01*
X39490718Y-29501115D01*
X39400747Y-29644302D01*
X39400745Y-29644305D01*
X39344885Y-29803943D01*
X39325951Y-29971997D01*
X39325951Y-29972002D01*
X37697868Y-29972002D01*
X37665951Y-29951947D01*
X37665948Y-29951945D01*
X37506310Y-29896085D01*
X37338257Y-29877151D01*
X37338251Y-29877151D01*
X37170197Y-29896085D01*
X37010559Y-29951945D01*
X37010556Y-29951947D01*
X36867369Y-30041918D01*
X36867363Y-30041923D01*
X36747777Y-30161509D01*
X36747772Y-30161515D01*
X36657801Y-30304702D01*
X36657799Y-30304705D01*
X36601939Y-30464343D01*
X36583005Y-30632397D01*
X36583005Y-30632402D01*
X34903606Y-30632402D01*
X35014884Y-30562481D01*
X35014885Y-30562480D01*
X35014890Y-30562477D01*
X35134477Y-30442890D01*
X35162983Y-30397523D01*
X35224452Y-30299697D01*
X35224454Y-30299694D01*
X35224454Y-30299692D01*
X35224456Y-30299690D01*
X35280313Y-30140059D01*
X35280313Y-30140058D01*
X35280314Y-30140056D01*
X35299249Y-29972002D01*
X35299249Y-29971997D01*
X35280314Y-29803946D01*
X35280313Y-29803943D01*
X35280313Y-29803941D01*
X35262098Y-29751888D01*
X35258538Y-29682112D01*
X35283288Y-29632271D01*
X35379909Y-29514539D01*
X35379913Y-29514532D01*
X35472811Y-29340733D01*
X35472811Y-29340732D01*
X35472814Y-29340727D01*
X35530024Y-29152132D01*
X35549341Y-28956000D01*
X35530024Y-28759868D01*
X35472814Y-28571273D01*
X35472811Y-28571269D01*
X35472811Y-28571266D01*
X35379913Y-28397467D01*
X35379909Y-28397460D01*
X35254883Y-28245116D01*
X35254500Y-28244802D01*
X35820751Y-28244802D01*
X35839685Y-28412856D01*
X35895545Y-28572494D01*
X35895547Y-28572497D01*
X35985518Y-28715684D01*
X35985523Y-28715690D01*
X36105109Y-28835276D01*
X36105115Y-28835281D01*
X36248302Y-28925252D01*
X36248305Y-28925254D01*
X36248309Y-28925255D01*
X36248310Y-28925256D01*
X36320913Y-28950660D01*
X36407943Y-28981114D01*
X36575997Y-29000049D01*
X36576000Y-29000049D01*
X36576003Y-29000049D01*
X36744056Y-28981114D01*
X36744059Y-28981113D01*
X36903690Y-28925256D01*
X36903692Y-28925254D01*
X36903694Y-28925254D01*
X36903697Y-28925252D01*
X37046884Y-28835281D01*
X37046885Y-28835280D01*
X37046890Y-28835277D01*
X37166477Y-28715690D01*
X37256452Y-28572497D01*
X37256454Y-28572494D01*
X37256454Y-28572492D01*
X37256456Y-28572490D01*
X37312313Y-28412859D01*
X37312313Y-28412858D01*
X37312314Y-28412856D01*
X37331249Y-28244802D01*
X38106751Y-28244802D01*
X38125685Y-28412856D01*
X38181545Y-28572494D01*
X38181547Y-28572497D01*
X38271518Y-28715684D01*
X38271523Y-28715690D01*
X38391109Y-28835276D01*
X38391115Y-28835281D01*
X38534302Y-28925252D01*
X38534305Y-28925254D01*
X38534309Y-28925255D01*
X38534310Y-28925256D01*
X38606913Y-28950660D01*
X38693943Y-28981114D01*
X38861997Y-29000049D01*
X38862000Y-29000049D01*
X38862003Y-29000049D01*
X39030056Y-28981114D01*
X39030059Y-28981113D01*
X39189690Y-28925256D01*
X39189692Y-28925254D01*
X39189694Y-28925254D01*
X39189697Y-28925252D01*
X39332884Y-28835281D01*
X39332885Y-28835280D01*
X39332890Y-28835277D01*
X39452477Y-28715690D01*
X39542452Y-28572497D01*
X39542454Y-28572494D01*
X39542454Y-28572492D01*
X39542456Y-28572490D01*
X39598313Y-28412859D01*
X39598313Y-28412858D01*
X39598314Y-28412856D01*
X39617249Y-28244802D01*
X39617249Y-28244797D01*
X39598314Y-28076743D01*
X39567860Y-27989713D01*
X39550468Y-27940007D01*
X46004671Y-27940007D01*
X46023964Y-28234363D01*
X46023965Y-28234373D01*
X46023966Y-28234380D01*
X46026101Y-28245116D01*
X46081518Y-28523716D01*
X46081521Y-28523730D01*
X46176349Y-28803080D01*
X46306825Y-29067660D01*
X46306829Y-29067667D01*
X46470725Y-29312955D01*
X46665241Y-29534758D01*
X46887044Y-29729274D01*
X46998791Y-29803941D01*
X47132335Y-29893172D01*
X47396923Y-30023652D01*
X47676278Y-30118481D01*
X47965620Y-30176034D01*
X47993888Y-30177886D01*
X48259993Y-30195329D01*
X48260000Y-30195329D01*
X48260007Y-30195329D01*
X48495675Y-30179881D01*
X48554380Y-30176034D01*
X48843722Y-30118481D01*
X49123077Y-30023652D01*
X49387665Y-29893172D01*
X49632957Y-29729273D01*
X49854758Y-29534758D01*
X50049273Y-29312957D01*
X50213172Y-29067665D01*
X50343652Y-28803077D01*
X50438481Y-28523722D01*
X50496034Y-28234380D01*
X50506366Y-28076743D01*
X50515329Y-27940007D01*
X50515329Y-27939992D01*
X50496035Y-27645636D01*
X50496034Y-27645620D01*
X50438481Y-27356278D01*
X50343652Y-27076923D01*
X50213172Y-26812336D01*
X50208536Y-26805398D01*
X50120445Y-26673560D01*
X50049273Y-26567043D01*
X50006655Y-26518447D01*
X49854758Y-26345241D01*
X49632955Y-26150725D01*
X49387667Y-25986829D01*
X49387660Y-25986825D01*
X49123080Y-25856349D01*
X48843730Y-25761521D01*
X48843724Y-25761519D01*
X48843722Y-25761519D01*
X48554380Y-25703966D01*
X48554373Y-25703965D01*
X48554363Y-25703964D01*
X48260007Y-25684671D01*
X48259993Y-25684671D01*
X47965636Y-25703964D01*
X47965624Y-25703965D01*
X47965620Y-25703966D01*
X47965612Y-25703967D01*
X47965609Y-25703968D01*
X47676283Y-25761518D01*
X47676269Y-25761521D01*
X47396919Y-25856349D01*
X47132334Y-25986828D01*
X46887041Y-26150728D01*
X46665241Y-26345241D01*
X46470728Y-26567041D01*
X46306828Y-26812334D01*
X46176349Y-27076919D01*
X46081521Y-27356269D01*
X46081518Y-27356283D01*
X46023968Y-27645609D01*
X46023964Y-27645636D01*
X46004671Y-27939992D01*
X46004671Y-27940007D01*
X39550468Y-27940007D01*
X39542456Y-27917110D01*
X39542455Y-27917109D01*
X39542454Y-27917105D01*
X39542452Y-27917102D01*
X39452481Y-27773915D01*
X39452476Y-27773909D01*
X39332890Y-27654323D01*
X39332884Y-27654318D01*
X39189697Y-27564347D01*
X39189694Y-27564345D01*
X39030056Y-27508485D01*
X38862003Y-27489551D01*
X38861997Y-27489551D01*
X38693943Y-27508485D01*
X38534305Y-27564345D01*
X38534302Y-27564347D01*
X38391115Y-27654318D01*
X38391109Y-27654323D01*
X38271523Y-27773909D01*
X38271518Y-27773915D01*
X38181547Y-27917102D01*
X38181545Y-27917105D01*
X38125685Y-28076743D01*
X38106751Y-28244797D01*
X38106751Y-28244802D01*
X37331249Y-28244802D01*
X37331249Y-28244797D01*
X37312314Y-28076743D01*
X37281860Y-27989713D01*
X37256456Y-27917110D01*
X37256455Y-27917109D01*
X37256454Y-27917105D01*
X37256452Y-27917102D01*
X37166481Y-27773915D01*
X37166476Y-27773909D01*
X37046890Y-27654323D01*
X37046884Y-27654318D01*
X36903697Y-27564347D01*
X36903694Y-27564345D01*
X36744056Y-27508485D01*
X36576003Y-27489551D01*
X36575997Y-27489551D01*
X36407943Y-27508485D01*
X36248305Y-27564345D01*
X36248302Y-27564347D01*
X36105115Y-27654318D01*
X36105109Y-27654323D01*
X35985523Y-27773909D01*
X35985518Y-27773915D01*
X35895547Y-27917102D01*
X35895545Y-27917105D01*
X35839685Y-28076743D01*
X35820751Y-28244797D01*
X35820751Y-28244802D01*
X35254500Y-28244802D01*
X35102539Y-28120090D01*
X35102532Y-28120086D01*
X34928733Y-28027188D01*
X34928727Y-28027186D01*
X34740132Y-27969976D01*
X34740129Y-27969975D01*
X34544000Y-27950659D01*
X34347870Y-27969975D01*
X34159266Y-28027188D01*
X33985467Y-28120086D01*
X33985460Y-28120090D01*
X33833116Y-28245116D01*
X33708090Y-28397460D01*
X33708086Y-28397467D01*
X33615188Y-28571266D01*
X33557975Y-28759870D01*
X33538659Y-28956000D01*
X25400500Y-28956000D01*
X25400500Y-27941740D01*
X25400598Y-27938263D01*
X25402140Y-27910782D01*
X25406995Y-27824333D01*
X25417401Y-27652304D01*
X25418160Y-27645706D01*
X25440576Y-27513780D01*
X25441277Y-27509656D01*
X25453432Y-27443324D01*
X25468562Y-27360763D01*
X25469961Y-27354810D01*
X25509387Y-27217956D01*
X25553270Y-27077135D01*
X25555158Y-27071921D01*
X25610397Y-26938565D01*
X25670343Y-26805370D01*
X25672599Y-26800861D01*
X25742958Y-26673557D01*
X25818228Y-26549044D01*
X25820693Y-26545286D01*
X25904461Y-26427226D01*
X25906145Y-26424967D01*
X25994932Y-26311638D01*
X25997472Y-26308605D01*
X26094052Y-26200531D01*
X26096373Y-26198077D01*
X26198077Y-26096373D01*
X26200531Y-26094052D01*
X26308605Y-25997472D01*
X26311638Y-25994932D01*
X26424967Y-25906145D01*
X26427226Y-25904461D01*
X26545286Y-25820693D01*
X26549044Y-25818228D01*
X26673561Y-25742956D01*
X26800861Y-25672599D01*
X26805370Y-25670343D01*
X26938565Y-25610397D01*
X27071921Y-25555158D01*
X27077135Y-25553270D01*
X27217956Y-25509387D01*
X27354810Y-25469961D01*
X27360763Y-25468562D01*
X27443324Y-25453432D01*
X27509656Y-25441277D01*
X27557941Y-25433072D01*
X27645706Y-25418160D01*
X27652304Y-25417401D01*
X27824333Y-25406995D01*
X27910782Y-25402140D01*
X27938263Y-25400598D01*
X27941740Y-25400500D01*
X48258260Y-25400500D01*
X48261737Y-25400598D01*
G37*
%TD.AperFunction*%
%TD*%
M02*
