%TF.GenerationSoftware,KiCad,Pcbnew,7.0.9*%
%TF.CreationDate,2023-12-14T21:42:17-08:00*%
%TF.ProjectId,encoder-board,656e636f-6465-4722-9d62-6f6172642e6b,rev?*%
%TF.SameCoordinates,Original*%
%TF.FileFunction,Legend,Bot*%
%TF.FilePolarity,Positive*%
%FSLAX46Y46*%
G04 Gerber Fmt 4.6, Leading zero omitted, Abs format (unit mm)*
G04 Created by KiCad (PCBNEW 7.0.9) date 2023-12-14 21:42:17*
%MOMM*%
%LPD*%
G01*
G04 APERTURE LIST*
%ADD10C,0.150000*%
%ADD11C,0.151994*%
%ADD12C,0.200000*%
%ADD13C,0.059995*%
%ADD14C,3.500000*%
%ADD15R,0.550013X0.800000*%
G04 APERTURE END LIST*
D10*
X40169752Y-26378819D02*
X40169752Y-27188342D01*
X40169752Y-27188342D02*
X40122133Y-27283580D01*
X40122133Y-27283580D02*
X40074514Y-27331200D01*
X40074514Y-27331200D02*
X39979276Y-27378819D01*
X39979276Y-27378819D02*
X39788800Y-27378819D01*
X39788800Y-27378819D02*
X39693562Y-27331200D01*
X39693562Y-27331200D02*
X39645943Y-27283580D01*
X39645943Y-27283580D02*
X39598324Y-27188342D01*
X39598324Y-27188342D02*
X39598324Y-26378819D01*
X38598324Y-27378819D02*
X39169752Y-27378819D01*
X38884038Y-27378819D02*
X38884038Y-26378819D01*
X38884038Y-26378819D02*
X38979276Y-26521676D01*
X38979276Y-26521676D02*
X39074514Y-26616914D01*
X39074514Y-26616914D02*
X39169752Y-26664533D01*
X37700107Y-26378819D02*
X37700107Y-27188342D01*
X37700107Y-27188342D02*
X37652488Y-27283580D01*
X37652488Y-27283580D02*
X37604869Y-27331200D01*
X37604869Y-27331200D02*
X37509631Y-27378819D01*
X37509631Y-27378819D02*
X37319155Y-27378819D01*
X37319155Y-27378819D02*
X37223917Y-27331200D01*
X37223917Y-27331200D02*
X37176298Y-27283580D01*
X37176298Y-27283580D02*
X37128679Y-27188342D01*
X37128679Y-27188342D02*
X37128679Y-26378819D01*
X36700107Y-26474057D02*
X36652488Y-26426438D01*
X36652488Y-26426438D02*
X36557250Y-26378819D01*
X36557250Y-26378819D02*
X36319155Y-26378819D01*
X36319155Y-26378819D02*
X36223917Y-26426438D01*
X36223917Y-26426438D02*
X36176298Y-26474057D01*
X36176298Y-26474057D02*
X36128679Y-26569295D01*
X36128679Y-26569295D02*
X36128679Y-26664533D01*
X36128679Y-26664533D02*
X36176298Y-26807390D01*
X36176298Y-26807390D02*
X36747726Y-27378819D01*
X36747726Y-27378819D02*
X36128679Y-27378819D01*
D11*
%TO.C,U1*%
X40150951Y-30763975D02*
X40150951Y-28163949D01*
X40150951Y-30763975D02*
X38372948Y-30763975D01*
X40150951Y-28163949D02*
X38373024Y-28163949D01*
X40087019Y-27913987D02*
X38437032Y-27913987D01*
X38372948Y-30763975D02*
X38373024Y-28163949D01*
D12*
X40162000Y-31163975D02*
G75*
G03*
X40162000Y-31163975I-100000J0D01*
G01*
D13*
X39992073Y-30413962D02*
G75*
G03*
X39992073Y-30413962I-29997J0D01*
G01*
D11*
%TO.C,U2*%
X37827103Y-30763975D02*
X37827103Y-28163949D01*
X37827103Y-30763975D02*
X36049100Y-30763975D01*
X37827103Y-28163949D02*
X36049176Y-28163949D01*
X37763171Y-27913987D02*
X36113184Y-27913987D01*
X36049100Y-30763975D02*
X36049176Y-28163949D01*
D12*
X37838152Y-31163975D02*
G75*
G03*
X37838152Y-31163975I-100000J0D01*
G01*
D13*
X37668225Y-30413962D02*
G75*
G03*
X37668225Y-30413962I-29997J0D01*
G01*
%TD*%
%LPC*%
D14*
%TO.C,H2*%
X27940000Y-48260000D03*
%TD*%
%TO.C,H1*%
X48260000Y-27940000D03*
%TD*%
D15*
%TO.C,U1*%
X39662102Y-30128973D03*
X38862000Y-30128973D03*
X38862000Y-28799027D03*
X39661848Y-28799027D03*
%TD*%
%TO.C,U2*%
X37338254Y-30128973D03*
X36538152Y-30128973D03*
X36538152Y-28799027D03*
X37338000Y-28799027D03*
%TD*%
%LPD*%
M02*
