%TF.GenerationSoftware,KiCad,Pcbnew,8.0.7*%
%TF.CreationDate,2025-01-26T16:55:51-08:00*%
%TF.ProjectId,servo-dev-board,73657276-6f2d-4646-9576-2d626f617264,rev?*%
%TF.SameCoordinates,Original*%
%TF.FileFunction,Legend,Bot*%
%TF.FilePolarity,Positive*%
%FSLAX46Y46*%
G04 Gerber Fmt 4.6, Leading zero omitted, Abs format (unit mm)*
G04 Created by KiCad (PCBNEW 8.0.7) date 2025-01-26 16:55:51*
%MOMM*%
%LPD*%
G01*
G04 APERTURE LIST*
%ADD10C,0.150000*%
%ADD11C,0.120000*%
%ADD12C,0.700000*%
%ADD13C,4.400000*%
%ADD14O,1.700000X1.350000*%
%ADD15O,1.500000X1.100000*%
%ADD16R,1.000000X1.000000*%
%ADD17C,1.000000*%
%ADD18R,1.700000X1.700000*%
%ADD19O,1.700000X1.700000*%
G04 APERTURE END LIST*
D10*
X149161904Y-89247561D02*
X149066666Y-89295180D01*
X149066666Y-89295180D02*
X148923809Y-89295180D01*
X148923809Y-89295180D02*
X148780952Y-89247561D01*
X148780952Y-89247561D02*
X148685714Y-89152323D01*
X148685714Y-89152323D02*
X148638095Y-89057085D01*
X148638095Y-89057085D02*
X148590476Y-88866609D01*
X148590476Y-88866609D02*
X148590476Y-88723752D01*
X148590476Y-88723752D02*
X148638095Y-88533276D01*
X148638095Y-88533276D02*
X148685714Y-88438038D01*
X148685714Y-88438038D02*
X148780952Y-88342800D01*
X148780952Y-88342800D02*
X148923809Y-88295180D01*
X148923809Y-88295180D02*
X149019047Y-88295180D01*
X149019047Y-88295180D02*
X149161904Y-88342800D01*
X149161904Y-88342800D02*
X149209523Y-88390419D01*
X149209523Y-88390419D02*
X149209523Y-88723752D01*
X149209523Y-88723752D02*
X149019047Y-88723752D01*
X115244819Y-96022493D02*
X115959104Y-96022493D01*
X115959104Y-96022493D02*
X116101961Y-95974874D01*
X116101961Y-95974874D02*
X116197200Y-95879636D01*
X116197200Y-95879636D02*
X116244819Y-95736779D01*
X116244819Y-95736779D02*
X116244819Y-95641541D01*
X116244819Y-96974874D02*
X116244819Y-96498684D01*
X116244819Y-96498684D02*
X115244819Y-96498684D01*
X116149580Y-97879636D02*
X116197200Y-97832017D01*
X116197200Y-97832017D02*
X116244819Y-97689160D01*
X116244819Y-97689160D02*
X116244819Y-97593922D01*
X116244819Y-97593922D02*
X116197200Y-97451065D01*
X116197200Y-97451065D02*
X116101961Y-97355827D01*
X116101961Y-97355827D02*
X116006723Y-97308208D01*
X116006723Y-97308208D02*
X115816247Y-97260589D01*
X115816247Y-97260589D02*
X115673390Y-97260589D01*
X115673390Y-97260589D02*
X115482914Y-97308208D01*
X115482914Y-97308208D02*
X115387676Y-97355827D01*
X115387676Y-97355827D02*
X115292438Y-97451065D01*
X115292438Y-97451065D02*
X115244819Y-97593922D01*
X115244819Y-97593922D02*
X115244819Y-97689160D01*
X115244819Y-97689160D02*
X115292438Y-97832017D01*
X115292438Y-97832017D02*
X115340057Y-97879636D01*
X115244819Y-98593922D02*
X115959104Y-98593922D01*
X115959104Y-98593922D02*
X116101961Y-98546303D01*
X116101961Y-98546303D02*
X116197200Y-98451065D01*
X116197200Y-98451065D02*
X116244819Y-98308208D01*
X116244819Y-98308208D02*
X116244819Y-98212970D01*
X116244819Y-99546303D02*
X116244819Y-99070113D01*
X116244819Y-99070113D02*
X115244819Y-99070113D01*
X116149580Y-100451065D02*
X116197200Y-100403446D01*
X116197200Y-100403446D02*
X116244819Y-100260589D01*
X116244819Y-100260589D02*
X116244819Y-100165351D01*
X116244819Y-100165351D02*
X116197200Y-100022494D01*
X116197200Y-100022494D02*
X116101961Y-99927256D01*
X116101961Y-99927256D02*
X116006723Y-99879637D01*
X116006723Y-99879637D02*
X115816247Y-99832018D01*
X115816247Y-99832018D02*
X115673390Y-99832018D01*
X115673390Y-99832018D02*
X115482914Y-99879637D01*
X115482914Y-99879637D02*
X115387676Y-99927256D01*
X115387676Y-99927256D02*
X115292438Y-100022494D01*
X115292438Y-100022494D02*
X115244819Y-100165351D01*
X115244819Y-100165351D02*
X115244819Y-100260589D01*
X115244819Y-100260589D02*
X115292438Y-100403446D01*
X115292438Y-100403446D02*
X115340057Y-100451065D01*
X115244819Y-101165351D02*
X115959104Y-101165351D01*
X115959104Y-101165351D02*
X116101961Y-101117732D01*
X116101961Y-101117732D02*
X116197200Y-101022494D01*
X116197200Y-101022494D02*
X116244819Y-100879637D01*
X116244819Y-100879637D02*
X116244819Y-100784399D01*
X116244819Y-102117732D02*
X116244819Y-101641542D01*
X116244819Y-101641542D02*
X115244819Y-101641542D01*
X116149580Y-103022494D02*
X116197200Y-102974875D01*
X116197200Y-102974875D02*
X116244819Y-102832018D01*
X116244819Y-102832018D02*
X116244819Y-102736780D01*
X116244819Y-102736780D02*
X116197200Y-102593923D01*
X116197200Y-102593923D02*
X116101961Y-102498685D01*
X116101961Y-102498685D02*
X116006723Y-102451066D01*
X116006723Y-102451066D02*
X115816247Y-102403447D01*
X115816247Y-102403447D02*
X115673390Y-102403447D01*
X115673390Y-102403447D02*
X115482914Y-102451066D01*
X115482914Y-102451066D02*
X115387676Y-102498685D01*
X115387676Y-102498685D02*
X115292438Y-102593923D01*
X115292438Y-102593923D02*
X115244819Y-102736780D01*
X115244819Y-102736780D02*
X115244819Y-102832018D01*
X115244819Y-102832018D02*
X115292438Y-102974875D01*
X115292438Y-102974875D02*
X115340057Y-103022494D01*
X115244819Y-103736780D02*
X115959104Y-103736780D01*
X115959104Y-103736780D02*
X116101961Y-103689161D01*
X116101961Y-103689161D02*
X116197200Y-103593923D01*
X116197200Y-103593923D02*
X116244819Y-103451066D01*
X116244819Y-103451066D02*
X116244819Y-103355828D01*
X116244819Y-104689161D02*
X116244819Y-104212971D01*
X116244819Y-104212971D02*
X115244819Y-104212971D01*
X116149580Y-105593923D02*
X116197200Y-105546304D01*
X116197200Y-105546304D02*
X116244819Y-105403447D01*
X116244819Y-105403447D02*
X116244819Y-105308209D01*
X116244819Y-105308209D02*
X116197200Y-105165352D01*
X116197200Y-105165352D02*
X116101961Y-105070114D01*
X116101961Y-105070114D02*
X116006723Y-105022495D01*
X116006723Y-105022495D02*
X115816247Y-104974876D01*
X115816247Y-104974876D02*
X115673390Y-104974876D01*
X115673390Y-104974876D02*
X115482914Y-105022495D01*
X115482914Y-105022495D02*
X115387676Y-105070114D01*
X115387676Y-105070114D02*
X115292438Y-105165352D01*
X115292438Y-105165352D02*
X115244819Y-105308209D01*
X115244819Y-105308209D02*
X115244819Y-105403447D01*
X115244819Y-105403447D02*
X115292438Y-105546304D01*
X115292438Y-105546304D02*
X115340057Y-105593923D01*
X132511905Y-89295180D02*
X133130952Y-89295180D01*
X133130952Y-89295180D02*
X132797619Y-88914228D01*
X132797619Y-88914228D02*
X132940476Y-88914228D01*
X132940476Y-88914228D02*
X133035714Y-88866609D01*
X133035714Y-88866609D02*
X133083333Y-88818990D01*
X133083333Y-88818990D02*
X133130952Y-88723752D01*
X133130952Y-88723752D02*
X133130952Y-88485657D01*
X133130952Y-88485657D02*
X133083333Y-88390419D01*
X133083333Y-88390419D02*
X133035714Y-88342800D01*
X133035714Y-88342800D02*
X132940476Y-88295180D01*
X132940476Y-88295180D02*
X132654762Y-88295180D01*
X132654762Y-88295180D02*
X132559524Y-88342800D01*
X132559524Y-88342800D02*
X132511905Y-88390419D01*
X133416667Y-89295180D02*
X133750000Y-88295180D01*
X133750000Y-88295180D02*
X134083333Y-89295180D01*
X134321429Y-89295180D02*
X134940476Y-89295180D01*
X134940476Y-89295180D02*
X134607143Y-88914228D01*
X134607143Y-88914228D02*
X134750000Y-88914228D01*
X134750000Y-88914228D02*
X134845238Y-88866609D01*
X134845238Y-88866609D02*
X134892857Y-88818990D01*
X134892857Y-88818990D02*
X134940476Y-88723752D01*
X134940476Y-88723752D02*
X134940476Y-88485657D01*
X134940476Y-88485657D02*
X134892857Y-88390419D01*
X134892857Y-88390419D02*
X134845238Y-88342800D01*
X134845238Y-88342800D02*
X134750000Y-88295180D01*
X134750000Y-88295180D02*
X134464286Y-88295180D01*
X134464286Y-88295180D02*
X134369048Y-88342800D01*
X134369048Y-88342800D02*
X134321429Y-88390419D01*
X130809523Y-89295180D02*
X130333333Y-89295180D01*
X130333333Y-89295180D02*
X130285714Y-88818990D01*
X130285714Y-88818990D02*
X130333333Y-88866609D01*
X130333333Y-88866609D02*
X130428571Y-88914228D01*
X130428571Y-88914228D02*
X130666666Y-88914228D01*
X130666666Y-88914228D02*
X130761904Y-88866609D01*
X130761904Y-88866609D02*
X130809523Y-88818990D01*
X130809523Y-88818990D02*
X130857142Y-88723752D01*
X130857142Y-88723752D02*
X130857142Y-88485657D01*
X130857142Y-88485657D02*
X130809523Y-88390419D01*
X130809523Y-88390419D02*
X130761904Y-88342800D01*
X130761904Y-88342800D02*
X130666666Y-88295180D01*
X130666666Y-88295180D02*
X130428571Y-88295180D01*
X130428571Y-88295180D02*
X130333333Y-88342800D01*
X130333333Y-88342800D02*
X130285714Y-88390419D01*
X131142857Y-89295180D02*
X131476190Y-88295180D01*
X131476190Y-88295180D02*
X131809523Y-89295180D01*
X136511904Y-89247561D02*
X136416666Y-89295180D01*
X136416666Y-89295180D02*
X136273809Y-89295180D01*
X136273809Y-89295180D02*
X136130952Y-89247561D01*
X136130952Y-89247561D02*
X136035714Y-89152323D01*
X136035714Y-89152323D02*
X135988095Y-89057085D01*
X135988095Y-89057085D02*
X135940476Y-88866609D01*
X135940476Y-88866609D02*
X135940476Y-88723752D01*
X135940476Y-88723752D02*
X135988095Y-88533276D01*
X135988095Y-88533276D02*
X136035714Y-88438038D01*
X136035714Y-88438038D02*
X136130952Y-88342800D01*
X136130952Y-88342800D02*
X136273809Y-88295180D01*
X136273809Y-88295180D02*
X136369047Y-88295180D01*
X136369047Y-88295180D02*
X136511904Y-88342800D01*
X136511904Y-88342800D02*
X136559523Y-88390419D01*
X136559523Y-88390419D02*
X136559523Y-88723752D01*
X136559523Y-88723752D02*
X136369047Y-88723752D01*
X141511904Y-89247561D02*
X141416666Y-89295180D01*
X141416666Y-89295180D02*
X141273809Y-89295180D01*
X141273809Y-89295180D02*
X141130952Y-89247561D01*
X141130952Y-89247561D02*
X141035714Y-89152323D01*
X141035714Y-89152323D02*
X140988095Y-89057085D01*
X140988095Y-89057085D02*
X140940476Y-88866609D01*
X140940476Y-88866609D02*
X140940476Y-88723752D01*
X140940476Y-88723752D02*
X140988095Y-88533276D01*
X140988095Y-88533276D02*
X141035714Y-88438038D01*
X141035714Y-88438038D02*
X141130952Y-88342800D01*
X141130952Y-88342800D02*
X141273809Y-88295180D01*
X141273809Y-88295180D02*
X141369047Y-88295180D01*
X141369047Y-88295180D02*
X141511904Y-88342800D01*
X141511904Y-88342800D02*
X141559523Y-88390419D01*
X141559523Y-88390419D02*
X141559523Y-88723752D01*
X141559523Y-88723752D02*
X141369047Y-88723752D01*
X140785714Y-112980895D02*
X141261904Y-112980895D01*
X140690476Y-112695180D02*
X141023809Y-113695180D01*
X141023809Y-113695180D02*
X141357142Y-112695180D01*
X142119047Y-113695180D02*
X141928571Y-113695180D01*
X141928571Y-113695180D02*
X141833333Y-113647561D01*
X141833333Y-113647561D02*
X141785714Y-113599942D01*
X141785714Y-113599942D02*
X141690476Y-113457085D01*
X141690476Y-113457085D02*
X141642857Y-113266609D01*
X141642857Y-113266609D02*
X141642857Y-112885657D01*
X141642857Y-112885657D02*
X141690476Y-112790419D01*
X141690476Y-112790419D02*
X141738095Y-112742800D01*
X141738095Y-112742800D02*
X141833333Y-112695180D01*
X141833333Y-112695180D02*
X142023809Y-112695180D01*
X142023809Y-112695180D02*
X142119047Y-112742800D01*
X142119047Y-112742800D02*
X142166666Y-112790419D01*
X142166666Y-112790419D02*
X142214285Y-112885657D01*
X142214285Y-112885657D02*
X142214285Y-113123752D01*
X142214285Y-113123752D02*
X142166666Y-113218990D01*
X142166666Y-113218990D02*
X142119047Y-113266609D01*
X142119047Y-113266609D02*
X142023809Y-113314228D01*
X142023809Y-113314228D02*
X141833333Y-113314228D01*
X141833333Y-113314228D02*
X141738095Y-113266609D01*
X141738095Y-113266609D02*
X141690476Y-113218990D01*
X141690476Y-113218990D02*
X141642857Y-113123752D01*
X130385714Y-112980895D02*
X130861904Y-112980895D01*
X130290476Y-112695180D02*
X130623809Y-113695180D01*
X130623809Y-113695180D02*
X130957142Y-112695180D01*
X131242857Y-113599942D02*
X131290476Y-113647561D01*
X131290476Y-113647561D02*
X131385714Y-113695180D01*
X131385714Y-113695180D02*
X131623809Y-113695180D01*
X131623809Y-113695180D02*
X131719047Y-113647561D01*
X131719047Y-113647561D02*
X131766666Y-113599942D01*
X131766666Y-113599942D02*
X131814285Y-113504704D01*
X131814285Y-113504704D02*
X131814285Y-113409466D01*
X131814285Y-113409466D02*
X131766666Y-113266609D01*
X131766666Y-113266609D02*
X131195238Y-112695180D01*
X131195238Y-112695180D02*
X131814285Y-112695180D01*
X143345238Y-88818990D02*
X143488095Y-88771371D01*
X143488095Y-88771371D02*
X143535714Y-88723752D01*
X143535714Y-88723752D02*
X143583333Y-88628514D01*
X143583333Y-88628514D02*
X143583333Y-88485657D01*
X143583333Y-88485657D02*
X143535714Y-88390419D01*
X143535714Y-88390419D02*
X143488095Y-88342800D01*
X143488095Y-88342800D02*
X143392857Y-88295180D01*
X143392857Y-88295180D02*
X143011905Y-88295180D01*
X143011905Y-88295180D02*
X143011905Y-89295180D01*
X143011905Y-89295180D02*
X143345238Y-89295180D01*
X143345238Y-89295180D02*
X143440476Y-89247561D01*
X143440476Y-89247561D02*
X143488095Y-89199942D01*
X143488095Y-89199942D02*
X143535714Y-89104704D01*
X143535714Y-89104704D02*
X143535714Y-89009466D01*
X143535714Y-89009466D02*
X143488095Y-88914228D01*
X143488095Y-88914228D02*
X143440476Y-88866609D01*
X143440476Y-88866609D02*
X143345238Y-88818990D01*
X143345238Y-88818990D02*
X143011905Y-88818990D01*
X144488095Y-89295180D02*
X144011905Y-89295180D01*
X144011905Y-89295180D02*
X143964286Y-88818990D01*
X143964286Y-88818990D02*
X144011905Y-88866609D01*
X144011905Y-88866609D02*
X144107143Y-88914228D01*
X144107143Y-88914228D02*
X144345238Y-88914228D01*
X144345238Y-88914228D02*
X144440476Y-88866609D01*
X144440476Y-88866609D02*
X144488095Y-88818990D01*
X144488095Y-88818990D02*
X144535714Y-88723752D01*
X144535714Y-88723752D02*
X144535714Y-88485657D01*
X144535714Y-88485657D02*
X144488095Y-88390419D01*
X144488095Y-88390419D02*
X144440476Y-88342800D01*
X144440476Y-88342800D02*
X144345238Y-88295180D01*
X144345238Y-88295180D02*
X144107143Y-88295180D01*
X144107143Y-88295180D02*
X144011905Y-88342800D01*
X144011905Y-88342800D02*
X143964286Y-88390419D01*
X135685714Y-112980895D02*
X136161904Y-112980895D01*
X135590476Y-112695180D02*
X135923809Y-113695180D01*
X135923809Y-113695180D02*
X136257142Y-112695180D01*
X137019047Y-113361847D02*
X137019047Y-112695180D01*
X136780952Y-113742800D02*
X136542857Y-113028514D01*
X136542857Y-113028514D02*
X137161904Y-113028514D01*
X132985714Y-112980895D02*
X133461904Y-112980895D01*
X132890476Y-112695180D02*
X133223809Y-113695180D01*
X133223809Y-113695180D02*
X133557142Y-112695180D01*
X133795238Y-113695180D02*
X134414285Y-113695180D01*
X134414285Y-113695180D02*
X134080952Y-113314228D01*
X134080952Y-113314228D02*
X134223809Y-113314228D01*
X134223809Y-113314228D02*
X134319047Y-113266609D01*
X134319047Y-113266609D02*
X134366666Y-113218990D01*
X134366666Y-113218990D02*
X134414285Y-113123752D01*
X134414285Y-113123752D02*
X134414285Y-112885657D01*
X134414285Y-112885657D02*
X134366666Y-112790419D01*
X134366666Y-112790419D02*
X134319047Y-112742800D01*
X134319047Y-112742800D02*
X134223809Y-112695180D01*
X134223809Y-112695180D02*
X133938095Y-112695180D01*
X133938095Y-112695180D02*
X133842857Y-112742800D01*
X133842857Y-112742800D02*
X133795238Y-112790419D01*
X145309524Y-88580895D02*
X145785714Y-88580895D01*
X145214286Y-88295180D02*
X145547619Y-89295180D01*
X145547619Y-89295180D02*
X145880952Y-88295180D01*
X146738095Y-88295180D02*
X146166667Y-88295180D01*
X146452381Y-88295180D02*
X146452381Y-89295180D01*
X146452381Y-89295180D02*
X146357143Y-89152323D01*
X146357143Y-89152323D02*
X146261905Y-89057085D01*
X146261905Y-89057085D02*
X146166667Y-89009466D01*
X147119048Y-89199942D02*
X147166667Y-89247561D01*
X147166667Y-89247561D02*
X147261905Y-89295180D01*
X147261905Y-89295180D02*
X147500000Y-89295180D01*
X147500000Y-89295180D02*
X147595238Y-89247561D01*
X147595238Y-89247561D02*
X147642857Y-89199942D01*
X147642857Y-89199942D02*
X147690476Y-89104704D01*
X147690476Y-89104704D02*
X147690476Y-89009466D01*
X147690476Y-89009466D02*
X147642857Y-88866609D01*
X147642857Y-88866609D02*
X147071429Y-88295180D01*
X147071429Y-88295180D02*
X147690476Y-88295180D01*
X137488095Y-89295180D02*
X137821428Y-88295180D01*
X137821428Y-88295180D02*
X138154761Y-89295180D01*
X139059523Y-88295180D02*
X138726190Y-88771371D01*
X138488095Y-88295180D02*
X138488095Y-89295180D01*
X138488095Y-89295180D02*
X138869047Y-89295180D01*
X138869047Y-89295180D02*
X138964285Y-89247561D01*
X138964285Y-89247561D02*
X139011904Y-89199942D01*
X139011904Y-89199942D02*
X139059523Y-89104704D01*
X139059523Y-89104704D02*
X139059523Y-88961847D01*
X139059523Y-88961847D02*
X139011904Y-88866609D01*
X139011904Y-88866609D02*
X138964285Y-88818990D01*
X138964285Y-88818990D02*
X138869047Y-88771371D01*
X138869047Y-88771371D02*
X138488095Y-88771371D01*
X139821428Y-88818990D02*
X139488095Y-88818990D01*
X139488095Y-88295180D02*
X139488095Y-89295180D01*
X139488095Y-89295180D02*
X139964285Y-89295180D01*
X145895238Y-113218990D02*
X146038095Y-113171371D01*
X146038095Y-113171371D02*
X146085714Y-113123752D01*
X146085714Y-113123752D02*
X146133333Y-113028514D01*
X146133333Y-113028514D02*
X146133333Y-112885657D01*
X146133333Y-112885657D02*
X146085714Y-112790419D01*
X146085714Y-112790419D02*
X146038095Y-112742800D01*
X146038095Y-112742800D02*
X145942857Y-112695180D01*
X145942857Y-112695180D02*
X145561905Y-112695180D01*
X145561905Y-112695180D02*
X145561905Y-113695180D01*
X145561905Y-113695180D02*
X145895238Y-113695180D01*
X145895238Y-113695180D02*
X145990476Y-113647561D01*
X145990476Y-113647561D02*
X146038095Y-113599942D01*
X146038095Y-113599942D02*
X146085714Y-113504704D01*
X146085714Y-113504704D02*
X146085714Y-113409466D01*
X146085714Y-113409466D02*
X146038095Y-113314228D01*
X146038095Y-113314228D02*
X145990476Y-113266609D01*
X145990476Y-113266609D02*
X145895238Y-113218990D01*
X145895238Y-113218990D02*
X145561905Y-113218990D01*
X146752381Y-113695180D02*
X146847619Y-113695180D01*
X146847619Y-113695180D02*
X146942857Y-113647561D01*
X146942857Y-113647561D02*
X146990476Y-113599942D01*
X146990476Y-113599942D02*
X147038095Y-113504704D01*
X147038095Y-113504704D02*
X147085714Y-113314228D01*
X147085714Y-113314228D02*
X147085714Y-113076133D01*
X147085714Y-113076133D02*
X147038095Y-112885657D01*
X147038095Y-112885657D02*
X146990476Y-112790419D01*
X146990476Y-112790419D02*
X146942857Y-112742800D01*
X146942857Y-112742800D02*
X146847619Y-112695180D01*
X146847619Y-112695180D02*
X146752381Y-112695180D01*
X146752381Y-112695180D02*
X146657143Y-112742800D01*
X146657143Y-112742800D02*
X146609524Y-112790419D01*
X146609524Y-112790419D02*
X146561905Y-112885657D01*
X146561905Y-112885657D02*
X146514286Y-113076133D01*
X146514286Y-113076133D02*
X146514286Y-113314228D01*
X146514286Y-113314228D02*
X146561905Y-113504704D01*
X146561905Y-113504704D02*
X146609524Y-113599942D01*
X146609524Y-113599942D02*
X146657143Y-113647561D01*
X146657143Y-113647561D02*
X146752381Y-113695180D01*
X143185714Y-112980895D02*
X143661904Y-112980895D01*
X143090476Y-112695180D02*
X143423809Y-113695180D01*
X143423809Y-113695180D02*
X143757142Y-112695180D01*
X143995238Y-113695180D02*
X144661904Y-113695180D01*
X144661904Y-113695180D02*
X144233333Y-112695180D01*
X149161904Y-113647561D02*
X149066666Y-113695180D01*
X149066666Y-113695180D02*
X148923809Y-113695180D01*
X148923809Y-113695180D02*
X148780952Y-113647561D01*
X148780952Y-113647561D02*
X148685714Y-113552323D01*
X148685714Y-113552323D02*
X148638095Y-113457085D01*
X148638095Y-113457085D02*
X148590476Y-113266609D01*
X148590476Y-113266609D02*
X148590476Y-113123752D01*
X148590476Y-113123752D02*
X148638095Y-112933276D01*
X148638095Y-112933276D02*
X148685714Y-112838038D01*
X148685714Y-112838038D02*
X148780952Y-112742800D01*
X148780952Y-112742800D02*
X148923809Y-112695180D01*
X148923809Y-112695180D02*
X149019047Y-112695180D01*
X149019047Y-112695180D02*
X149161904Y-112742800D01*
X149161904Y-112742800D02*
X149209523Y-112790419D01*
X149209523Y-112790419D02*
X149209523Y-113123752D01*
X149209523Y-113123752D02*
X149019047Y-113123752D01*
X138185714Y-112980895D02*
X138661904Y-112980895D01*
X138090476Y-112695180D02*
X138423809Y-113695180D01*
X138423809Y-113695180D02*
X138757142Y-112695180D01*
X139566666Y-113695180D02*
X139090476Y-113695180D01*
X139090476Y-113695180D02*
X139042857Y-113218990D01*
X139042857Y-113218990D02*
X139090476Y-113266609D01*
X139090476Y-113266609D02*
X139185714Y-113314228D01*
X139185714Y-113314228D02*
X139423809Y-113314228D01*
X139423809Y-113314228D02*
X139519047Y-113266609D01*
X139519047Y-113266609D02*
X139566666Y-113218990D01*
X139566666Y-113218990D02*
X139614285Y-113123752D01*
X139614285Y-113123752D02*
X139614285Y-112885657D01*
X139614285Y-112885657D02*
X139566666Y-112790419D01*
X139566666Y-112790419D02*
X139519047Y-112742800D01*
X139519047Y-112742800D02*
X139423809Y-112695180D01*
X139423809Y-112695180D02*
X139185714Y-112695180D01*
X139185714Y-112695180D02*
X139090476Y-112742800D01*
X139090476Y-112742800D02*
X139042857Y-112790419D01*
X129854398Y-104057548D02*
X130068684Y-103986119D01*
X130068684Y-103986119D02*
X130425826Y-103986119D01*
X130425826Y-103986119D02*
X130568684Y-104057548D01*
X130568684Y-104057548D02*
X130640112Y-104128976D01*
X130640112Y-104128976D02*
X130711541Y-104271833D01*
X130711541Y-104271833D02*
X130711541Y-104414690D01*
X130711541Y-104414690D02*
X130640112Y-104557548D01*
X130640112Y-104557548D02*
X130568684Y-104628976D01*
X130568684Y-104628976D02*
X130425826Y-104700405D01*
X130425826Y-104700405D02*
X130140112Y-104771833D01*
X130140112Y-104771833D02*
X129997255Y-104843262D01*
X129997255Y-104843262D02*
X129925826Y-104914690D01*
X129925826Y-104914690D02*
X129854398Y-105057548D01*
X129854398Y-105057548D02*
X129854398Y-105200405D01*
X129854398Y-105200405D02*
X129925826Y-105343262D01*
X129925826Y-105343262D02*
X129997255Y-105414690D01*
X129997255Y-105414690D02*
X130140112Y-105486119D01*
X130140112Y-105486119D02*
X130497255Y-105486119D01*
X130497255Y-105486119D02*
X130711541Y-105414690D01*
X131354397Y-103986119D02*
X131354397Y-105486119D01*
X131354397Y-105486119D02*
X131854397Y-104414690D01*
X131854397Y-104414690D02*
X132354397Y-105486119D01*
X132354397Y-105486119D02*
X132354397Y-103986119D01*
X132997255Y-104414690D02*
X133711541Y-104414690D01*
X132854398Y-103986119D02*
X133354398Y-105486119D01*
X133354398Y-105486119D02*
X133854398Y-103986119D01*
X135211540Y-103986119D02*
X134711540Y-104700405D01*
X134354397Y-103986119D02*
X134354397Y-105486119D01*
X134354397Y-105486119D02*
X134925826Y-105486119D01*
X134925826Y-105486119D02*
X135068683Y-105414690D01*
X135068683Y-105414690D02*
X135140112Y-105343262D01*
X135140112Y-105343262D02*
X135211540Y-105200405D01*
X135211540Y-105200405D02*
X135211540Y-104986119D01*
X135211540Y-104986119D02*
X135140112Y-104843262D01*
X135140112Y-104843262D02*
X135068683Y-104771833D01*
X135068683Y-104771833D02*
X134925826Y-104700405D01*
X134925826Y-104700405D02*
X134354397Y-104700405D01*
X135640112Y-105486119D02*
X136497255Y-105486119D01*
X136068683Y-103986119D02*
X136068683Y-105486119D01*
X138068683Y-104057548D02*
X138282969Y-103986119D01*
X138282969Y-103986119D02*
X138640111Y-103986119D01*
X138640111Y-103986119D02*
X138782969Y-104057548D01*
X138782969Y-104057548D02*
X138854397Y-104128976D01*
X138854397Y-104128976D02*
X138925826Y-104271833D01*
X138925826Y-104271833D02*
X138925826Y-104414690D01*
X138925826Y-104414690D02*
X138854397Y-104557548D01*
X138854397Y-104557548D02*
X138782969Y-104628976D01*
X138782969Y-104628976D02*
X138640111Y-104700405D01*
X138640111Y-104700405D02*
X138354397Y-104771833D01*
X138354397Y-104771833D02*
X138211540Y-104843262D01*
X138211540Y-104843262D02*
X138140111Y-104914690D01*
X138140111Y-104914690D02*
X138068683Y-105057548D01*
X138068683Y-105057548D02*
X138068683Y-105200405D01*
X138068683Y-105200405D02*
X138140111Y-105343262D01*
X138140111Y-105343262D02*
X138211540Y-105414690D01*
X138211540Y-105414690D02*
X138354397Y-105486119D01*
X138354397Y-105486119D02*
X138711540Y-105486119D01*
X138711540Y-105486119D02*
X138925826Y-105414690D01*
X139568682Y-104771833D02*
X140068682Y-104771833D01*
X140282968Y-103986119D02*
X139568682Y-103986119D01*
X139568682Y-103986119D02*
X139568682Y-105486119D01*
X139568682Y-105486119D02*
X140282968Y-105486119D01*
X141782968Y-103986119D02*
X141282968Y-104700405D01*
X140925825Y-103986119D02*
X140925825Y-105486119D01*
X140925825Y-105486119D02*
X141497254Y-105486119D01*
X141497254Y-105486119D02*
X141640111Y-105414690D01*
X141640111Y-105414690D02*
X141711540Y-105343262D01*
X141711540Y-105343262D02*
X141782968Y-105200405D01*
X141782968Y-105200405D02*
X141782968Y-104986119D01*
X141782968Y-104986119D02*
X141711540Y-104843262D01*
X141711540Y-104843262D02*
X141640111Y-104771833D01*
X141640111Y-104771833D02*
X141497254Y-104700405D01*
X141497254Y-104700405D02*
X140925825Y-104700405D01*
X142211540Y-105486119D02*
X142711540Y-103986119D01*
X142711540Y-103986119D02*
X143211540Y-105486119D01*
X143997254Y-105486119D02*
X144282968Y-105486119D01*
X144282968Y-105486119D02*
X144425825Y-105414690D01*
X144425825Y-105414690D02*
X144568682Y-105271833D01*
X144568682Y-105271833D02*
X144640111Y-104986119D01*
X144640111Y-104986119D02*
X144640111Y-104486119D01*
X144640111Y-104486119D02*
X144568682Y-104200405D01*
X144568682Y-104200405D02*
X144425825Y-104057548D01*
X144425825Y-104057548D02*
X144282968Y-103986119D01*
X144282968Y-103986119D02*
X143997254Y-103986119D01*
X143997254Y-103986119D02*
X143854397Y-104057548D01*
X143854397Y-104057548D02*
X143711539Y-104200405D01*
X143711539Y-104200405D02*
X143640111Y-104486119D01*
X143640111Y-104486119D02*
X143640111Y-104986119D01*
X143640111Y-104986119D02*
X143711539Y-105271833D01*
X143711539Y-105271833D02*
X143854397Y-105414690D01*
X143854397Y-105414690D02*
X143997254Y-105486119D01*
X146925825Y-104771833D02*
X147140111Y-104700405D01*
X147140111Y-104700405D02*
X147211540Y-104628976D01*
X147211540Y-104628976D02*
X147282968Y-104486119D01*
X147282968Y-104486119D02*
X147282968Y-104271833D01*
X147282968Y-104271833D02*
X147211540Y-104128976D01*
X147211540Y-104128976D02*
X147140111Y-104057548D01*
X147140111Y-104057548D02*
X146997254Y-103986119D01*
X146997254Y-103986119D02*
X146425825Y-103986119D01*
X146425825Y-103986119D02*
X146425825Y-105486119D01*
X146425825Y-105486119D02*
X146925825Y-105486119D01*
X146925825Y-105486119D02*
X147068683Y-105414690D01*
X147068683Y-105414690D02*
X147140111Y-105343262D01*
X147140111Y-105343262D02*
X147211540Y-105200405D01*
X147211540Y-105200405D02*
X147211540Y-105057548D01*
X147211540Y-105057548D02*
X147140111Y-104914690D01*
X147140111Y-104914690D02*
X147068683Y-104843262D01*
X147068683Y-104843262D02*
X146925825Y-104771833D01*
X146925825Y-104771833D02*
X146425825Y-104771833D01*
X148211540Y-105486119D02*
X148497254Y-105486119D01*
X148497254Y-105486119D02*
X148640111Y-105414690D01*
X148640111Y-105414690D02*
X148782968Y-105271833D01*
X148782968Y-105271833D02*
X148854397Y-104986119D01*
X148854397Y-104986119D02*
X148854397Y-104486119D01*
X148854397Y-104486119D02*
X148782968Y-104200405D01*
X148782968Y-104200405D02*
X148640111Y-104057548D01*
X148640111Y-104057548D02*
X148497254Y-103986119D01*
X148497254Y-103986119D02*
X148211540Y-103986119D01*
X148211540Y-103986119D02*
X148068683Y-104057548D01*
X148068683Y-104057548D02*
X147925825Y-104200405D01*
X147925825Y-104200405D02*
X147854397Y-104486119D01*
X147854397Y-104486119D02*
X147854397Y-104986119D01*
X147854397Y-104986119D02*
X147925825Y-105271833D01*
X147925825Y-105271833D02*
X148068683Y-105414690D01*
X148068683Y-105414690D02*
X148211540Y-105486119D01*
X149425826Y-104414690D02*
X150140112Y-104414690D01*
X149282969Y-103986119D02*
X149782969Y-105486119D01*
X149782969Y-105486119D02*
X150282969Y-103986119D01*
X151640111Y-103986119D02*
X151140111Y-104700405D01*
X150782968Y-103986119D02*
X150782968Y-105486119D01*
X150782968Y-105486119D02*
X151354397Y-105486119D01*
X151354397Y-105486119D02*
X151497254Y-105414690D01*
X151497254Y-105414690D02*
X151568683Y-105343262D01*
X151568683Y-105343262D02*
X151640111Y-105200405D01*
X151640111Y-105200405D02*
X151640111Y-104986119D01*
X151640111Y-104986119D02*
X151568683Y-104843262D01*
X151568683Y-104843262D02*
X151497254Y-104771833D01*
X151497254Y-104771833D02*
X151354397Y-104700405D01*
X151354397Y-104700405D02*
X150782968Y-104700405D01*
X152282968Y-103986119D02*
X152282968Y-105486119D01*
X152282968Y-105486119D02*
X152640111Y-105486119D01*
X152640111Y-105486119D02*
X152854397Y-105414690D01*
X152854397Y-105414690D02*
X152997254Y-105271833D01*
X152997254Y-105271833D02*
X153068683Y-105128976D01*
X153068683Y-105128976D02*
X153140111Y-104843262D01*
X153140111Y-104843262D02*
X153140111Y-104628976D01*
X153140111Y-104628976D02*
X153068683Y-104343262D01*
X153068683Y-104343262D02*
X152997254Y-104200405D01*
X152997254Y-104200405D02*
X152854397Y-104057548D01*
X152854397Y-104057548D02*
X152640111Y-103986119D01*
X152640111Y-103986119D02*
X152282968Y-103986119D01*
X129925826Y-101571203D02*
X129925826Y-103071203D01*
X129925826Y-103071203D02*
X130425826Y-101999774D01*
X130425826Y-101999774D02*
X130925826Y-103071203D01*
X130925826Y-103071203D02*
X130925826Y-101571203D01*
X132497255Y-101714060D02*
X132425827Y-101642632D01*
X132425827Y-101642632D02*
X132211541Y-101571203D01*
X132211541Y-101571203D02*
X132068684Y-101571203D01*
X132068684Y-101571203D02*
X131854398Y-101642632D01*
X131854398Y-101642632D02*
X131711541Y-101785489D01*
X131711541Y-101785489D02*
X131640112Y-101928346D01*
X131640112Y-101928346D02*
X131568684Y-102214060D01*
X131568684Y-102214060D02*
X131568684Y-102428346D01*
X131568684Y-102428346D02*
X131640112Y-102714060D01*
X131640112Y-102714060D02*
X131711541Y-102856917D01*
X131711541Y-102856917D02*
X131854398Y-102999774D01*
X131854398Y-102999774D02*
X132068684Y-103071203D01*
X132068684Y-103071203D02*
X132211541Y-103071203D01*
X132211541Y-103071203D02*
X132425827Y-102999774D01*
X132425827Y-102999774D02*
X132497255Y-102928346D01*
X133140112Y-103071203D02*
X133140112Y-101856917D01*
X133140112Y-101856917D02*
X133211541Y-101714060D01*
X133211541Y-101714060D02*
X133282970Y-101642632D01*
X133282970Y-101642632D02*
X133425827Y-101571203D01*
X133425827Y-101571203D02*
X133711541Y-101571203D01*
X133711541Y-101571203D02*
X133854398Y-101642632D01*
X133854398Y-101642632D02*
X133925827Y-101714060D01*
X133925827Y-101714060D02*
X133997255Y-101856917D01*
X133997255Y-101856917D02*
X133997255Y-103071203D01*
X134711541Y-101714060D02*
X134782970Y-101642632D01*
X134782970Y-101642632D02*
X134711541Y-101571203D01*
X134711541Y-101571203D02*
X134640113Y-101642632D01*
X134640113Y-101642632D02*
X134711541Y-101714060D01*
X134711541Y-101714060D02*
X134711541Y-101571203D01*
X134711541Y-102499774D02*
X134782970Y-102428346D01*
X134782970Y-102428346D02*
X134711541Y-102356917D01*
X134711541Y-102356917D02*
X134640113Y-102428346D01*
X134640113Y-102428346D02*
X134711541Y-102499774D01*
X134711541Y-102499774D02*
X134711541Y-102356917D01*
X136497256Y-101642632D02*
X136711542Y-101571203D01*
X136711542Y-101571203D02*
X137068684Y-101571203D01*
X137068684Y-101571203D02*
X137211542Y-101642632D01*
X137211542Y-101642632D02*
X137282970Y-101714060D01*
X137282970Y-101714060D02*
X137354399Y-101856917D01*
X137354399Y-101856917D02*
X137354399Y-101999774D01*
X137354399Y-101999774D02*
X137282970Y-102142632D01*
X137282970Y-102142632D02*
X137211542Y-102214060D01*
X137211542Y-102214060D02*
X137068684Y-102285489D01*
X137068684Y-102285489D02*
X136782970Y-102356917D01*
X136782970Y-102356917D02*
X136640113Y-102428346D01*
X136640113Y-102428346D02*
X136568684Y-102499774D01*
X136568684Y-102499774D02*
X136497256Y-102642632D01*
X136497256Y-102642632D02*
X136497256Y-102785489D01*
X136497256Y-102785489D02*
X136568684Y-102928346D01*
X136568684Y-102928346D02*
X136640113Y-102999774D01*
X136640113Y-102999774D02*
X136782970Y-103071203D01*
X136782970Y-103071203D02*
X137140113Y-103071203D01*
X137140113Y-103071203D02*
X137354399Y-102999774D01*
X137782970Y-103071203D02*
X138640113Y-103071203D01*
X138211541Y-101571203D02*
X138211541Y-103071203D01*
X139140112Y-101571203D02*
X139140112Y-103071203D01*
X139140112Y-103071203D02*
X139640112Y-101999774D01*
X139640112Y-101999774D02*
X140140112Y-103071203D01*
X140140112Y-103071203D02*
X140140112Y-101571203D01*
X140711541Y-103071203D02*
X141640113Y-103071203D01*
X141640113Y-103071203D02*
X141140113Y-102499774D01*
X141140113Y-102499774D02*
X141354398Y-102499774D01*
X141354398Y-102499774D02*
X141497256Y-102428346D01*
X141497256Y-102428346D02*
X141568684Y-102356917D01*
X141568684Y-102356917D02*
X141640113Y-102214060D01*
X141640113Y-102214060D02*
X141640113Y-101856917D01*
X141640113Y-101856917D02*
X141568684Y-101714060D01*
X141568684Y-101714060D02*
X141497256Y-101642632D01*
X141497256Y-101642632D02*
X141354398Y-101571203D01*
X141354398Y-101571203D02*
X140925827Y-101571203D01*
X140925827Y-101571203D02*
X140782970Y-101642632D01*
X140782970Y-101642632D02*
X140711541Y-101714060D01*
X142211541Y-102928346D02*
X142282969Y-102999774D01*
X142282969Y-102999774D02*
X142425827Y-103071203D01*
X142425827Y-103071203D02*
X142782969Y-103071203D01*
X142782969Y-103071203D02*
X142925827Y-102999774D01*
X142925827Y-102999774D02*
X142997255Y-102928346D01*
X142997255Y-102928346D02*
X143068684Y-102785489D01*
X143068684Y-102785489D02*
X143068684Y-102642632D01*
X143068684Y-102642632D02*
X142997255Y-102428346D01*
X142997255Y-102428346D02*
X142140112Y-101571203D01*
X142140112Y-101571203D02*
X143068684Y-101571203D01*
X144211540Y-102356917D02*
X143711540Y-102356917D01*
X143711540Y-101571203D02*
X143711540Y-103071203D01*
X143711540Y-103071203D02*
X144425826Y-103071203D01*
X144854397Y-103071203D02*
X145782969Y-103071203D01*
X145782969Y-103071203D02*
X145282969Y-102499774D01*
X145282969Y-102499774D02*
X145497254Y-102499774D01*
X145497254Y-102499774D02*
X145640112Y-102428346D01*
X145640112Y-102428346D02*
X145711540Y-102356917D01*
X145711540Y-102356917D02*
X145782969Y-102214060D01*
X145782969Y-102214060D02*
X145782969Y-101856917D01*
X145782969Y-101856917D02*
X145711540Y-101714060D01*
X145711540Y-101714060D02*
X145640112Y-101642632D01*
X145640112Y-101642632D02*
X145497254Y-101571203D01*
X145497254Y-101571203D02*
X145068683Y-101571203D01*
X145068683Y-101571203D02*
X144925826Y-101642632D01*
X144925826Y-101642632D02*
X144854397Y-101714060D01*
X146711540Y-103071203D02*
X146854397Y-103071203D01*
X146854397Y-103071203D02*
X146997254Y-102999774D01*
X146997254Y-102999774D02*
X147068683Y-102928346D01*
X147068683Y-102928346D02*
X147140111Y-102785489D01*
X147140111Y-102785489D02*
X147211540Y-102499774D01*
X147211540Y-102499774D02*
X147211540Y-102142632D01*
X147211540Y-102142632D02*
X147140111Y-101856917D01*
X147140111Y-101856917D02*
X147068683Y-101714060D01*
X147068683Y-101714060D02*
X146997254Y-101642632D01*
X146997254Y-101642632D02*
X146854397Y-101571203D01*
X146854397Y-101571203D02*
X146711540Y-101571203D01*
X146711540Y-101571203D02*
X146568683Y-101642632D01*
X146568683Y-101642632D02*
X146497254Y-101714060D01*
X146497254Y-101714060D02*
X146425825Y-101856917D01*
X146425825Y-101856917D02*
X146354397Y-102142632D01*
X146354397Y-102142632D02*
X146354397Y-102499774D01*
X146354397Y-102499774D02*
X146425825Y-102785489D01*
X146425825Y-102785489D02*
X146497254Y-102928346D01*
X146497254Y-102928346D02*
X146568683Y-102999774D01*
X146568683Y-102999774D02*
X146711540Y-103071203D01*
X148640111Y-101571203D02*
X147782968Y-101571203D01*
X148211539Y-101571203D02*
X148211539Y-103071203D01*
X148211539Y-103071203D02*
X148068682Y-102856917D01*
X148068682Y-102856917D02*
X147925825Y-102714060D01*
X147925825Y-102714060D02*
X147782968Y-102642632D01*
X129711541Y-100656287D02*
X130211541Y-99156287D01*
X130211541Y-99156287D02*
X130711541Y-100656287D01*
X131782969Y-99227716D02*
X131640112Y-99156287D01*
X131640112Y-99156287D02*
X131354398Y-99156287D01*
X131354398Y-99156287D02*
X131211540Y-99227716D01*
X131211540Y-99227716D02*
X131140112Y-99370573D01*
X131140112Y-99370573D02*
X131140112Y-99942001D01*
X131140112Y-99942001D02*
X131211540Y-100084858D01*
X131211540Y-100084858D02*
X131354398Y-100156287D01*
X131354398Y-100156287D02*
X131640112Y-100156287D01*
X131640112Y-100156287D02*
X131782969Y-100084858D01*
X131782969Y-100084858D02*
X131854398Y-99942001D01*
X131854398Y-99942001D02*
X131854398Y-99799144D01*
X131854398Y-99799144D02*
X131140112Y-99656287D01*
X132497254Y-99156287D02*
X132497254Y-100156287D01*
X132497254Y-99870573D02*
X132568683Y-100013430D01*
X132568683Y-100013430D02*
X132640112Y-100084858D01*
X132640112Y-100084858D02*
X132782969Y-100156287D01*
X132782969Y-100156287D02*
X132925826Y-100156287D01*
X133354397Y-99227716D02*
X133497254Y-99156287D01*
X133497254Y-99156287D02*
X133782968Y-99156287D01*
X133782968Y-99156287D02*
X133925825Y-99227716D01*
X133925825Y-99227716D02*
X133997254Y-99370573D01*
X133997254Y-99370573D02*
X133997254Y-99442001D01*
X133997254Y-99442001D02*
X133925825Y-99584858D01*
X133925825Y-99584858D02*
X133782968Y-99656287D01*
X133782968Y-99656287D02*
X133568683Y-99656287D01*
X133568683Y-99656287D02*
X133425825Y-99727716D01*
X133425825Y-99727716D02*
X133354397Y-99870573D01*
X133354397Y-99870573D02*
X133354397Y-99942001D01*
X133354397Y-99942001D02*
X133425825Y-100084858D01*
X133425825Y-100084858D02*
X133568683Y-100156287D01*
X133568683Y-100156287D02*
X133782968Y-100156287D01*
X133782968Y-100156287D02*
X133925825Y-100084858D01*
X134640111Y-99156287D02*
X134640111Y-100156287D01*
X134640111Y-100656287D02*
X134568683Y-100584858D01*
X134568683Y-100584858D02*
X134640111Y-100513430D01*
X134640111Y-100513430D02*
X134711540Y-100584858D01*
X134711540Y-100584858D02*
X134640111Y-100656287D01*
X134640111Y-100656287D02*
X134640111Y-100513430D01*
X135568683Y-99156287D02*
X135425826Y-99227716D01*
X135425826Y-99227716D02*
X135354397Y-99299144D01*
X135354397Y-99299144D02*
X135282969Y-99442001D01*
X135282969Y-99442001D02*
X135282969Y-99870573D01*
X135282969Y-99870573D02*
X135354397Y-100013430D01*
X135354397Y-100013430D02*
X135425826Y-100084858D01*
X135425826Y-100084858D02*
X135568683Y-100156287D01*
X135568683Y-100156287D02*
X135782969Y-100156287D01*
X135782969Y-100156287D02*
X135925826Y-100084858D01*
X135925826Y-100084858D02*
X135997255Y-100013430D01*
X135997255Y-100013430D02*
X136068683Y-99870573D01*
X136068683Y-99870573D02*
X136068683Y-99442001D01*
X136068683Y-99442001D02*
X135997255Y-99299144D01*
X135997255Y-99299144D02*
X135925826Y-99227716D01*
X135925826Y-99227716D02*
X135782969Y-99156287D01*
X135782969Y-99156287D02*
X135568683Y-99156287D01*
X136711540Y-100156287D02*
X136711540Y-99156287D01*
X136711540Y-100013430D02*
X136782969Y-100084858D01*
X136782969Y-100084858D02*
X136925826Y-100156287D01*
X136925826Y-100156287D02*
X137140112Y-100156287D01*
X137140112Y-100156287D02*
X137282969Y-100084858D01*
X137282969Y-100084858D02*
X137354398Y-99942001D01*
X137354398Y-99942001D02*
X137354398Y-99156287D01*
X138068683Y-99299144D02*
X138140112Y-99227716D01*
X138140112Y-99227716D02*
X138068683Y-99156287D01*
X138068683Y-99156287D02*
X137997255Y-99227716D01*
X137997255Y-99227716D02*
X138068683Y-99299144D01*
X138068683Y-99299144D02*
X138068683Y-99156287D01*
X138068683Y-100084858D02*
X138140112Y-100013430D01*
X138140112Y-100013430D02*
X138068683Y-99942001D01*
X138068683Y-99942001D02*
X137997255Y-100013430D01*
X137997255Y-100013430D02*
X138068683Y-100084858D01*
X138068683Y-100084858D02*
X138068683Y-99942001D01*
X141854398Y-99156287D02*
X140997255Y-99156287D01*
X141425826Y-99156287D02*
X141425826Y-100656287D01*
X141425826Y-100656287D02*
X141282969Y-100442001D01*
X141282969Y-100442001D02*
X141140112Y-100299144D01*
X141140112Y-100299144D02*
X140997255Y-100227716D01*
X142497254Y-99299144D02*
X142568683Y-99227716D01*
X142568683Y-99227716D02*
X142497254Y-99156287D01*
X142497254Y-99156287D02*
X142425826Y-99227716D01*
X142425826Y-99227716D02*
X142497254Y-99299144D01*
X142497254Y-99299144D02*
X142497254Y-99156287D01*
X143497255Y-100656287D02*
X143640112Y-100656287D01*
X143640112Y-100656287D02*
X143782969Y-100584858D01*
X143782969Y-100584858D02*
X143854398Y-100513430D01*
X143854398Y-100513430D02*
X143925826Y-100370573D01*
X143925826Y-100370573D02*
X143997255Y-100084858D01*
X143997255Y-100084858D02*
X143997255Y-99727716D01*
X143997255Y-99727716D02*
X143925826Y-99442001D01*
X143925826Y-99442001D02*
X143854398Y-99299144D01*
X143854398Y-99299144D02*
X143782969Y-99227716D01*
X143782969Y-99227716D02*
X143640112Y-99156287D01*
X143640112Y-99156287D02*
X143497255Y-99156287D01*
X143497255Y-99156287D02*
X143354398Y-99227716D01*
X143354398Y-99227716D02*
X143282969Y-99299144D01*
X143282969Y-99299144D02*
X143211540Y-99442001D01*
X143211540Y-99442001D02*
X143140112Y-99727716D01*
X143140112Y-99727716D02*
X143140112Y-100084858D01*
X143140112Y-100084858D02*
X143211540Y-100370573D01*
X143211540Y-100370573D02*
X143282969Y-100513430D01*
X143282969Y-100513430D02*
X143354398Y-100584858D01*
X143354398Y-100584858D02*
X143497255Y-100656287D01*
X144640111Y-99299144D02*
X144711540Y-99227716D01*
X144711540Y-99227716D02*
X144640111Y-99156287D01*
X144640111Y-99156287D02*
X144568683Y-99227716D01*
X144568683Y-99227716D02*
X144640111Y-99299144D01*
X144640111Y-99299144D02*
X144640111Y-99156287D01*
X145640112Y-100656287D02*
X145782969Y-100656287D01*
X145782969Y-100656287D02*
X145925826Y-100584858D01*
X145925826Y-100584858D02*
X145997255Y-100513430D01*
X145997255Y-100513430D02*
X146068683Y-100370573D01*
X146068683Y-100370573D02*
X146140112Y-100084858D01*
X146140112Y-100084858D02*
X146140112Y-99727716D01*
X146140112Y-99727716D02*
X146068683Y-99442001D01*
X146068683Y-99442001D02*
X145997255Y-99299144D01*
X145997255Y-99299144D02*
X145925826Y-99227716D01*
X145925826Y-99227716D02*
X145782969Y-99156287D01*
X145782969Y-99156287D02*
X145640112Y-99156287D01*
X145640112Y-99156287D02*
X145497255Y-99227716D01*
X145497255Y-99227716D02*
X145425826Y-99299144D01*
X145425826Y-99299144D02*
X145354397Y-99442001D01*
X145354397Y-99442001D02*
X145282969Y-99727716D01*
X145282969Y-99727716D02*
X145282969Y-100084858D01*
X145282969Y-100084858D02*
X145354397Y-100370573D01*
X145354397Y-100370573D02*
X145425826Y-100513430D01*
X145425826Y-100513430D02*
X145497255Y-100584858D01*
X145497255Y-100584858D02*
X145640112Y-100656287D01*
X129925826Y-96741371D02*
X129925826Y-98241371D01*
X129925826Y-98241371D02*
X130282969Y-98241371D01*
X130282969Y-98241371D02*
X130497255Y-98169942D01*
X130497255Y-98169942D02*
X130640112Y-98027085D01*
X130640112Y-98027085D02*
X130711541Y-97884228D01*
X130711541Y-97884228D02*
X130782969Y-97598514D01*
X130782969Y-97598514D02*
X130782969Y-97384228D01*
X130782969Y-97384228D02*
X130711541Y-97098514D01*
X130711541Y-97098514D02*
X130640112Y-96955657D01*
X130640112Y-96955657D02*
X130497255Y-96812800D01*
X130497255Y-96812800D02*
X130282969Y-96741371D01*
X130282969Y-96741371D02*
X129925826Y-96741371D01*
X131997255Y-96812800D02*
X131854398Y-96741371D01*
X131854398Y-96741371D02*
X131568684Y-96741371D01*
X131568684Y-96741371D02*
X131425826Y-96812800D01*
X131425826Y-96812800D02*
X131354398Y-96955657D01*
X131354398Y-96955657D02*
X131354398Y-97527085D01*
X131354398Y-97527085D02*
X131425826Y-97669942D01*
X131425826Y-97669942D02*
X131568684Y-97741371D01*
X131568684Y-97741371D02*
X131854398Y-97741371D01*
X131854398Y-97741371D02*
X131997255Y-97669942D01*
X131997255Y-97669942D02*
X132068684Y-97527085D01*
X132068684Y-97527085D02*
X132068684Y-97384228D01*
X132068684Y-97384228D02*
X131354398Y-97241371D01*
X132640112Y-96812800D02*
X132782969Y-96741371D01*
X132782969Y-96741371D02*
X133068683Y-96741371D01*
X133068683Y-96741371D02*
X133211540Y-96812800D01*
X133211540Y-96812800D02*
X133282969Y-96955657D01*
X133282969Y-96955657D02*
X133282969Y-97027085D01*
X133282969Y-97027085D02*
X133211540Y-97169942D01*
X133211540Y-97169942D02*
X133068683Y-97241371D01*
X133068683Y-97241371D02*
X132854398Y-97241371D01*
X132854398Y-97241371D02*
X132711540Y-97312800D01*
X132711540Y-97312800D02*
X132640112Y-97455657D01*
X132640112Y-97455657D02*
X132640112Y-97527085D01*
X132640112Y-97527085D02*
X132711540Y-97669942D01*
X132711540Y-97669942D02*
X132854398Y-97741371D01*
X132854398Y-97741371D02*
X133068683Y-97741371D01*
X133068683Y-97741371D02*
X133211540Y-97669942D01*
X133925826Y-96741371D02*
X133925826Y-97741371D01*
X133925826Y-98241371D02*
X133854398Y-98169942D01*
X133854398Y-98169942D02*
X133925826Y-98098514D01*
X133925826Y-98098514D02*
X133997255Y-98169942D01*
X133997255Y-98169942D02*
X133925826Y-98241371D01*
X133925826Y-98241371D02*
X133925826Y-98098514D01*
X135282970Y-97741371D02*
X135282970Y-96527085D01*
X135282970Y-96527085D02*
X135211541Y-96384228D01*
X135211541Y-96384228D02*
X135140112Y-96312800D01*
X135140112Y-96312800D02*
X134997255Y-96241371D01*
X134997255Y-96241371D02*
X134782970Y-96241371D01*
X134782970Y-96241371D02*
X134640112Y-96312800D01*
X135282970Y-96812800D02*
X135140112Y-96741371D01*
X135140112Y-96741371D02*
X134854398Y-96741371D01*
X134854398Y-96741371D02*
X134711541Y-96812800D01*
X134711541Y-96812800D02*
X134640112Y-96884228D01*
X134640112Y-96884228D02*
X134568684Y-97027085D01*
X134568684Y-97027085D02*
X134568684Y-97455657D01*
X134568684Y-97455657D02*
X134640112Y-97598514D01*
X134640112Y-97598514D02*
X134711541Y-97669942D01*
X134711541Y-97669942D02*
X134854398Y-97741371D01*
X134854398Y-97741371D02*
X135140112Y-97741371D01*
X135140112Y-97741371D02*
X135282970Y-97669942D01*
X135997255Y-97741371D02*
X135997255Y-96741371D01*
X135997255Y-97598514D02*
X136068684Y-97669942D01*
X136068684Y-97669942D02*
X136211541Y-97741371D01*
X136211541Y-97741371D02*
X136425827Y-97741371D01*
X136425827Y-97741371D02*
X136568684Y-97669942D01*
X136568684Y-97669942D02*
X136640113Y-97527085D01*
X136640113Y-97527085D02*
X136640113Y-96741371D01*
X137925827Y-96812800D02*
X137782970Y-96741371D01*
X137782970Y-96741371D02*
X137497256Y-96741371D01*
X137497256Y-96741371D02*
X137354398Y-96812800D01*
X137354398Y-96812800D02*
X137282970Y-96955657D01*
X137282970Y-96955657D02*
X137282970Y-97527085D01*
X137282970Y-97527085D02*
X137354398Y-97669942D01*
X137354398Y-97669942D02*
X137497256Y-97741371D01*
X137497256Y-97741371D02*
X137782970Y-97741371D01*
X137782970Y-97741371D02*
X137925827Y-97669942D01*
X137925827Y-97669942D02*
X137997256Y-97527085D01*
X137997256Y-97527085D02*
X137997256Y-97384228D01*
X137997256Y-97384228D02*
X137282970Y-97241371D01*
X139282970Y-96741371D02*
X139282970Y-98241371D01*
X139282970Y-96812800D02*
X139140112Y-96741371D01*
X139140112Y-96741371D02*
X138854398Y-96741371D01*
X138854398Y-96741371D02*
X138711541Y-96812800D01*
X138711541Y-96812800D02*
X138640112Y-96884228D01*
X138640112Y-96884228D02*
X138568684Y-97027085D01*
X138568684Y-97027085D02*
X138568684Y-97455657D01*
X138568684Y-97455657D02*
X138640112Y-97598514D01*
X138640112Y-97598514D02*
X138711541Y-97669942D01*
X138711541Y-97669942D02*
X138854398Y-97741371D01*
X138854398Y-97741371D02*
X139140112Y-97741371D01*
X139140112Y-97741371D02*
X139282970Y-97669942D01*
X141640112Y-97527085D02*
X141854398Y-97455657D01*
X141854398Y-97455657D02*
X141925827Y-97384228D01*
X141925827Y-97384228D02*
X141997255Y-97241371D01*
X141997255Y-97241371D02*
X141997255Y-97027085D01*
X141997255Y-97027085D02*
X141925827Y-96884228D01*
X141925827Y-96884228D02*
X141854398Y-96812800D01*
X141854398Y-96812800D02*
X141711541Y-96741371D01*
X141711541Y-96741371D02*
X141140112Y-96741371D01*
X141140112Y-96741371D02*
X141140112Y-98241371D01*
X141140112Y-98241371D02*
X141640112Y-98241371D01*
X141640112Y-98241371D02*
X141782970Y-98169942D01*
X141782970Y-98169942D02*
X141854398Y-98098514D01*
X141854398Y-98098514D02*
X141925827Y-97955657D01*
X141925827Y-97955657D02*
X141925827Y-97812800D01*
X141925827Y-97812800D02*
X141854398Y-97669942D01*
X141854398Y-97669942D02*
X141782970Y-97598514D01*
X141782970Y-97598514D02*
X141640112Y-97527085D01*
X141640112Y-97527085D02*
X141140112Y-97527085D01*
X142497255Y-97741371D02*
X142854398Y-96741371D01*
X143211541Y-97741371D02*
X142854398Y-96741371D01*
X142854398Y-96741371D02*
X142711541Y-96384228D01*
X142711541Y-96384228D02*
X142640112Y-96312800D01*
X142640112Y-96312800D02*
X142497255Y-96241371D01*
X143782969Y-96884228D02*
X143854398Y-96812800D01*
X143854398Y-96812800D02*
X143782969Y-96741371D01*
X143782969Y-96741371D02*
X143711541Y-96812800D01*
X143711541Y-96812800D02*
X143782969Y-96884228D01*
X143782969Y-96884228D02*
X143782969Y-96741371D01*
X143782969Y-97669942D02*
X143854398Y-97598514D01*
X143854398Y-97598514D02*
X143782969Y-97527085D01*
X143782969Y-97527085D02*
X143711541Y-97598514D01*
X143711541Y-97598514D02*
X143782969Y-97669942D01*
X143782969Y-97669942D02*
X143782969Y-97527085D01*
X145568684Y-97169942D02*
X146282970Y-97169942D01*
X145425827Y-96741371D02*
X145925827Y-98241371D01*
X145925827Y-98241371D02*
X146425827Y-96741371D01*
X147568684Y-96741371D02*
X147568684Y-97527085D01*
X147568684Y-97527085D02*
X147497255Y-97669942D01*
X147497255Y-97669942D02*
X147354398Y-97741371D01*
X147354398Y-97741371D02*
X147068684Y-97741371D01*
X147068684Y-97741371D02*
X146925826Y-97669942D01*
X147568684Y-96812800D02*
X147425826Y-96741371D01*
X147425826Y-96741371D02*
X147068684Y-96741371D01*
X147068684Y-96741371D02*
X146925826Y-96812800D01*
X146925826Y-96812800D02*
X146854398Y-96955657D01*
X146854398Y-96955657D02*
X146854398Y-97098514D01*
X146854398Y-97098514D02*
X146925826Y-97241371D01*
X146925826Y-97241371D02*
X147068684Y-97312800D01*
X147068684Y-97312800D02*
X147425826Y-97312800D01*
X147425826Y-97312800D02*
X147568684Y-97384228D01*
X148282969Y-96741371D02*
X148282969Y-97741371D01*
X148282969Y-97455657D02*
X148354398Y-97598514D01*
X148354398Y-97598514D02*
X148425827Y-97669942D01*
X148425827Y-97669942D02*
X148568684Y-97741371D01*
X148568684Y-97741371D02*
X148711541Y-97741371D01*
X149425826Y-96741371D02*
X149282969Y-96812800D01*
X149282969Y-96812800D02*
X149211540Y-96884228D01*
X149211540Y-96884228D02*
X149140112Y-97027085D01*
X149140112Y-97027085D02*
X149140112Y-97455657D01*
X149140112Y-97455657D02*
X149211540Y-97598514D01*
X149211540Y-97598514D02*
X149282969Y-97669942D01*
X149282969Y-97669942D02*
X149425826Y-97741371D01*
X149425826Y-97741371D02*
X149640112Y-97741371D01*
X149640112Y-97741371D02*
X149782969Y-97669942D01*
X149782969Y-97669942D02*
X149854398Y-97598514D01*
X149854398Y-97598514D02*
X149925826Y-97455657D01*
X149925826Y-97455657D02*
X149925826Y-97027085D01*
X149925826Y-97027085D02*
X149854398Y-96884228D01*
X149854398Y-96884228D02*
X149782969Y-96812800D01*
X149782969Y-96812800D02*
X149640112Y-96741371D01*
X149640112Y-96741371D02*
X149425826Y-96741371D01*
X150568683Y-97741371D02*
X150568683Y-96741371D01*
X150568683Y-97598514D02*
X150640112Y-97669942D01*
X150640112Y-97669942D02*
X150782969Y-97741371D01*
X150782969Y-97741371D02*
X150997255Y-97741371D01*
X150997255Y-97741371D02*
X151140112Y-97669942D01*
X151140112Y-97669942D02*
X151211541Y-97527085D01*
X151211541Y-97527085D02*
X151211541Y-96741371D01*
X154068683Y-96598514D02*
X153925826Y-96669942D01*
X153925826Y-96669942D02*
X153782969Y-96812800D01*
X153782969Y-96812800D02*
X153568683Y-97027085D01*
X153568683Y-97027085D02*
X153425826Y-97098514D01*
X153425826Y-97098514D02*
X153282969Y-97098514D01*
X153354398Y-96741371D02*
X153211541Y-96812800D01*
X153211541Y-96812800D02*
X153068683Y-96955657D01*
X153068683Y-96955657D02*
X152997255Y-97241371D01*
X152997255Y-97241371D02*
X152997255Y-97741371D01*
X152997255Y-97741371D02*
X153068683Y-98027085D01*
X153068683Y-98027085D02*
X153211541Y-98169942D01*
X153211541Y-98169942D02*
X153354398Y-98241371D01*
X153354398Y-98241371D02*
X153640112Y-98241371D01*
X153640112Y-98241371D02*
X153782969Y-98169942D01*
X153782969Y-98169942D02*
X153925826Y-98027085D01*
X153925826Y-98027085D02*
X153997255Y-97741371D01*
X153997255Y-97741371D02*
X153997255Y-97241371D01*
X153997255Y-97241371D02*
X153925826Y-96955657D01*
X153925826Y-96955657D02*
X153782969Y-96812800D01*
X153782969Y-96812800D02*
X153640112Y-96741371D01*
X153640112Y-96741371D02*
X153354398Y-96741371D01*
X154640112Y-96741371D02*
X154640112Y-97741371D01*
X154640112Y-98241371D02*
X154568684Y-98169942D01*
X154568684Y-98169942D02*
X154640112Y-98098514D01*
X154640112Y-98098514D02*
X154711541Y-98169942D01*
X154711541Y-98169942D02*
X154640112Y-98241371D01*
X154640112Y-98241371D02*
X154640112Y-98098514D01*
X155997256Y-96741371D02*
X155997256Y-97527085D01*
X155997256Y-97527085D02*
X155925827Y-97669942D01*
X155925827Y-97669942D02*
X155782970Y-97741371D01*
X155782970Y-97741371D02*
X155497256Y-97741371D01*
X155497256Y-97741371D02*
X155354398Y-97669942D01*
X155997256Y-96812800D02*
X155854398Y-96741371D01*
X155854398Y-96741371D02*
X155497256Y-96741371D01*
X155497256Y-96741371D02*
X155354398Y-96812800D01*
X155354398Y-96812800D02*
X155282970Y-96955657D01*
X155282970Y-96955657D02*
X155282970Y-97098514D01*
X155282970Y-97098514D02*
X155354398Y-97241371D01*
X155354398Y-97241371D02*
X155497256Y-97312800D01*
X155497256Y-97312800D02*
X155854398Y-97312800D01*
X155854398Y-97312800D02*
X155997256Y-97384228D01*
X156711541Y-97741371D02*
X156711541Y-96741371D01*
X156711541Y-97598514D02*
X156782970Y-97669942D01*
X156782970Y-97669942D02*
X156925827Y-97741371D01*
X156925827Y-97741371D02*
X157140113Y-97741371D01*
X157140113Y-97741371D02*
X157282970Y-97669942D01*
X157282970Y-97669942D02*
X157354399Y-97527085D01*
X157354399Y-97527085D02*
X157354399Y-96741371D01*
D11*
%TO.C,H2*%
X129795000Y-89520000D02*
X131125000Y-89520000D01*
X129795000Y-90850000D02*
X129795000Y-89520000D01*
X132395000Y-92180000D02*
X132395000Y-89520000D01*
X150235000Y-89520000D02*
X132395000Y-89520000D01*
X150235000Y-92180000D02*
X132395000Y-92180000D01*
X150235000Y-92180000D02*
X150235000Y-89520000D01*
%TO.C,H1*%
X129795000Y-109800000D02*
X131125000Y-109800000D01*
X129795000Y-111130000D02*
X129795000Y-109800000D01*
X132395000Y-112460000D02*
X132395000Y-109800000D01*
X150235000Y-109800000D02*
X132395000Y-109800000D01*
X150235000Y-112460000D02*
X132395000Y-112460000D01*
X150235000Y-112460000D02*
X150235000Y-109800000D01*
%TD*%
%LPC*%
D12*
%TO.C,MH3*%
X160350000Y-110500000D03*
X160833274Y-109333274D03*
X160833274Y-111666726D03*
X162000000Y-108850000D03*
D13*
X162000000Y-110500000D03*
D12*
X162000000Y-112150000D03*
X163166726Y-109333274D03*
X163166726Y-111666726D03*
X163650000Y-110500000D03*
%TD*%
D14*
%TO.C,J1*%
X117550000Y-98245000D03*
D15*
X120550000Y-98555000D03*
X120550000Y-103395000D03*
D14*
X117550000Y-103705000D03*
%TD*%
D12*
%TO.C,MH1*%
X116350000Y-91500000D03*
X116833274Y-90333274D03*
X116833274Y-92666726D03*
X118000000Y-89850000D03*
D13*
X118000000Y-91500000D03*
D12*
X118000000Y-93150000D03*
X119166726Y-90333274D03*
X119166726Y-92666726D03*
X119650000Y-91500000D03*
%TD*%
D16*
%TO.C,J5*%
X163370000Y-103540000D03*
D17*
X162100000Y-103540000D03*
X163370000Y-102270000D03*
X162100000Y-102270000D03*
X163370000Y-101000000D03*
X162100000Y-101000000D03*
X163370000Y-99730000D03*
X162100000Y-99730000D03*
X163370000Y-98460000D03*
X162100000Y-98460000D03*
%TD*%
D12*
%TO.C,MH4*%
X160348350Y-91501650D03*
X160831624Y-90334924D03*
X160831624Y-92668376D03*
X161998350Y-89851650D03*
D13*
X161998350Y-91501650D03*
D12*
X161998350Y-93151650D03*
X163165076Y-90334924D03*
X163165076Y-92668376D03*
X163648350Y-91501650D03*
%TD*%
%TO.C,MH2*%
X116350000Y-110500000D03*
X116833274Y-109333274D03*
X116833274Y-111666726D03*
X118000000Y-108850000D03*
D13*
X118000000Y-110500000D03*
D12*
X118000000Y-112150000D03*
X119166726Y-109333274D03*
X119166726Y-111666726D03*
X119650000Y-110500000D03*
%TD*%
D18*
%TO.C,H2*%
X131125000Y-90850000D03*
D19*
X133665000Y-90850000D03*
X136205000Y-90850000D03*
X138745000Y-90850000D03*
X141285000Y-90850000D03*
X143825000Y-90850000D03*
X146365000Y-90850000D03*
X148905000Y-90850000D03*
%TD*%
D18*
%TO.C,H1*%
X131125000Y-111130000D03*
D19*
X133665000Y-111130000D03*
X136205000Y-111130000D03*
X138745000Y-111130000D03*
X141285000Y-111130000D03*
X143825000Y-111130000D03*
X146365000Y-111130000D03*
X148905000Y-111130000D03*
%TD*%
%LPD*%
M02*
