%TF.GenerationSoftware,KiCad,Pcbnew,8.0.7*%
%TF.CreationDate,2025-01-26T16:55:51-08:00*%
%TF.ProjectId,servo-dev-board,73657276-6f2d-4646-9576-2d626f617264,rev?*%
%TF.SameCoordinates,Original*%
%TF.FileFunction,Soldermask,Bot*%
%TF.FilePolarity,Negative*%
%FSLAX46Y46*%
G04 Gerber Fmt 4.6, Leading zero omitted, Abs format (unit mm)*
G04 Created by KiCad (PCBNEW 8.0.7) date 2025-01-26 16:55:51*
%MOMM*%
%LPD*%
G01*
G04 APERTURE LIST*
%ADD10C,0.700000*%
%ADD11C,4.400000*%
%ADD12O,1.700000X1.350000*%
%ADD13O,1.500000X1.100000*%
%ADD14R,1.000000X1.000000*%
%ADD15C,1.000000*%
%ADD16R,1.700000X1.700000*%
%ADD17O,1.700000X1.700000*%
G04 APERTURE END LIST*
D10*
%TO.C,MH3*%
X160350000Y-110500000D03*
X160833274Y-109333274D03*
X160833274Y-111666726D03*
X162000000Y-108850000D03*
D11*
X162000000Y-110500000D03*
D10*
X162000000Y-112150000D03*
X163166726Y-109333274D03*
X163166726Y-111666726D03*
X163650000Y-110500000D03*
%TD*%
D12*
%TO.C,J1*%
X117550000Y-98245000D03*
D13*
X120550000Y-98555000D03*
X120550000Y-103395000D03*
D12*
X117550000Y-103705000D03*
%TD*%
D10*
%TO.C,MH1*%
X116350000Y-91500000D03*
X116833274Y-90333274D03*
X116833274Y-92666726D03*
X118000000Y-89850000D03*
D11*
X118000000Y-91500000D03*
D10*
X118000000Y-93150000D03*
X119166726Y-90333274D03*
X119166726Y-92666726D03*
X119650000Y-91500000D03*
%TD*%
D14*
%TO.C,J5*%
X163370000Y-103540000D03*
D15*
X162100000Y-103540000D03*
X163370000Y-102270000D03*
X162100000Y-102270000D03*
X163370000Y-101000000D03*
X162100000Y-101000000D03*
X163370000Y-99730000D03*
X162100000Y-99730000D03*
X163370000Y-98460000D03*
X162100000Y-98460000D03*
%TD*%
D10*
%TO.C,MH4*%
X160348350Y-91501650D03*
X160831624Y-90334924D03*
X160831624Y-92668376D03*
X161998350Y-89851650D03*
D11*
X161998350Y-91501650D03*
D10*
X161998350Y-93151650D03*
X163165076Y-90334924D03*
X163165076Y-92668376D03*
X163648350Y-91501650D03*
%TD*%
%TO.C,MH2*%
X116350000Y-110500000D03*
X116833274Y-109333274D03*
X116833274Y-111666726D03*
X118000000Y-108850000D03*
D11*
X118000000Y-110500000D03*
D10*
X118000000Y-112150000D03*
X119166726Y-109333274D03*
X119166726Y-111666726D03*
X119650000Y-110500000D03*
%TD*%
D16*
%TO.C,H2*%
X131125000Y-90850000D03*
D17*
X133665000Y-90850000D03*
X136205000Y-90850000D03*
X138745000Y-90850000D03*
X141285000Y-90850000D03*
X143825000Y-90850000D03*
X146365000Y-90850000D03*
X148905000Y-90850000D03*
%TD*%
D16*
%TO.C,H1*%
X131125000Y-111130000D03*
D17*
X133665000Y-111130000D03*
X136205000Y-111130000D03*
X138745000Y-111130000D03*
X141285000Y-111130000D03*
X143825000Y-111130000D03*
X146365000Y-111130000D03*
X148905000Y-111130000D03*
%TD*%
M02*
