%TF.GenerationSoftware,KiCad,Pcbnew,8.0.7*%
%TF.CreationDate,2025-01-26T16:55:51-08:00*%
%TF.ProjectId,servo-dev-board,73657276-6f2d-4646-9576-2d626f617264,rev?*%
%TF.SameCoordinates,Original*%
%TF.FileFunction,Copper,L2,Inr*%
%TF.FilePolarity,Positive*%
%FSLAX46Y46*%
G04 Gerber Fmt 4.6, Leading zero omitted, Abs format (unit mm)*
G04 Created by KiCad (PCBNEW 8.0.7) date 2025-01-26 16:55:51*
%MOMM*%
%LPD*%
G01*
G04 APERTURE LIST*
%TA.AperFunction,ComponentPad*%
%ADD10C,0.700000*%
%TD*%
%TA.AperFunction,ComponentPad*%
%ADD11C,4.400000*%
%TD*%
%TA.AperFunction,ComponentPad*%
%ADD12O,1.700000X1.350000*%
%TD*%
%TA.AperFunction,ComponentPad*%
%ADD13O,1.500000X1.100000*%
%TD*%
%TA.AperFunction,ComponentPad*%
%ADD14R,1.000000X1.000000*%
%TD*%
%TA.AperFunction,ComponentPad*%
%ADD15C,1.000000*%
%TD*%
%TA.AperFunction,ComponentPad*%
%ADD16R,1.700000X1.700000*%
%TD*%
%TA.AperFunction,ComponentPad*%
%ADD17O,1.700000X1.700000*%
%TD*%
%TA.AperFunction,ViaPad*%
%ADD18C,0.450000*%
%TD*%
%TA.AperFunction,ViaPad*%
%ADD19C,0.600000*%
%TD*%
G04 APERTURE END LIST*
D10*
%TO.N,GND*%
%TO.C,MH3*%
X160350000Y-110500000D03*
X160833274Y-109333274D03*
X160833274Y-111666726D03*
X162000000Y-108850000D03*
D11*
X162000000Y-110500000D03*
D10*
X162000000Y-112150000D03*
X163166726Y-109333274D03*
X163166726Y-111666726D03*
X163650000Y-110500000D03*
%TD*%
D12*
%TO.N,GND*%
%TO.C,J1*%
X117550000Y-98245000D03*
D13*
X120550000Y-98555000D03*
X120550000Y-103395000D03*
D12*
X117550000Y-103705000D03*
%TD*%
D10*
%TO.N,GND*%
%TO.C,MH1*%
X116350000Y-91500000D03*
X116833274Y-90333274D03*
X116833274Y-92666726D03*
X118000000Y-89850000D03*
D11*
X118000000Y-91500000D03*
D10*
X118000000Y-93150000D03*
X119166726Y-90333274D03*
X119166726Y-92666726D03*
X119650000Y-91500000D03*
%TD*%
D14*
%TO.N,+3V3*%
%TO.C,J5*%
X163370000Y-103540000D03*
D15*
%TO.N,/JTMS_SWDIO*%
X162100000Y-103540000D03*
%TO.N,GND*%
X163370000Y-102270000D03*
%TO.N,/JTCK_SWCLK*%
X162100000Y-102270000D03*
%TO.N,GND*%
X163370000Y-101000000D03*
%TO.N,/JTDO_SWO*%
X162100000Y-101000000D03*
%TO.N,unconnected-(J5-Pin_7-Pad7)*%
X163370000Y-99730000D03*
%TO.N,/JTDI*%
X162100000Y-99730000D03*
%TO.N,GND*%
X163370000Y-98460000D03*
%TO.N,/NJTRST*%
X162100000Y-98460000D03*
%TD*%
D10*
%TO.N,GND*%
%TO.C,MH4*%
X160348350Y-91501650D03*
X160831624Y-90334924D03*
X160831624Y-92668376D03*
X161998350Y-89851650D03*
D11*
X161998350Y-91501650D03*
D10*
X161998350Y-93151650D03*
X163165076Y-90334924D03*
X163165076Y-92668376D03*
X163648350Y-91501650D03*
%TD*%
%TO.N,GND*%
%TO.C,MH2*%
X116350000Y-110500000D03*
X116833274Y-109333274D03*
X116833274Y-111666726D03*
X118000000Y-108850000D03*
D11*
X118000000Y-110500000D03*
D10*
X118000000Y-112150000D03*
X119166726Y-109333274D03*
X119166726Y-111666726D03*
X119650000Y-110500000D03*
%TD*%
D16*
%TO.N,+5V*%
%TO.C,H2*%
X131125000Y-90850000D03*
D17*
%TO.N,+3V3*%
X133665000Y-90850000D03*
%TO.N,GND*%
X136205000Y-90850000D03*
%TO.N,/VREF*%
X138745000Y-90850000D03*
%TO.N,GND*%
X141285000Y-90850000D03*
%TO.N,/PB5*%
X143825000Y-90850000D03*
%TO.N,/PA12*%
X146365000Y-90850000D03*
%TO.N,GND*%
X148905000Y-90850000D03*
%TD*%
D16*
%TO.N,/PA2*%
%TO.C,H1*%
X131125000Y-111130000D03*
D17*
%TO.N,/PA3*%
X133665000Y-111130000D03*
%TO.N,/PA4*%
X136205000Y-111130000D03*
%TO.N,/PA5*%
X138745000Y-111130000D03*
%TO.N,/PA6*%
X141285000Y-111130000D03*
%TO.N,/PA7*%
X143825000Y-111130000D03*
%TO.N,/PB0*%
X146365000Y-111130000D03*
%TO.N,GND*%
X148905000Y-111130000D03*
%TD*%
D18*
%TO.N,+3V3*%
X122350000Y-105700000D03*
X122350000Y-106883332D03*
X158355000Y-93600000D03*
X122725000Y-105050000D03*
X122350000Y-107475000D03*
X123125000Y-106291666D03*
X123125000Y-107475000D03*
X155375000Y-93600000D03*
D19*
X125550000Y-94350000D03*
X126325000Y-107700000D03*
D18*
X123575000Y-110825000D03*
D19*
X150650000Y-104875000D03*
D18*
X127800000Y-110825000D03*
X123125000Y-105700000D03*
X123125000Y-106883332D03*
X122350000Y-106291666D03*
X158750000Y-107900000D03*
D19*
X153375000Y-110725000D03*
X141400000Y-102312500D03*
D18*
X154975000Y-107950000D03*
D19*
X154350000Y-91225000D03*
X145500000Y-95050000D03*
%TO.N,GND*%
X152850000Y-89625000D03*
D18*
X123259744Y-95749891D03*
X123265256Y-94449783D03*
X164690000Y-93070000D03*
X123625000Y-91200000D03*
X121510000Y-108310000D03*
D19*
X147100000Y-99900000D03*
D18*
X146910000Y-108310000D03*
X129059744Y-95125217D03*
X125334675Y-97123499D03*
X121510000Y-95610000D03*
X126286308Y-96519240D03*
X116430000Y-95610000D03*
X132050000Y-94100000D03*
X136750000Y-105770000D03*
D19*
X124900000Y-103625000D03*
D18*
X124025000Y-95100000D03*
D19*
X147075000Y-95050000D03*
D18*
X129070000Y-98760000D03*
X126590000Y-100690000D03*
X136750000Y-108310000D03*
D19*
X130275000Y-95950000D03*
D18*
X124050000Y-108310000D03*
X123265256Y-96399945D03*
X129069488Y-95766883D03*
X118970000Y-100690000D03*
D19*
X123750000Y-100250000D03*
D18*
X124050000Y-105770000D03*
X123250000Y-95099837D03*
D19*
X147100000Y-101700000D03*
X142900000Y-102725000D03*
D18*
X159610000Y-95610000D03*
X127540256Y-96408549D03*
D19*
X156900000Y-112275000D03*
D18*
X162150000Y-95610000D03*
X118970000Y-105770000D03*
X159610000Y-93070000D03*
D19*
X155350000Y-110725000D03*
D18*
X128309744Y-95766883D03*
D19*
X143500000Y-95450000D03*
D18*
X128260000Y-98750000D03*
X121510000Y-93070000D03*
X151990000Y-110850000D03*
D19*
X125000000Y-100350000D03*
D18*
X157070000Y-95610000D03*
X128315256Y-96408549D03*
X134210000Y-95610000D03*
X127550000Y-97050217D03*
X129075000Y-96408549D03*
X128300000Y-95125217D03*
X134210000Y-105770000D03*
D19*
X124150000Y-104625000D03*
X119100000Y-102300000D03*
D18*
X164690000Y-95610000D03*
X164690000Y-105770000D03*
X164690000Y-108310000D03*
X151990000Y-108310000D03*
X129130000Y-103230000D03*
D19*
X117280000Y-100015000D03*
D18*
X124034744Y-95750000D03*
X129084744Y-97050217D03*
X126590000Y-93070000D03*
X164690000Y-110850000D03*
X129130000Y-100690000D03*
D19*
X130275000Y-106050000D03*
D18*
X118970000Y-95610000D03*
D19*
X139100000Y-98800000D03*
X145900000Y-98325000D03*
D18*
X121510000Y-110850000D03*
X154530000Y-105770000D03*
D19*
X143900000Y-102725000D03*
D18*
X124040256Y-96400000D03*
X128325000Y-97050217D03*
X126296855Y-97137496D03*
D19*
X123100000Y-99600000D03*
D18*
X127470000Y-98750000D03*
X122300000Y-90075000D03*
D19*
X148900000Y-99900000D03*
D18*
X154530000Y-95610000D03*
D19*
X149700000Y-104875000D03*
D18*
X129130000Y-105770000D03*
X151990000Y-105770000D03*
X126590000Y-103230000D03*
X155875000Y-103175000D03*
X159610000Y-105770000D03*
X127534744Y-95766883D03*
D19*
X117280000Y-101935000D03*
D18*
X126590000Y-110850000D03*
D19*
X131650000Y-101000000D03*
D18*
X136750000Y-103230000D03*
D19*
X135725000Y-101000000D03*
D18*
X123275000Y-97050000D03*
X151990000Y-93070000D03*
X149450000Y-108310000D03*
D19*
X147950000Y-100737500D03*
X153375000Y-91200000D03*
D18*
X164690000Y-98150000D03*
D19*
X133700000Y-101525000D03*
D18*
X124025000Y-94450000D03*
X164690000Y-100690000D03*
X124050000Y-97050000D03*
D19*
X156900000Y-89650000D03*
X148900000Y-101700000D03*
D18*
X129130000Y-108310000D03*
X139290000Y-103230000D03*
D19*
X123450000Y-104000000D03*
X150000000Y-103175000D03*
D18*
X122300000Y-111925000D03*
X116430000Y-105770000D03*
D19*
X125325000Y-106400000D03*
X152850000Y-112325000D03*
D18*
X127775000Y-91200000D03*
X129130000Y-110850000D03*
X136750000Y-98150000D03*
X162150000Y-105770000D03*
X121300000Y-111975000D03*
X125324931Y-96523282D03*
%TO.N,/NRST*%
X138825000Y-100300000D03*
X139925000Y-89075000D03*
D19*
%TO.N,/BOOT0*%
X145150000Y-112900000D03*
D18*
X147098067Y-97048067D03*
%TO.N,/VREF*%
X138325000Y-101312500D03*
%TO.N,/JTDI*%
X157650000Y-99450000D03*
%TO.N,/PA12*%
X152600000Y-100250000D03*
%TO.N,/PB5*%
X149400000Y-96200000D03*
%TO.N,/ISNS*%
X137625000Y-104975000D03*
X136175000Y-94900000D03*
%TO.N,/PWM1*%
X151500000Y-102625000D03*
X146575000Y-92350000D03*
%TO.N,/PWM2*%
X149675000Y-92975000D03*
X153275000Y-101650000D03*
%TD*%
%TA.AperFunction,Conductor*%
%TO.N,GND*%
G36*
X162001278Y-88250567D02*
G01*
X162337108Y-88268167D01*
X162342190Y-88268701D01*
X162673080Y-88321108D01*
X162678092Y-88322174D01*
X163001673Y-88408878D01*
X163006545Y-88410461D01*
X163319295Y-88530514D01*
X163323971Y-88532596D01*
X163584381Y-88665281D01*
X163622462Y-88684684D01*
X163626900Y-88687246D01*
X163907859Y-88869703D01*
X163911996Y-88872709D01*
X164035213Y-88972488D01*
X164172347Y-89083537D01*
X164176158Y-89086969D01*
X164413030Y-89323841D01*
X164416462Y-89327652D01*
X164618030Y-89576568D01*
X164627285Y-89587996D01*
X164630300Y-89592146D01*
X164812751Y-89873096D01*
X164815315Y-89877537D01*
X164967401Y-90176023D01*
X164969487Y-90180709D01*
X165089537Y-90493451D01*
X165091122Y-90498329D01*
X165177824Y-90821904D01*
X165178891Y-90826921D01*
X165231297Y-91157799D01*
X165231833Y-91162899D01*
X165249433Y-91498720D01*
X165249500Y-91501285D01*
X165249500Y-110498714D01*
X165249433Y-110501279D01*
X165231833Y-110837100D01*
X165231297Y-110842200D01*
X165178891Y-111173078D01*
X165177824Y-111178095D01*
X165091122Y-111501670D01*
X165089537Y-111506548D01*
X164969487Y-111819290D01*
X164967401Y-111823976D01*
X164815315Y-112122462D01*
X164812751Y-112126903D01*
X164630300Y-112407853D01*
X164627285Y-112412003D01*
X164416462Y-112672347D01*
X164413030Y-112676158D01*
X164176158Y-112913030D01*
X164172347Y-112916462D01*
X163912003Y-113127285D01*
X163907853Y-113130300D01*
X163626903Y-113312751D01*
X163622462Y-113315315D01*
X163323976Y-113467401D01*
X163319290Y-113469487D01*
X163006548Y-113589537D01*
X163001670Y-113591122D01*
X162678095Y-113677824D01*
X162673078Y-113678891D01*
X162342200Y-113731297D01*
X162337100Y-113731833D01*
X162022866Y-113748301D01*
X162001277Y-113749433D01*
X161998714Y-113749500D01*
X118001286Y-113749500D01*
X117998722Y-113749433D01*
X117974319Y-113748154D01*
X117662899Y-113731833D01*
X117657799Y-113731297D01*
X117326921Y-113678891D01*
X117321904Y-113677824D01*
X116998329Y-113591122D01*
X116993451Y-113589537D01*
X116680709Y-113469487D01*
X116676023Y-113467401D01*
X116377537Y-113315315D01*
X116373096Y-113312751D01*
X116092146Y-113130300D01*
X116087996Y-113127285D01*
X115983242Y-113042457D01*
X115827652Y-112916462D01*
X115823841Y-112913030D01*
X115586969Y-112676158D01*
X115583537Y-112672347D01*
X115546512Y-112626625D01*
X115372709Y-112411996D01*
X115369703Y-112407859D01*
X115187246Y-112126900D01*
X115184684Y-112122462D01*
X115140925Y-112036580D01*
X115032596Y-111823971D01*
X115030512Y-111819290D01*
X115026020Y-111807589D01*
X114910461Y-111506545D01*
X114908877Y-111501670D01*
X114876275Y-111380000D01*
X114822174Y-111178092D01*
X114821108Y-111173078D01*
X114806083Y-111078213D01*
X114768701Y-110842190D01*
X114768167Y-110837108D01*
X114750567Y-110501278D01*
X114750534Y-110500000D01*
X115295065Y-110500000D01*
X115314787Y-110826044D01*
X115314789Y-110826056D01*
X115373663Y-111147322D01*
X115373669Y-111147348D01*
X115470838Y-111459172D01*
X115470846Y-111459194D01*
X115604899Y-111757045D01*
X115773882Y-112036579D01*
X115773883Y-112036580D01*
X115921475Y-112224968D01*
X115921476Y-112224968D01*
X117063708Y-111082735D01*
X117160967Y-111216602D01*
X117283398Y-111339033D01*
X117417262Y-111436290D01*
X116275030Y-112578522D01*
X116275030Y-112578523D01*
X116463419Y-112726116D01*
X116463420Y-112726117D01*
X116742954Y-112895100D01*
X117040805Y-113029153D01*
X117040827Y-113029161D01*
X117352651Y-113126330D01*
X117352677Y-113126336D01*
X117673943Y-113185210D01*
X117673955Y-113185212D01*
X118000000Y-113204934D01*
X118326044Y-113185212D01*
X118326056Y-113185210D01*
X118647322Y-113126336D01*
X118647348Y-113126330D01*
X118959172Y-113029161D01*
X118959194Y-113029153D01*
X119246164Y-112899997D01*
X144644353Y-112899997D01*
X144644353Y-112900002D01*
X144664833Y-113042454D01*
X144696935Y-113112746D01*
X144724623Y-113173373D01*
X144724624Y-113173374D01*
X144724625Y-113173376D01*
X144818871Y-113282142D01*
X144818872Y-113282143D01*
X144939947Y-113359953D01*
X145016785Y-113382514D01*
X145078034Y-113400499D01*
X145078037Y-113400499D01*
X145078039Y-113400500D01*
X145078040Y-113400500D01*
X145221960Y-113400500D01*
X145221961Y-113400500D01*
X145221963Y-113400499D01*
X145221965Y-113400499D01*
X145244795Y-113393795D01*
X145360053Y-113359953D01*
X145481128Y-113282143D01*
X145575377Y-113173373D01*
X145635165Y-113042457D01*
X145635165Y-113042455D01*
X145635166Y-113042454D01*
X145655647Y-112900002D01*
X145655647Y-112899997D01*
X145635166Y-112757545D01*
X145620813Y-112726117D01*
X145575377Y-112626627D01*
X145481128Y-112517857D01*
X145360053Y-112440047D01*
X145360050Y-112440046D01*
X145221965Y-112399500D01*
X145221961Y-112399500D01*
X145078039Y-112399500D01*
X145078034Y-112399500D01*
X144939949Y-112440046D01*
X144818871Y-112517857D01*
X144724625Y-112626623D01*
X144724624Y-112626625D01*
X144664833Y-112757545D01*
X144644353Y-112899997D01*
X119246164Y-112899997D01*
X119257045Y-112895100D01*
X119536579Y-112726117D01*
X119536580Y-112726116D01*
X119724968Y-112578523D01*
X119724968Y-112578522D01*
X118582736Y-111436290D01*
X118716602Y-111339033D01*
X118839033Y-111216602D01*
X118936290Y-111082736D01*
X120078522Y-112224968D01*
X120078523Y-112224968D01*
X120226116Y-112036580D01*
X120226117Y-112036579D01*
X120395100Y-111757045D01*
X120529153Y-111459194D01*
X120529161Y-111459172D01*
X120626330Y-111147348D01*
X120626336Y-111147322D01*
X120685210Y-110826056D01*
X120685212Y-110826044D01*
X120685275Y-110825000D01*
X123144196Y-110825000D01*
X123165281Y-110958126D01*
X123165281Y-110958127D01*
X123165282Y-110958128D01*
X123226467Y-111078213D01*
X123226472Y-111078220D01*
X123321779Y-111173527D01*
X123321786Y-111173532D01*
X123401842Y-111214322D01*
X123441874Y-111234719D01*
X123575000Y-111255804D01*
X123708126Y-111234719D01*
X123791420Y-111192278D01*
X123828213Y-111173532D01*
X123828215Y-111173530D01*
X123828220Y-111173528D01*
X123923528Y-111078220D01*
X123984719Y-110958126D01*
X124005804Y-110825000D01*
X127369196Y-110825000D01*
X127390281Y-110958126D01*
X127390281Y-110958127D01*
X127390282Y-110958128D01*
X127451467Y-111078213D01*
X127451472Y-111078220D01*
X127546779Y-111173527D01*
X127546786Y-111173532D01*
X127626842Y-111214322D01*
X127666874Y-111234719D01*
X127800000Y-111255804D01*
X127933126Y-111234719D01*
X128016420Y-111192278D01*
X128053213Y-111173532D01*
X128053215Y-111173530D01*
X128053220Y-111173528D01*
X128148528Y-111078220D01*
X128209719Y-110958126D01*
X128230804Y-110825000D01*
X128209719Y-110691874D01*
X128178193Y-110630000D01*
X128148532Y-110571786D01*
X128148527Y-110571779D01*
X128053220Y-110476472D01*
X128053213Y-110476467D01*
X127933128Y-110415282D01*
X127933127Y-110415281D01*
X127933126Y-110415281D01*
X127800000Y-110394196D01*
X127666874Y-110415281D01*
X127666872Y-110415281D01*
X127666871Y-110415282D01*
X127546786Y-110476467D01*
X127546779Y-110476472D01*
X127451472Y-110571779D01*
X127451467Y-110571786D01*
X127390282Y-110691871D01*
X127390281Y-110691872D01*
X127390281Y-110691874D01*
X127369196Y-110825000D01*
X124005804Y-110825000D01*
X123984719Y-110691874D01*
X123953193Y-110630000D01*
X123923532Y-110571786D01*
X123923527Y-110571779D01*
X123828220Y-110476472D01*
X123828213Y-110476467D01*
X123708128Y-110415282D01*
X123708127Y-110415281D01*
X123708126Y-110415281D01*
X123575000Y-110394196D01*
X123441874Y-110415281D01*
X123441872Y-110415281D01*
X123441871Y-110415282D01*
X123321786Y-110476467D01*
X123321779Y-110476472D01*
X123226472Y-110571779D01*
X123226467Y-110571786D01*
X123165282Y-110691871D01*
X123165281Y-110691872D01*
X123165281Y-110691874D01*
X123144196Y-110825000D01*
X120685275Y-110825000D01*
X120704934Y-110500000D01*
X120690432Y-110260252D01*
X130074500Y-110260252D01*
X130074500Y-111999748D01*
X130086133Y-112058231D01*
X130103882Y-112084795D01*
X130130447Y-112124552D01*
X130133966Y-112126903D01*
X130196769Y-112168867D01*
X130255252Y-112180500D01*
X130255255Y-112180500D01*
X131994745Y-112180500D01*
X131994748Y-112180500D01*
X132053231Y-112168867D01*
X132119552Y-112124552D01*
X132163867Y-112058231D01*
X132175500Y-111999748D01*
X132175500Y-111130000D01*
X132609417Y-111130000D01*
X132629700Y-111335934D01*
X132689768Y-111533954D01*
X132787315Y-111716450D01*
X132918590Y-111876410D01*
X133078550Y-112007685D01*
X133261046Y-112105232D01*
X133459066Y-112165300D01*
X133665000Y-112185583D01*
X133870934Y-112165300D01*
X134068954Y-112105232D01*
X134251450Y-112007685D01*
X134411410Y-111876410D01*
X134542685Y-111716450D01*
X134640232Y-111533954D01*
X134700300Y-111335934D01*
X134720583Y-111130000D01*
X135149417Y-111130000D01*
X135169700Y-111335934D01*
X135229768Y-111533954D01*
X135327315Y-111716450D01*
X135458590Y-111876410D01*
X135618550Y-112007685D01*
X135801046Y-112105232D01*
X135999066Y-112165300D01*
X136205000Y-112185583D01*
X136410934Y-112165300D01*
X136608954Y-112105232D01*
X136791450Y-112007685D01*
X136951410Y-111876410D01*
X137082685Y-111716450D01*
X137180232Y-111533954D01*
X137240300Y-111335934D01*
X137260583Y-111130000D01*
X137689417Y-111130000D01*
X137709700Y-111335934D01*
X137769768Y-111533954D01*
X137867315Y-111716450D01*
X137998590Y-111876410D01*
X138158550Y-112007685D01*
X138341046Y-112105232D01*
X138539066Y-112165300D01*
X138745000Y-112185583D01*
X138950934Y-112165300D01*
X139148954Y-112105232D01*
X139331450Y-112007685D01*
X139491410Y-111876410D01*
X139622685Y-111716450D01*
X139720232Y-111533954D01*
X139780300Y-111335934D01*
X139800583Y-111130000D01*
X140229417Y-111130000D01*
X140249700Y-111335934D01*
X140309768Y-111533954D01*
X140407315Y-111716450D01*
X140538590Y-111876410D01*
X140698550Y-112007685D01*
X140881046Y-112105232D01*
X141079066Y-112165300D01*
X141285000Y-112185583D01*
X141490934Y-112165300D01*
X141688954Y-112105232D01*
X141871450Y-112007685D01*
X142031410Y-111876410D01*
X142162685Y-111716450D01*
X142260232Y-111533954D01*
X142320300Y-111335934D01*
X142340583Y-111130000D01*
X142769417Y-111130000D01*
X142789700Y-111335934D01*
X142849768Y-111533954D01*
X142947315Y-111716450D01*
X143078590Y-111876410D01*
X143238550Y-112007685D01*
X143421046Y-112105232D01*
X143619066Y-112165300D01*
X143825000Y-112185583D01*
X144030934Y-112165300D01*
X144228954Y-112105232D01*
X144411450Y-112007685D01*
X144571410Y-111876410D01*
X144702685Y-111716450D01*
X144800232Y-111533954D01*
X144860300Y-111335934D01*
X144880583Y-111130000D01*
X145309417Y-111130000D01*
X145329700Y-111335934D01*
X145389768Y-111533954D01*
X145487315Y-111716450D01*
X145618590Y-111876410D01*
X145778550Y-112007685D01*
X145961046Y-112105232D01*
X146159066Y-112165300D01*
X146365000Y-112185583D01*
X146570934Y-112165300D01*
X146768954Y-112105232D01*
X146951450Y-112007685D01*
X147111410Y-111876410D01*
X147242685Y-111716450D01*
X147340232Y-111533954D01*
X147400300Y-111335934D01*
X147420583Y-111130000D01*
X147400300Y-110924066D01*
X147386933Y-110879999D01*
X147574363Y-110879999D01*
X147574364Y-110880000D01*
X148471988Y-110880000D01*
X148439075Y-110937007D01*
X148405000Y-111064174D01*
X148405000Y-111195826D01*
X148439075Y-111322993D01*
X148471988Y-111380000D01*
X147574363Y-111380000D01*
X147631566Y-111593483D01*
X147631568Y-111593488D01*
X147731398Y-111807577D01*
X147731405Y-111807589D01*
X147866885Y-112001072D01*
X147866891Y-112001079D01*
X148033920Y-112168108D01*
X148033927Y-112168114D01*
X148227410Y-112303594D01*
X148227422Y-112303601D01*
X148441511Y-112403431D01*
X148441516Y-112403433D01*
X148655000Y-112460634D01*
X148655000Y-111563012D01*
X148712007Y-111595925D01*
X148839174Y-111630000D01*
X148970826Y-111630000D01*
X149097993Y-111595925D01*
X149155000Y-111563012D01*
X149155000Y-112460634D01*
X149368483Y-112403433D01*
X149368488Y-112403431D01*
X149582577Y-112303601D01*
X149582589Y-112303594D01*
X149776072Y-112168114D01*
X149776079Y-112168108D01*
X149943108Y-112001079D01*
X149943114Y-112001072D01*
X150078594Y-111807589D01*
X150078601Y-111807577D01*
X150178431Y-111593488D01*
X150178433Y-111593483D01*
X150235636Y-111380000D01*
X149338012Y-111380000D01*
X149370925Y-111322993D01*
X149405000Y-111195826D01*
X149405000Y-111064174D01*
X149370925Y-110937007D01*
X149338012Y-110880000D01*
X150235636Y-110880000D01*
X150235636Y-110879999D01*
X150194103Y-110724997D01*
X152869353Y-110724997D01*
X152869353Y-110725002D01*
X152889833Y-110867454D01*
X152895563Y-110880000D01*
X152949623Y-110998373D01*
X152949624Y-110998374D01*
X152949625Y-110998376D01*
X153018804Y-111078213D01*
X153043872Y-111107143D01*
X153164947Y-111184953D01*
X153241785Y-111207514D01*
X153303034Y-111225499D01*
X153303037Y-111225499D01*
X153303039Y-111225500D01*
X153303040Y-111225500D01*
X153446960Y-111225500D01*
X153446961Y-111225500D01*
X153446963Y-111225499D01*
X153446965Y-111225499D01*
X153477265Y-111216602D01*
X153585053Y-111184953D01*
X153706128Y-111107143D01*
X153800377Y-110998373D01*
X153860165Y-110867457D01*
X153860165Y-110867455D01*
X153860166Y-110867454D01*
X153880647Y-110725002D01*
X153880647Y-110724997D01*
X153860166Y-110582545D01*
X153842356Y-110543548D01*
X153822468Y-110500000D01*
X159295065Y-110500000D01*
X159314787Y-110826044D01*
X159314789Y-110826056D01*
X159373663Y-111147322D01*
X159373669Y-111147348D01*
X159470838Y-111459172D01*
X159470846Y-111459194D01*
X159604899Y-111757045D01*
X159773882Y-112036579D01*
X159773883Y-112036580D01*
X159921475Y-112224968D01*
X159921476Y-112224968D01*
X161063708Y-111082736D01*
X161160967Y-111216602D01*
X161283398Y-111339033D01*
X161417262Y-111436290D01*
X160275030Y-112578522D01*
X160275030Y-112578523D01*
X160463419Y-112726116D01*
X160463420Y-112726117D01*
X160742954Y-112895100D01*
X161040805Y-113029153D01*
X161040827Y-113029161D01*
X161352651Y-113126330D01*
X161352677Y-113126336D01*
X161673943Y-113185210D01*
X161673955Y-113185212D01*
X162000000Y-113204934D01*
X162326044Y-113185212D01*
X162326056Y-113185210D01*
X162647322Y-113126336D01*
X162647348Y-113126330D01*
X162959172Y-113029161D01*
X162959194Y-113029153D01*
X163257045Y-112895100D01*
X163536579Y-112726117D01*
X163536580Y-112726116D01*
X163724968Y-112578523D01*
X163724968Y-112578522D01*
X162582736Y-111436290D01*
X162716602Y-111339033D01*
X162839033Y-111216602D01*
X162936290Y-111082736D01*
X164078522Y-112224968D01*
X164078523Y-112224968D01*
X164226116Y-112036580D01*
X164226117Y-112036579D01*
X164395100Y-111757045D01*
X164529153Y-111459194D01*
X164529161Y-111459172D01*
X164626330Y-111147348D01*
X164626336Y-111147322D01*
X164685210Y-110826056D01*
X164685212Y-110826044D01*
X164704934Y-110500000D01*
X164685212Y-110173955D01*
X164685210Y-110173943D01*
X164626336Y-109852677D01*
X164626330Y-109852651D01*
X164529161Y-109540827D01*
X164529153Y-109540805D01*
X164395100Y-109242954D01*
X164226117Y-108963420D01*
X164226116Y-108963419D01*
X164078523Y-108775030D01*
X164078522Y-108775030D01*
X162936290Y-109917262D01*
X162839033Y-109783398D01*
X162716602Y-109660967D01*
X162582735Y-109563708D01*
X163724968Y-108421476D01*
X163724968Y-108421475D01*
X163536580Y-108273883D01*
X163536579Y-108273882D01*
X163257045Y-108104899D01*
X162959194Y-107970846D01*
X162959172Y-107970838D01*
X162647348Y-107873669D01*
X162647322Y-107873663D01*
X162326056Y-107814789D01*
X162326044Y-107814787D01*
X162000000Y-107795065D01*
X161673955Y-107814787D01*
X161673943Y-107814789D01*
X161352677Y-107873663D01*
X161352651Y-107873669D01*
X161040827Y-107970838D01*
X161040805Y-107970846D01*
X160742954Y-108104899D01*
X160463420Y-108273882D01*
X160463419Y-108273883D01*
X160275030Y-108421475D01*
X160275030Y-108421476D01*
X161417263Y-109563709D01*
X161283398Y-109660967D01*
X161160967Y-109783398D01*
X161063709Y-109917262D01*
X159921476Y-108775030D01*
X159921475Y-108775030D01*
X159773883Y-108963419D01*
X159773882Y-108963420D01*
X159604899Y-109242954D01*
X159470846Y-109540805D01*
X159470838Y-109540827D01*
X159373669Y-109852651D01*
X159373663Y-109852677D01*
X159314789Y-110173943D01*
X159314787Y-110173955D01*
X159295065Y-110500000D01*
X153822468Y-110500000D01*
X153800377Y-110451627D01*
X153768883Y-110415281D01*
X153706128Y-110342857D01*
X153585053Y-110265047D01*
X153585050Y-110265046D01*
X153446965Y-110224500D01*
X153446961Y-110224500D01*
X153303039Y-110224500D01*
X153303034Y-110224500D01*
X153164949Y-110265046D01*
X153043871Y-110342857D01*
X152949625Y-110451623D01*
X152949624Y-110451625D01*
X152949623Y-110451626D01*
X152949623Y-110451627D01*
X152945209Y-110461290D01*
X152889833Y-110582545D01*
X152869353Y-110724997D01*
X150194103Y-110724997D01*
X150178433Y-110666516D01*
X150178432Y-110666511D01*
X150078601Y-110452423D01*
X150078594Y-110452411D01*
X149943114Y-110258927D01*
X149943108Y-110258920D01*
X149776079Y-110091891D01*
X149776072Y-110091885D01*
X149582589Y-109956405D01*
X149582577Y-109956398D01*
X149368488Y-109856568D01*
X149368483Y-109856566D01*
X149155000Y-109799363D01*
X149155000Y-110696988D01*
X149097993Y-110664075D01*
X148970826Y-110630000D01*
X148839174Y-110630000D01*
X148712007Y-110664075D01*
X148655000Y-110696988D01*
X148655000Y-109799363D01*
X148654999Y-109799363D01*
X148441516Y-109856566D01*
X148441511Y-109856567D01*
X148227423Y-109956398D01*
X148227411Y-109956405D01*
X148033927Y-110091885D01*
X148033920Y-110091891D01*
X147866891Y-110258920D01*
X147866885Y-110258927D01*
X147731405Y-110452411D01*
X147731398Y-110452423D01*
X147631567Y-110666511D01*
X147631566Y-110666516D01*
X147574363Y-110879999D01*
X147386933Y-110879999D01*
X147340232Y-110726046D01*
X147242685Y-110543550D01*
X147111410Y-110383590D01*
X146951450Y-110252315D01*
X146768954Y-110154768D01*
X146570934Y-110094700D01*
X146365000Y-110074417D01*
X146159065Y-110094700D01*
X146159064Y-110094700D01*
X145961043Y-110154769D01*
X145778548Y-110252316D01*
X145618590Y-110383590D01*
X145487316Y-110543548D01*
X145389769Y-110726043D01*
X145329700Y-110924064D01*
X145329700Y-110924065D01*
X145329700Y-110924066D01*
X145309417Y-111130000D01*
X144880583Y-111130000D01*
X144860300Y-110924066D01*
X144800232Y-110726046D01*
X144702685Y-110543550D01*
X144571410Y-110383590D01*
X144411450Y-110252315D01*
X144228954Y-110154768D01*
X144030934Y-110094700D01*
X143825000Y-110074417D01*
X143619065Y-110094700D01*
X143619064Y-110094700D01*
X143421043Y-110154769D01*
X143238548Y-110252316D01*
X143078590Y-110383590D01*
X142947316Y-110543548D01*
X142849769Y-110726043D01*
X142789700Y-110924064D01*
X142789700Y-110924065D01*
X142789700Y-110924066D01*
X142769417Y-111130000D01*
X142340583Y-111130000D01*
X142320300Y-110924066D01*
X142260232Y-110726046D01*
X142162685Y-110543550D01*
X142031410Y-110383590D01*
X141871450Y-110252315D01*
X141688954Y-110154768D01*
X141490934Y-110094700D01*
X141285000Y-110074417D01*
X141079065Y-110094700D01*
X141079064Y-110094700D01*
X140881043Y-110154769D01*
X140698548Y-110252316D01*
X140538590Y-110383590D01*
X140407316Y-110543548D01*
X140309769Y-110726043D01*
X140249700Y-110924064D01*
X140249700Y-110924065D01*
X140249700Y-110924066D01*
X140229417Y-111130000D01*
X139800583Y-111130000D01*
X139780300Y-110924066D01*
X139720232Y-110726046D01*
X139622685Y-110543550D01*
X139491410Y-110383590D01*
X139331450Y-110252315D01*
X139148954Y-110154768D01*
X138950934Y-110094700D01*
X138745000Y-110074417D01*
X138539065Y-110094700D01*
X138539064Y-110094700D01*
X138341043Y-110154769D01*
X138158548Y-110252316D01*
X137998590Y-110383590D01*
X137867316Y-110543548D01*
X137769769Y-110726043D01*
X137709700Y-110924064D01*
X137709700Y-110924065D01*
X137709700Y-110924066D01*
X137689417Y-111130000D01*
X137260583Y-111130000D01*
X137240300Y-110924066D01*
X137180232Y-110726046D01*
X137082685Y-110543550D01*
X136951410Y-110383590D01*
X136791450Y-110252315D01*
X136608954Y-110154768D01*
X136410934Y-110094700D01*
X136205000Y-110074417D01*
X135999065Y-110094700D01*
X135999064Y-110094700D01*
X135801043Y-110154769D01*
X135618548Y-110252316D01*
X135458590Y-110383590D01*
X135327316Y-110543548D01*
X135229769Y-110726043D01*
X135169700Y-110924064D01*
X135169700Y-110924065D01*
X135169700Y-110924066D01*
X135149417Y-111130000D01*
X134720583Y-111130000D01*
X134700300Y-110924066D01*
X134640232Y-110726046D01*
X134542685Y-110543550D01*
X134411410Y-110383590D01*
X134251450Y-110252315D01*
X134068954Y-110154768D01*
X133870934Y-110094700D01*
X133665000Y-110074417D01*
X133459065Y-110094700D01*
X133459064Y-110094700D01*
X133261043Y-110154769D01*
X133078548Y-110252316D01*
X132918590Y-110383590D01*
X132787316Y-110543548D01*
X132689769Y-110726043D01*
X132629700Y-110924064D01*
X132629700Y-110924065D01*
X132629700Y-110924066D01*
X132609417Y-111130000D01*
X132175500Y-111130000D01*
X132175500Y-110260252D01*
X132163867Y-110201769D01*
X132132462Y-110154769D01*
X132119552Y-110135447D01*
X132058569Y-110094700D01*
X132053231Y-110091133D01*
X131994748Y-110079500D01*
X130255252Y-110079500D01*
X130196769Y-110091133D01*
X130130447Y-110135447D01*
X130086133Y-110201769D01*
X130074500Y-110260252D01*
X120690432Y-110260252D01*
X120685212Y-110173955D01*
X120685210Y-110173943D01*
X120626336Y-109852677D01*
X120626330Y-109852651D01*
X120529161Y-109540827D01*
X120529153Y-109540805D01*
X120395100Y-109242954D01*
X120226117Y-108963420D01*
X120226116Y-108963419D01*
X120078523Y-108775030D01*
X120078522Y-108775030D01*
X118936290Y-109917262D01*
X118839033Y-109783398D01*
X118716602Y-109660967D01*
X118582735Y-109563708D01*
X119724968Y-108421476D01*
X119724968Y-108421475D01*
X119536580Y-108273883D01*
X119536579Y-108273882D01*
X119257045Y-108104899D01*
X118959194Y-107970846D01*
X118959172Y-107970838D01*
X118647348Y-107873669D01*
X118647322Y-107873663D01*
X118326056Y-107814789D01*
X118326044Y-107814787D01*
X118000000Y-107795065D01*
X117673955Y-107814787D01*
X117673943Y-107814789D01*
X117352677Y-107873663D01*
X117352651Y-107873669D01*
X117040827Y-107970838D01*
X117040805Y-107970846D01*
X116742954Y-108104899D01*
X116463420Y-108273882D01*
X116463419Y-108273883D01*
X116275030Y-108421475D01*
X116275030Y-108421476D01*
X117417263Y-109563709D01*
X117283398Y-109660967D01*
X117160967Y-109783398D01*
X117063709Y-109917263D01*
X115921476Y-108775030D01*
X115921475Y-108775030D01*
X115773883Y-108963419D01*
X115773882Y-108963420D01*
X115604899Y-109242954D01*
X115470846Y-109540805D01*
X115470838Y-109540827D01*
X115373669Y-109852651D01*
X115373663Y-109852677D01*
X115314789Y-110173943D01*
X115314787Y-110173955D01*
X115295065Y-110500000D01*
X114750534Y-110500000D01*
X114750500Y-110498714D01*
X114750500Y-105700000D01*
X121919196Y-105700000D01*
X121940281Y-105833126D01*
X121940281Y-105833127D01*
X121940282Y-105833128D01*
X122001467Y-105953213D01*
X122001472Y-105953220D01*
X122009437Y-105961185D01*
X122023789Y-105995833D01*
X122009437Y-106030481D01*
X122001472Y-106038445D01*
X122001467Y-106038452D01*
X121940282Y-106158537D01*
X121940281Y-106158538D01*
X121940281Y-106158540D01*
X121919196Y-106291666D01*
X121940281Y-106424792D01*
X121940281Y-106424793D01*
X121940282Y-106424794D01*
X122001467Y-106544879D01*
X122001472Y-106544886D01*
X122009437Y-106552851D01*
X122023789Y-106587499D01*
X122009437Y-106622147D01*
X122001472Y-106630111D01*
X122001467Y-106630118D01*
X121940282Y-106750203D01*
X121940281Y-106750204D01*
X121940281Y-106750206D01*
X121919196Y-106883332D01*
X121940281Y-107016458D01*
X121940281Y-107016459D01*
X121940282Y-107016460D01*
X122001467Y-107136545D01*
X122001472Y-107136552D01*
X122009438Y-107144518D01*
X122023790Y-107179166D01*
X122009438Y-107213814D01*
X122001472Y-107221779D01*
X122001467Y-107221786D01*
X121940282Y-107341871D01*
X121940281Y-107341872D01*
X121940281Y-107341874D01*
X121919196Y-107475000D01*
X121940281Y-107608126D01*
X121940281Y-107608127D01*
X121940282Y-107608128D01*
X122001467Y-107728213D01*
X122001472Y-107728220D01*
X122096779Y-107823527D01*
X122096786Y-107823532D01*
X122176842Y-107864322D01*
X122216874Y-107884719D01*
X122350000Y-107905804D01*
X122483126Y-107884719D01*
X122566420Y-107842278D01*
X122603213Y-107823532D01*
X122603215Y-107823530D01*
X122603220Y-107823528D01*
X122698528Y-107728220D01*
X122698528Y-107728219D01*
X122701255Y-107725493D01*
X122702226Y-107726464D01*
X122729836Y-107709546D01*
X122766302Y-107718302D01*
X122773619Y-107725619D01*
X122773745Y-107725493D01*
X122871779Y-107823527D01*
X122871786Y-107823532D01*
X122951842Y-107864322D01*
X122991874Y-107884719D01*
X123125000Y-107905804D01*
X123258126Y-107884719D01*
X123341420Y-107842278D01*
X123378213Y-107823532D01*
X123378215Y-107823530D01*
X123378220Y-107823528D01*
X123473528Y-107728220D01*
X123474854Y-107725619D01*
X123487909Y-107699997D01*
X125819353Y-107699997D01*
X125819353Y-107700002D01*
X125839833Y-107842454D01*
X125866114Y-107900000D01*
X125899623Y-107973373D01*
X125899624Y-107973374D01*
X125899625Y-107973376D01*
X125993871Y-108082142D01*
X125993872Y-108082143D01*
X126114947Y-108159953D01*
X126191785Y-108182514D01*
X126253034Y-108200499D01*
X126253037Y-108200499D01*
X126253039Y-108200500D01*
X126253040Y-108200500D01*
X126396960Y-108200500D01*
X126396961Y-108200500D01*
X126396963Y-108200499D01*
X126396965Y-108200499D01*
X126419795Y-108193795D01*
X126535053Y-108159953D01*
X126656128Y-108082143D01*
X126750377Y-107973373D01*
X126761051Y-107950000D01*
X154544196Y-107950000D01*
X154565281Y-108083126D01*
X154565281Y-108083127D01*
X154565282Y-108083128D01*
X154626467Y-108203213D01*
X154626472Y-108203220D01*
X154721779Y-108298527D01*
X154721786Y-108298532D01*
X154785123Y-108330803D01*
X154841874Y-108359719D01*
X154975000Y-108380804D01*
X155108126Y-108359719D01*
X155191420Y-108317278D01*
X155228213Y-108298532D01*
X155228215Y-108298530D01*
X155228220Y-108298528D01*
X155323528Y-108203220D01*
X155324915Y-108200499D01*
X155349008Y-108153213D01*
X155384719Y-108083126D01*
X155405804Y-107950000D01*
X155397885Y-107900000D01*
X158319196Y-107900000D01*
X158340281Y-108033126D01*
X158340281Y-108033127D01*
X158340282Y-108033128D01*
X158401467Y-108153213D01*
X158401472Y-108153220D01*
X158496779Y-108248527D01*
X158496786Y-108248532D01*
X158576842Y-108289322D01*
X158616874Y-108309719D01*
X158750000Y-108330804D01*
X158883126Y-108309719D01*
X158966420Y-108267278D01*
X159003213Y-108248532D01*
X159003215Y-108248530D01*
X159003220Y-108248528D01*
X159098528Y-108153220D01*
X159159719Y-108033126D01*
X159180804Y-107900000D01*
X159159719Y-107766874D01*
X159125645Y-107700000D01*
X159098532Y-107646786D01*
X159098527Y-107646779D01*
X159003220Y-107551472D01*
X159003213Y-107551467D01*
X158883128Y-107490282D01*
X158883127Y-107490281D01*
X158883126Y-107490281D01*
X158750000Y-107469196D01*
X158616874Y-107490281D01*
X158616872Y-107490281D01*
X158616871Y-107490282D01*
X158496786Y-107551467D01*
X158496779Y-107551472D01*
X158401472Y-107646779D01*
X158401467Y-107646786D01*
X158340282Y-107766871D01*
X158340281Y-107766872D01*
X158340281Y-107766874D01*
X158319196Y-107900000D01*
X155397885Y-107900000D01*
X155384719Y-107816874D01*
X155359241Y-107766871D01*
X155323532Y-107696786D01*
X155323527Y-107696779D01*
X155228220Y-107601472D01*
X155228213Y-107601467D01*
X155108128Y-107540282D01*
X155108127Y-107540281D01*
X155108126Y-107540281D01*
X154975000Y-107519196D01*
X154841874Y-107540281D01*
X154841872Y-107540281D01*
X154841871Y-107540282D01*
X154721786Y-107601467D01*
X154721779Y-107601472D01*
X154626472Y-107696779D01*
X154626467Y-107696786D01*
X154565282Y-107816871D01*
X154565281Y-107816872D01*
X154565281Y-107816874D01*
X154544196Y-107950000D01*
X126761051Y-107950000D01*
X126810165Y-107842457D01*
X126810165Y-107842455D01*
X126810166Y-107842454D01*
X126830647Y-107700002D01*
X126830647Y-107699997D01*
X126810166Y-107557545D01*
X126792652Y-107519196D01*
X126750377Y-107426627D01*
X126656128Y-107317857D01*
X126535053Y-107240047D01*
X126535050Y-107240046D01*
X126396965Y-107199500D01*
X126396961Y-107199500D01*
X126253039Y-107199500D01*
X126253034Y-107199500D01*
X126114949Y-107240046D01*
X125993871Y-107317857D01*
X125899625Y-107426623D01*
X125899624Y-107426625D01*
X125839833Y-107557545D01*
X125819353Y-107699997D01*
X123487909Y-107699997D01*
X123512500Y-107651733D01*
X123534719Y-107608126D01*
X123555804Y-107475000D01*
X123534719Y-107341874D01*
X123482836Y-107240047D01*
X123473532Y-107221786D01*
X123473527Y-107221779D01*
X123465562Y-107213814D01*
X123451210Y-107179166D01*
X123465562Y-107144518D01*
X123473528Y-107136552D01*
X123534719Y-107016458D01*
X123555804Y-106883332D01*
X123534719Y-106750206D01*
X123512500Y-106706598D01*
X123473532Y-106630118D01*
X123473527Y-106630111D01*
X123465563Y-106622147D01*
X123451211Y-106587499D01*
X123465563Y-106552851D01*
X123473528Y-106544886D01*
X123534719Y-106424792D01*
X123555804Y-106291666D01*
X123534719Y-106158540D01*
X123512500Y-106114932D01*
X123473532Y-106038452D01*
X123473527Y-106038445D01*
X123465563Y-106030481D01*
X123451211Y-105995833D01*
X123465563Y-105961185D01*
X123473528Y-105953220D01*
X123534719Y-105833126D01*
X123555804Y-105700000D01*
X123534719Y-105566874D01*
X123512500Y-105523266D01*
X123473532Y-105446786D01*
X123473527Y-105446779D01*
X123378220Y-105351472D01*
X123378213Y-105351467D01*
X123258129Y-105290282D01*
X123258127Y-105290281D01*
X123258126Y-105290281D01*
X123190253Y-105279531D01*
X123160024Y-105274743D01*
X123128048Y-105255147D01*
X123119293Y-105218680D01*
X123124030Y-105204103D01*
X123134719Y-105183126D01*
X123155804Y-105050000D01*
X123143925Y-104975000D01*
X137194196Y-104975000D01*
X137215281Y-105108126D01*
X137215281Y-105108127D01*
X137215282Y-105108128D01*
X137276467Y-105228213D01*
X137276472Y-105228220D01*
X137371779Y-105323527D01*
X137371786Y-105323532D01*
X137426613Y-105351467D01*
X137491874Y-105384719D01*
X137625000Y-105405804D01*
X137758126Y-105384719D01*
X137841420Y-105342278D01*
X137878213Y-105323532D01*
X137878215Y-105323530D01*
X137878220Y-105323528D01*
X137973528Y-105228220D01*
X138034719Y-105108126D01*
X138055804Y-104975000D01*
X138039965Y-104874997D01*
X150144353Y-104874997D01*
X150144353Y-104875002D01*
X150164833Y-105017454D01*
X150179697Y-105050000D01*
X150224623Y-105148373D01*
X150224624Y-105148374D01*
X150224625Y-105148376D01*
X150276085Y-105207764D01*
X150318872Y-105257143D01*
X150439947Y-105334953D01*
X150516785Y-105357514D01*
X150578034Y-105375499D01*
X150578037Y-105375499D01*
X150578039Y-105375500D01*
X150578040Y-105375500D01*
X150721960Y-105375500D01*
X150721961Y-105375500D01*
X150721963Y-105375499D01*
X150721965Y-105375499D01*
X150744795Y-105368795D01*
X150860053Y-105334953D01*
X150981128Y-105257143D01*
X151075377Y-105148373D01*
X151135165Y-105017457D01*
X151135165Y-105017455D01*
X151135166Y-105017454D01*
X151155647Y-104875002D01*
X151155647Y-104874997D01*
X151135166Y-104732545D01*
X151093030Y-104640282D01*
X151075377Y-104601627D01*
X151075037Y-104601235D01*
X150981128Y-104492857D01*
X150946288Y-104470467D01*
X150860053Y-104415047D01*
X150860050Y-104415046D01*
X150721965Y-104374500D01*
X150721961Y-104374500D01*
X150578039Y-104374500D01*
X150578034Y-104374500D01*
X150439949Y-104415046D01*
X150318871Y-104492857D01*
X150224625Y-104601623D01*
X150224624Y-104601625D01*
X150164833Y-104732545D01*
X150144353Y-104874997D01*
X138039965Y-104874997D01*
X138034719Y-104841874D01*
X138014322Y-104801842D01*
X137973532Y-104721786D01*
X137973527Y-104721779D01*
X137878220Y-104626472D01*
X137878213Y-104626467D01*
X137758128Y-104565282D01*
X137758127Y-104565281D01*
X137758126Y-104565281D01*
X137625000Y-104544196D01*
X137491874Y-104565281D01*
X137491872Y-104565281D01*
X137491871Y-104565282D01*
X137371786Y-104626467D01*
X137371779Y-104626472D01*
X137276472Y-104721779D01*
X137276467Y-104721786D01*
X137215282Y-104841871D01*
X137215281Y-104841872D01*
X137215281Y-104841874D01*
X137194196Y-104975000D01*
X123143925Y-104975000D01*
X123134719Y-104916874D01*
X123096503Y-104841871D01*
X123073532Y-104796786D01*
X123073527Y-104796779D01*
X122978220Y-104701472D01*
X122978213Y-104701467D01*
X122858128Y-104640282D01*
X122858127Y-104640281D01*
X122858126Y-104640281D01*
X122725000Y-104619196D01*
X122591874Y-104640281D01*
X122591872Y-104640281D01*
X122591871Y-104640282D01*
X122471786Y-104701467D01*
X122471779Y-104701472D01*
X122376472Y-104796779D01*
X122376467Y-104796786D01*
X122315282Y-104916871D01*
X122315281Y-104916872D01*
X122315281Y-104916874D01*
X122306075Y-104975000D01*
X122294196Y-105050000D01*
X122315281Y-105183127D01*
X122327835Y-105207764D01*
X122330778Y-105245152D01*
X122306422Y-105273669D01*
X122291842Y-105278407D01*
X122259090Y-105283594D01*
X122216874Y-105290281D01*
X122216872Y-105290281D01*
X122216870Y-105290282D01*
X122096786Y-105351467D01*
X122096779Y-105351472D01*
X122001472Y-105446779D01*
X122001467Y-105446786D01*
X121940282Y-105566871D01*
X121940281Y-105566872D01*
X121940281Y-105566874D01*
X121919196Y-105700000D01*
X114750500Y-105700000D01*
X114750500Y-103455000D01*
X116224951Y-103455000D01*
X117055025Y-103455000D01*
X117019930Y-103490095D01*
X116973852Y-103569905D01*
X116950000Y-103658922D01*
X116950000Y-103751078D01*
X116973852Y-103840095D01*
X117019930Y-103919905D01*
X117055025Y-103955000D01*
X116224951Y-103955000D01*
X116228934Y-103980151D01*
X116228935Y-103980153D01*
X116286085Y-104156044D01*
X116370048Y-104320831D01*
X116478761Y-104470462D01*
X116478765Y-104470467D01*
X116609533Y-104601235D01*
X116609537Y-104601238D01*
X116759168Y-104709951D01*
X116923955Y-104793914D01*
X117099853Y-104851066D01*
X117099856Y-104851067D01*
X117282527Y-104880000D01*
X117300000Y-104880000D01*
X117300000Y-104055000D01*
X117800000Y-104055000D01*
X117800000Y-104880000D01*
X117817473Y-104880000D01*
X118000143Y-104851067D01*
X118000146Y-104851066D01*
X118176044Y-104793914D01*
X118340831Y-104709951D01*
X118490462Y-104601238D01*
X118490467Y-104601235D01*
X118621235Y-104470467D01*
X118621238Y-104470462D01*
X118729951Y-104320831D01*
X118813914Y-104156044D01*
X118871064Y-103980153D01*
X118871065Y-103980151D01*
X118875049Y-103955000D01*
X118044975Y-103955000D01*
X118080070Y-103919905D01*
X118126148Y-103840095D01*
X118150000Y-103751078D01*
X118150000Y-103658922D01*
X118126148Y-103569905D01*
X118080070Y-103490095D01*
X118044975Y-103455000D01*
X118875049Y-103455000D01*
X118871065Y-103429848D01*
X118871064Y-103429846D01*
X118813914Y-103253955D01*
X118758399Y-103145000D01*
X119329157Y-103145000D01*
X120140382Y-103145000D01*
X120089936Y-103195446D01*
X120047149Y-103269555D01*
X120025000Y-103352213D01*
X120025000Y-103437787D01*
X120047149Y-103520445D01*
X120089936Y-103594554D01*
X120140382Y-103645000D01*
X119329157Y-103645000D01*
X119340349Y-103701271D01*
X119340351Y-103701277D01*
X119419500Y-103892358D01*
X119534410Y-104064335D01*
X119680664Y-104210589D01*
X119852641Y-104325499D01*
X120043722Y-104404648D01*
X120043728Y-104404650D01*
X120246587Y-104445000D01*
X120300000Y-104445000D01*
X120300000Y-103718067D01*
X120307213Y-103720000D01*
X120792787Y-103720000D01*
X120800000Y-103718067D01*
X120800000Y-104445000D01*
X120853413Y-104445000D01*
X121056271Y-104404650D01*
X121056277Y-104404648D01*
X121247358Y-104325499D01*
X121419335Y-104210589D01*
X121565589Y-104064335D01*
X121680499Y-103892358D01*
X121759648Y-103701277D01*
X121759650Y-103701271D01*
X121770843Y-103645000D01*
X120959618Y-103645000D01*
X121010064Y-103594554D01*
X121052851Y-103520445D01*
X121075000Y-103437787D01*
X121075000Y-103352213D01*
X121052851Y-103269555D01*
X121010064Y-103195446D01*
X120959618Y-103145000D01*
X121770842Y-103145000D01*
X121759650Y-103088728D01*
X121759648Y-103088722D01*
X121680499Y-102897641D01*
X121565589Y-102725664D01*
X121419335Y-102579410D01*
X121247358Y-102464500D01*
X121056277Y-102385351D01*
X121056271Y-102385349D01*
X120853413Y-102345000D01*
X120800000Y-102345000D01*
X120800000Y-103071932D01*
X120792787Y-103070000D01*
X120307213Y-103070000D01*
X120300000Y-103071932D01*
X120300000Y-102345000D01*
X120246587Y-102345000D01*
X120043728Y-102385349D01*
X120043722Y-102385351D01*
X119852641Y-102464500D01*
X119680664Y-102579410D01*
X119534410Y-102725664D01*
X119419500Y-102897641D01*
X119340351Y-103088722D01*
X119340349Y-103088728D01*
X119329157Y-103145000D01*
X118758399Y-103145000D01*
X118729951Y-103089168D01*
X118621238Y-102939537D01*
X118621235Y-102939533D01*
X118490467Y-102808765D01*
X118490462Y-102808761D01*
X118340831Y-102700048D01*
X118176044Y-102616085D01*
X118000146Y-102558933D01*
X118000143Y-102558932D01*
X117817473Y-102530000D01*
X117800000Y-102530000D01*
X117800000Y-103355000D01*
X117300000Y-103355000D01*
X117300000Y-102530000D01*
X117282527Y-102530000D01*
X117099856Y-102558932D01*
X117099853Y-102558933D01*
X116923955Y-102616085D01*
X116759168Y-102700048D01*
X116609537Y-102808761D01*
X116478761Y-102939537D01*
X116370048Y-103089168D01*
X116286085Y-103253955D01*
X116228935Y-103429846D01*
X116228934Y-103429848D01*
X116224951Y-103455000D01*
X114750500Y-103455000D01*
X114750500Y-102312497D01*
X140894353Y-102312497D01*
X140894353Y-102312502D01*
X140914833Y-102454954D01*
X140946935Y-102525246D01*
X140974623Y-102585873D01*
X140974624Y-102585874D01*
X140974625Y-102585876D01*
X141004204Y-102620012D01*
X141068872Y-102694643D01*
X141189947Y-102772453D01*
X141266785Y-102795014D01*
X141328034Y-102812999D01*
X141328037Y-102812999D01*
X141328039Y-102813000D01*
X141328040Y-102813000D01*
X141471960Y-102813000D01*
X141471961Y-102813000D01*
X141471963Y-102812999D01*
X141471965Y-102812999D01*
X141494795Y-102806295D01*
X141610053Y-102772453D01*
X141731128Y-102694643D01*
X141791474Y-102625000D01*
X151069196Y-102625000D01*
X151090281Y-102758126D01*
X151090281Y-102758127D01*
X151090282Y-102758128D01*
X151151467Y-102878213D01*
X151151472Y-102878220D01*
X151246779Y-102973527D01*
X151246786Y-102973532D01*
X151326842Y-103014322D01*
X151366874Y-103034719D01*
X151500000Y-103055804D01*
X151633126Y-103034719D01*
X151716420Y-102992278D01*
X151753213Y-102973532D01*
X151753215Y-102973530D01*
X151753220Y-102973528D01*
X151848528Y-102878220D01*
X151909719Y-102758126D01*
X151930804Y-102625000D01*
X151909719Y-102491874D01*
X151865505Y-102405099D01*
X151848532Y-102371786D01*
X151848527Y-102371779D01*
X151753220Y-102276472D01*
X151753213Y-102276467D01*
X151633128Y-102215282D01*
X151633127Y-102215281D01*
X151633126Y-102215281D01*
X151500000Y-102194196D01*
X151366874Y-102215281D01*
X151366872Y-102215281D01*
X151366871Y-102215282D01*
X151246786Y-102276467D01*
X151246779Y-102276472D01*
X151151472Y-102371779D01*
X151151467Y-102371786D01*
X151090282Y-102491871D01*
X151090281Y-102491872D01*
X151090281Y-102491874D01*
X151069196Y-102625000D01*
X141791474Y-102625000D01*
X141825377Y-102585873D01*
X141885165Y-102454957D01*
X141885165Y-102454955D01*
X141885166Y-102454954D01*
X141905647Y-102312502D01*
X141905647Y-102312497D01*
X141885166Y-102170045D01*
X141853692Y-102101128D01*
X141825377Y-102039127D01*
X141798394Y-102007987D01*
X141731128Y-101930357D01*
X141709482Y-101916446D01*
X141610053Y-101852547D01*
X141610050Y-101852546D01*
X141471965Y-101812000D01*
X141471961Y-101812000D01*
X141328039Y-101812000D01*
X141328034Y-101812000D01*
X141189949Y-101852546D01*
X141068871Y-101930357D01*
X140974625Y-102039123D01*
X140974624Y-102039125D01*
X140914833Y-102170045D01*
X140894353Y-102312497D01*
X114750500Y-102312497D01*
X114750500Y-101312500D01*
X137894196Y-101312500D01*
X137915281Y-101445626D01*
X137915281Y-101445627D01*
X137915282Y-101445628D01*
X137976467Y-101565713D01*
X137976472Y-101565720D01*
X138071779Y-101661027D01*
X138071786Y-101661032D01*
X138127190Y-101689261D01*
X138191874Y-101722219D01*
X138325000Y-101743304D01*
X138458126Y-101722219D01*
X138544151Y-101678387D01*
X138578213Y-101661032D01*
X138578215Y-101661030D01*
X138578220Y-101661028D01*
X138589248Y-101650000D01*
X152844196Y-101650000D01*
X152865281Y-101783126D01*
X152865281Y-101783127D01*
X152865282Y-101783128D01*
X152926467Y-101903213D01*
X152926472Y-101903220D01*
X153021779Y-101998527D01*
X153021786Y-101998532D01*
X153101452Y-102039123D01*
X153141874Y-102059719D01*
X153275000Y-102080804D01*
X153408126Y-102059719D01*
X153509656Y-102007987D01*
X153528213Y-101998532D01*
X153528215Y-101998530D01*
X153528220Y-101998528D01*
X153623528Y-101903220D01*
X153684719Y-101783126D01*
X153705804Y-101650000D01*
X153684719Y-101516874D01*
X153659780Y-101467928D01*
X153623532Y-101396786D01*
X153623527Y-101396779D01*
X153528220Y-101301472D01*
X153528213Y-101301467D01*
X153408128Y-101240282D01*
X153408127Y-101240281D01*
X153408126Y-101240281D01*
X153275000Y-101219196D01*
X153141874Y-101240281D01*
X153141872Y-101240281D01*
X153141871Y-101240282D01*
X153021786Y-101301467D01*
X153021779Y-101301472D01*
X152926472Y-101396779D01*
X152926467Y-101396786D01*
X152865282Y-101516871D01*
X152865281Y-101516872D01*
X152865281Y-101516874D01*
X152844196Y-101650000D01*
X138589248Y-101650000D01*
X138673528Y-101565720D01*
X138734719Y-101445626D01*
X138755804Y-101312500D01*
X138734719Y-101179374D01*
X138712160Y-101135099D01*
X138673532Y-101059286D01*
X138673527Y-101059279D01*
X138578220Y-100963972D01*
X138578213Y-100963967D01*
X138458128Y-100902782D01*
X138458127Y-100902781D01*
X138458126Y-100902781D01*
X138325000Y-100881696D01*
X138191874Y-100902781D01*
X138191872Y-100902781D01*
X138191871Y-100902782D01*
X138071786Y-100963967D01*
X138071779Y-100963972D01*
X137976472Y-101059279D01*
X137976467Y-101059286D01*
X137915282Y-101179371D01*
X137915281Y-101179372D01*
X137915281Y-101179374D01*
X137894196Y-101312500D01*
X114750500Y-101312500D01*
X114750500Y-100300000D01*
X138394196Y-100300000D01*
X138415281Y-100433126D01*
X138415281Y-100433127D01*
X138415282Y-100433128D01*
X138476467Y-100553213D01*
X138476472Y-100553220D01*
X138571779Y-100648527D01*
X138571786Y-100648532D01*
X138635123Y-100680803D01*
X138691874Y-100709719D01*
X138825000Y-100730804D01*
X138958126Y-100709719D01*
X139041420Y-100667278D01*
X139078213Y-100648532D01*
X139078215Y-100648530D01*
X139078220Y-100648528D01*
X139173528Y-100553220D01*
X139234719Y-100433126D01*
X139255804Y-100300000D01*
X139247885Y-100250000D01*
X152169196Y-100250000D01*
X152190281Y-100383126D01*
X152190281Y-100383127D01*
X152190282Y-100383128D01*
X152251467Y-100503213D01*
X152251472Y-100503220D01*
X152346779Y-100598527D01*
X152346786Y-100598532D01*
X152426842Y-100639322D01*
X152466874Y-100659719D01*
X152600000Y-100680804D01*
X152733126Y-100659719D01*
X152819989Y-100615460D01*
X152853213Y-100598532D01*
X152853215Y-100598530D01*
X152853220Y-100598528D01*
X152948528Y-100503220D01*
X152954513Y-100491475D01*
X152967278Y-100466420D01*
X153009719Y-100383126D01*
X153030804Y-100250000D01*
X153009719Y-100116874D01*
X152979685Y-100057929D01*
X152948532Y-99996786D01*
X152948527Y-99996779D01*
X152853220Y-99901472D01*
X152853213Y-99901467D01*
X152733128Y-99840282D01*
X152733127Y-99840281D01*
X152733126Y-99840281D01*
X152600000Y-99819196D01*
X152466874Y-99840281D01*
X152466872Y-99840281D01*
X152466871Y-99840282D01*
X152346786Y-99901467D01*
X152346779Y-99901472D01*
X152251472Y-99996779D01*
X152251467Y-99996786D01*
X152190282Y-100116871D01*
X152190281Y-100116872D01*
X152190281Y-100116874D01*
X152169196Y-100250000D01*
X139247885Y-100250000D01*
X139234719Y-100166874D01*
X139209241Y-100116871D01*
X139173532Y-100046786D01*
X139173527Y-100046779D01*
X139078220Y-99951472D01*
X139078213Y-99951467D01*
X138958128Y-99890282D01*
X138958127Y-99890281D01*
X138958126Y-99890281D01*
X138825000Y-99869196D01*
X138691874Y-99890281D01*
X138691872Y-99890281D01*
X138691871Y-99890282D01*
X138571786Y-99951467D01*
X138571779Y-99951472D01*
X138476472Y-100046779D01*
X138476467Y-100046786D01*
X138415282Y-100166871D01*
X138415281Y-100166872D01*
X138415281Y-100166874D01*
X138394196Y-100300000D01*
X114750500Y-100300000D01*
X114750500Y-97995000D01*
X116224951Y-97995000D01*
X117055025Y-97995000D01*
X117019930Y-98030095D01*
X116973852Y-98109905D01*
X116950000Y-98198922D01*
X116950000Y-98291078D01*
X116973852Y-98380095D01*
X117019930Y-98459905D01*
X117055025Y-98495000D01*
X116224951Y-98495000D01*
X116228934Y-98520151D01*
X116228935Y-98520153D01*
X116286085Y-98696044D01*
X116370048Y-98860831D01*
X116478761Y-99010462D01*
X116478765Y-99010467D01*
X116609533Y-99141235D01*
X116609537Y-99141238D01*
X116759168Y-99249951D01*
X116923955Y-99333914D01*
X117099853Y-99391066D01*
X117099856Y-99391067D01*
X117282527Y-99420000D01*
X117300000Y-99420000D01*
X117300000Y-98595000D01*
X117800000Y-98595000D01*
X117800000Y-99420000D01*
X117817473Y-99420000D01*
X118000143Y-99391067D01*
X118000146Y-99391066D01*
X118176044Y-99333914D01*
X118340831Y-99249951D01*
X118490462Y-99141238D01*
X118490467Y-99141235D01*
X118621235Y-99010467D01*
X118621238Y-99010462D01*
X118729951Y-98860831D01*
X118813914Y-98696044D01*
X118871064Y-98520153D01*
X118871065Y-98520151D01*
X118875049Y-98495000D01*
X118044975Y-98495000D01*
X118080070Y-98459905D01*
X118126148Y-98380095D01*
X118146270Y-98305000D01*
X119329157Y-98305000D01*
X120140382Y-98305000D01*
X120089936Y-98355446D01*
X120047149Y-98429555D01*
X120025000Y-98512213D01*
X120025000Y-98597787D01*
X120047149Y-98680445D01*
X120089936Y-98754554D01*
X120140382Y-98805000D01*
X119329157Y-98805000D01*
X119340349Y-98861271D01*
X119340351Y-98861277D01*
X119419500Y-99052358D01*
X119534410Y-99224335D01*
X119680664Y-99370589D01*
X119852641Y-99485499D01*
X120043722Y-99564648D01*
X120043728Y-99564650D01*
X120246587Y-99605000D01*
X120300000Y-99605000D01*
X120300000Y-98878067D01*
X120307213Y-98880000D01*
X120792787Y-98880000D01*
X120800000Y-98878067D01*
X120800000Y-99605000D01*
X120853413Y-99605000D01*
X121056271Y-99564650D01*
X121056277Y-99564648D01*
X121247358Y-99485499D01*
X121300487Y-99450000D01*
X157219196Y-99450000D01*
X157240281Y-99583126D01*
X157240281Y-99583127D01*
X157240282Y-99583128D01*
X157301467Y-99703213D01*
X157301472Y-99703220D01*
X157396779Y-99798527D01*
X157396786Y-99798532D01*
X157476842Y-99839322D01*
X157516874Y-99859719D01*
X157650000Y-99880804D01*
X157783126Y-99859719D01*
X157866420Y-99817278D01*
X157903213Y-99798532D01*
X157903215Y-99798530D01*
X157903220Y-99798528D01*
X157998528Y-99703220D01*
X158059719Y-99583126D01*
X158080804Y-99450000D01*
X158059719Y-99316874D01*
X158039322Y-99276842D01*
X157998532Y-99196786D01*
X157998527Y-99196779D01*
X157903220Y-99101472D01*
X157903213Y-99101467D01*
X157783128Y-99040282D01*
X157783127Y-99040281D01*
X157783126Y-99040281D01*
X157650000Y-99019196D01*
X157516874Y-99040281D01*
X157516872Y-99040281D01*
X157516871Y-99040282D01*
X157396786Y-99101467D01*
X157396779Y-99101472D01*
X157301472Y-99196779D01*
X157301467Y-99196786D01*
X157240282Y-99316871D01*
X157240281Y-99316872D01*
X157240281Y-99316874D01*
X157219196Y-99450000D01*
X121300487Y-99450000D01*
X121419335Y-99370589D01*
X121565589Y-99224335D01*
X121680499Y-99052358D01*
X121759648Y-98861277D01*
X121759650Y-98861271D01*
X121770843Y-98805000D01*
X120959618Y-98805000D01*
X121010064Y-98754554D01*
X121052851Y-98680445D01*
X121075000Y-98597787D01*
X121075000Y-98512213D01*
X121061009Y-98460000D01*
X161394355Y-98460000D01*
X161414860Y-98628872D01*
X161414861Y-98628874D01*
X161475181Y-98787929D01*
X161475182Y-98787931D01*
X161571816Y-98927928D01*
X161571817Y-98927929D01*
X161699148Y-99040734D01*
X161699156Y-99040738D01*
X161719875Y-99051613D01*
X161743885Y-99080423D01*
X161740490Y-99117772D01*
X161719875Y-99138387D01*
X161699156Y-99149261D01*
X161699151Y-99149264D01*
X161699148Y-99149266D01*
X161699146Y-99149268D01*
X161571816Y-99262071D01*
X161475182Y-99402068D01*
X161475181Y-99402070D01*
X161414861Y-99561125D01*
X161414860Y-99561128D01*
X161394355Y-99730000D01*
X161414860Y-99898872D01*
X161414861Y-99898874D01*
X161475181Y-100057929D01*
X161475182Y-100057931D01*
X161515866Y-100116871D01*
X161571817Y-100197929D01*
X161699148Y-100310734D01*
X161699156Y-100310738D01*
X161719875Y-100321613D01*
X161743885Y-100350423D01*
X161740490Y-100387772D01*
X161719875Y-100408387D01*
X161699156Y-100419261D01*
X161699151Y-100419264D01*
X161699148Y-100419266D01*
X161683503Y-100433126D01*
X161571816Y-100532071D01*
X161475182Y-100672068D01*
X161475181Y-100672070D01*
X161452907Y-100730804D01*
X161414860Y-100831128D01*
X161394355Y-101000000D01*
X161414860Y-101168872D01*
X161414861Y-101168874D01*
X161475181Y-101327929D01*
X161475182Y-101327931D01*
X161571816Y-101467928D01*
X161571817Y-101467929D01*
X161699148Y-101580734D01*
X161699156Y-101580738D01*
X161719875Y-101591613D01*
X161743885Y-101620423D01*
X161740490Y-101657772D01*
X161719875Y-101678387D01*
X161699156Y-101689261D01*
X161699151Y-101689264D01*
X161699148Y-101689266D01*
X161699147Y-101689267D01*
X161699146Y-101689268D01*
X161571816Y-101802071D01*
X161475182Y-101942068D01*
X161475181Y-101942070D01*
X161432320Y-102055088D01*
X161414860Y-102101128D01*
X161394355Y-102270000D01*
X161414860Y-102438872D01*
X161414861Y-102438874D01*
X161475181Y-102597929D01*
X161475182Y-102597931D01*
X161545669Y-102700048D01*
X161571817Y-102737929D01*
X161699148Y-102850734D01*
X161705029Y-102853820D01*
X161719875Y-102861613D01*
X161743885Y-102890423D01*
X161740490Y-102927772D01*
X161719875Y-102948387D01*
X161699156Y-102959261D01*
X161699151Y-102959264D01*
X161699148Y-102959266D01*
X161683045Y-102973532D01*
X161571816Y-103072071D01*
X161475182Y-103212068D01*
X161475181Y-103212070D01*
X161422033Y-103352213D01*
X161414860Y-103371128D01*
X161394355Y-103540000D01*
X161414860Y-103708872D01*
X161414861Y-103708874D01*
X161475181Y-103867929D01*
X161475182Y-103867931D01*
X161535282Y-103955000D01*
X161571817Y-104007929D01*
X161699148Y-104120734D01*
X161849775Y-104199790D01*
X162014944Y-104240500D01*
X162185056Y-104240500D01*
X162350225Y-104199790D01*
X162500852Y-104120734D01*
X162590649Y-104041180D01*
X162626101Y-104028947D01*
X162659819Y-104045365D01*
X162671200Y-104068298D01*
X162681132Y-104118229D01*
X162681132Y-104118230D01*
X162681133Y-104118231D01*
X162682808Y-104120738D01*
X162725447Y-104184552D01*
X162748253Y-104199790D01*
X162791769Y-104228867D01*
X162850252Y-104240500D01*
X162850255Y-104240500D01*
X163889745Y-104240500D01*
X163889748Y-104240500D01*
X163948231Y-104228867D01*
X164014552Y-104184552D01*
X164058867Y-104118231D01*
X164070500Y-104059748D01*
X164070500Y-103020252D01*
X164058867Y-102961769D01*
X164020935Y-102905000D01*
X164014552Y-102895447D01*
X163963915Y-102861613D01*
X163948231Y-102851133D01*
X163889748Y-102839500D01*
X163606243Y-102839500D01*
X163571595Y-102825148D01*
X163366458Y-102620012D01*
X163416080Y-102620012D01*
X163505099Y-102596159D01*
X163584912Y-102550079D01*
X163650079Y-102484912D01*
X163696159Y-102405099D01*
X163720012Y-102316080D01*
X163720012Y-102269999D01*
X163723553Y-102269999D01*
X163723553Y-102270000D01*
X164232075Y-102778523D01*
X164232075Y-102778522D01*
X164298347Y-102654539D01*
X164298350Y-102654532D01*
X164355529Y-102466038D01*
X164355531Y-102466030D01*
X164374839Y-102270000D01*
X164374839Y-102269999D01*
X164355531Y-102073969D01*
X164355529Y-102073961D01*
X164298350Y-101885467D01*
X164298347Y-101885460D01*
X164232075Y-101761476D01*
X164232075Y-101761475D01*
X163723553Y-102269999D01*
X163720012Y-102269999D01*
X163720012Y-102223920D01*
X163696159Y-102134901D01*
X163650079Y-102055088D01*
X163584912Y-101989921D01*
X163505099Y-101943841D01*
X163416080Y-101919988D01*
X163323920Y-101919988D01*
X163234901Y-101943841D01*
X163155088Y-101989921D01*
X163089921Y-102055088D01*
X163043841Y-102134901D01*
X163019988Y-102223920D01*
X163019988Y-102273541D01*
X162754434Y-102007987D01*
X162743266Y-101990714D01*
X162724818Y-101942070D01*
X162724817Y-101942068D01*
X162628183Y-101802071D01*
X162606798Y-101783126D01*
X162500852Y-101689266D01*
X162480122Y-101678386D01*
X162456114Y-101649579D01*
X162457438Y-101635000D01*
X163088553Y-101635000D01*
X163369999Y-101916446D01*
X163651446Y-101635000D01*
X163651446Y-101634999D01*
X163370001Y-101353553D01*
X163370000Y-101353553D01*
X163088553Y-101635000D01*
X162457438Y-101635000D01*
X162459507Y-101612229D01*
X162480122Y-101591613D01*
X162500852Y-101580734D01*
X162628183Y-101467929D01*
X162724818Y-101327930D01*
X162743267Y-101279281D01*
X162754434Y-101262011D01*
X163019988Y-100996457D01*
X163019988Y-101046080D01*
X163043841Y-101135099D01*
X163089921Y-101214912D01*
X163155088Y-101280079D01*
X163234901Y-101326159D01*
X163323920Y-101350012D01*
X163416080Y-101350012D01*
X163505099Y-101326159D01*
X163584912Y-101280079D01*
X163650079Y-101214912D01*
X163696159Y-101135099D01*
X163720012Y-101046080D01*
X163720012Y-100999999D01*
X163723553Y-100999999D01*
X163723553Y-101000000D01*
X164232075Y-101508523D01*
X164232075Y-101508522D01*
X164298347Y-101384539D01*
X164298350Y-101384532D01*
X164355529Y-101196038D01*
X164355531Y-101196030D01*
X164374839Y-101000000D01*
X164374839Y-100999999D01*
X164355531Y-100803969D01*
X164355529Y-100803961D01*
X164298350Y-100615467D01*
X164298347Y-100615460D01*
X164232075Y-100491476D01*
X164232075Y-100491475D01*
X163723553Y-100999999D01*
X163720012Y-100999999D01*
X163720012Y-100953920D01*
X163696159Y-100864901D01*
X163650079Y-100785088D01*
X163584912Y-100719921D01*
X163505099Y-100673841D01*
X163416080Y-100649988D01*
X163366458Y-100649988D01*
X163628487Y-100387958D01*
X163640358Y-100379222D01*
X163770852Y-100310734D01*
X163898183Y-100197929D01*
X163994818Y-100057930D01*
X164055140Y-99898872D01*
X164075645Y-99730000D01*
X164055140Y-99561128D01*
X163994818Y-99402070D01*
X163987222Y-99391066D01*
X163898183Y-99262071D01*
X163770851Y-99149265D01*
X163640362Y-99080779D01*
X163628486Y-99072040D01*
X163366458Y-98810012D01*
X163416080Y-98810012D01*
X163505099Y-98786159D01*
X163584912Y-98740079D01*
X163650079Y-98674912D01*
X163696159Y-98595099D01*
X163720012Y-98506080D01*
X163720012Y-98459999D01*
X163723553Y-98459999D01*
X163723553Y-98460000D01*
X164232075Y-98968523D01*
X164232075Y-98968522D01*
X164298347Y-98844539D01*
X164298350Y-98844532D01*
X164355529Y-98656038D01*
X164355531Y-98656030D01*
X164374839Y-98460000D01*
X164374839Y-98459999D01*
X164355531Y-98263969D01*
X164355529Y-98263961D01*
X164298350Y-98075467D01*
X164298347Y-98075460D01*
X164232075Y-97951476D01*
X164232075Y-97951475D01*
X163723553Y-98459999D01*
X163720012Y-98459999D01*
X163720012Y-98413920D01*
X163696159Y-98324901D01*
X163650079Y-98245088D01*
X163584912Y-98179921D01*
X163505099Y-98133841D01*
X163416080Y-98109988D01*
X163323920Y-98109988D01*
X163234901Y-98133841D01*
X163155088Y-98179921D01*
X163089921Y-98245088D01*
X163043841Y-98324901D01*
X163019988Y-98413920D01*
X163019988Y-98463541D01*
X162754434Y-98197987D01*
X162743266Y-98180714D01*
X162724818Y-98132070D01*
X162724817Y-98132068D01*
X162628183Y-97992071D01*
X162597547Y-97964930D01*
X162500852Y-97879266D01*
X162500844Y-97879262D01*
X162500843Y-97879261D01*
X162350224Y-97800209D01*
X162185056Y-97759500D01*
X162014944Y-97759500D01*
X161849775Y-97800209D01*
X161699156Y-97879261D01*
X161699151Y-97879264D01*
X161699148Y-97879266D01*
X161699146Y-97879268D01*
X161571816Y-97992071D01*
X161475182Y-98132068D01*
X161475181Y-98132070D01*
X161425163Y-98263961D01*
X161414860Y-98291128D01*
X161394355Y-98460000D01*
X121061009Y-98460000D01*
X121052851Y-98429555D01*
X121010064Y-98355446D01*
X120959618Y-98305000D01*
X121770842Y-98305000D01*
X121759650Y-98248728D01*
X121759648Y-98248722D01*
X121680499Y-98057641D01*
X121565589Y-97885664D01*
X121419335Y-97739410D01*
X121247358Y-97624500D01*
X121183196Y-97597923D01*
X162861475Y-97597923D01*
X163369999Y-98106446D01*
X163878523Y-97597923D01*
X163878522Y-97597922D01*
X163754543Y-97531654D01*
X163754531Y-97531649D01*
X163566038Y-97474470D01*
X163566030Y-97474468D01*
X163370000Y-97455161D01*
X163173969Y-97474468D01*
X163173961Y-97474470D01*
X162985468Y-97531649D01*
X162985456Y-97531654D01*
X162861476Y-97597922D01*
X162861475Y-97597923D01*
X121183196Y-97597923D01*
X121056277Y-97545351D01*
X121056271Y-97545349D01*
X120853413Y-97505000D01*
X120800000Y-97505000D01*
X120800000Y-98231932D01*
X120792787Y-98230000D01*
X120307213Y-98230000D01*
X120300000Y-98231932D01*
X120300000Y-97505000D01*
X120246587Y-97505000D01*
X120043728Y-97545349D01*
X120043722Y-97545351D01*
X119852641Y-97624500D01*
X119680664Y-97739410D01*
X119534410Y-97885664D01*
X119419500Y-98057641D01*
X119340351Y-98248722D01*
X119340349Y-98248728D01*
X119329157Y-98305000D01*
X118146270Y-98305000D01*
X118150000Y-98291078D01*
X118150000Y-98198922D01*
X118126148Y-98109905D01*
X118080070Y-98030095D01*
X118044975Y-97995000D01*
X118875049Y-97995000D01*
X118871065Y-97969848D01*
X118871064Y-97969846D01*
X118813914Y-97793955D01*
X118729951Y-97629168D01*
X118621238Y-97479537D01*
X118621235Y-97479533D01*
X118490467Y-97348765D01*
X118490462Y-97348761D01*
X118340831Y-97240048D01*
X118176044Y-97156085D01*
X118000146Y-97098933D01*
X118000143Y-97098932D01*
X117817473Y-97070000D01*
X117800000Y-97070000D01*
X117800000Y-97895000D01*
X117300000Y-97895000D01*
X117300000Y-97070000D01*
X117282527Y-97070000D01*
X117099856Y-97098932D01*
X117099853Y-97098933D01*
X116923955Y-97156085D01*
X116759168Y-97240048D01*
X116609537Y-97348761D01*
X116478761Y-97479537D01*
X116370048Y-97629168D01*
X116286085Y-97793955D01*
X116228935Y-97969846D01*
X116228934Y-97969848D01*
X116224951Y-97995000D01*
X114750500Y-97995000D01*
X114750500Y-97048067D01*
X146667263Y-97048067D01*
X146688348Y-97181193D01*
X146688348Y-97181194D01*
X146688349Y-97181195D01*
X146749534Y-97301280D01*
X146749539Y-97301287D01*
X146844846Y-97396594D01*
X146844853Y-97396599D01*
X146924909Y-97437389D01*
X146964941Y-97457786D01*
X147098067Y-97478871D01*
X147231193Y-97457786D01*
X147314487Y-97415345D01*
X147351280Y-97396599D01*
X147351282Y-97396597D01*
X147351287Y-97396595D01*
X147446595Y-97301287D01*
X147507786Y-97181193D01*
X147528871Y-97048067D01*
X147507786Y-96914941D01*
X147487389Y-96874909D01*
X147446599Y-96794853D01*
X147446594Y-96794846D01*
X147351287Y-96699539D01*
X147351280Y-96699534D01*
X147231195Y-96638349D01*
X147231194Y-96638348D01*
X147231193Y-96638348D01*
X147098067Y-96617263D01*
X146964941Y-96638348D01*
X146964939Y-96638348D01*
X146964938Y-96638349D01*
X146844853Y-96699534D01*
X146844846Y-96699539D01*
X146749539Y-96794846D01*
X146749534Y-96794853D01*
X146688349Y-96914938D01*
X146688348Y-96914939D01*
X146688348Y-96914941D01*
X146667263Y-97048067D01*
X114750500Y-97048067D01*
X114750500Y-96200000D01*
X148969196Y-96200000D01*
X148990281Y-96333126D01*
X148990281Y-96333127D01*
X148990282Y-96333128D01*
X149051467Y-96453213D01*
X149051472Y-96453220D01*
X149146779Y-96548527D01*
X149146786Y-96548532D01*
X149226842Y-96589322D01*
X149266874Y-96609719D01*
X149400000Y-96630804D01*
X149533126Y-96609719D01*
X149616420Y-96567278D01*
X149653213Y-96548532D01*
X149653215Y-96548530D01*
X149653220Y-96548528D01*
X149748528Y-96453220D01*
X149809719Y-96333126D01*
X149830804Y-96200000D01*
X149809719Y-96066874D01*
X149789322Y-96026842D01*
X149748532Y-95946786D01*
X149748527Y-95946779D01*
X149653220Y-95851472D01*
X149653213Y-95851467D01*
X149533128Y-95790282D01*
X149533127Y-95790281D01*
X149533126Y-95790281D01*
X149400000Y-95769196D01*
X149266874Y-95790281D01*
X149266872Y-95790281D01*
X149266871Y-95790282D01*
X149146786Y-95851467D01*
X149146779Y-95851472D01*
X149051472Y-95946779D01*
X149051467Y-95946786D01*
X148990282Y-96066871D01*
X148990281Y-96066872D01*
X148990281Y-96066874D01*
X148969196Y-96200000D01*
X114750500Y-96200000D01*
X114750500Y-94900000D01*
X135744196Y-94900000D01*
X135765281Y-95033126D01*
X135765281Y-95033127D01*
X135765282Y-95033128D01*
X135826467Y-95153213D01*
X135826472Y-95153220D01*
X135921779Y-95248527D01*
X135921786Y-95248532D01*
X136001842Y-95289322D01*
X136041874Y-95309719D01*
X136175000Y-95330804D01*
X136308126Y-95309719D01*
X136391420Y-95267278D01*
X136428213Y-95248532D01*
X136428215Y-95248530D01*
X136428220Y-95248528D01*
X136523528Y-95153220D01*
X136576123Y-95049997D01*
X144994353Y-95049997D01*
X144994353Y-95050002D01*
X145014833Y-95192454D01*
X145040442Y-95248528D01*
X145074623Y-95323373D01*
X145074624Y-95323374D01*
X145074625Y-95323376D01*
X145168871Y-95432142D01*
X145168872Y-95432143D01*
X145289947Y-95509953D01*
X145366785Y-95532514D01*
X145428034Y-95550499D01*
X145428037Y-95550499D01*
X145428039Y-95550500D01*
X145428040Y-95550500D01*
X145571960Y-95550500D01*
X145571961Y-95550500D01*
X145571963Y-95550499D01*
X145571965Y-95550499D01*
X145594795Y-95543795D01*
X145710053Y-95509953D01*
X145831128Y-95432143D01*
X145925377Y-95323373D01*
X145985165Y-95192457D01*
X145985165Y-95192455D01*
X145985166Y-95192454D01*
X146005647Y-95050002D01*
X146005647Y-95049997D01*
X145985166Y-94907545D01*
X145959114Y-94850500D01*
X145925377Y-94776627D01*
X145916923Y-94766871D01*
X145831128Y-94667857D01*
X145710053Y-94590047D01*
X145710050Y-94590046D01*
X145571965Y-94549500D01*
X145571961Y-94549500D01*
X145428039Y-94549500D01*
X145428034Y-94549500D01*
X145289949Y-94590046D01*
X145168871Y-94667857D01*
X145074625Y-94776623D01*
X145074624Y-94776625D01*
X145014833Y-94907545D01*
X144994353Y-95049997D01*
X136576123Y-95049997D01*
X136584719Y-95033126D01*
X136605804Y-94900000D01*
X136584719Y-94766874D01*
X136564322Y-94726842D01*
X136523532Y-94646786D01*
X136523527Y-94646779D01*
X136428220Y-94551472D01*
X136428213Y-94551467D01*
X136308128Y-94490282D01*
X136308127Y-94490281D01*
X136308126Y-94490281D01*
X136175000Y-94469196D01*
X136041874Y-94490281D01*
X136041872Y-94490281D01*
X136041871Y-94490282D01*
X135921786Y-94551467D01*
X135921779Y-94551472D01*
X135826472Y-94646779D01*
X135826467Y-94646786D01*
X135765282Y-94766871D01*
X135765281Y-94766872D01*
X135765281Y-94766874D01*
X135744196Y-94900000D01*
X114750500Y-94900000D01*
X114750500Y-94349997D01*
X125044353Y-94349997D01*
X125044353Y-94350002D01*
X125064833Y-94492454D01*
X125096935Y-94562746D01*
X125124623Y-94623373D01*
X125124624Y-94623374D01*
X125124625Y-94623376D01*
X125144904Y-94646779D01*
X125218872Y-94732143D01*
X125339947Y-94809953D01*
X125416785Y-94832514D01*
X125478034Y-94850499D01*
X125478037Y-94850499D01*
X125478039Y-94850500D01*
X125478040Y-94850500D01*
X125621960Y-94850500D01*
X125621961Y-94850500D01*
X125621963Y-94850499D01*
X125621965Y-94850499D01*
X125644795Y-94843795D01*
X125760053Y-94809953D01*
X125881128Y-94732143D01*
X125975377Y-94623373D01*
X126035165Y-94492457D01*
X126035165Y-94492455D01*
X126035166Y-94492454D01*
X126055647Y-94350002D01*
X126055647Y-94349997D01*
X126035166Y-94207545D01*
X125998829Y-94127980D01*
X125975377Y-94076627D01*
X125935671Y-94030804D01*
X125881128Y-93967857D01*
X125760053Y-93890047D01*
X125760050Y-93890046D01*
X125621965Y-93849500D01*
X125621961Y-93849500D01*
X125478039Y-93849500D01*
X125478034Y-93849500D01*
X125339949Y-93890046D01*
X125339947Y-93890046D01*
X125339947Y-93890047D01*
X125329517Y-93896750D01*
X125218871Y-93967857D01*
X125124625Y-94076623D01*
X125124624Y-94076625D01*
X125064833Y-94207545D01*
X125044353Y-94349997D01*
X114750500Y-94349997D01*
X114750500Y-91501285D01*
X114750534Y-91500000D01*
X115295065Y-91500000D01*
X115314787Y-91826044D01*
X115314789Y-91826056D01*
X115373663Y-92147322D01*
X115373669Y-92147348D01*
X115470838Y-92459172D01*
X115470846Y-92459194D01*
X115604899Y-92757045D01*
X115773882Y-93036579D01*
X115773883Y-93036580D01*
X115921475Y-93224968D01*
X115921476Y-93224968D01*
X117063708Y-92082735D01*
X117160967Y-92216602D01*
X117283398Y-92339033D01*
X117417262Y-92436290D01*
X116275030Y-93578522D01*
X116275030Y-93578523D01*
X116463419Y-93726116D01*
X116463420Y-93726117D01*
X116742954Y-93895100D01*
X117040805Y-94029153D01*
X117040827Y-94029161D01*
X117352651Y-94126330D01*
X117352677Y-94126336D01*
X117673943Y-94185210D01*
X117673955Y-94185212D01*
X118000000Y-94204934D01*
X118326044Y-94185212D01*
X118326056Y-94185210D01*
X118647322Y-94126336D01*
X118647348Y-94126330D01*
X118959172Y-94029161D01*
X118959194Y-94029153D01*
X119257045Y-93895100D01*
X119536579Y-93726117D01*
X119536580Y-93726116D01*
X119697555Y-93600000D01*
X154944196Y-93600000D01*
X154965281Y-93733126D01*
X154965281Y-93733127D01*
X154965282Y-93733128D01*
X155026467Y-93853213D01*
X155026472Y-93853220D01*
X155121779Y-93948527D01*
X155121786Y-93948532D01*
X155201842Y-93989322D01*
X155241874Y-94009719D01*
X155375000Y-94030804D01*
X155508126Y-94009719D01*
X155591420Y-93967278D01*
X155628213Y-93948532D01*
X155628215Y-93948530D01*
X155628220Y-93948528D01*
X155723528Y-93853220D01*
X155725424Y-93849500D01*
X155742278Y-93816420D01*
X155784719Y-93733126D01*
X155805804Y-93600000D01*
X157924196Y-93600000D01*
X157945281Y-93733126D01*
X157945281Y-93733127D01*
X157945282Y-93733128D01*
X158006467Y-93853213D01*
X158006472Y-93853220D01*
X158101779Y-93948527D01*
X158101786Y-93948532D01*
X158181842Y-93989322D01*
X158221874Y-94009719D01*
X158355000Y-94030804D01*
X158488126Y-94009719D01*
X158571420Y-93967278D01*
X158608213Y-93948532D01*
X158608215Y-93948530D01*
X158608220Y-93948528D01*
X158703528Y-93853220D01*
X158705424Y-93849500D01*
X158722278Y-93816420D01*
X158764719Y-93733126D01*
X158785804Y-93600000D01*
X158764719Y-93466874D01*
X158744322Y-93426842D01*
X158703532Y-93346786D01*
X158703527Y-93346779D01*
X158608220Y-93251472D01*
X158608213Y-93251467D01*
X158488128Y-93190282D01*
X158488127Y-93190281D01*
X158488126Y-93190281D01*
X158355000Y-93169196D01*
X158221874Y-93190281D01*
X158221872Y-93190281D01*
X158221871Y-93190282D01*
X158101786Y-93251467D01*
X158101779Y-93251472D01*
X158006472Y-93346779D01*
X158006467Y-93346786D01*
X157945282Y-93466871D01*
X157945281Y-93466872D01*
X157945281Y-93466874D01*
X157924196Y-93600000D01*
X155805804Y-93600000D01*
X155784719Y-93466874D01*
X155764322Y-93426842D01*
X155723532Y-93346786D01*
X155723527Y-93346779D01*
X155628220Y-93251472D01*
X155628213Y-93251467D01*
X155508128Y-93190282D01*
X155508127Y-93190281D01*
X155508126Y-93190281D01*
X155375000Y-93169196D01*
X155241874Y-93190281D01*
X155241872Y-93190281D01*
X155241871Y-93190282D01*
X155121786Y-93251467D01*
X155121779Y-93251472D01*
X155026472Y-93346779D01*
X155026467Y-93346786D01*
X154965282Y-93466871D01*
X154965281Y-93466872D01*
X154965281Y-93466874D01*
X154944196Y-93600000D01*
X119697555Y-93600000D01*
X119724968Y-93578523D01*
X119724968Y-93578522D01*
X118582736Y-92436290D01*
X118716602Y-92339033D01*
X118839033Y-92216602D01*
X118936290Y-92082736D01*
X120078522Y-93224968D01*
X120078523Y-93224968D01*
X120226116Y-93036580D01*
X120226117Y-93036579D01*
X120263343Y-92975000D01*
X149244196Y-92975000D01*
X149265281Y-93108126D01*
X149265281Y-93108127D01*
X149265282Y-93108128D01*
X149326467Y-93228213D01*
X149326472Y-93228220D01*
X149421779Y-93323527D01*
X149421786Y-93323532D01*
X149467426Y-93346786D01*
X149541874Y-93384719D01*
X149675000Y-93405804D01*
X149808126Y-93384719D01*
X149891420Y-93342278D01*
X149928213Y-93323532D01*
X149928215Y-93323530D01*
X149928220Y-93323528D01*
X150023528Y-93228220D01*
X150024345Y-93226618D01*
X150053602Y-93169196D01*
X150084719Y-93108126D01*
X150105804Y-92975000D01*
X150084719Y-92841874D01*
X150064322Y-92801842D01*
X150023532Y-92721786D01*
X150023527Y-92721779D01*
X149928220Y-92626472D01*
X149928213Y-92626467D01*
X149808128Y-92565282D01*
X149808127Y-92565281D01*
X149808126Y-92565281D01*
X149675000Y-92544196D01*
X149541874Y-92565281D01*
X149541872Y-92565281D01*
X149541871Y-92565282D01*
X149421786Y-92626467D01*
X149421779Y-92626472D01*
X149326472Y-92721779D01*
X149326467Y-92721786D01*
X149265282Y-92841871D01*
X149265281Y-92841872D01*
X149265281Y-92841874D01*
X149244196Y-92975000D01*
X120263343Y-92975000D01*
X120395100Y-92757045D01*
X120529153Y-92459194D01*
X120529161Y-92459172D01*
X120626330Y-92147348D01*
X120626336Y-92147322D01*
X120685210Y-91826056D01*
X120685212Y-91826044D01*
X120704934Y-91500000D01*
X120685212Y-91173955D01*
X120685210Y-91173943D01*
X120626336Y-90852677D01*
X120626330Y-90852651D01*
X120529161Y-90540827D01*
X120529153Y-90540805D01*
X120395100Y-90242954D01*
X120236292Y-89980252D01*
X130074500Y-89980252D01*
X130074500Y-91719748D01*
X130086133Y-91778231D01*
X130103882Y-91804795D01*
X130130447Y-91844552D01*
X130157012Y-91862301D01*
X130196769Y-91888867D01*
X130255252Y-91900500D01*
X130255255Y-91900500D01*
X131994745Y-91900500D01*
X131994748Y-91900500D01*
X132053231Y-91888867D01*
X132119552Y-91844552D01*
X132163867Y-91778231D01*
X132175500Y-91719748D01*
X132175500Y-90849999D01*
X132609417Y-90849999D01*
X132609417Y-90850000D01*
X132629700Y-91055934D01*
X132629700Y-91055935D01*
X132637772Y-91082545D01*
X132689768Y-91253954D01*
X132787315Y-91436450D01*
X132918590Y-91596410D01*
X133078550Y-91727685D01*
X133261046Y-91825232D01*
X133459066Y-91885300D01*
X133665000Y-91905583D01*
X133870934Y-91885300D01*
X134068954Y-91825232D01*
X134251450Y-91727685D01*
X134411410Y-91596410D01*
X134542685Y-91436450D01*
X134640232Y-91253954D01*
X134700300Y-91055934D01*
X134720583Y-90850000D01*
X134719879Y-90842857D01*
X134717816Y-90821904D01*
X134700300Y-90644066D01*
X134686933Y-90599999D01*
X134874363Y-90599999D01*
X134874364Y-90600000D01*
X135771988Y-90600000D01*
X135739075Y-90657007D01*
X135705000Y-90784174D01*
X135705000Y-90915826D01*
X135739075Y-91042993D01*
X135771988Y-91100000D01*
X134874363Y-91100000D01*
X134931566Y-91313483D01*
X134931568Y-91313488D01*
X135031398Y-91527577D01*
X135031405Y-91527589D01*
X135166885Y-91721072D01*
X135166891Y-91721079D01*
X135333920Y-91888108D01*
X135333927Y-91888114D01*
X135527410Y-92023594D01*
X135527422Y-92023601D01*
X135741511Y-92123431D01*
X135741516Y-92123433D01*
X135955000Y-92180634D01*
X135955000Y-91283012D01*
X136012007Y-91315925D01*
X136139174Y-91350000D01*
X136270826Y-91350000D01*
X136397993Y-91315925D01*
X136455000Y-91283012D01*
X136455000Y-92180634D01*
X136668483Y-92123433D01*
X136668488Y-92123431D01*
X136882577Y-92023601D01*
X136882589Y-92023594D01*
X137076072Y-91888114D01*
X137076079Y-91888108D01*
X137243108Y-91721079D01*
X137243114Y-91721072D01*
X137378594Y-91527589D01*
X137378601Y-91527577D01*
X137478431Y-91313488D01*
X137478433Y-91313483D01*
X137535636Y-91100000D01*
X136638012Y-91100000D01*
X136670925Y-91042993D01*
X136705000Y-90915826D01*
X136705000Y-90849999D01*
X137689417Y-90849999D01*
X137689417Y-90850000D01*
X137709700Y-91055934D01*
X137709700Y-91055935D01*
X137717772Y-91082545D01*
X137769768Y-91253954D01*
X137867315Y-91436450D01*
X137998590Y-91596410D01*
X138158550Y-91727685D01*
X138341046Y-91825232D01*
X138539066Y-91885300D01*
X138745000Y-91905583D01*
X138950934Y-91885300D01*
X139148954Y-91825232D01*
X139331450Y-91727685D01*
X139491410Y-91596410D01*
X139622685Y-91436450D01*
X139720232Y-91253954D01*
X139780300Y-91055934D01*
X139800583Y-90850000D01*
X139799879Y-90842857D01*
X139797816Y-90821904D01*
X139780300Y-90644066D01*
X139766933Y-90599999D01*
X139954363Y-90599999D01*
X139954364Y-90600000D01*
X140851988Y-90600000D01*
X140819075Y-90657007D01*
X140785000Y-90784174D01*
X140785000Y-90915826D01*
X140819075Y-91042993D01*
X140851988Y-91100000D01*
X139954363Y-91100000D01*
X140011566Y-91313483D01*
X140011568Y-91313488D01*
X140111398Y-91527577D01*
X140111405Y-91527589D01*
X140246885Y-91721072D01*
X140246891Y-91721079D01*
X140413920Y-91888108D01*
X140413927Y-91888114D01*
X140607410Y-92023594D01*
X140607422Y-92023601D01*
X140821511Y-92123431D01*
X140821516Y-92123433D01*
X141035000Y-92180634D01*
X141035000Y-91283012D01*
X141092007Y-91315925D01*
X141219174Y-91350000D01*
X141350826Y-91350000D01*
X141477993Y-91315925D01*
X141535000Y-91283012D01*
X141535000Y-92180634D01*
X141748483Y-92123433D01*
X141748488Y-92123431D01*
X141962577Y-92023601D01*
X141962589Y-92023594D01*
X142156072Y-91888114D01*
X142156079Y-91888108D01*
X142323108Y-91721079D01*
X142323114Y-91721072D01*
X142458594Y-91527589D01*
X142458601Y-91527577D01*
X142558431Y-91313488D01*
X142558433Y-91313483D01*
X142615636Y-91100000D01*
X141718012Y-91100000D01*
X141750925Y-91042993D01*
X141785000Y-90915826D01*
X141785000Y-90849999D01*
X142769417Y-90849999D01*
X142769417Y-90850000D01*
X142789700Y-91055934D01*
X142789700Y-91055935D01*
X142797772Y-91082545D01*
X142849768Y-91253954D01*
X142947315Y-91436450D01*
X143078590Y-91596410D01*
X143238550Y-91727685D01*
X143421046Y-91825232D01*
X143619066Y-91885300D01*
X143825000Y-91905583D01*
X144030934Y-91885300D01*
X144228954Y-91825232D01*
X144411450Y-91727685D01*
X144571410Y-91596410D01*
X144702685Y-91436450D01*
X144800232Y-91253954D01*
X144860300Y-91055934D01*
X144880583Y-90850000D01*
X144880583Y-90849999D01*
X145309417Y-90849999D01*
X145309417Y-90850000D01*
X145329700Y-91055934D01*
X145329700Y-91055935D01*
X145337772Y-91082545D01*
X145389768Y-91253954D01*
X145487315Y-91436450D01*
X145618590Y-91596410D01*
X145778550Y-91727685D01*
X145961046Y-91825232D01*
X146159066Y-91885300D01*
X146319863Y-91901137D01*
X146352938Y-91918816D01*
X146363824Y-91954704D01*
X146346145Y-91987779D01*
X146337306Y-91993560D01*
X146321784Y-92001468D01*
X146321779Y-92001472D01*
X146226472Y-92096779D01*
X146226467Y-92096786D01*
X146165282Y-92216871D01*
X146165281Y-92216872D01*
X146165281Y-92216874D01*
X146144196Y-92350000D01*
X146165281Y-92483126D01*
X146165281Y-92483127D01*
X146165282Y-92483128D01*
X146226467Y-92603213D01*
X146226472Y-92603220D01*
X146321779Y-92698527D01*
X146321786Y-92698532D01*
X146367426Y-92721786D01*
X146441874Y-92759719D01*
X146575000Y-92780804D01*
X146708126Y-92759719D01*
X146791420Y-92717278D01*
X146828213Y-92698532D01*
X146828215Y-92698530D01*
X146828220Y-92698528D01*
X146923528Y-92603220D01*
X146984719Y-92483126D01*
X147005804Y-92350000D01*
X146984719Y-92216874D01*
X146964322Y-92176842D01*
X146923532Y-92096786D01*
X146923527Y-92096779D01*
X146828220Y-92001472D01*
X146828213Y-92001467D01*
X146708127Y-91940281D01*
X146704460Y-91939090D01*
X146704926Y-91937655D01*
X146677614Y-91920912D01*
X146668864Y-91884444D01*
X146688465Y-91852471D01*
X146703032Y-91845228D01*
X146768954Y-91825232D01*
X146951450Y-91727685D01*
X147111410Y-91596410D01*
X147242685Y-91436450D01*
X147340232Y-91253954D01*
X147400300Y-91055934D01*
X147420583Y-90850000D01*
X147419879Y-90842857D01*
X147417816Y-90821904D01*
X147400300Y-90644066D01*
X147386933Y-90599999D01*
X147574363Y-90599999D01*
X147574364Y-90600000D01*
X148471988Y-90600000D01*
X148439075Y-90657007D01*
X148405000Y-90784174D01*
X148405000Y-90915826D01*
X148439075Y-91042993D01*
X148471988Y-91100000D01*
X147574363Y-91100000D01*
X147631566Y-91313483D01*
X147631568Y-91313488D01*
X147731398Y-91527577D01*
X147731405Y-91527589D01*
X147866885Y-91721072D01*
X147866891Y-91721079D01*
X148033920Y-91888108D01*
X148033927Y-91888114D01*
X148227410Y-92023594D01*
X148227422Y-92023601D01*
X148441511Y-92123431D01*
X148441516Y-92123433D01*
X148655000Y-92180634D01*
X148655000Y-91283012D01*
X148712007Y-91315925D01*
X148839174Y-91350000D01*
X148970826Y-91350000D01*
X149097993Y-91315925D01*
X149155000Y-91283012D01*
X149155000Y-92180634D01*
X149368483Y-92123433D01*
X149368488Y-92123431D01*
X149582577Y-92023601D01*
X149582589Y-92023594D01*
X149776072Y-91888114D01*
X149776079Y-91888108D01*
X149943108Y-91721079D01*
X149943114Y-91721072D01*
X150078594Y-91527589D01*
X150078601Y-91527577D01*
X150178431Y-91313488D01*
X150178433Y-91313483D01*
X150202143Y-91224997D01*
X153844353Y-91224997D01*
X153844353Y-91225002D01*
X153864833Y-91367454D01*
X153885829Y-91413428D01*
X153924623Y-91498373D01*
X153924624Y-91498374D01*
X153924625Y-91498376D01*
X154001047Y-91586572D01*
X154018872Y-91607143D01*
X154139947Y-91684953D01*
X154216785Y-91707514D01*
X154278034Y-91725499D01*
X154278037Y-91725499D01*
X154278039Y-91725500D01*
X154278040Y-91725500D01*
X154421960Y-91725500D01*
X154421961Y-91725500D01*
X154421963Y-91725499D01*
X154421965Y-91725499D01*
X154444795Y-91718795D01*
X154560053Y-91684953D01*
X154681128Y-91607143D01*
X154772537Y-91501650D01*
X159293415Y-91501650D01*
X159313137Y-91827694D01*
X159313139Y-91827706D01*
X159372013Y-92148972D01*
X159372019Y-92148998D01*
X159469188Y-92460822D01*
X159469196Y-92460844D01*
X159603249Y-92758695D01*
X159772232Y-93038229D01*
X159772233Y-93038230D01*
X159919825Y-93226618D01*
X159919826Y-93226618D01*
X161062058Y-92084385D01*
X161159317Y-92218252D01*
X161281748Y-92340683D01*
X161415612Y-92437940D01*
X160273380Y-93580172D01*
X160273380Y-93580173D01*
X160461769Y-93727766D01*
X160461770Y-93727767D01*
X160741304Y-93896750D01*
X161039155Y-94030803D01*
X161039177Y-94030811D01*
X161351001Y-94127980D01*
X161351027Y-94127986D01*
X161672293Y-94186860D01*
X161672305Y-94186862D01*
X161998350Y-94206584D01*
X162324394Y-94186862D01*
X162324406Y-94186860D01*
X162645672Y-94127986D01*
X162645698Y-94127980D01*
X162957522Y-94030811D01*
X162957544Y-94030803D01*
X163255395Y-93896750D01*
X163534929Y-93727767D01*
X163534930Y-93727766D01*
X163723318Y-93580173D01*
X163723318Y-93580172D01*
X162581086Y-92437940D01*
X162714952Y-92340683D01*
X162837383Y-92218252D01*
X162934640Y-92084386D01*
X164076872Y-93226618D01*
X164076873Y-93226618D01*
X164224466Y-93038230D01*
X164224467Y-93038229D01*
X164393450Y-92758695D01*
X164527503Y-92460844D01*
X164527511Y-92460822D01*
X164624680Y-92148998D01*
X164624686Y-92148972D01*
X164683560Y-91827706D01*
X164683562Y-91827694D01*
X164703284Y-91501650D01*
X164683562Y-91175605D01*
X164683560Y-91175593D01*
X164624686Y-90854327D01*
X164624680Y-90854301D01*
X164527511Y-90542477D01*
X164527503Y-90542455D01*
X164393450Y-90244604D01*
X164224467Y-89965070D01*
X164224466Y-89965069D01*
X164076873Y-89776680D01*
X164076872Y-89776680D01*
X162934640Y-90918912D01*
X162837383Y-90785048D01*
X162714952Y-90662617D01*
X162581085Y-90565358D01*
X163723318Y-89423126D01*
X163723318Y-89423125D01*
X163534930Y-89275533D01*
X163534929Y-89275532D01*
X163255395Y-89106549D01*
X162957544Y-88972496D01*
X162957522Y-88972488D01*
X162645698Y-88875319D01*
X162645672Y-88875313D01*
X162324406Y-88816439D01*
X162324394Y-88816437D01*
X161998350Y-88796715D01*
X161672305Y-88816437D01*
X161672293Y-88816439D01*
X161351027Y-88875313D01*
X161351001Y-88875319D01*
X161039177Y-88972488D01*
X161039155Y-88972496D01*
X160741304Y-89106549D01*
X160461770Y-89275532D01*
X160461769Y-89275533D01*
X160273380Y-89423125D01*
X160273380Y-89423126D01*
X161415613Y-90565359D01*
X161281748Y-90662617D01*
X161159317Y-90785048D01*
X161062059Y-90918913D01*
X159919826Y-89776680D01*
X159919825Y-89776680D01*
X159772233Y-89965069D01*
X159772232Y-89965070D01*
X159603249Y-90244604D01*
X159469196Y-90542455D01*
X159469188Y-90542477D01*
X159372019Y-90854301D01*
X159372013Y-90854327D01*
X159313139Y-91175593D01*
X159313137Y-91175605D01*
X159293415Y-91501650D01*
X154772537Y-91501650D01*
X154775377Y-91498373D01*
X154835165Y-91367457D01*
X154835165Y-91367455D01*
X154835166Y-91367454D01*
X154855647Y-91225002D01*
X154855647Y-91224997D01*
X154835166Y-91082545D01*
X154817103Y-91042993D01*
X154775377Y-90951627D01*
X154750983Y-90923475D01*
X154681128Y-90842857D01*
X154648524Y-90821904D01*
X154560053Y-90765047D01*
X154560050Y-90765046D01*
X154421965Y-90724500D01*
X154421961Y-90724500D01*
X154278039Y-90724500D01*
X154278034Y-90724500D01*
X154139949Y-90765046D01*
X154018871Y-90842857D01*
X153924625Y-90951623D01*
X153924624Y-90951625D01*
X153864833Y-91082545D01*
X153844353Y-91224997D01*
X150202143Y-91224997D01*
X150235636Y-91100000D01*
X149338012Y-91100000D01*
X149370925Y-91042993D01*
X149405000Y-90915826D01*
X149405000Y-90784174D01*
X149370925Y-90657007D01*
X149338012Y-90600000D01*
X150235636Y-90600000D01*
X150235636Y-90599999D01*
X150178433Y-90386516D01*
X150178432Y-90386511D01*
X150078601Y-90172423D01*
X150078594Y-90172411D01*
X149943114Y-89978927D01*
X149943108Y-89978920D01*
X149776079Y-89811891D01*
X149776072Y-89811885D01*
X149582589Y-89676405D01*
X149582577Y-89676398D01*
X149368488Y-89576568D01*
X149368483Y-89576566D01*
X149155000Y-89519363D01*
X149155000Y-90416988D01*
X149097993Y-90384075D01*
X148970826Y-90350000D01*
X148839174Y-90350000D01*
X148712007Y-90384075D01*
X148655000Y-90416988D01*
X148655000Y-89519363D01*
X148654999Y-89519363D01*
X148441516Y-89576566D01*
X148441511Y-89576567D01*
X148227423Y-89676398D01*
X148227411Y-89676405D01*
X148033927Y-89811885D01*
X148033920Y-89811891D01*
X147866891Y-89978920D01*
X147866885Y-89978927D01*
X147731405Y-90172411D01*
X147731398Y-90172423D01*
X147631567Y-90386511D01*
X147631566Y-90386516D01*
X147574363Y-90599999D01*
X147386933Y-90599999D01*
X147340232Y-90446046D01*
X147242685Y-90263550D01*
X147111410Y-90103590D01*
X146951450Y-89972315D01*
X146768954Y-89874768D01*
X146570934Y-89814700D01*
X146365000Y-89794417D01*
X146159065Y-89814700D01*
X146159064Y-89814700D01*
X145961043Y-89874769D01*
X145778548Y-89972316D01*
X145618590Y-90103590D01*
X145487316Y-90263548D01*
X145389769Y-90446043D01*
X145329700Y-90644064D01*
X145329700Y-90644065D01*
X145309417Y-90849999D01*
X144880583Y-90849999D01*
X144879879Y-90842857D01*
X144877816Y-90821904D01*
X144860300Y-90644066D01*
X144800232Y-90446046D01*
X144702685Y-90263550D01*
X144571410Y-90103590D01*
X144411450Y-89972315D01*
X144228954Y-89874768D01*
X144030934Y-89814700D01*
X143825000Y-89794417D01*
X143619065Y-89814700D01*
X143619064Y-89814700D01*
X143421043Y-89874769D01*
X143238548Y-89972316D01*
X143078590Y-90103590D01*
X142947316Y-90263548D01*
X142849769Y-90446043D01*
X142789700Y-90644064D01*
X142789700Y-90644065D01*
X142769417Y-90849999D01*
X141785000Y-90849999D01*
X141785000Y-90784174D01*
X141750925Y-90657007D01*
X141718012Y-90600000D01*
X142615636Y-90600000D01*
X142615636Y-90599999D01*
X142558433Y-90386516D01*
X142558432Y-90386511D01*
X142458601Y-90172423D01*
X142458594Y-90172411D01*
X142323114Y-89978927D01*
X142323108Y-89978920D01*
X142156079Y-89811891D01*
X142156072Y-89811885D01*
X141962589Y-89676405D01*
X141962577Y-89676398D01*
X141748488Y-89576568D01*
X141748483Y-89576566D01*
X141535000Y-89519363D01*
X141535000Y-90416988D01*
X141477993Y-90384075D01*
X141350826Y-90350000D01*
X141219174Y-90350000D01*
X141092007Y-90384075D01*
X141035000Y-90416988D01*
X141035000Y-89519363D01*
X141034999Y-89519363D01*
X140821516Y-89576566D01*
X140821511Y-89576567D01*
X140607423Y-89676398D01*
X140607411Y-89676405D01*
X140413927Y-89811885D01*
X140413920Y-89811891D01*
X140246891Y-89978920D01*
X140246885Y-89978927D01*
X140111405Y-90172411D01*
X140111398Y-90172423D01*
X140011567Y-90386511D01*
X140011566Y-90386516D01*
X139954363Y-90599999D01*
X139766933Y-90599999D01*
X139720232Y-90446046D01*
X139622685Y-90263550D01*
X139491410Y-90103590D01*
X139331450Y-89972315D01*
X139148954Y-89874768D01*
X138950934Y-89814700D01*
X138745000Y-89794417D01*
X138539065Y-89814700D01*
X138539064Y-89814700D01*
X138341043Y-89874769D01*
X138158548Y-89972316D01*
X137998590Y-90103590D01*
X137867316Y-90263548D01*
X137769769Y-90446043D01*
X137709700Y-90644064D01*
X137709700Y-90644065D01*
X137689417Y-90849999D01*
X136705000Y-90849999D01*
X136705000Y-90784174D01*
X136670925Y-90657007D01*
X136638012Y-90600000D01*
X137535636Y-90600000D01*
X137535636Y-90599999D01*
X137478433Y-90386516D01*
X137478432Y-90386511D01*
X137378601Y-90172423D01*
X137378594Y-90172411D01*
X137243114Y-89978927D01*
X137243108Y-89978920D01*
X137076079Y-89811891D01*
X137076072Y-89811885D01*
X136882589Y-89676405D01*
X136882577Y-89676398D01*
X136668488Y-89576568D01*
X136668483Y-89576566D01*
X136455000Y-89519363D01*
X136455000Y-90416988D01*
X136397993Y-90384075D01*
X136270826Y-90350000D01*
X136139174Y-90350000D01*
X136012007Y-90384075D01*
X135955000Y-90416988D01*
X135955000Y-89519363D01*
X135954999Y-89519363D01*
X135741516Y-89576566D01*
X135741511Y-89576567D01*
X135527423Y-89676398D01*
X135527411Y-89676405D01*
X135333927Y-89811885D01*
X135333920Y-89811891D01*
X135166891Y-89978920D01*
X135166885Y-89978927D01*
X135031405Y-90172411D01*
X135031398Y-90172423D01*
X134931567Y-90386511D01*
X134931566Y-90386516D01*
X134874363Y-90599999D01*
X134686933Y-90599999D01*
X134640232Y-90446046D01*
X134542685Y-90263550D01*
X134411410Y-90103590D01*
X134251450Y-89972315D01*
X134068954Y-89874768D01*
X133870934Y-89814700D01*
X133665000Y-89794417D01*
X133459065Y-89814700D01*
X133459064Y-89814700D01*
X133261043Y-89874769D01*
X133078548Y-89972316D01*
X132918590Y-90103590D01*
X132787316Y-90263548D01*
X132689769Y-90446043D01*
X132629700Y-90644064D01*
X132629700Y-90644065D01*
X132609417Y-90849999D01*
X132175500Y-90849999D01*
X132175500Y-89980252D01*
X132163867Y-89921769D01*
X132134312Y-89877537D01*
X132119552Y-89855447D01*
X132058569Y-89814700D01*
X132053231Y-89811133D01*
X131994748Y-89799500D01*
X130255252Y-89799500D01*
X130196769Y-89811133D01*
X130130447Y-89855447D01*
X130086133Y-89921769D01*
X130074500Y-89980252D01*
X120236292Y-89980252D01*
X120226117Y-89963420D01*
X120226116Y-89963419D01*
X120078523Y-89775030D01*
X120078522Y-89775030D01*
X118936290Y-90917262D01*
X118839033Y-90783398D01*
X118716602Y-90660967D01*
X118582735Y-90563708D01*
X119724968Y-89421476D01*
X119724968Y-89421475D01*
X119536580Y-89273883D01*
X119536579Y-89273882D01*
X119257045Y-89104899D01*
X119190613Y-89075000D01*
X139494196Y-89075000D01*
X139515281Y-89208126D01*
X139515281Y-89208127D01*
X139515282Y-89208128D01*
X139576467Y-89328213D01*
X139576472Y-89328220D01*
X139671779Y-89423527D01*
X139671786Y-89423532D01*
X139751842Y-89464322D01*
X139791874Y-89484719D01*
X139925000Y-89505804D01*
X140058126Y-89484719D01*
X140141420Y-89442278D01*
X140178213Y-89423532D01*
X140178215Y-89423530D01*
X140178220Y-89423528D01*
X140273528Y-89328220D01*
X140273818Y-89327652D01*
X140301214Y-89273883D01*
X140334719Y-89208126D01*
X140355804Y-89075000D01*
X140334719Y-88941874D01*
X140300808Y-88875319D01*
X140273532Y-88821786D01*
X140273527Y-88821779D01*
X140178220Y-88726472D01*
X140178213Y-88726467D01*
X140058128Y-88665282D01*
X140058127Y-88665281D01*
X140058126Y-88665281D01*
X139925000Y-88644196D01*
X139791874Y-88665281D01*
X139791872Y-88665281D01*
X139791871Y-88665282D01*
X139671786Y-88726467D01*
X139671779Y-88726472D01*
X139576472Y-88821779D01*
X139576467Y-88821786D01*
X139515282Y-88941871D01*
X139515281Y-88941872D01*
X139515281Y-88941874D01*
X139494196Y-89075000D01*
X119190613Y-89075000D01*
X118959194Y-88970846D01*
X118959172Y-88970838D01*
X118647348Y-88873669D01*
X118647322Y-88873663D01*
X118326056Y-88814789D01*
X118326044Y-88814787D01*
X118000000Y-88795065D01*
X117673955Y-88814787D01*
X117673943Y-88814789D01*
X117352677Y-88873663D01*
X117352651Y-88873669D01*
X117040827Y-88970838D01*
X117040805Y-88970846D01*
X116742954Y-89104899D01*
X116463420Y-89273882D01*
X116463419Y-89273883D01*
X116275030Y-89421475D01*
X116275030Y-89421476D01*
X117417263Y-90563709D01*
X117283398Y-90660967D01*
X117160967Y-90783398D01*
X117063709Y-90917263D01*
X115921476Y-89775030D01*
X115921475Y-89775030D01*
X115773883Y-89963419D01*
X115773882Y-89963420D01*
X115604899Y-90242954D01*
X115470846Y-90540805D01*
X115470838Y-90540827D01*
X115373669Y-90852651D01*
X115373663Y-90852677D01*
X115314789Y-91173943D01*
X115314787Y-91173955D01*
X115295065Y-91500000D01*
X114750534Y-91500000D01*
X114750567Y-91498721D01*
X114753953Y-91434108D01*
X114768167Y-91162889D01*
X114768700Y-91157811D01*
X114821109Y-90826915D01*
X114822175Y-90821904D01*
X114837410Y-90765047D01*
X114908879Y-90498320D01*
X114910459Y-90493459D01*
X115030517Y-90180697D01*
X115032592Y-90176035D01*
X115184690Y-89877526D01*
X115187241Y-89873107D01*
X115369710Y-89592130D01*
X115372702Y-89588011D01*
X115583546Y-89327641D01*
X115586959Y-89323851D01*
X115823851Y-89086959D01*
X115827641Y-89083546D01*
X116088011Y-88872702D01*
X116092130Y-88869710D01*
X116373107Y-88687241D01*
X116377526Y-88684690D01*
X116676035Y-88532592D01*
X116680697Y-88530517D01*
X116993459Y-88410459D01*
X116998320Y-88408879D01*
X117321911Y-88322173D01*
X117326915Y-88321109D01*
X117657811Y-88268700D01*
X117662889Y-88268167D01*
X117998722Y-88250567D01*
X118001286Y-88250500D01*
X118065892Y-88250500D01*
X161934108Y-88250500D01*
X161998714Y-88250500D01*
X162001278Y-88250567D01*
G37*
%TD.AperFunction*%
%TD*%
M02*
