M48
; DRILL file {KiCad 8.0.7} date 2025-01-26T16:55:51-0800
; FORMAT={-:-/ absolute / inch / decimal}
; #@! TF.CreationDate,2025-01-26T16:55:51-08:00
; #@! TF.GenerationSoftware,Kicad,Pcbnew,8.0.7
; #@! TF.FileFunction,Plated,1,4,PTH
FMAT,2
INCH
; #@! TA.AperFunction,Plated,PTH,ViaDrill
T1C0.0079
; #@! TA.AperFunction,Plated,PTH,ViaDrill
T2C0.0118
; #@! TA.AperFunction,Plated,PTH,ComponentDrill
T3C0.0157
; #@! TA.AperFunction,Plated,PTH,ComponentDrill
T4C0.0256
; #@! TA.AperFunction,Plated,PTH,ComponentDrill
T5C0.0276
; #@! TA.AperFunction,Plated,PTH,ComponentDrill
T6C0.0276
; #@! TA.AperFunction,Plated,PTH,ComponentDrill
T7C0.0394
; #@! TA.AperFunction,Plated,PTH,ComponentDrill
T8C0.0866
%
G90
G05
T1
X4.5839Y-3.7642
X4.5839Y-4.1642
X4.6839Y-3.7642
X4.6839Y-3.9642
X4.6839Y-4.1642
X4.7756Y-4.4085
X4.7839Y-3.6642
X4.7839Y-3.7642
X4.7839Y-4.2642
X4.7839Y-4.3642
X4.815Y-3.5463
X4.815Y-4.4065
X4.8169Y-4.1614
X4.8169Y-4.1847
X4.8169Y-4.208
X4.8169Y-4.2313
X4.8317Y-4.1358
X4.8474Y-4.1614
X4.8474Y-4.1847
X4.8474Y-4.208
X4.8474Y-4.2313
X4.8524Y-3.7441
X4.8527Y-3.7697
X4.853Y-3.7185
X4.853Y-3.7953
X4.8533Y-3.8209
X4.8652Y-4.3632
X4.8671Y-3.5906
X4.8829Y-3.7185
X4.8829Y-3.7441
X4.8833Y-3.7697
X4.8835Y-3.7953
X4.8839Y-3.8209
X4.8839Y-4.1642
X4.8839Y-4.2642
X4.9341Y-3.8001
X4.9719Y-3.8
X4.9723Y-3.8243
X4.9839Y-3.6642
X4.9839Y-3.9642
X4.9839Y-4.0642
X4.9839Y-4.3642
X5.0185Y-3.8878
X5.0211Y-3.7703
X5.0213Y-3.7956
X5.0217Y-3.8209
X5.0305Y-3.5906
X5.0315Y-4.3632
X5.0496Y-3.8878
X5.0512Y-3.7451
X5.0516Y-3.7703
X5.0518Y-3.7956
X5.0522Y-3.8209
X5.0811Y-3.7451
X5.0815Y-3.7703
X5.0815Y-3.8882
X5.0817Y-3.7956
X5.0821Y-3.8209
X5.0839Y-3.9642
X5.0839Y-4.0642
X5.0839Y-4.1642
X5.0839Y-4.2642
X5.0839Y-4.3642
X5.1988Y-3.7047
X5.2839Y-3.7642
X5.2839Y-4.1642
X5.3612Y-3.7362
X5.3839Y-3.8642
X5.3839Y-4.0642
X5.3839Y-4.1642
X5.3839Y-4.2642
X5.4839Y-4.0642
X5.7839Y-4.2642
X5.8819Y-3.7874
X5.8839Y-4.2642
X5.9839Y-3.6642
X5.9839Y-4.1642
X5.9839Y-4.2642
X5.9839Y-4.3642
X6.0839Y-3.7642
X6.0839Y-4.1642
X6.1014Y-4.25
X6.1171Y-3.685
X6.1368Y-4.062
X6.1839Y-3.7642
X6.2067Y-3.9154
X6.2344Y-3.685
X6.25Y-4.248
X6.2839Y-3.6642
X6.2839Y-3.7642
X6.2839Y-4.1642
X6.3839Y-3.7642
X6.3839Y-4.1642
X6.4839Y-3.6642
X6.4839Y-3.7642
X6.4839Y-3.8642
X6.4839Y-3.9642
X6.4839Y-4.1642
X6.4839Y-4.2642
X6.4839Y-4.3642
T2
X4.6173Y-3.9376
X4.6173Y-4.0132
X4.689Y-4.0276
X4.8465Y-3.9213
X4.8602Y-4.0945
X4.872Y-3.9469
X4.8878Y-4.1191
X4.9173Y-4.0797
X4.9213Y-3.9508
X4.9341Y-4.189
X4.9344Y-3.8238
X4.9429Y-3.7146
X4.9734Y-4.2402
X5.1289Y-3.7776
X5.1289Y-4.1752
X5.1831Y-3.9764
X5.2638Y-3.997
X5.3435Y-3.9764
X5.4183Y-4.1329
X5.4459Y-3.9887
X5.4656Y-3.9488
X5.4764Y-3.8898
X5.5089Y-3.5069
X5.5669Y-4.0281
X5.626Y-4.0443
X5.6496Y-3.7579
X5.6654Y-4.0443
X5.7146Y-4.4449
X5.7283Y-3.7421
X5.7441Y-3.8711
X5.7707Y-3.6358
X5.7904Y-3.7421
X5.7913Y-3.8208
X5.7913Y-3.9331
X5.7913Y-4.0039
X5.8248Y-3.966
X5.8622Y-3.9331
X5.8622Y-4.0039
X5.8927Y-3.6604
X5.8937Y-4.1289
X5.9055Y-4.062
X5.9311Y-4.1289
X5.9646Y-4.0404
X6.0079Y-3.9469
X6.0177Y-3.5285
X6.0177Y-4.4222
X6.0344Y-4.002
X6.0384Y-3.5906
X6.0384Y-4.3593
X6.0768Y-3.5915
X6.1161Y-4.3593
X6.1772Y-3.5295
X6.1772Y-4.4203
T3
X4.5807Y-3.6024
X4.5807Y-4.3504
X4.5997Y-3.5564
X4.5997Y-3.6483
X4.5997Y-4.3045
X4.5997Y-4.3963
X4.6457Y-3.5374
X4.6457Y-3.6673
X4.6457Y-4.2854
X4.6457Y-4.4154
X4.6916Y-3.5564
X4.6916Y-3.6483
X4.6916Y-4.3045
X4.6916Y-4.3963
X4.7106Y-3.6024
X4.7106Y-4.3504
X6.3129Y-3.6024
X6.313Y-4.3504
X6.332Y-3.5565
X6.332Y-3.6484
X6.332Y-4.3045
X6.332Y-4.3963
X6.3779Y-3.5375
X6.3779Y-3.6674
X6.378Y-4.2854
X6.378Y-4.4154
X6.4238Y-3.5565
X6.4238Y-3.6484
X6.4239Y-4.3045
X6.4239Y-4.3963
X6.4428Y-3.6024
X6.4429Y-4.3504
T6
X6.3819Y-3.8764
X6.3819Y-3.9264
X6.3819Y-3.9764
X6.3819Y-4.0264
X6.3819Y-4.0764
X6.4319Y-3.8764
X6.4319Y-3.9264
X6.4319Y-3.9764
X6.4319Y-4.0264
X6.4319Y-4.0764
T7
X5.1624Y-3.5768
X5.1624Y-4.3752
X5.2624Y-3.5768
X5.2624Y-4.3752
X5.3624Y-3.5768
X5.3624Y-4.3752
X5.4624Y-3.5768
X5.4624Y-4.3752
X5.5624Y-3.5768
X5.5624Y-4.3752
X5.6624Y-3.5768
X5.6624Y-4.3752
X5.7624Y-3.5768
X5.7624Y-4.3752
X5.8624Y-3.5768
X5.8624Y-4.3752
T8
X4.6457Y-3.6024
X4.6457Y-4.3504
X6.3779Y-3.6024
X6.378Y-4.3504
T4
G00X4.7382Y-3.8801
M15
G01X4.7539Y-3.8801
M16
G05
G00X4.7382Y-4.0707
M15
G01X4.7539Y-4.0707
M16
G05
T5
G00X4.6181Y-3.8679
M15
G01X4.6378Y-3.8679
M16
G05
G00X4.6181Y-4.0829
M15
G01X4.6378Y-4.0829
M16
G05
M30
