%TF.GenerationSoftware,KiCad,Pcbnew,8.0.7*%
%TF.CreationDate,2025-01-26T16:55:51-08:00*%
%TF.ProjectId,servo-dev-board,73657276-6f2d-4646-9576-2d626f617264,rev?*%
%TF.SameCoordinates,Original*%
%TF.FileFunction,Copper,L3,Inr*%
%TF.FilePolarity,Positive*%
%FSLAX46Y46*%
G04 Gerber Fmt 4.6, Leading zero omitted, Abs format (unit mm)*
G04 Created by KiCad (PCBNEW 8.0.7) date 2025-01-26 16:55:51*
%MOMM*%
%LPD*%
G01*
G04 APERTURE LIST*
%TA.AperFunction,ComponentPad*%
%ADD10C,0.700000*%
%TD*%
%TA.AperFunction,ComponentPad*%
%ADD11C,4.400000*%
%TD*%
%TA.AperFunction,ComponentPad*%
%ADD12O,1.700000X1.350000*%
%TD*%
%TA.AperFunction,ComponentPad*%
%ADD13O,1.500000X1.100000*%
%TD*%
%TA.AperFunction,ComponentPad*%
%ADD14R,1.000000X1.000000*%
%TD*%
%TA.AperFunction,ComponentPad*%
%ADD15C,1.000000*%
%TD*%
%TA.AperFunction,ComponentPad*%
%ADD16R,1.700000X1.700000*%
%TD*%
%TA.AperFunction,ComponentPad*%
%ADD17O,1.700000X1.700000*%
%TD*%
%TA.AperFunction,ViaPad*%
%ADD18C,0.450000*%
%TD*%
%TA.AperFunction,ViaPad*%
%ADD19C,0.600000*%
%TD*%
G04 APERTURE END LIST*
D10*
%TO.N,GND*%
%TO.C,MH3*%
X160350000Y-110500000D03*
X160833274Y-109333274D03*
X160833274Y-111666726D03*
X162000000Y-108850000D03*
D11*
X162000000Y-110500000D03*
D10*
X162000000Y-112150000D03*
X163166726Y-109333274D03*
X163166726Y-111666726D03*
X163650000Y-110500000D03*
%TD*%
D12*
%TO.N,GND*%
%TO.C,J1*%
X117550000Y-98245000D03*
D13*
X120550000Y-98555000D03*
X120550000Y-103395000D03*
D12*
X117550000Y-103705000D03*
%TD*%
D10*
%TO.N,GND*%
%TO.C,MH1*%
X116350000Y-91500000D03*
X116833274Y-90333274D03*
X116833274Y-92666726D03*
X118000000Y-89850000D03*
D11*
X118000000Y-91500000D03*
D10*
X118000000Y-93150000D03*
X119166726Y-90333274D03*
X119166726Y-92666726D03*
X119650000Y-91500000D03*
%TD*%
D14*
%TO.N,+3V3*%
%TO.C,J5*%
X163370000Y-103540000D03*
D15*
%TO.N,/JTMS_SWDIO*%
X162100000Y-103540000D03*
%TO.N,GND*%
X163370000Y-102270000D03*
%TO.N,/JTCK_SWCLK*%
X162100000Y-102270000D03*
%TO.N,GND*%
X163370000Y-101000000D03*
%TO.N,/JTDO_SWO*%
X162100000Y-101000000D03*
%TO.N,unconnected-(J5-Pin_7-Pad7)*%
X163370000Y-99730000D03*
%TO.N,/JTDI*%
X162100000Y-99730000D03*
%TO.N,GND*%
X163370000Y-98460000D03*
%TO.N,/NJTRST*%
X162100000Y-98460000D03*
%TD*%
D10*
%TO.N,GND*%
%TO.C,MH4*%
X160348350Y-91501650D03*
X160831624Y-90334924D03*
X160831624Y-92668376D03*
X161998350Y-89851650D03*
D11*
X161998350Y-91501650D03*
D10*
X161998350Y-93151650D03*
X163165076Y-90334924D03*
X163165076Y-92668376D03*
X163648350Y-91501650D03*
%TD*%
%TO.N,GND*%
%TO.C,MH2*%
X116350000Y-110500000D03*
X116833274Y-109333274D03*
X116833274Y-111666726D03*
X118000000Y-108850000D03*
D11*
X118000000Y-110500000D03*
D10*
X118000000Y-112150000D03*
X119166726Y-109333274D03*
X119166726Y-111666726D03*
X119650000Y-110500000D03*
%TD*%
D16*
%TO.N,+5V*%
%TO.C,H2*%
X131125000Y-90850000D03*
D17*
%TO.N,+3V3*%
X133665000Y-90850000D03*
%TO.N,GND*%
X136205000Y-90850000D03*
%TO.N,/VREF*%
X138745000Y-90850000D03*
%TO.N,GND*%
X141285000Y-90850000D03*
%TO.N,/PB5*%
X143825000Y-90850000D03*
%TO.N,/PA12*%
X146365000Y-90850000D03*
%TO.N,GND*%
X148905000Y-90850000D03*
%TD*%
D16*
%TO.N,/PA2*%
%TO.C,H1*%
X131125000Y-111130000D03*
D17*
%TO.N,/PA3*%
X133665000Y-111130000D03*
%TO.N,/PA4*%
X136205000Y-111130000D03*
%TO.N,/PA5*%
X138745000Y-111130000D03*
%TO.N,/PA6*%
X141285000Y-111130000D03*
%TO.N,/PA7*%
X143825000Y-111130000D03*
%TO.N,/PB0*%
X146365000Y-111130000D03*
%TO.N,GND*%
X148905000Y-111130000D03*
%TD*%
D18*
%TO.N,+3V3*%
X122350000Y-105700000D03*
X122350000Y-106883332D03*
X158355000Y-93600000D03*
X122725000Y-105050000D03*
X122350000Y-107475000D03*
X123125000Y-106291666D03*
X123125000Y-107475000D03*
X155375000Y-93600000D03*
D19*
X125550000Y-94350000D03*
X126325000Y-107700000D03*
D18*
X123575000Y-110825000D03*
D19*
X150650000Y-104875000D03*
D18*
X127800000Y-110825000D03*
X123125000Y-105700000D03*
X123125000Y-106883332D03*
X122350000Y-106291666D03*
X158750000Y-107900000D03*
D19*
X153375000Y-110725000D03*
X141400000Y-102312500D03*
D18*
X154975000Y-107950000D03*
D19*
X154350000Y-91225000D03*
X145500000Y-95050000D03*
%TO.N,GND*%
X152850000Y-89625000D03*
D18*
X123259744Y-95749891D03*
X123265256Y-94449783D03*
X164690000Y-93070000D03*
X123625000Y-91200000D03*
X121510000Y-108310000D03*
D19*
X147100000Y-99900000D03*
D18*
X146910000Y-108310000D03*
X129059744Y-95125217D03*
X125334675Y-97123499D03*
X121510000Y-95610000D03*
X126286308Y-96519240D03*
X116430000Y-95610000D03*
X132050000Y-94100000D03*
X136750000Y-105770000D03*
D19*
X124900000Y-103625000D03*
D18*
X124025000Y-95100000D03*
D19*
X147075000Y-95050000D03*
D18*
X129070000Y-98760000D03*
X126590000Y-100690000D03*
X136750000Y-108310000D03*
D19*
X130275000Y-95950000D03*
D18*
X124050000Y-108310000D03*
X123265256Y-96399945D03*
X129069488Y-95766883D03*
X118970000Y-100690000D03*
D19*
X123750000Y-100250000D03*
D18*
X124050000Y-105770000D03*
X123250000Y-95099837D03*
D19*
X147100000Y-101700000D03*
X142900000Y-102725000D03*
D18*
X159610000Y-95610000D03*
X127540256Y-96408549D03*
D19*
X156900000Y-112275000D03*
D18*
X162150000Y-95610000D03*
X118970000Y-105770000D03*
X159610000Y-93070000D03*
D19*
X155350000Y-110725000D03*
D18*
X128309744Y-95766883D03*
D19*
X143500000Y-95450000D03*
D18*
X128260000Y-98750000D03*
X121510000Y-93070000D03*
X151990000Y-110850000D03*
D19*
X125000000Y-100350000D03*
D18*
X157070000Y-95610000D03*
X128315256Y-96408549D03*
X134210000Y-95610000D03*
X127550000Y-97050217D03*
X129075000Y-96408549D03*
X128300000Y-95125217D03*
X134210000Y-105770000D03*
D19*
X124150000Y-104625000D03*
X119100000Y-102300000D03*
D18*
X164690000Y-95610000D03*
X164690000Y-105770000D03*
X164690000Y-108310000D03*
X151990000Y-108310000D03*
X129130000Y-103230000D03*
D19*
X117280000Y-100015000D03*
D18*
X124034744Y-95750000D03*
X129084744Y-97050217D03*
X126590000Y-93070000D03*
X164690000Y-110850000D03*
X129130000Y-100690000D03*
D19*
X130275000Y-106050000D03*
D18*
X118970000Y-95610000D03*
D19*
X139100000Y-98800000D03*
X145900000Y-98325000D03*
D18*
X121510000Y-110850000D03*
X154530000Y-105770000D03*
D19*
X143900000Y-102725000D03*
D18*
X124040256Y-96400000D03*
X128325000Y-97050217D03*
X126296855Y-97137496D03*
D19*
X123100000Y-99600000D03*
D18*
X127470000Y-98750000D03*
X122300000Y-90075000D03*
D19*
X148900000Y-99900000D03*
D18*
X154530000Y-95610000D03*
D19*
X149700000Y-104875000D03*
D18*
X129130000Y-105770000D03*
X151990000Y-105770000D03*
X126590000Y-103230000D03*
X155875000Y-103175000D03*
X159610000Y-105770000D03*
X127534744Y-95766883D03*
D19*
X117280000Y-101935000D03*
D18*
X126590000Y-110850000D03*
D19*
X131650000Y-101000000D03*
D18*
X136750000Y-103230000D03*
D19*
X135725000Y-101000000D03*
D18*
X123275000Y-97050000D03*
X151990000Y-93070000D03*
X149450000Y-108310000D03*
D19*
X147950000Y-100737500D03*
X153375000Y-91200000D03*
D18*
X164690000Y-98150000D03*
D19*
X133700000Y-101525000D03*
D18*
X124025000Y-94450000D03*
X164690000Y-100690000D03*
X124050000Y-97050000D03*
D19*
X156900000Y-89650000D03*
X148900000Y-101700000D03*
D18*
X129130000Y-108310000D03*
X139290000Y-103230000D03*
D19*
X123450000Y-104000000D03*
X150000000Y-103175000D03*
D18*
X122300000Y-111925000D03*
X116430000Y-105770000D03*
D19*
X125325000Y-106400000D03*
X152850000Y-112325000D03*
D18*
X127775000Y-91200000D03*
X129130000Y-110850000D03*
X136750000Y-98150000D03*
X162150000Y-105770000D03*
X121300000Y-111975000D03*
X125324931Y-96523282D03*
%TO.N,/NRST*%
X138825000Y-100300000D03*
X139925000Y-89075000D03*
D19*
%TO.N,/BOOT0*%
X145150000Y-112900000D03*
D18*
X147098067Y-97048067D03*
%TO.N,/VREF*%
X138325000Y-101312500D03*
%TO.N,/JTDI*%
X157650000Y-99450000D03*
%TO.N,/PA12*%
X152600000Y-100250000D03*
%TO.N,/PB5*%
X149400000Y-96200000D03*
%TO.N,/ISNS*%
X137625000Y-104975000D03*
X136175000Y-94900000D03*
%TO.N,/PWM1*%
X151500000Y-102625000D03*
X146575000Y-92350000D03*
%TO.N,/PWM2*%
X149675000Y-92975000D03*
X153275000Y-101650000D03*
%TD*%
%TA.AperFunction,Conductor*%
%TO.N,+3V3*%
G36*
X139510170Y-88270185D02*
G01*
X139555925Y-88322989D01*
X139565869Y-88392147D01*
X139536844Y-88455703D01*
X139509103Y-88479494D01*
X139469795Y-88504192D01*
X139354192Y-88619795D01*
X139267210Y-88758225D01*
X139213212Y-88912544D01*
X139194909Y-89074996D01*
X139194909Y-89075003D01*
X139213212Y-89237455D01*
X139266948Y-89391025D01*
X139270509Y-89460804D01*
X139235780Y-89521431D01*
X139173786Y-89553658D01*
X139117813Y-89551754D01*
X138980413Y-89514938D01*
X138980403Y-89514936D01*
X138745001Y-89494341D01*
X138744999Y-89494341D01*
X138509596Y-89514936D01*
X138509586Y-89514938D01*
X138281344Y-89576094D01*
X138281335Y-89576098D01*
X138067171Y-89675964D01*
X138067169Y-89675965D01*
X137873597Y-89811505D01*
X137706505Y-89978597D01*
X137576575Y-90164158D01*
X137521998Y-90207783D01*
X137452500Y-90214977D01*
X137390145Y-90183454D01*
X137373425Y-90164158D01*
X137243494Y-89978597D01*
X137076402Y-89811506D01*
X137076395Y-89811501D01*
X137066045Y-89804254D01*
X137027647Y-89777367D01*
X136882834Y-89675967D01*
X136882830Y-89675965D01*
X136818158Y-89645808D01*
X136668663Y-89576097D01*
X136668659Y-89576096D01*
X136668655Y-89576094D01*
X136440413Y-89514938D01*
X136440403Y-89514936D01*
X136205001Y-89494341D01*
X136204999Y-89494341D01*
X135969596Y-89514936D01*
X135969586Y-89514938D01*
X135741344Y-89576094D01*
X135741335Y-89576098D01*
X135527171Y-89675964D01*
X135527169Y-89675965D01*
X135333597Y-89811505D01*
X135166508Y-89978594D01*
X135036269Y-90164595D01*
X134981692Y-90208219D01*
X134912193Y-90215412D01*
X134849839Y-90183890D01*
X134833119Y-90164594D01*
X134703113Y-89978926D01*
X134703108Y-89978920D01*
X134536082Y-89811894D01*
X134342578Y-89676399D01*
X134128492Y-89576570D01*
X134128486Y-89576567D01*
X133915000Y-89519364D01*
X133915000Y-90416988D01*
X133857993Y-90384075D01*
X133730826Y-90350000D01*
X133599174Y-90350000D01*
X133472007Y-90384075D01*
X133415000Y-90416988D01*
X133415000Y-89519364D01*
X133414999Y-89519364D01*
X133201513Y-89576567D01*
X133201507Y-89576570D01*
X132987422Y-89676399D01*
X132987420Y-89676400D01*
X132793926Y-89811886D01*
X132671865Y-89933947D01*
X132610542Y-89967431D01*
X132540850Y-89962447D01*
X132484917Y-89920575D01*
X132468002Y-89889598D01*
X132460888Y-89870525D01*
X132436483Y-89805090D01*
X132418797Y-89757671D01*
X132418793Y-89757664D01*
X132332547Y-89642455D01*
X132332544Y-89642452D01*
X132217335Y-89556206D01*
X132217328Y-89556202D01*
X132082482Y-89505908D01*
X132082483Y-89505908D01*
X132022883Y-89499501D01*
X132022881Y-89499500D01*
X132022873Y-89499500D01*
X132022864Y-89499500D01*
X130227129Y-89499500D01*
X130227123Y-89499501D01*
X130167516Y-89505908D01*
X130032671Y-89556202D01*
X130032664Y-89556206D01*
X129917455Y-89642452D01*
X129917452Y-89642455D01*
X129831206Y-89757664D01*
X129831202Y-89757671D01*
X129780908Y-89892517D01*
X129774501Y-89952116D01*
X129774500Y-89952135D01*
X129774500Y-91747870D01*
X129774501Y-91747876D01*
X129780908Y-91807483D01*
X129831202Y-91942328D01*
X129831206Y-91942335D01*
X129917452Y-92057544D01*
X129917455Y-92057547D01*
X130032664Y-92143793D01*
X130032671Y-92143797D01*
X130167517Y-92194091D01*
X130167516Y-92194091D01*
X130174444Y-92194835D01*
X130227127Y-92200500D01*
X132022872Y-92200499D01*
X132082483Y-92194091D01*
X132217331Y-92143796D01*
X132332546Y-92057546D01*
X132418796Y-91942331D01*
X132468002Y-91810401D01*
X132509872Y-91754468D01*
X132575337Y-91730050D01*
X132643610Y-91744901D01*
X132671865Y-91766053D01*
X132793917Y-91888105D01*
X132987421Y-92023600D01*
X133201507Y-92123429D01*
X133201516Y-92123433D01*
X133415000Y-92180634D01*
X133415000Y-91283012D01*
X133472007Y-91315925D01*
X133599174Y-91350000D01*
X133730826Y-91350000D01*
X133857993Y-91315925D01*
X133915000Y-91283012D01*
X133915000Y-92180633D01*
X134128483Y-92123433D01*
X134128492Y-92123429D01*
X134342578Y-92023600D01*
X134536082Y-91888105D01*
X134703105Y-91721082D01*
X134833119Y-91535405D01*
X134887696Y-91491781D01*
X134957195Y-91484588D01*
X135019549Y-91516110D01*
X135036269Y-91535405D01*
X135166505Y-91721401D01*
X135333599Y-91888495D01*
X135430384Y-91956265D01*
X135527165Y-92024032D01*
X135527167Y-92024033D01*
X135527170Y-92024035D01*
X135741337Y-92123903D01*
X135969592Y-92185063D01*
X136146034Y-92200500D01*
X136204999Y-92205659D01*
X136205000Y-92205659D01*
X136205001Y-92205659D01*
X136263966Y-92200500D01*
X136440408Y-92185063D01*
X136668663Y-92123903D01*
X136882830Y-92024035D01*
X137076401Y-91888495D01*
X137243495Y-91721401D01*
X137373425Y-91535842D01*
X137428002Y-91492217D01*
X137497500Y-91485023D01*
X137559855Y-91516546D01*
X137576575Y-91535842D01*
X137706500Y-91721395D01*
X137706505Y-91721401D01*
X137873599Y-91888495D01*
X137970384Y-91956265D01*
X138067165Y-92024032D01*
X138067167Y-92024033D01*
X138067170Y-92024035D01*
X138281337Y-92123903D01*
X138509592Y-92185063D01*
X138686034Y-92200500D01*
X138744999Y-92205659D01*
X138745000Y-92205659D01*
X138745001Y-92205659D01*
X138803966Y-92200500D01*
X138980408Y-92185063D01*
X139208663Y-92123903D01*
X139422830Y-92024035D01*
X139616401Y-91888495D01*
X139783495Y-91721401D01*
X139913425Y-91535842D01*
X139968002Y-91492217D01*
X140037500Y-91485023D01*
X140099855Y-91516546D01*
X140116575Y-91535842D01*
X140246500Y-91721395D01*
X140246505Y-91721401D01*
X140413599Y-91888495D01*
X140510384Y-91956265D01*
X140607165Y-92024032D01*
X140607167Y-92024033D01*
X140607170Y-92024035D01*
X140821337Y-92123903D01*
X141049592Y-92185063D01*
X141226034Y-92200500D01*
X141284999Y-92205659D01*
X141285000Y-92205659D01*
X141285001Y-92205659D01*
X141343966Y-92200500D01*
X141520408Y-92185063D01*
X141748663Y-92123903D01*
X141962830Y-92024035D01*
X142156401Y-91888495D01*
X142323495Y-91721401D01*
X142453425Y-91535842D01*
X142508002Y-91492217D01*
X142577500Y-91485023D01*
X142639855Y-91516546D01*
X142656575Y-91535842D01*
X142786500Y-91721395D01*
X142786505Y-91721401D01*
X142953599Y-91888495D01*
X143050384Y-91956265D01*
X143147165Y-92024032D01*
X143147167Y-92024033D01*
X143147170Y-92024035D01*
X143361337Y-92123903D01*
X143589592Y-92185063D01*
X143766034Y-92200500D01*
X143824999Y-92205659D01*
X143825000Y-92205659D01*
X143825001Y-92205659D01*
X143883966Y-92200500D01*
X144060408Y-92185063D01*
X144288663Y-92123903D01*
X144502830Y-92024035D01*
X144696401Y-91888495D01*
X144863495Y-91721401D01*
X144993425Y-91535842D01*
X145048002Y-91492217D01*
X145117500Y-91485023D01*
X145179855Y-91516546D01*
X145196575Y-91535842D01*
X145326500Y-91721395D01*
X145326505Y-91721401D01*
X145493599Y-91888495D01*
X145590384Y-91956265D01*
X145687165Y-92024032D01*
X145687167Y-92024033D01*
X145687170Y-92024035D01*
X145746483Y-92051693D01*
X145791131Y-92072513D01*
X145843570Y-92118686D01*
X145862722Y-92185879D01*
X145861946Y-92198778D01*
X145844909Y-92349995D01*
X145844909Y-92350003D01*
X145863212Y-92512455D01*
X145917210Y-92666774D01*
X146004192Y-92805204D01*
X146119796Y-92920808D01*
X146258225Y-93007789D01*
X146412539Y-93061786D01*
X146412542Y-93061786D01*
X146412544Y-93061787D01*
X146574996Y-93080091D01*
X146575000Y-93080091D01*
X146575004Y-93080091D01*
X146737455Y-93061787D01*
X146737456Y-93061786D01*
X146737461Y-93061786D01*
X146891775Y-93007789D01*
X147030204Y-92920808D01*
X147145808Y-92805204D01*
X147232789Y-92666775D01*
X147286786Y-92512461D01*
X147292769Y-92459361D01*
X147305091Y-92350003D01*
X147305091Y-92349996D01*
X147286787Y-92187544D01*
X147286786Y-92187542D01*
X147286786Y-92187539D01*
X147232789Y-92033225D01*
X147230948Y-92030296D01*
X147230336Y-92028130D01*
X147229769Y-92026952D01*
X147229975Y-92026852D01*
X147211945Y-91963062D01*
X147232309Y-91896225D01*
X147248258Y-91876638D01*
X147317413Y-91807483D01*
X147403495Y-91721401D01*
X147533425Y-91535842D01*
X147588002Y-91492217D01*
X147657500Y-91485023D01*
X147719855Y-91516546D01*
X147736575Y-91535842D01*
X147866500Y-91721395D01*
X147866505Y-91721401D01*
X148033599Y-91888495D01*
X148130384Y-91956265D01*
X148227165Y-92024032D01*
X148227167Y-92024033D01*
X148227170Y-92024035D01*
X148441337Y-92123903D01*
X148669592Y-92185063D01*
X148846034Y-92200500D01*
X148904999Y-92205659D01*
X148905000Y-92205659D01*
X148905001Y-92205659D01*
X148921792Y-92204189D01*
X149128706Y-92186086D01*
X149197203Y-92199852D01*
X149247386Y-92248467D01*
X149263320Y-92316496D01*
X149239945Y-92382339D01*
X149224245Y-92398793D01*
X149224720Y-92399268D01*
X149104192Y-92519795D01*
X149017210Y-92658225D01*
X148963212Y-92812544D01*
X148944909Y-92974996D01*
X148944909Y-92975003D01*
X148963212Y-93137455D01*
X149017210Y-93291774D01*
X149089530Y-93406870D01*
X149104192Y-93430204D01*
X149219796Y-93545808D01*
X149358225Y-93632789D01*
X149512539Y-93686786D01*
X149512542Y-93686786D01*
X149512544Y-93686787D01*
X149674996Y-93705091D01*
X149675000Y-93705091D01*
X149675004Y-93705091D01*
X149837455Y-93686787D01*
X149837456Y-93686786D01*
X149837461Y-93686786D01*
X149991775Y-93632789D01*
X150130204Y-93545808D01*
X150245808Y-93430204D01*
X150332789Y-93291775D01*
X150386786Y-93137461D01*
X150394387Y-93070000D01*
X150394387Y-93069996D01*
X151259909Y-93069996D01*
X151259909Y-93070003D01*
X151278212Y-93232455D01*
X151332210Y-93386774D01*
X151367043Y-93442210D01*
X151419192Y-93525204D01*
X151534796Y-93640808D01*
X151673225Y-93727789D01*
X151827539Y-93781786D01*
X151827542Y-93781786D01*
X151827544Y-93781787D01*
X151989996Y-93800091D01*
X151990000Y-93800091D01*
X151990004Y-93800091D01*
X152152455Y-93781787D01*
X152152456Y-93781786D01*
X152152461Y-93781786D01*
X152306775Y-93727789D01*
X152445204Y-93640808D01*
X152560808Y-93525204D01*
X152647789Y-93386775D01*
X152701786Y-93232461D01*
X152720091Y-93070000D01*
X152716357Y-93036863D01*
X152701787Y-92907544D01*
X152701786Y-92907542D01*
X152701786Y-92907539D01*
X152647789Y-92753225D01*
X152560808Y-92614796D01*
X152445204Y-92499192D01*
X152381807Y-92459357D01*
X152306774Y-92412210D01*
X152152455Y-92358212D01*
X151990004Y-92339909D01*
X151989996Y-92339909D01*
X151827544Y-92358212D01*
X151673225Y-92412210D01*
X151534795Y-92499192D01*
X151419192Y-92614795D01*
X151332210Y-92753225D01*
X151278212Y-92907544D01*
X151259909Y-93069996D01*
X150394387Y-93069996D01*
X150405091Y-92975003D01*
X150405091Y-92974996D01*
X150386787Y-92812544D01*
X150386786Y-92812542D01*
X150386786Y-92812539D01*
X150332789Y-92658225D01*
X150245808Y-92519796D01*
X150130204Y-92404192D01*
X150057031Y-92358214D01*
X149991774Y-92317210D01*
X149837455Y-92263212D01*
X149675004Y-92244909D01*
X149674996Y-92244909D01*
X149673131Y-92245119D01*
X149671932Y-92244909D01*
X149668036Y-92244909D01*
X149668036Y-92244226D01*
X149604310Y-92233061D01*
X149552933Y-92185709D01*
X149535312Y-92118097D01*
X149557042Y-92051693D01*
X149588131Y-92020323D01*
X149609208Y-92005565D01*
X149776401Y-91888495D01*
X149943495Y-91721401D01*
X150079035Y-91527830D01*
X150178903Y-91313663D01*
X150240063Y-91085408D01*
X150260659Y-90850000D01*
X150258980Y-90830815D01*
X150251455Y-90744796D01*
X150240063Y-90614592D01*
X150178903Y-90386337D01*
X150079035Y-90172171D01*
X150073731Y-90164595D01*
X149943494Y-89978597D01*
X149776402Y-89811506D01*
X149776395Y-89811501D01*
X149766045Y-89804254D01*
X149727647Y-89777367D01*
X149582834Y-89675967D01*
X149582830Y-89675965D01*
X149518158Y-89645808D01*
X149473527Y-89624996D01*
X152044435Y-89624996D01*
X152044435Y-89625003D01*
X152064630Y-89804249D01*
X152064631Y-89804254D01*
X152124211Y-89974523D01*
X152187347Y-90075003D01*
X152220184Y-90127262D01*
X152347738Y-90254816D01*
X152500478Y-90350789D01*
X152670745Y-90410368D01*
X152740048Y-90418176D01*
X152804459Y-90445241D01*
X152844015Y-90502836D01*
X152846154Y-90572673D01*
X152813845Y-90629077D01*
X152745183Y-90697739D01*
X152649211Y-90850476D01*
X152589631Y-91020745D01*
X152589630Y-91020750D01*
X152569435Y-91199996D01*
X152569435Y-91200003D01*
X152589630Y-91379249D01*
X152589631Y-91379254D01*
X152649211Y-91549523D01*
X152715615Y-91655204D01*
X152745184Y-91702262D01*
X152872738Y-91829816D01*
X153025478Y-91925789D01*
X153072764Y-91942335D01*
X153195745Y-91985368D01*
X153195750Y-91985369D01*
X153374996Y-92005565D01*
X153375000Y-92005565D01*
X153375004Y-92005565D01*
X153554249Y-91985369D01*
X153554252Y-91985368D01*
X153554255Y-91985368D01*
X153724522Y-91925789D01*
X153877262Y-91829816D01*
X154004816Y-91702262D01*
X154100789Y-91549522D01*
X154160368Y-91379255D01*
X154160369Y-91379249D01*
X154180565Y-91200003D01*
X154180565Y-91199996D01*
X154160369Y-91020750D01*
X154160368Y-91020745D01*
X154122365Y-90912139D01*
X154100789Y-90850478D01*
X154084397Y-90824391D01*
X154059127Y-90784174D01*
X154004816Y-90697738D01*
X153877262Y-90570184D01*
X153832872Y-90542292D01*
X153724523Y-90474211D01*
X153554254Y-90414631D01*
X153554249Y-90414630D01*
X153484953Y-90406823D01*
X153420539Y-90379757D01*
X153380983Y-90322162D01*
X153378846Y-90252325D01*
X153411152Y-90195925D01*
X153479816Y-90127262D01*
X153575789Y-89974522D01*
X153635368Y-89804255D01*
X153635432Y-89803689D01*
X153652749Y-89649996D01*
X156094435Y-89649996D01*
X156094435Y-89650003D01*
X156114630Y-89829249D01*
X156114631Y-89829254D01*
X156174211Y-89999523D01*
X156254475Y-90127262D01*
X156270184Y-90152262D01*
X156397738Y-90279816D01*
X156550478Y-90375789D01*
X156649299Y-90410368D01*
X156720745Y-90435368D01*
X156720750Y-90435369D01*
X156899996Y-90455565D01*
X156900000Y-90455565D01*
X156900004Y-90455565D01*
X157079249Y-90435369D01*
X157079252Y-90435368D01*
X157079255Y-90435368D01*
X157249522Y-90375789D01*
X157402262Y-90279816D01*
X157529816Y-90152262D01*
X157625789Y-89999522D01*
X157685368Y-89829255D01*
X157687368Y-89811505D01*
X157705565Y-89650003D01*
X157705565Y-89649996D01*
X157685369Y-89470750D01*
X157685368Y-89470745D01*
X157666635Y-89417210D01*
X157625789Y-89300478D01*
X157610080Y-89275478D01*
X157529815Y-89147737D01*
X157402262Y-89020184D01*
X157249523Y-88924211D01*
X157079254Y-88864631D01*
X157079249Y-88864630D01*
X156900004Y-88844435D01*
X156899996Y-88844435D01*
X156720750Y-88864630D01*
X156720745Y-88864631D01*
X156550476Y-88924211D01*
X156397737Y-89020184D01*
X156270184Y-89147737D01*
X156174211Y-89300476D01*
X156114631Y-89470745D01*
X156114630Y-89470750D01*
X156094435Y-89649996D01*
X153652749Y-89649996D01*
X153655565Y-89625003D01*
X153655565Y-89624996D01*
X153635369Y-89445750D01*
X153635368Y-89445745D01*
X153629676Y-89429478D01*
X153575789Y-89275478D01*
X153574527Y-89273470D01*
X153536582Y-89213080D01*
X153479816Y-89122738D01*
X153352262Y-88995184D01*
X153315400Y-88972022D01*
X153199523Y-88899211D01*
X153029254Y-88839631D01*
X153029249Y-88839630D01*
X152850004Y-88819435D01*
X152849996Y-88819435D01*
X152670750Y-88839630D01*
X152670745Y-88839631D01*
X152500476Y-88899211D01*
X152347737Y-88995184D01*
X152220184Y-89122737D01*
X152124211Y-89275476D01*
X152064631Y-89445745D01*
X152064630Y-89445750D01*
X152044435Y-89624996D01*
X149473527Y-89624996D01*
X149368663Y-89576097D01*
X149368659Y-89576096D01*
X149368655Y-89576094D01*
X149140413Y-89514938D01*
X149140403Y-89514936D01*
X148905001Y-89494341D01*
X148904999Y-89494341D01*
X148669596Y-89514936D01*
X148669586Y-89514938D01*
X148441344Y-89576094D01*
X148441335Y-89576098D01*
X148227171Y-89675964D01*
X148227169Y-89675965D01*
X148033597Y-89811505D01*
X147866505Y-89978597D01*
X147736575Y-90164158D01*
X147681998Y-90207783D01*
X147612500Y-90214977D01*
X147550145Y-90183454D01*
X147533425Y-90164158D01*
X147403494Y-89978597D01*
X147236402Y-89811506D01*
X147236395Y-89811501D01*
X147226045Y-89804254D01*
X147187647Y-89777367D01*
X147042834Y-89675967D01*
X147042830Y-89675965D01*
X146978158Y-89645808D01*
X146828663Y-89576097D01*
X146828659Y-89576096D01*
X146828655Y-89576094D01*
X146600413Y-89514938D01*
X146600403Y-89514936D01*
X146365001Y-89494341D01*
X146364999Y-89494341D01*
X146129596Y-89514936D01*
X146129586Y-89514938D01*
X145901344Y-89576094D01*
X145901335Y-89576098D01*
X145687171Y-89675964D01*
X145687169Y-89675965D01*
X145493597Y-89811505D01*
X145326505Y-89978597D01*
X145196575Y-90164158D01*
X145141998Y-90207783D01*
X145072500Y-90214977D01*
X145010145Y-90183454D01*
X144993425Y-90164158D01*
X144863494Y-89978597D01*
X144696402Y-89811506D01*
X144696395Y-89811501D01*
X144686045Y-89804254D01*
X144647647Y-89777367D01*
X144502834Y-89675967D01*
X144502830Y-89675965D01*
X144438158Y-89645808D01*
X144288663Y-89576097D01*
X144288659Y-89576096D01*
X144288655Y-89576094D01*
X144060413Y-89514938D01*
X144060403Y-89514936D01*
X143825001Y-89494341D01*
X143824999Y-89494341D01*
X143589596Y-89514936D01*
X143589586Y-89514938D01*
X143361344Y-89576094D01*
X143361335Y-89576098D01*
X143147171Y-89675964D01*
X143147169Y-89675965D01*
X142953597Y-89811505D01*
X142786505Y-89978597D01*
X142656575Y-90164158D01*
X142601998Y-90207783D01*
X142532500Y-90214977D01*
X142470145Y-90183454D01*
X142453425Y-90164158D01*
X142323494Y-89978597D01*
X142156402Y-89811506D01*
X142156395Y-89811501D01*
X142146045Y-89804254D01*
X142107647Y-89777367D01*
X141962834Y-89675967D01*
X141962830Y-89675965D01*
X141898158Y-89645808D01*
X141748663Y-89576097D01*
X141748659Y-89576096D01*
X141748655Y-89576094D01*
X141520413Y-89514938D01*
X141520403Y-89514936D01*
X141285001Y-89494341D01*
X141284999Y-89494341D01*
X141049596Y-89514936D01*
X141049586Y-89514938D01*
X140821344Y-89576094D01*
X140821330Y-89576099D01*
X140701252Y-89632093D01*
X140632175Y-89642585D01*
X140568391Y-89614065D01*
X140530152Y-89555588D01*
X140529598Y-89485721D01*
X140543855Y-89453738D01*
X140549660Y-89444497D01*
X140582789Y-89391775D01*
X140636786Y-89237461D01*
X140636787Y-89237455D01*
X140655091Y-89075003D01*
X140655091Y-89074996D01*
X140636787Y-88912544D01*
X140636786Y-88912542D01*
X140636786Y-88912539D01*
X140582789Y-88758225D01*
X140495808Y-88619796D01*
X140380204Y-88504192D01*
X140340896Y-88479493D01*
X140294606Y-88427159D01*
X140283958Y-88358106D01*
X140312333Y-88294257D01*
X140370723Y-88255885D01*
X140406869Y-88250500D01*
X161934108Y-88250500D01*
X161996754Y-88250500D01*
X162003243Y-88250669D01*
X162333178Y-88267961D01*
X162346086Y-88269318D01*
X162669191Y-88320492D01*
X162681874Y-88323187D01*
X162997881Y-88407861D01*
X163010219Y-88411871D01*
X163315627Y-88529106D01*
X163327470Y-88534378D01*
X163618977Y-88682908D01*
X163630183Y-88689378D01*
X163904565Y-88867564D01*
X163915055Y-88875186D01*
X164094112Y-89020184D01*
X164169293Y-89081064D01*
X164178938Y-89089749D01*
X164410250Y-89321061D01*
X164418935Y-89330706D01*
X164624813Y-89584944D01*
X164632438Y-89595438D01*
X164810617Y-89869810D01*
X164817094Y-89881029D01*
X164965438Y-90172169D01*
X164965616Y-90172519D01*
X164970895Y-90184377D01*
X165088128Y-90489781D01*
X165092139Y-90502124D01*
X165176810Y-90818119D01*
X165179508Y-90830815D01*
X165230681Y-91153913D01*
X165232038Y-91166821D01*
X165249330Y-91496756D01*
X165249500Y-91503246D01*
X165249500Y-92340363D01*
X165229815Y-92407402D01*
X165177011Y-92453157D01*
X165107853Y-92463101D01*
X165059529Y-92445357D01*
X165006777Y-92412211D01*
X164852455Y-92358212D01*
X164719085Y-92343185D01*
X164654671Y-92316118D01*
X164615116Y-92258523D01*
X164612979Y-92188686D01*
X164614572Y-92183115D01*
X164625171Y-92149103D01*
X164684060Y-91827754D01*
X164703786Y-91501650D01*
X164684060Y-91175546D01*
X164625171Y-90854197D01*
X164603351Y-90784174D01*
X164527983Y-90542307D01*
X164527981Y-90542302D01*
X164527977Y-90542289D01*
X164393895Y-90244371D01*
X164224880Y-89964787D01*
X164224878Y-89964784D01*
X164224876Y-89964781D01*
X164023395Y-89707610D01*
X163792389Y-89476604D01*
X163535218Y-89275123D01*
X163527656Y-89270551D01*
X163255629Y-89106105D01*
X162957711Y-88972023D01*
X162957704Y-88972020D01*
X162957692Y-88972016D01*
X162645802Y-88874828D01*
X162324449Y-88815939D01*
X161998350Y-88796214D01*
X161672250Y-88815939D01*
X161350897Y-88874828D01*
X161039007Y-88972016D01*
X161038991Y-88972022D01*
X161038989Y-88972023D01*
X160931980Y-89020184D01*
X160744742Y-89104453D01*
X160741071Y-89106105D01*
X160672202Y-89147738D01*
X160461481Y-89275123D01*
X160204310Y-89476604D01*
X159973304Y-89707610D01*
X159771823Y-89964781D01*
X159705192Y-90075003D01*
X159603803Y-90242721D01*
X159602804Y-90244373D01*
X159602803Y-90244375D01*
X159567794Y-90322162D01*
X159469465Y-90540642D01*
X159468722Y-90542292D01*
X159468716Y-90542307D01*
X159371528Y-90854197D01*
X159312639Y-91175550D01*
X159292914Y-91501650D01*
X159312639Y-91827749D01*
X159371526Y-92149094D01*
X159381354Y-92180633D01*
X159401448Y-92245119D01*
X159402119Y-92247270D01*
X159403269Y-92317131D01*
X159366468Y-92376523D01*
X159324689Y-92401201D01*
X159293226Y-92412210D01*
X159154795Y-92499192D01*
X159039192Y-92614795D01*
X158952210Y-92753225D01*
X158898212Y-92907544D01*
X158879909Y-93069996D01*
X158879909Y-93070003D01*
X158898212Y-93232455D01*
X158952210Y-93386774D01*
X158987043Y-93442210D01*
X159039192Y-93525204D01*
X159154796Y-93640808D01*
X159293225Y-93727789D01*
X159447539Y-93781786D01*
X159447542Y-93781786D01*
X159447544Y-93781787D01*
X159609996Y-93800091D01*
X159610000Y-93800091D01*
X159610004Y-93800091D01*
X159772455Y-93781787D01*
X159772456Y-93781786D01*
X159772461Y-93781786D01*
X159926775Y-93727789D01*
X160065204Y-93640808D01*
X160112618Y-93593393D01*
X160173939Y-93559909D01*
X160243630Y-93564893D01*
X160276769Y-93583463D01*
X160461487Y-93728180D01*
X160741071Y-93897195D01*
X161038989Y-94031277D01*
X161039002Y-94031281D01*
X161039007Y-94031283D01*
X161345602Y-94126821D01*
X161350897Y-94128471D01*
X161672246Y-94187360D01*
X161998350Y-94207086D01*
X162324454Y-94187360D01*
X162645803Y-94128471D01*
X162957711Y-94031277D01*
X163255629Y-93897195D01*
X163535213Y-93728180D01*
X163792386Y-93526698D01*
X163883712Y-93435371D01*
X163945034Y-93401886D01*
X164014725Y-93406870D01*
X164070659Y-93448741D01*
X164076383Y-93457075D01*
X164119192Y-93525204D01*
X164234796Y-93640808D01*
X164373225Y-93727789D01*
X164527539Y-93781786D01*
X164527542Y-93781786D01*
X164527544Y-93781787D01*
X164689996Y-93800091D01*
X164690000Y-93800091D01*
X164690004Y-93800091D01*
X164852455Y-93781787D01*
X164852456Y-93781786D01*
X164852461Y-93781786D01*
X165006775Y-93727789D01*
X165006774Y-93727789D01*
X165006778Y-93727788D01*
X165059528Y-93694643D01*
X165126764Y-93675642D01*
X165193599Y-93696009D01*
X165238814Y-93749277D01*
X165249500Y-93799636D01*
X165249500Y-94880363D01*
X165229815Y-94947402D01*
X165177011Y-94993157D01*
X165107853Y-95003101D01*
X165059529Y-94985357D01*
X165006777Y-94952211D01*
X164871664Y-94904933D01*
X164852461Y-94898214D01*
X164852460Y-94898213D01*
X164852455Y-94898212D01*
X164690004Y-94879909D01*
X164689996Y-94879909D01*
X164527544Y-94898212D01*
X164373225Y-94952210D01*
X164234795Y-95039192D01*
X164119192Y-95154795D01*
X164032210Y-95293225D01*
X163978212Y-95447544D01*
X163959909Y-95609996D01*
X163959909Y-95610003D01*
X163978212Y-95772455D01*
X164032210Y-95926774D01*
X164101809Y-96037539D01*
X164119192Y-96065204D01*
X164234796Y-96180808D01*
X164373225Y-96267789D01*
X164527539Y-96321786D01*
X164527542Y-96321786D01*
X164527544Y-96321787D01*
X164689996Y-96340091D01*
X164690000Y-96340091D01*
X164690004Y-96340091D01*
X164852455Y-96321787D01*
X164852456Y-96321786D01*
X164852461Y-96321786D01*
X165006775Y-96267789D01*
X165006774Y-96267789D01*
X165006778Y-96267788D01*
X165059528Y-96234643D01*
X165126764Y-96215642D01*
X165193599Y-96236009D01*
X165238814Y-96289277D01*
X165249500Y-96339636D01*
X165249500Y-97420363D01*
X165229815Y-97487402D01*
X165177011Y-97533157D01*
X165107853Y-97543101D01*
X165059529Y-97525357D01*
X165006777Y-97492211D01*
X164852455Y-97438212D01*
X164690004Y-97419909D01*
X164689996Y-97419909D01*
X164527544Y-97438212D01*
X164373225Y-97492210D01*
X164234797Y-97579191D01*
X164151558Y-97662430D01*
X164090234Y-97695914D01*
X164020543Y-97690930D01*
X163985212Y-97670601D01*
X163928539Y-97624090D01*
X163928532Y-97624086D01*
X163754733Y-97531188D01*
X163754727Y-97531186D01*
X163583396Y-97479213D01*
X163566129Y-97473975D01*
X163370000Y-97454659D01*
X163173870Y-97473975D01*
X162985266Y-97531188D01*
X162811467Y-97624086D01*
X162806399Y-97627473D01*
X162805305Y-97625836D01*
X162749337Y-97649596D01*
X162680471Y-97637795D01*
X162663843Y-97627109D01*
X162663601Y-97627473D01*
X162658532Y-97624086D01*
X162484733Y-97531188D01*
X162484727Y-97531186D01*
X162313396Y-97479213D01*
X162296129Y-97473975D01*
X162100000Y-97454659D01*
X161903870Y-97473975D01*
X161715266Y-97531188D01*
X161541467Y-97624086D01*
X161541460Y-97624090D01*
X161389116Y-97749116D01*
X161264090Y-97901460D01*
X161264086Y-97901467D01*
X161171188Y-98075266D01*
X161113975Y-98263870D01*
X161094659Y-98460000D01*
X161113975Y-98656129D01*
X161113976Y-98656132D01*
X161162056Y-98814631D01*
X161171188Y-98844733D01*
X161264086Y-99018532D01*
X161267473Y-99023601D01*
X161265836Y-99024694D01*
X161289596Y-99080663D01*
X161277795Y-99149529D01*
X161267109Y-99166156D01*
X161267473Y-99166399D01*
X161264086Y-99171467D01*
X161171188Y-99345266D01*
X161113975Y-99533870D01*
X161094659Y-99730000D01*
X161113975Y-99926129D01*
X161113976Y-99926132D01*
X161169081Y-100107789D01*
X161171188Y-100114733D01*
X161264086Y-100288532D01*
X161267473Y-100293601D01*
X161265836Y-100294694D01*
X161289596Y-100350663D01*
X161277795Y-100419529D01*
X161267109Y-100436156D01*
X161267473Y-100436399D01*
X161264086Y-100441467D01*
X161171188Y-100615266D01*
X161113975Y-100803870D01*
X161094659Y-101000000D01*
X161113975Y-101196129D01*
X161113976Y-101196132D01*
X161165381Y-101365592D01*
X161171188Y-101384733D01*
X161264086Y-101558532D01*
X161267473Y-101563601D01*
X161265836Y-101564694D01*
X161289596Y-101620663D01*
X161277795Y-101689529D01*
X161267109Y-101706156D01*
X161267473Y-101706399D01*
X161264086Y-101711467D01*
X161171188Y-101885266D01*
X161113975Y-102073870D01*
X161094659Y-102270000D01*
X161113975Y-102466129D01*
X161122444Y-102494047D01*
X161164885Y-102633957D01*
X161171188Y-102654733D01*
X161264086Y-102828532D01*
X161267473Y-102833601D01*
X161265836Y-102834694D01*
X161289596Y-102890663D01*
X161277795Y-102959529D01*
X161267109Y-102976156D01*
X161267473Y-102976399D01*
X161264086Y-102981467D01*
X161171188Y-103155266D01*
X161113975Y-103343870D01*
X161094659Y-103540000D01*
X161113975Y-103736129D01*
X161113976Y-103736132D01*
X161167422Y-103912320D01*
X161171188Y-103924733D01*
X161264086Y-104098532D01*
X161264090Y-104098539D01*
X161389116Y-104250883D01*
X161541460Y-104375909D01*
X161541467Y-104375913D01*
X161715266Y-104468811D01*
X161715269Y-104468811D01*
X161715273Y-104468814D01*
X161903868Y-104526024D01*
X162100000Y-104545341D01*
X162296132Y-104526024D01*
X162484727Y-104468814D01*
X162487338Y-104467418D01*
X162488864Y-104467100D01*
X162490355Y-104466483D01*
X162490472Y-104466765D01*
X162555737Y-104453174D01*
X162620106Y-104477510D01*
X162627908Y-104483351D01*
X162762623Y-104533597D01*
X162762627Y-104533598D01*
X162822155Y-104539999D01*
X162822172Y-104540000D01*
X163120000Y-104540000D01*
X163620000Y-104540000D01*
X163917828Y-104540000D01*
X163917844Y-104539999D01*
X163977372Y-104533598D01*
X163977379Y-104533596D01*
X164112086Y-104483354D01*
X164112093Y-104483350D01*
X164227187Y-104397190D01*
X164227190Y-104397187D01*
X164313350Y-104282093D01*
X164313354Y-104282086D01*
X164363596Y-104147379D01*
X164363598Y-104147372D01*
X164369999Y-104087844D01*
X164370000Y-104087827D01*
X164370000Y-103790000D01*
X163620000Y-103790000D01*
X163620000Y-104540000D01*
X163120000Y-104540000D01*
X163120000Y-103784991D01*
X163155088Y-103820079D01*
X163234901Y-103866159D01*
X163323920Y-103890012D01*
X163416080Y-103890012D01*
X163505099Y-103866159D01*
X163584912Y-103820079D01*
X163650079Y-103754912D01*
X163696159Y-103675099D01*
X163720012Y-103586080D01*
X163720012Y-103493920D01*
X163696159Y-103404901D01*
X163650079Y-103325088D01*
X163614991Y-103290000D01*
X164370000Y-103290000D01*
X164370000Y-102992172D01*
X164369999Y-102992155D01*
X164363598Y-102932627D01*
X164363597Y-102932623D01*
X164313351Y-102797908D01*
X164307510Y-102790106D01*
X164283091Y-102724642D01*
X164296752Y-102660466D01*
X164296483Y-102660355D01*
X164297086Y-102658899D01*
X164297418Y-102657338D01*
X164298814Y-102654727D01*
X164356024Y-102466132D01*
X164375341Y-102270000D01*
X164356024Y-102073868D01*
X164298814Y-101885273D01*
X164293067Y-101874522D01*
X164255169Y-101803619D01*
X164205910Y-101711462D01*
X164205907Y-101711458D01*
X164202523Y-101706393D01*
X164204164Y-101705296D01*
X164180405Y-101649361D01*
X164192194Y-101580493D01*
X164202888Y-101563851D01*
X164202523Y-101563607D01*
X164205906Y-101558542D01*
X164205910Y-101558538D01*
X164277106Y-101425338D01*
X164326067Y-101375496D01*
X164394204Y-101360035D01*
X164427418Y-101366752D01*
X164527542Y-101401787D01*
X164689996Y-101420091D01*
X164690000Y-101420091D01*
X164690004Y-101420091D01*
X164852455Y-101401787D01*
X164852456Y-101401786D01*
X164852461Y-101401786D01*
X165006775Y-101347789D01*
X165006774Y-101347789D01*
X165006778Y-101347788D01*
X165059528Y-101314643D01*
X165126764Y-101295642D01*
X165193599Y-101316009D01*
X165238814Y-101369277D01*
X165249500Y-101419636D01*
X165249500Y-105040363D01*
X165229815Y-105107402D01*
X165177011Y-105153157D01*
X165107853Y-105163101D01*
X165059529Y-105145357D01*
X165006777Y-105112211D01*
X164852455Y-105058212D01*
X164690004Y-105039909D01*
X164689996Y-105039909D01*
X164527544Y-105058212D01*
X164373225Y-105112210D01*
X164234795Y-105199192D01*
X164119192Y-105314795D01*
X164032210Y-105453225D01*
X163978212Y-105607544D01*
X163959909Y-105769996D01*
X163959909Y-105770003D01*
X163978212Y-105932455D01*
X164032210Y-106086774D01*
X164032211Y-106086775D01*
X164119192Y-106225204D01*
X164234796Y-106340808D01*
X164373225Y-106427789D01*
X164527539Y-106481786D01*
X164527542Y-106481786D01*
X164527544Y-106481787D01*
X164689996Y-106500091D01*
X164690000Y-106500091D01*
X164690004Y-106500091D01*
X164852455Y-106481787D01*
X164852456Y-106481786D01*
X164852461Y-106481786D01*
X165006775Y-106427789D01*
X165006774Y-106427789D01*
X165006778Y-106427788D01*
X165059528Y-106394643D01*
X165126764Y-106375642D01*
X165193599Y-106396009D01*
X165238814Y-106449277D01*
X165249500Y-106499636D01*
X165249500Y-107580363D01*
X165229815Y-107647402D01*
X165177011Y-107693157D01*
X165107853Y-107703101D01*
X165059529Y-107685357D01*
X165006777Y-107652211D01*
X164852455Y-107598212D01*
X164690004Y-107579909D01*
X164689996Y-107579909D01*
X164527544Y-107598212D01*
X164373225Y-107652210D01*
X164234795Y-107739192D01*
X164119192Y-107854795D01*
X164032210Y-107993225D01*
X163978212Y-108147544D01*
X163959909Y-108309996D01*
X163959909Y-108310005D01*
X163963240Y-108339572D01*
X163951185Y-108408394D01*
X163903835Y-108459772D01*
X163836225Y-108477396D01*
X163769819Y-108455669D01*
X163763547Y-108451065D01*
X163536868Y-108273473D01*
X163529306Y-108268901D01*
X163257279Y-108104455D01*
X162959361Y-107970373D01*
X162959354Y-107970370D01*
X162959342Y-107970366D01*
X162647452Y-107873178D01*
X162326099Y-107814289D01*
X162000000Y-107794564D01*
X161673900Y-107814289D01*
X161352547Y-107873178D01*
X161040657Y-107970366D01*
X161040641Y-107970372D01*
X161040639Y-107970373D01*
X160850933Y-108055752D01*
X160742725Y-108104453D01*
X160742723Y-108104454D01*
X160463131Y-108273473D01*
X160205960Y-108474954D01*
X159974954Y-108705960D01*
X159773473Y-108963131D01*
X159604454Y-109242723D01*
X159604453Y-109242725D01*
X159470372Y-109540642D01*
X159470366Y-109540657D01*
X159373178Y-109852547D01*
X159314289Y-110173900D01*
X159294564Y-110500000D01*
X159314289Y-110826099D01*
X159373178Y-111147452D01*
X159470366Y-111459342D01*
X159470370Y-111459354D01*
X159470373Y-111459361D01*
X159604455Y-111757279D01*
X159752029Y-112001395D01*
X159773473Y-112036868D01*
X159974954Y-112294039D01*
X160205960Y-112525045D01*
X160463131Y-112726526D01*
X160463134Y-112726528D01*
X160463137Y-112726530D01*
X160742721Y-112895545D01*
X161040639Y-113029627D01*
X161040652Y-113029631D01*
X161040657Y-113029633D01*
X161299747Y-113110368D01*
X161352547Y-113126821D01*
X161673896Y-113185710D01*
X162000000Y-113205436D01*
X162326104Y-113185710D01*
X162647453Y-113126821D01*
X162959361Y-113029627D01*
X163257279Y-112895545D01*
X163536863Y-112726530D01*
X163794036Y-112525048D01*
X164025048Y-112294036D01*
X164226530Y-112036863D01*
X164395545Y-111757279D01*
X164448544Y-111639517D01*
X164494007Y-111586465D01*
X164560937Y-111566412D01*
X164575498Y-111567189D01*
X164636523Y-111574065D01*
X164689998Y-111580091D01*
X164690000Y-111580091D01*
X164690004Y-111580091D01*
X164852457Y-111561787D01*
X164859243Y-111560238D01*
X164859736Y-111562397D01*
X164918938Y-111559360D01*
X164979574Y-111594074D01*
X165011817Y-111656059D01*
X165005908Y-111724408D01*
X164970895Y-111815622D01*
X164965616Y-111827480D01*
X164817098Y-112118964D01*
X164810612Y-112130197D01*
X164705683Y-112291774D01*
X164632442Y-112404555D01*
X164624813Y-112415055D01*
X164418935Y-112669293D01*
X164410250Y-112678938D01*
X164178938Y-112910250D01*
X164169293Y-112918935D01*
X163915055Y-113124813D01*
X163904555Y-113132442D01*
X163630197Y-113310612D01*
X163618964Y-113317098D01*
X163327480Y-113465616D01*
X163315622Y-113470895D01*
X163010218Y-113588128D01*
X162997875Y-113592139D01*
X162681880Y-113676810D01*
X162669184Y-113679508D01*
X162346086Y-113730681D01*
X162333178Y-113732038D01*
X162003244Y-113749330D01*
X161996754Y-113749500D01*
X145731158Y-113749500D01*
X145664119Y-113729815D01*
X145618364Y-113677011D01*
X145608420Y-113607853D01*
X145637445Y-113544297D01*
X145647368Y-113534770D01*
X145647338Y-113534740D01*
X145713512Y-113468566D01*
X145779816Y-113402262D01*
X145875789Y-113249522D01*
X145935368Y-113079255D01*
X145937496Y-113060368D01*
X145955565Y-112900003D01*
X145955565Y-112899996D01*
X145935369Y-112720750D01*
X145935366Y-112720737D01*
X145894041Y-112602638D01*
X145890479Y-112532859D01*
X145925207Y-112472232D01*
X145987200Y-112440004D01*
X146043175Y-112441908D01*
X146129592Y-112465063D01*
X146306034Y-112480500D01*
X146364999Y-112485659D01*
X146365000Y-112485659D01*
X146365001Y-112485659D01*
X146423966Y-112480500D01*
X146600408Y-112465063D01*
X146828663Y-112403903D01*
X147042830Y-112304035D01*
X147236401Y-112168495D01*
X147403495Y-112001401D01*
X147533425Y-111815842D01*
X147588002Y-111772217D01*
X147657500Y-111765023D01*
X147719855Y-111796546D01*
X147736575Y-111815842D01*
X147866500Y-112001395D01*
X147866505Y-112001401D01*
X148033599Y-112168495D01*
X148130384Y-112236265D01*
X148227165Y-112304032D01*
X148227167Y-112304033D01*
X148227170Y-112304035D01*
X148441337Y-112403903D01*
X148669592Y-112465063D01*
X148846034Y-112480500D01*
X148904999Y-112485659D01*
X148905000Y-112485659D01*
X148905001Y-112485659D01*
X148963966Y-112480500D01*
X149140408Y-112465063D01*
X149368663Y-112403903D01*
X149582830Y-112304035D01*
X149776401Y-112168495D01*
X149943495Y-112001401D01*
X150079035Y-111807830D01*
X150178903Y-111593663D01*
X150240063Y-111365408D01*
X150260659Y-111130000D01*
X150240063Y-110894592D01*
X150228114Y-110849996D01*
X151259909Y-110849996D01*
X151259909Y-110850003D01*
X151278212Y-111012455D01*
X151332210Y-111166774D01*
X151395319Y-111267210D01*
X151419192Y-111305204D01*
X151534796Y-111420808D01*
X151673225Y-111507789D01*
X151827539Y-111561786D01*
X151827542Y-111561786D01*
X151827544Y-111561787D01*
X151989996Y-111580091D01*
X151990000Y-111580091D01*
X151990004Y-111580091D01*
X152152456Y-111561787D01*
X152152459Y-111561786D01*
X152152461Y-111561786D01*
X152152462Y-111561785D01*
X152158707Y-111560360D01*
X152228446Y-111564626D01*
X152284808Y-111605919D01*
X152309897Y-111671129D01*
X152295749Y-111739551D01*
X152273993Y-111768928D01*
X152220184Y-111822737D01*
X152124211Y-111975476D01*
X152064631Y-112145745D01*
X152064630Y-112145750D01*
X152044435Y-112324996D01*
X152044435Y-112325003D01*
X152064630Y-112504249D01*
X152064631Y-112504254D01*
X152124211Y-112674523D01*
X152188767Y-112777262D01*
X152220184Y-112827262D01*
X152347738Y-112954816D01*
X152500478Y-113050789D01*
X152585573Y-113080565D01*
X152670745Y-113110368D01*
X152670750Y-113110369D01*
X152849996Y-113130565D01*
X152850000Y-113130565D01*
X152850004Y-113130565D01*
X153029249Y-113110369D01*
X153029252Y-113110368D01*
X153029255Y-113110368D01*
X153199522Y-113050789D01*
X153352262Y-112954816D01*
X153479816Y-112827262D01*
X153575789Y-112674522D01*
X153635368Y-112504255D01*
X153636320Y-112495807D01*
X153655565Y-112325003D01*
X153655565Y-112324996D01*
X153649931Y-112274996D01*
X156094435Y-112274996D01*
X156094435Y-112275003D01*
X156114630Y-112454249D01*
X156114631Y-112454254D01*
X156174211Y-112624523D01*
X156224836Y-112705091D01*
X156270184Y-112777262D01*
X156397738Y-112904816D01*
X156550478Y-113000789D01*
X156693367Y-113050788D01*
X156720745Y-113060368D01*
X156720750Y-113060369D01*
X156899996Y-113080565D01*
X156900000Y-113080565D01*
X156900004Y-113080565D01*
X157079249Y-113060369D01*
X157079252Y-113060368D01*
X157079255Y-113060368D01*
X157249522Y-113000789D01*
X157402262Y-112904816D01*
X157529816Y-112777262D01*
X157625789Y-112624522D01*
X157685368Y-112454255D01*
X157688800Y-112423796D01*
X157705565Y-112275003D01*
X157705565Y-112274996D01*
X157685369Y-112095750D01*
X157685368Y-112095745D01*
X157682467Y-112087455D01*
X157625789Y-111925478D01*
X157529816Y-111772738D01*
X157402262Y-111645184D01*
X157393248Y-111639520D01*
X157249523Y-111549211D01*
X157079254Y-111489631D01*
X157079249Y-111489630D01*
X156900004Y-111469435D01*
X156899996Y-111469435D01*
X156720750Y-111489630D01*
X156720745Y-111489631D01*
X156550476Y-111549211D01*
X156397737Y-111645184D01*
X156270184Y-111772737D01*
X156174211Y-111925476D01*
X156114631Y-112095745D01*
X156114630Y-112095750D01*
X156094435Y-112274996D01*
X153649931Y-112274996D01*
X153635369Y-112145750D01*
X153635368Y-112145745D01*
X153629930Y-112130205D01*
X153575789Y-111975478D01*
X153479816Y-111822738D01*
X153352262Y-111695184D01*
X153313979Y-111671129D01*
X153199523Y-111599211D01*
X153029254Y-111539631D01*
X153029249Y-111539630D01*
X152850004Y-111519435D01*
X152849996Y-111519435D01*
X152670750Y-111539630D01*
X152670738Y-111539633D01*
X152653812Y-111545556D01*
X152584033Y-111549117D01*
X152523406Y-111514387D01*
X152491180Y-111452393D01*
X152497586Y-111382818D01*
X152525177Y-111340834D01*
X152560808Y-111305204D01*
X152647789Y-111166775D01*
X152701786Y-111012461D01*
X152713979Y-110904249D01*
X152720091Y-110850003D01*
X152720091Y-110849996D01*
X152706007Y-110724996D01*
X154544435Y-110724996D01*
X154544435Y-110725003D01*
X154564630Y-110904249D01*
X154564631Y-110904254D01*
X154624211Y-111074523D01*
X154699855Y-111194909D01*
X154720184Y-111227262D01*
X154847738Y-111354816D01*
X154864603Y-111365413D01*
X154952763Y-111420808D01*
X155000478Y-111450789D01*
X155054797Y-111469796D01*
X155170745Y-111510368D01*
X155170750Y-111510369D01*
X155349996Y-111530565D01*
X155350000Y-111530565D01*
X155350004Y-111530565D01*
X155529249Y-111510369D01*
X155529252Y-111510368D01*
X155529255Y-111510368D01*
X155699522Y-111450789D01*
X155852262Y-111354816D01*
X155979816Y-111227262D01*
X156075789Y-111074522D01*
X156135368Y-110904255D01*
X156135369Y-110904249D01*
X156155565Y-110725003D01*
X156155565Y-110724996D01*
X156135369Y-110545750D01*
X156135368Y-110545745D01*
X156118225Y-110496753D01*
X156075789Y-110375478D01*
X155979816Y-110222738D01*
X155852262Y-110095184D01*
X155846401Y-110091501D01*
X155699523Y-109999211D01*
X155529254Y-109939631D01*
X155529249Y-109939630D01*
X155350004Y-109919435D01*
X155349996Y-109919435D01*
X155170750Y-109939630D01*
X155170745Y-109939631D01*
X155000476Y-109999211D01*
X154847737Y-110095184D01*
X154720184Y-110222737D01*
X154624211Y-110375476D01*
X154564631Y-110545745D01*
X154564630Y-110545750D01*
X154544435Y-110724996D01*
X152706007Y-110724996D01*
X152701787Y-110687544D01*
X152701786Y-110687542D01*
X152701786Y-110687539D01*
X152647789Y-110533225D01*
X152560808Y-110394796D01*
X152445204Y-110279192D01*
X152371940Y-110233157D01*
X152306774Y-110192210D01*
X152152455Y-110138212D01*
X151990004Y-110119909D01*
X151989996Y-110119909D01*
X151827544Y-110138212D01*
X151673225Y-110192210D01*
X151534795Y-110279192D01*
X151419192Y-110394795D01*
X151332210Y-110533225D01*
X151278212Y-110687544D01*
X151259909Y-110849996D01*
X150228114Y-110849996D01*
X150178903Y-110666337D01*
X150079035Y-110452171D01*
X150073995Y-110444972D01*
X149943494Y-110258597D01*
X149776402Y-110091506D01*
X149776395Y-110091501D01*
X149582834Y-109955967D01*
X149582830Y-109955965D01*
X149547802Y-109939631D01*
X149368663Y-109856097D01*
X149368659Y-109856096D01*
X149368655Y-109856094D01*
X149140413Y-109794938D01*
X149140403Y-109794936D01*
X148905001Y-109774341D01*
X148904999Y-109774341D01*
X148669596Y-109794936D01*
X148669586Y-109794938D01*
X148441344Y-109856094D01*
X148441335Y-109856098D01*
X148227171Y-109955964D01*
X148227169Y-109955965D01*
X148033597Y-110091505D01*
X147866505Y-110258597D01*
X147736575Y-110444158D01*
X147681998Y-110487783D01*
X147612500Y-110494977D01*
X147550145Y-110463454D01*
X147533425Y-110444158D01*
X147403494Y-110258597D01*
X147236402Y-110091506D01*
X147236395Y-110091501D01*
X147042834Y-109955967D01*
X147042830Y-109955965D01*
X147007802Y-109939631D01*
X146828663Y-109856097D01*
X146828659Y-109856096D01*
X146828655Y-109856094D01*
X146600413Y-109794938D01*
X146600403Y-109794936D01*
X146365001Y-109774341D01*
X146364999Y-109774341D01*
X146129596Y-109794936D01*
X146129586Y-109794938D01*
X145901344Y-109856094D01*
X145901335Y-109856098D01*
X145687171Y-109955964D01*
X145687169Y-109955965D01*
X145493597Y-110091505D01*
X145326505Y-110258597D01*
X145196575Y-110444158D01*
X145141998Y-110487783D01*
X145072500Y-110494977D01*
X145010145Y-110463454D01*
X144993425Y-110444158D01*
X144863494Y-110258597D01*
X144696402Y-110091506D01*
X144696395Y-110091501D01*
X144502834Y-109955967D01*
X144502830Y-109955965D01*
X144467802Y-109939631D01*
X144288663Y-109856097D01*
X144288659Y-109856096D01*
X144288655Y-109856094D01*
X144060413Y-109794938D01*
X144060403Y-109794936D01*
X143825001Y-109774341D01*
X143824999Y-109774341D01*
X143589596Y-109794936D01*
X143589586Y-109794938D01*
X143361344Y-109856094D01*
X143361335Y-109856098D01*
X143147171Y-109955964D01*
X143147169Y-109955965D01*
X142953597Y-110091505D01*
X142786505Y-110258597D01*
X142656575Y-110444158D01*
X142601998Y-110487783D01*
X142532500Y-110494977D01*
X142470145Y-110463454D01*
X142453425Y-110444158D01*
X142323494Y-110258597D01*
X142156402Y-110091506D01*
X142156395Y-110091501D01*
X141962834Y-109955967D01*
X141962830Y-109955965D01*
X141927802Y-109939631D01*
X141748663Y-109856097D01*
X141748659Y-109856096D01*
X141748655Y-109856094D01*
X141520413Y-109794938D01*
X141520403Y-109794936D01*
X141285001Y-109774341D01*
X141284999Y-109774341D01*
X141049596Y-109794936D01*
X141049586Y-109794938D01*
X140821344Y-109856094D01*
X140821335Y-109856098D01*
X140607171Y-109955964D01*
X140607169Y-109955965D01*
X140413597Y-110091505D01*
X140246505Y-110258597D01*
X140116575Y-110444158D01*
X140061998Y-110487783D01*
X139992500Y-110494977D01*
X139930145Y-110463454D01*
X139913425Y-110444158D01*
X139783494Y-110258597D01*
X139616402Y-110091506D01*
X139616395Y-110091501D01*
X139422834Y-109955967D01*
X139422830Y-109955965D01*
X139387802Y-109939631D01*
X139208663Y-109856097D01*
X139208659Y-109856096D01*
X139208655Y-109856094D01*
X138980413Y-109794938D01*
X138980403Y-109794936D01*
X138745001Y-109774341D01*
X138744999Y-109774341D01*
X138509596Y-109794936D01*
X138509586Y-109794938D01*
X138281344Y-109856094D01*
X138281335Y-109856098D01*
X138067171Y-109955964D01*
X138067169Y-109955965D01*
X137873597Y-110091505D01*
X137706505Y-110258597D01*
X137576575Y-110444158D01*
X137521998Y-110487783D01*
X137452500Y-110494977D01*
X137390145Y-110463454D01*
X137373425Y-110444158D01*
X137243494Y-110258597D01*
X137076402Y-110091506D01*
X137076395Y-110091501D01*
X136882834Y-109955967D01*
X136882830Y-109955965D01*
X136847802Y-109939631D01*
X136668663Y-109856097D01*
X136668659Y-109856096D01*
X136668655Y-109856094D01*
X136440413Y-109794938D01*
X136440403Y-109794936D01*
X136205001Y-109774341D01*
X136204999Y-109774341D01*
X135969596Y-109794936D01*
X135969586Y-109794938D01*
X135741344Y-109856094D01*
X135741335Y-109856098D01*
X135527171Y-109955964D01*
X135527169Y-109955965D01*
X135333597Y-110091505D01*
X135166505Y-110258597D01*
X135036575Y-110444158D01*
X134981998Y-110487783D01*
X134912500Y-110494977D01*
X134850145Y-110463454D01*
X134833425Y-110444158D01*
X134703494Y-110258597D01*
X134536402Y-110091506D01*
X134536395Y-110091501D01*
X134342834Y-109955967D01*
X134342830Y-109955965D01*
X134307802Y-109939631D01*
X134128663Y-109856097D01*
X134128659Y-109856096D01*
X134128655Y-109856094D01*
X133900413Y-109794938D01*
X133900403Y-109794936D01*
X133665001Y-109774341D01*
X133664999Y-109774341D01*
X133429596Y-109794936D01*
X133429586Y-109794938D01*
X133201344Y-109856094D01*
X133201335Y-109856098D01*
X132987171Y-109955964D01*
X132987169Y-109955965D01*
X132793600Y-110091503D01*
X132671673Y-110213430D01*
X132610350Y-110246914D01*
X132540658Y-110241930D01*
X132484725Y-110200058D01*
X132467810Y-110169081D01*
X132418797Y-110037671D01*
X132418793Y-110037664D01*
X132332547Y-109922455D01*
X132332544Y-109922452D01*
X132217335Y-109836206D01*
X132217328Y-109836202D01*
X132082482Y-109785908D01*
X132082483Y-109785908D01*
X132022883Y-109779501D01*
X132022881Y-109779500D01*
X132022873Y-109779500D01*
X132022864Y-109779500D01*
X130227129Y-109779500D01*
X130227123Y-109779501D01*
X130167516Y-109785908D01*
X130032671Y-109836202D01*
X130032664Y-109836206D01*
X129917455Y-109922452D01*
X129917452Y-109922455D01*
X129831206Y-110037664D01*
X129831202Y-110037671D01*
X129780908Y-110172516D01*
X129778996Y-110190304D01*
X129752256Y-110254855D01*
X129694862Y-110294701D01*
X129625037Y-110297192D01*
X129589735Y-110282039D01*
X129446774Y-110192210D01*
X129292455Y-110138212D01*
X129130004Y-110119909D01*
X129129996Y-110119909D01*
X128967544Y-110138212D01*
X128813225Y-110192210D01*
X128674795Y-110279192D01*
X128559192Y-110394795D01*
X128472210Y-110533225D01*
X128418212Y-110687544D01*
X128399909Y-110849996D01*
X128399909Y-110850003D01*
X128418212Y-111012455D01*
X128472210Y-111166774D01*
X128535319Y-111267210D01*
X128559192Y-111305204D01*
X128674796Y-111420808D01*
X128813225Y-111507789D01*
X128967539Y-111561786D01*
X128967542Y-111561786D01*
X128967544Y-111561787D01*
X129129996Y-111580091D01*
X129130000Y-111580091D01*
X129130004Y-111580091D01*
X129292455Y-111561787D01*
X129292456Y-111561786D01*
X129292461Y-111561786D01*
X129446775Y-111507789D01*
X129584528Y-111421232D01*
X129651764Y-111402232D01*
X129718599Y-111422599D01*
X129763814Y-111475867D01*
X129774500Y-111526226D01*
X129774500Y-112027870D01*
X129774501Y-112027876D01*
X129780908Y-112087483D01*
X129831202Y-112222328D01*
X129831206Y-112222335D01*
X129917452Y-112337544D01*
X129917455Y-112337547D01*
X130032664Y-112423793D01*
X130032671Y-112423797D01*
X130167517Y-112474091D01*
X130167516Y-112474091D01*
X130174444Y-112474835D01*
X130227127Y-112480500D01*
X132022872Y-112480499D01*
X132082483Y-112474091D01*
X132217331Y-112423796D01*
X132332546Y-112337546D01*
X132418796Y-112222331D01*
X132467810Y-112090916D01*
X132509681Y-112034984D01*
X132575145Y-112010566D01*
X132643418Y-112025417D01*
X132671673Y-112046569D01*
X132793599Y-112168495D01*
X132890384Y-112236265D01*
X132987165Y-112304032D01*
X132987167Y-112304033D01*
X132987170Y-112304035D01*
X133201337Y-112403903D01*
X133429592Y-112465063D01*
X133606034Y-112480500D01*
X133664999Y-112485659D01*
X133665000Y-112485659D01*
X133665001Y-112485659D01*
X133723966Y-112480500D01*
X133900408Y-112465063D01*
X134128663Y-112403903D01*
X134342830Y-112304035D01*
X134536401Y-112168495D01*
X134703495Y-112001401D01*
X134833425Y-111815842D01*
X134888002Y-111772217D01*
X134957500Y-111765023D01*
X135019855Y-111796546D01*
X135036575Y-111815842D01*
X135166500Y-112001395D01*
X135166505Y-112001401D01*
X135333599Y-112168495D01*
X135430384Y-112236265D01*
X135527165Y-112304032D01*
X135527167Y-112304033D01*
X135527170Y-112304035D01*
X135741337Y-112403903D01*
X135969592Y-112465063D01*
X136146034Y-112480500D01*
X136204999Y-112485659D01*
X136205000Y-112485659D01*
X136205001Y-112485659D01*
X136263966Y-112480500D01*
X136440408Y-112465063D01*
X136668663Y-112403903D01*
X136882830Y-112304035D01*
X137076401Y-112168495D01*
X137243495Y-112001401D01*
X137373425Y-111815842D01*
X137428002Y-111772217D01*
X137497500Y-111765023D01*
X137559855Y-111796546D01*
X137576575Y-111815842D01*
X137706500Y-112001395D01*
X137706505Y-112001401D01*
X137873599Y-112168495D01*
X137970384Y-112236265D01*
X138067165Y-112304032D01*
X138067167Y-112304033D01*
X138067170Y-112304035D01*
X138281337Y-112403903D01*
X138509592Y-112465063D01*
X138686034Y-112480500D01*
X138744999Y-112485659D01*
X138745000Y-112485659D01*
X138745001Y-112485659D01*
X138803966Y-112480500D01*
X138980408Y-112465063D01*
X139208663Y-112403903D01*
X139422830Y-112304035D01*
X139616401Y-112168495D01*
X139783495Y-112001401D01*
X139913425Y-111815842D01*
X139968002Y-111772217D01*
X140037500Y-111765023D01*
X140099855Y-111796546D01*
X140116575Y-111815842D01*
X140246500Y-112001395D01*
X140246505Y-112001401D01*
X140413599Y-112168495D01*
X140510384Y-112236265D01*
X140607165Y-112304032D01*
X140607167Y-112304033D01*
X140607170Y-112304035D01*
X140821337Y-112403903D01*
X141049592Y-112465063D01*
X141226034Y-112480500D01*
X141284999Y-112485659D01*
X141285000Y-112485659D01*
X141285001Y-112485659D01*
X141343966Y-112480500D01*
X141520408Y-112465063D01*
X141748663Y-112403903D01*
X141962830Y-112304035D01*
X142156401Y-112168495D01*
X142323495Y-112001401D01*
X142453425Y-111815842D01*
X142508002Y-111772217D01*
X142577500Y-111765023D01*
X142639855Y-111796546D01*
X142656575Y-111815842D01*
X142786500Y-112001395D01*
X142786505Y-112001401D01*
X142953599Y-112168495D01*
X143050384Y-112236265D01*
X143147165Y-112304032D01*
X143147167Y-112304033D01*
X143147170Y-112304035D01*
X143361337Y-112403903D01*
X143589592Y-112465063D01*
X143766034Y-112480500D01*
X143824999Y-112485659D01*
X143825000Y-112485659D01*
X143825001Y-112485659D01*
X143883966Y-112480500D01*
X144060408Y-112465063D01*
X144268204Y-112409385D01*
X144338054Y-112411048D01*
X144395916Y-112450211D01*
X144423420Y-112514439D01*
X144417339Y-112570114D01*
X144364632Y-112720742D01*
X144364630Y-112720750D01*
X144344435Y-112899996D01*
X144344435Y-112900003D01*
X144364630Y-113079249D01*
X144364631Y-113079254D01*
X144424211Y-113249523D01*
X144520184Y-113402262D01*
X144652662Y-113534740D01*
X144651390Y-113536011D01*
X144686295Y-113585740D01*
X144689145Y-113655552D01*
X144653800Y-113715822D01*
X144591482Y-113747416D01*
X144568842Y-113749500D01*
X118003246Y-113749500D01*
X117996756Y-113749330D01*
X117666821Y-113732038D01*
X117653913Y-113730681D01*
X117330815Y-113679508D01*
X117318119Y-113676810D01*
X117002124Y-113592139D01*
X116989781Y-113588128D01*
X116684377Y-113470895D01*
X116672519Y-113465616D01*
X116381029Y-113317094D01*
X116369810Y-113310617D01*
X116095438Y-113132438D01*
X116084944Y-113124813D01*
X115830706Y-112918935D01*
X115821061Y-112910250D01*
X115589749Y-112678938D01*
X115581064Y-112669293D01*
X115375186Y-112415055D01*
X115367564Y-112404565D01*
X115189378Y-112130183D01*
X115182908Y-112118977D01*
X115034378Y-111827470D01*
X115029104Y-111815622D01*
X115026114Y-111807834D01*
X114923162Y-111539632D01*
X114911871Y-111510218D01*
X114907860Y-111497875D01*
X114905651Y-111489632D01*
X114823187Y-111181874D01*
X114820491Y-111169184D01*
X114820109Y-111166775D01*
X114769318Y-110846086D01*
X114767961Y-110833178D01*
X114750670Y-110503243D01*
X114750585Y-110500000D01*
X115294564Y-110500000D01*
X115314289Y-110826099D01*
X115373178Y-111147452D01*
X115470366Y-111459342D01*
X115470370Y-111459354D01*
X115470373Y-111459361D01*
X115604455Y-111757279D01*
X115752029Y-112001395D01*
X115773473Y-112036868D01*
X115974954Y-112294039D01*
X116205960Y-112525045D01*
X116463131Y-112726526D01*
X116463134Y-112726528D01*
X116463137Y-112726530D01*
X116742721Y-112895545D01*
X117040639Y-113029627D01*
X117040652Y-113029631D01*
X117040657Y-113029633D01*
X117299747Y-113110368D01*
X117352547Y-113126821D01*
X117673896Y-113185710D01*
X118000000Y-113205436D01*
X118326104Y-113185710D01*
X118647453Y-113126821D01*
X118959361Y-113029627D01*
X119257279Y-112895545D01*
X119536863Y-112726530D01*
X119794036Y-112525048D01*
X120025048Y-112294036D01*
X120226530Y-112036863D01*
X120347325Y-111837044D01*
X120398849Y-111789859D01*
X120467709Y-111778020D01*
X120532037Y-111805288D01*
X120571412Y-111863007D01*
X120576660Y-111915078D01*
X120569909Y-111975003D01*
X120588212Y-112137455D01*
X120588213Y-112137460D01*
X120588214Y-112137461D01*
X120595379Y-112157939D01*
X120642210Y-112291774D01*
X120716502Y-112410008D01*
X120729192Y-112430204D01*
X120844796Y-112545808D01*
X120983225Y-112632789D01*
X121137539Y-112686786D01*
X121137542Y-112686786D01*
X121137544Y-112686787D01*
X121299996Y-112705091D01*
X121300000Y-112705091D01*
X121300004Y-112705091D01*
X121462455Y-112686787D01*
X121462456Y-112686786D01*
X121462461Y-112686786D01*
X121616775Y-112632789D01*
X121755204Y-112545808D01*
X121755208Y-112545803D01*
X121760647Y-112541467D01*
X121762602Y-112543919D01*
X121811662Y-112517016D01*
X121881362Y-112521875D01*
X121904210Y-112533141D01*
X121963053Y-112570114D01*
X121983225Y-112582789D01*
X122137539Y-112636786D01*
X122137542Y-112636786D01*
X122137544Y-112636787D01*
X122299996Y-112655091D01*
X122300000Y-112655091D01*
X122300004Y-112655091D01*
X122462455Y-112636787D01*
X122462456Y-112636786D01*
X122462461Y-112636786D01*
X122616775Y-112582789D01*
X122755204Y-112495808D01*
X122870808Y-112380204D01*
X122957789Y-112241775D01*
X123011786Y-112087461D01*
X123011787Y-112087455D01*
X123030091Y-111925003D01*
X123030091Y-111924996D01*
X123011787Y-111762544D01*
X123011786Y-111762542D01*
X123011786Y-111762539D01*
X122957789Y-111608225D01*
X122870808Y-111469796D01*
X122755204Y-111354192D01*
X122716017Y-111329569D01*
X122616774Y-111267210D01*
X122462455Y-111213212D01*
X122317845Y-111196919D01*
X122253431Y-111169852D01*
X122213876Y-111112258D01*
X122211739Y-111042421D01*
X122214678Y-111032771D01*
X122221786Y-111012461D01*
X122233979Y-110904249D01*
X122240091Y-110850003D01*
X122240091Y-110849996D01*
X125859909Y-110849996D01*
X125859909Y-110850003D01*
X125878212Y-111012455D01*
X125932210Y-111166774D01*
X125995319Y-111267210D01*
X126019192Y-111305204D01*
X126134796Y-111420808D01*
X126273225Y-111507789D01*
X126427539Y-111561786D01*
X126427542Y-111561786D01*
X126427544Y-111561787D01*
X126589996Y-111580091D01*
X126590000Y-111580091D01*
X126590004Y-111580091D01*
X126752455Y-111561787D01*
X126752456Y-111561786D01*
X126752461Y-111561786D01*
X126906775Y-111507789D01*
X127045204Y-111420808D01*
X127160808Y-111305204D01*
X127247789Y-111166775D01*
X127301786Y-111012461D01*
X127313979Y-110904249D01*
X127320091Y-110850003D01*
X127320091Y-110849996D01*
X127301787Y-110687544D01*
X127301786Y-110687542D01*
X127301786Y-110687539D01*
X127247789Y-110533225D01*
X127160808Y-110394796D01*
X127045204Y-110279192D01*
X126971940Y-110233157D01*
X126906774Y-110192210D01*
X126752455Y-110138212D01*
X126590004Y-110119909D01*
X126589996Y-110119909D01*
X126427544Y-110138212D01*
X126273225Y-110192210D01*
X126134795Y-110279192D01*
X126019192Y-110394795D01*
X125932210Y-110533225D01*
X125878212Y-110687544D01*
X125859909Y-110849996D01*
X122240091Y-110849996D01*
X122221787Y-110687544D01*
X122221786Y-110687542D01*
X122221786Y-110687539D01*
X122167789Y-110533225D01*
X122080808Y-110394796D01*
X121965204Y-110279192D01*
X121891940Y-110233157D01*
X121826774Y-110192210D01*
X121672455Y-110138212D01*
X121510004Y-110119909D01*
X121509996Y-110119909D01*
X121347544Y-110138212D01*
X121193225Y-110192210D01*
X121054795Y-110279192D01*
X120939191Y-110394796D01*
X120925606Y-110416416D01*
X120873269Y-110462704D01*
X120804215Y-110473350D01*
X120740368Y-110444972D01*
X120701999Y-110386580D01*
X120696842Y-110357932D01*
X120685710Y-110173896D01*
X120626821Y-109852547D01*
X120529627Y-109540639D01*
X120395545Y-109242721D01*
X120226530Y-108963137D01*
X120226528Y-108963134D01*
X120226526Y-108963131D01*
X120025045Y-108705960D01*
X119794039Y-108474954D01*
X119583486Y-108309996D01*
X120779909Y-108309996D01*
X120779909Y-108310003D01*
X120798212Y-108472455D01*
X120852210Y-108626774D01*
X120852211Y-108626775D01*
X120939192Y-108765204D01*
X121054796Y-108880808D01*
X121193225Y-108967789D01*
X121347539Y-109021786D01*
X121347542Y-109021786D01*
X121347544Y-109021787D01*
X121509996Y-109040091D01*
X121510000Y-109040091D01*
X121510004Y-109040091D01*
X121672455Y-109021787D01*
X121672456Y-109021786D01*
X121672461Y-109021786D01*
X121826775Y-108967789D01*
X121965204Y-108880808D01*
X122080808Y-108765204D01*
X122167789Y-108626775D01*
X122221786Y-108472461D01*
X122236759Y-108339572D01*
X122240091Y-108310003D01*
X122240091Y-108309996D01*
X123319909Y-108309996D01*
X123319909Y-108310003D01*
X123338212Y-108472455D01*
X123392210Y-108626774D01*
X123392211Y-108626775D01*
X123479192Y-108765204D01*
X123594796Y-108880808D01*
X123733225Y-108967789D01*
X123887539Y-109021786D01*
X123887542Y-109021786D01*
X123887544Y-109021787D01*
X124049996Y-109040091D01*
X124050000Y-109040091D01*
X124050004Y-109040091D01*
X124212455Y-109021787D01*
X124212456Y-109021786D01*
X124212461Y-109021786D01*
X124366775Y-108967789D01*
X124505204Y-108880808D01*
X124620808Y-108765204D01*
X124707789Y-108626775D01*
X124761786Y-108472461D01*
X124776759Y-108339572D01*
X124780091Y-108310003D01*
X124780091Y-108309996D01*
X128399909Y-108309996D01*
X128399909Y-108310003D01*
X128418212Y-108472455D01*
X128472210Y-108626774D01*
X128472211Y-108626775D01*
X128559192Y-108765204D01*
X128674796Y-108880808D01*
X128813225Y-108967789D01*
X128967539Y-109021786D01*
X128967542Y-109021786D01*
X128967544Y-109021787D01*
X129129996Y-109040091D01*
X129130000Y-109040091D01*
X129130004Y-109040091D01*
X129292455Y-109021787D01*
X129292456Y-109021786D01*
X129292461Y-109021786D01*
X129446775Y-108967789D01*
X129585204Y-108880808D01*
X129700808Y-108765204D01*
X129787789Y-108626775D01*
X129841786Y-108472461D01*
X129856759Y-108339572D01*
X129860091Y-108310003D01*
X129860091Y-108309996D01*
X136019909Y-108309996D01*
X136019909Y-108310003D01*
X136038212Y-108472455D01*
X136092210Y-108626774D01*
X136092211Y-108626775D01*
X136179192Y-108765204D01*
X136294796Y-108880808D01*
X136433225Y-108967789D01*
X136587539Y-109021786D01*
X136587542Y-109021786D01*
X136587544Y-109021787D01*
X136749996Y-109040091D01*
X136750000Y-109040091D01*
X136750004Y-109040091D01*
X136912455Y-109021787D01*
X136912456Y-109021786D01*
X136912461Y-109021786D01*
X137066775Y-108967789D01*
X137205204Y-108880808D01*
X137320808Y-108765204D01*
X137407789Y-108626775D01*
X137461786Y-108472461D01*
X137476759Y-108339572D01*
X137480091Y-108310003D01*
X137480091Y-108309996D01*
X146179909Y-108309996D01*
X146179909Y-108310003D01*
X146198212Y-108472455D01*
X146252210Y-108626774D01*
X146252211Y-108626775D01*
X146339192Y-108765204D01*
X146454796Y-108880808D01*
X146593225Y-108967789D01*
X146747539Y-109021786D01*
X146747542Y-109021786D01*
X146747544Y-109021787D01*
X146909996Y-109040091D01*
X146910000Y-109040091D01*
X146910004Y-109040091D01*
X147072455Y-109021787D01*
X147072456Y-109021786D01*
X147072461Y-109021786D01*
X147226775Y-108967789D01*
X147365204Y-108880808D01*
X147480808Y-108765204D01*
X147567789Y-108626775D01*
X147621786Y-108472461D01*
X147636759Y-108339572D01*
X147640091Y-108310003D01*
X147640091Y-108309996D01*
X148719909Y-108309996D01*
X148719909Y-108310003D01*
X148738212Y-108472455D01*
X148792210Y-108626774D01*
X148792211Y-108626775D01*
X148879192Y-108765204D01*
X148994796Y-108880808D01*
X149133225Y-108967789D01*
X149287539Y-109021786D01*
X149287542Y-109021786D01*
X149287544Y-109021787D01*
X149449996Y-109040091D01*
X149450000Y-109040091D01*
X149450004Y-109040091D01*
X149612455Y-109021787D01*
X149612456Y-109021786D01*
X149612461Y-109021786D01*
X149766775Y-108967789D01*
X149905204Y-108880808D01*
X150020808Y-108765204D01*
X150107789Y-108626775D01*
X150161786Y-108472461D01*
X150176759Y-108339572D01*
X150180091Y-108310003D01*
X150180091Y-108309996D01*
X151259909Y-108309996D01*
X151259909Y-108310003D01*
X151278212Y-108472455D01*
X151332210Y-108626774D01*
X151332211Y-108626775D01*
X151419192Y-108765204D01*
X151534796Y-108880808D01*
X151673225Y-108967789D01*
X151827539Y-109021786D01*
X151827542Y-109021786D01*
X151827544Y-109021787D01*
X151989996Y-109040091D01*
X151990000Y-109040091D01*
X151990004Y-109040091D01*
X152152455Y-109021787D01*
X152152456Y-109021786D01*
X152152461Y-109021786D01*
X152306775Y-108967789D01*
X152445204Y-108880808D01*
X152560808Y-108765204D01*
X152647789Y-108626775D01*
X152701786Y-108472461D01*
X152716759Y-108339572D01*
X152720091Y-108310003D01*
X152720091Y-108309996D01*
X152701787Y-108147544D01*
X152701786Y-108147542D01*
X152701786Y-108147539D01*
X152647789Y-107993225D01*
X152560808Y-107854796D01*
X152445204Y-107739192D01*
X152371940Y-107693157D01*
X152306774Y-107652210D01*
X152152455Y-107598212D01*
X151990004Y-107579909D01*
X151989996Y-107579909D01*
X151827544Y-107598212D01*
X151673225Y-107652210D01*
X151534795Y-107739192D01*
X151419192Y-107854795D01*
X151332210Y-107993225D01*
X151278212Y-108147544D01*
X151259909Y-108309996D01*
X150180091Y-108309996D01*
X150161787Y-108147544D01*
X150161786Y-108147542D01*
X150161786Y-108147539D01*
X150107789Y-107993225D01*
X150020808Y-107854796D01*
X149905204Y-107739192D01*
X149831940Y-107693157D01*
X149766774Y-107652210D01*
X149612455Y-107598212D01*
X149450004Y-107579909D01*
X149449996Y-107579909D01*
X149287544Y-107598212D01*
X149133225Y-107652210D01*
X148994795Y-107739192D01*
X148879192Y-107854795D01*
X148792210Y-107993225D01*
X148738212Y-108147544D01*
X148719909Y-108309996D01*
X147640091Y-108309996D01*
X147621787Y-108147544D01*
X147621786Y-108147542D01*
X147621786Y-108147539D01*
X147567789Y-107993225D01*
X147480808Y-107854796D01*
X147365204Y-107739192D01*
X147291940Y-107693157D01*
X147226774Y-107652210D01*
X147072455Y-107598212D01*
X146910004Y-107579909D01*
X146909996Y-107579909D01*
X146747544Y-107598212D01*
X146593225Y-107652210D01*
X146454795Y-107739192D01*
X146339192Y-107854795D01*
X146252210Y-107993225D01*
X146198212Y-108147544D01*
X146179909Y-108309996D01*
X137480091Y-108309996D01*
X137461787Y-108147544D01*
X137461786Y-108147542D01*
X137461786Y-108147539D01*
X137407789Y-107993225D01*
X137320808Y-107854796D01*
X137205204Y-107739192D01*
X137131940Y-107693157D01*
X137066774Y-107652210D01*
X136912455Y-107598212D01*
X136750004Y-107579909D01*
X136749996Y-107579909D01*
X136587544Y-107598212D01*
X136433225Y-107652210D01*
X136294795Y-107739192D01*
X136179192Y-107854795D01*
X136092210Y-107993225D01*
X136038212Y-108147544D01*
X136019909Y-108309996D01*
X129860091Y-108309996D01*
X129841787Y-108147544D01*
X129841786Y-108147542D01*
X129841786Y-108147539D01*
X129787789Y-107993225D01*
X129700808Y-107854796D01*
X129585204Y-107739192D01*
X129511940Y-107693157D01*
X129446774Y-107652210D01*
X129292455Y-107598212D01*
X129130004Y-107579909D01*
X129129996Y-107579909D01*
X128967544Y-107598212D01*
X128813225Y-107652210D01*
X128674795Y-107739192D01*
X128559192Y-107854795D01*
X128472210Y-107993225D01*
X128418212Y-108147544D01*
X128399909Y-108309996D01*
X124780091Y-108309996D01*
X124761787Y-108147544D01*
X124761786Y-108147542D01*
X124761786Y-108147539D01*
X124707789Y-107993225D01*
X124620808Y-107854796D01*
X124505204Y-107739192D01*
X124431940Y-107693157D01*
X124366774Y-107652210D01*
X124212455Y-107598212D01*
X124050004Y-107579909D01*
X124049996Y-107579909D01*
X123887544Y-107598212D01*
X123733225Y-107652210D01*
X123594795Y-107739192D01*
X123479192Y-107854795D01*
X123392210Y-107993225D01*
X123338212Y-108147544D01*
X123319909Y-108309996D01*
X122240091Y-108309996D01*
X122221787Y-108147544D01*
X122221786Y-108147542D01*
X122221786Y-108147539D01*
X122167789Y-107993225D01*
X122080808Y-107854796D01*
X121965204Y-107739192D01*
X121891940Y-107693157D01*
X121826774Y-107652210D01*
X121672455Y-107598212D01*
X121510004Y-107579909D01*
X121509996Y-107579909D01*
X121347544Y-107598212D01*
X121193225Y-107652210D01*
X121054795Y-107739192D01*
X120939192Y-107854795D01*
X120852210Y-107993225D01*
X120798212Y-108147544D01*
X120779909Y-108309996D01*
X119583486Y-108309996D01*
X119536868Y-108273473D01*
X119529306Y-108268901D01*
X119257279Y-108104455D01*
X118959361Y-107970373D01*
X118959354Y-107970370D01*
X118959342Y-107970366D01*
X118647452Y-107873178D01*
X118326099Y-107814289D01*
X118000000Y-107794564D01*
X117673900Y-107814289D01*
X117352547Y-107873178D01*
X117040657Y-107970366D01*
X117040641Y-107970372D01*
X117040639Y-107970373D01*
X116850933Y-108055752D01*
X116742725Y-108104453D01*
X116742723Y-108104454D01*
X116463131Y-108273473D01*
X116205960Y-108474954D01*
X115974954Y-108705960D01*
X115773473Y-108963131D01*
X115604454Y-109242723D01*
X115604453Y-109242725D01*
X115470372Y-109540642D01*
X115470366Y-109540657D01*
X115373178Y-109852547D01*
X115314289Y-110173900D01*
X115294564Y-110500000D01*
X114750585Y-110500000D01*
X114750500Y-110496753D01*
X114750500Y-105769996D01*
X115699909Y-105769996D01*
X115699909Y-105770003D01*
X115718212Y-105932455D01*
X115772210Y-106086774D01*
X115772211Y-106086775D01*
X115859192Y-106225204D01*
X115974796Y-106340808D01*
X116113225Y-106427789D01*
X116267539Y-106481786D01*
X116267542Y-106481786D01*
X116267544Y-106481787D01*
X116429996Y-106500091D01*
X116430000Y-106500091D01*
X116430004Y-106500091D01*
X116592455Y-106481787D01*
X116592456Y-106481786D01*
X116592461Y-106481786D01*
X116746775Y-106427789D01*
X116885204Y-106340808D01*
X117000808Y-106225204D01*
X117087789Y-106086775D01*
X117141786Y-105932461D01*
X117141787Y-105932455D01*
X117160091Y-105770003D01*
X117160091Y-105769996D01*
X118239909Y-105769996D01*
X118239909Y-105770003D01*
X118258212Y-105932455D01*
X118312210Y-106086774D01*
X118312211Y-106086775D01*
X118399192Y-106225204D01*
X118514796Y-106340808D01*
X118653225Y-106427789D01*
X118807539Y-106481786D01*
X118807542Y-106481786D01*
X118807544Y-106481787D01*
X118969996Y-106500091D01*
X118970000Y-106500091D01*
X118970004Y-106500091D01*
X119132455Y-106481787D01*
X119132456Y-106481786D01*
X119132461Y-106481786D01*
X119286775Y-106427789D01*
X119425204Y-106340808D01*
X119540808Y-106225204D01*
X119627789Y-106086775D01*
X119681786Y-105932461D01*
X119681787Y-105932455D01*
X119700091Y-105770003D01*
X119700091Y-105769996D01*
X119681787Y-105607544D01*
X119681786Y-105607542D01*
X119681786Y-105607539D01*
X119627789Y-105453225D01*
X119540808Y-105314796D01*
X119425204Y-105199192D01*
X119351940Y-105153157D01*
X119286774Y-105112210D01*
X119132455Y-105058212D01*
X118970004Y-105039909D01*
X118969996Y-105039909D01*
X118807544Y-105058212D01*
X118653225Y-105112210D01*
X118514795Y-105199192D01*
X118399192Y-105314795D01*
X118312210Y-105453225D01*
X118258212Y-105607544D01*
X118239909Y-105769996D01*
X117160091Y-105769996D01*
X117141787Y-105607544D01*
X117141786Y-105607542D01*
X117141786Y-105607539D01*
X117087789Y-105453225D01*
X117000808Y-105314796D01*
X116885204Y-105199192D01*
X116811940Y-105153157D01*
X116746774Y-105112210D01*
X116592455Y-105058212D01*
X116430004Y-105039909D01*
X116429996Y-105039909D01*
X116267544Y-105058212D01*
X116113225Y-105112210D01*
X115974795Y-105199192D01*
X115859192Y-105314795D01*
X115772210Y-105453225D01*
X115718212Y-105607544D01*
X115699909Y-105769996D01*
X114750500Y-105769996D01*
X114750500Y-103612486D01*
X116199500Y-103612486D01*
X116199500Y-103797514D01*
X116203180Y-103820750D01*
X116228445Y-103980265D01*
X116285619Y-104156232D01*
X116285620Y-104156235D01*
X116349745Y-104282086D01*
X116369622Y-104321096D01*
X116478379Y-104470787D01*
X116609213Y-104601621D01*
X116758904Y-104710378D01*
X116789148Y-104725788D01*
X116923764Y-104794379D01*
X116923767Y-104794380D01*
X117011750Y-104822967D01*
X117099736Y-104851555D01*
X117282486Y-104880500D01*
X117282487Y-104880500D01*
X117817513Y-104880500D01*
X117817514Y-104880500D01*
X118000264Y-104851555D01*
X118176235Y-104794379D01*
X118341096Y-104710378D01*
X118490787Y-104601621D01*
X118621621Y-104470787D01*
X118730378Y-104321096D01*
X118814379Y-104156235D01*
X118871555Y-103980264D01*
X118900500Y-103797514D01*
X118900500Y-103612486D01*
X118871555Y-103429736D01*
X118826651Y-103291534D01*
X118813033Y-103249622D01*
X118811038Y-103179781D01*
X118847118Y-103119948D01*
X118909819Y-103089120D01*
X118944847Y-103088084D01*
X119099996Y-103105565D01*
X119100000Y-103105565D01*
X119100003Y-103105565D01*
X119173311Y-103097305D01*
X119242133Y-103109359D01*
X119293513Y-103156708D01*
X119311137Y-103224319D01*
X119308812Y-103244715D01*
X119299806Y-103290000D01*
X119299500Y-103291536D01*
X119299500Y-103498469D01*
X119339868Y-103701412D01*
X119339870Y-103701420D01*
X119416651Y-103886786D01*
X119419059Y-103892598D01*
X119464341Y-103960368D01*
X119534024Y-104064657D01*
X119680342Y-104210975D01*
X119680345Y-104210977D01*
X119852402Y-104325941D01*
X120043580Y-104405130D01*
X120246530Y-104445499D01*
X120246534Y-104445500D01*
X120246535Y-104445500D01*
X120853466Y-104445500D01*
X120853467Y-104445499D01*
X121056420Y-104405130D01*
X121247598Y-104325941D01*
X121419655Y-104210977D01*
X121565977Y-104064655D01*
X121609180Y-103999996D01*
X122644435Y-103999996D01*
X122644435Y-104000003D01*
X122664630Y-104179249D01*
X122664631Y-104179254D01*
X122724211Y-104349523D01*
X122800408Y-104470789D01*
X122820184Y-104502262D01*
X122947738Y-104629816D01*
X122992951Y-104658225D01*
X123075951Y-104710378D01*
X123100478Y-104725789D01*
X123270745Y-104785368D01*
X123284179Y-104786881D01*
X123348592Y-104813947D01*
X123387337Y-104869147D01*
X123424209Y-104974519D01*
X123424211Y-104974522D01*
X123462819Y-105035967D01*
X123523889Y-105133158D01*
X123521284Y-105134794D01*
X123542525Y-105186918D01*
X123529724Y-105255605D01*
X123506844Y-105287144D01*
X123479191Y-105314797D01*
X123392210Y-105453225D01*
X123338212Y-105607544D01*
X123319909Y-105769996D01*
X123319909Y-105770003D01*
X123338212Y-105932455D01*
X123392210Y-106086774D01*
X123392211Y-106086775D01*
X123479192Y-106225204D01*
X123594796Y-106340808D01*
X123733225Y-106427789D01*
X123887539Y-106481786D01*
X123887542Y-106481786D01*
X123887544Y-106481787D01*
X124049996Y-106500091D01*
X124050000Y-106500091D01*
X124050004Y-106500091D01*
X124212457Y-106481787D01*
X124212459Y-106481786D01*
X124212461Y-106481786D01*
X124366775Y-106427789D01*
X124366775Y-106427788D01*
X124369890Y-106426699D01*
X124439669Y-106423137D01*
X124500296Y-106457865D01*
X124532524Y-106519859D01*
X124534065Y-106529855D01*
X124539631Y-106579251D01*
X124539631Y-106579254D01*
X124599211Y-106749523D01*
X124653152Y-106835369D01*
X124695184Y-106902262D01*
X124822738Y-107029816D01*
X124975478Y-107125789D01*
X125145745Y-107185368D01*
X125145750Y-107185369D01*
X125324996Y-107205565D01*
X125325000Y-107205565D01*
X125325004Y-107205565D01*
X125504249Y-107185369D01*
X125504252Y-107185368D01*
X125504255Y-107185368D01*
X125674522Y-107125789D01*
X125827262Y-107029816D01*
X125954816Y-106902262D01*
X126050789Y-106749522D01*
X126110368Y-106579255D01*
X126110368Y-106579252D01*
X126110369Y-106579249D01*
X126130565Y-106400003D01*
X126130565Y-106399996D01*
X126110369Y-106220750D01*
X126110368Y-106220745D01*
X126063490Y-106086775D01*
X126050789Y-106050478D01*
X125954816Y-105897738D01*
X125827262Y-105770184D01*
X125826963Y-105769996D01*
X128399909Y-105769996D01*
X128399909Y-105770003D01*
X128418212Y-105932455D01*
X128472210Y-106086774D01*
X128472211Y-106086775D01*
X128559192Y-106225204D01*
X128674796Y-106340808D01*
X128813225Y-106427789D01*
X128967539Y-106481786D01*
X128967542Y-106481786D01*
X128967544Y-106481787D01*
X129129996Y-106500091D01*
X129130000Y-106500091D01*
X129130004Y-106500091D01*
X129292457Y-106481787D01*
X129292459Y-106481786D01*
X129292461Y-106481786D01*
X129446775Y-106427789D01*
X129446776Y-106427787D01*
X129451969Y-106425971D01*
X129521748Y-106422409D01*
X129582375Y-106457137D01*
X129597917Y-106477039D01*
X129645182Y-106552259D01*
X129645184Y-106552262D01*
X129772738Y-106679816D01*
X129925478Y-106775789D01*
X130095745Y-106835368D01*
X130095750Y-106835369D01*
X130274996Y-106855565D01*
X130275000Y-106855565D01*
X130275004Y-106855565D01*
X130454249Y-106835369D01*
X130454252Y-106835368D01*
X130454255Y-106835368D01*
X130624522Y-106775789D01*
X130777262Y-106679816D01*
X130904816Y-106552262D01*
X131000789Y-106399522D01*
X131060368Y-106229255D01*
X131060369Y-106229249D01*
X131080565Y-106050003D01*
X131080565Y-106049996D01*
X131060369Y-105870750D01*
X131060368Y-105870745D01*
X131025114Y-105769996D01*
X133479909Y-105769996D01*
X133479909Y-105770003D01*
X133498212Y-105932455D01*
X133552210Y-106086774D01*
X133552211Y-106086775D01*
X133639192Y-106225204D01*
X133754796Y-106340808D01*
X133893225Y-106427789D01*
X134047539Y-106481786D01*
X134047542Y-106481786D01*
X134047544Y-106481787D01*
X134209996Y-106500091D01*
X134210000Y-106500091D01*
X134210004Y-106500091D01*
X134372455Y-106481787D01*
X134372456Y-106481786D01*
X134372461Y-106481786D01*
X134526775Y-106427789D01*
X134665204Y-106340808D01*
X134780808Y-106225204D01*
X134867789Y-106086775D01*
X134921786Y-105932461D01*
X134921787Y-105932455D01*
X134940091Y-105770003D01*
X134940091Y-105769996D01*
X136019909Y-105769996D01*
X136019909Y-105770003D01*
X136038212Y-105932455D01*
X136092210Y-106086774D01*
X136092211Y-106086775D01*
X136179192Y-106225204D01*
X136294796Y-106340808D01*
X136433225Y-106427789D01*
X136587539Y-106481786D01*
X136587542Y-106481786D01*
X136587544Y-106481787D01*
X136749996Y-106500091D01*
X136750000Y-106500091D01*
X136750004Y-106500091D01*
X136912455Y-106481787D01*
X136912456Y-106481786D01*
X136912461Y-106481786D01*
X137066775Y-106427789D01*
X137205204Y-106340808D01*
X137320808Y-106225204D01*
X137407789Y-106086775D01*
X137461786Y-105932461D01*
X137465699Y-105897738D01*
X137475246Y-105813002D01*
X137493317Y-105769996D01*
X151259909Y-105769996D01*
X151259909Y-105770003D01*
X151278212Y-105932455D01*
X151332210Y-106086774D01*
X151332211Y-106086775D01*
X151419192Y-106225204D01*
X151534796Y-106340808D01*
X151673225Y-106427789D01*
X151827539Y-106481786D01*
X151827542Y-106481786D01*
X151827544Y-106481787D01*
X151989996Y-106500091D01*
X151990000Y-106500091D01*
X151990004Y-106500091D01*
X152152455Y-106481787D01*
X152152456Y-106481786D01*
X152152461Y-106481786D01*
X152306775Y-106427789D01*
X152445204Y-106340808D01*
X152560808Y-106225204D01*
X152647789Y-106086775D01*
X152701786Y-105932461D01*
X152701787Y-105932455D01*
X152720091Y-105770003D01*
X152720091Y-105769996D01*
X153799909Y-105769996D01*
X153799909Y-105770003D01*
X153818212Y-105932455D01*
X153872210Y-106086774D01*
X153872211Y-106086775D01*
X153959192Y-106225204D01*
X154074796Y-106340808D01*
X154213225Y-106427789D01*
X154367539Y-106481786D01*
X154367542Y-106481786D01*
X154367544Y-106481787D01*
X154529996Y-106500091D01*
X154530000Y-106500091D01*
X154530004Y-106500091D01*
X154692455Y-106481787D01*
X154692456Y-106481786D01*
X154692461Y-106481786D01*
X154846775Y-106427789D01*
X154985204Y-106340808D01*
X155100808Y-106225204D01*
X155187789Y-106086775D01*
X155241786Y-105932461D01*
X155241787Y-105932455D01*
X155260091Y-105770003D01*
X155260091Y-105769996D01*
X158879909Y-105769996D01*
X158879909Y-105770003D01*
X158898212Y-105932455D01*
X158952210Y-106086774D01*
X158952211Y-106086775D01*
X159039192Y-106225204D01*
X159154796Y-106340808D01*
X159293225Y-106427789D01*
X159447539Y-106481786D01*
X159447542Y-106481786D01*
X159447544Y-106481787D01*
X159609996Y-106500091D01*
X159610000Y-106500091D01*
X159610004Y-106500091D01*
X159772455Y-106481787D01*
X159772456Y-106481786D01*
X159772461Y-106481786D01*
X159926775Y-106427789D01*
X160065204Y-106340808D01*
X160180808Y-106225204D01*
X160267789Y-106086775D01*
X160321786Y-105932461D01*
X160321787Y-105932455D01*
X160340091Y-105770003D01*
X160340091Y-105769996D01*
X161419909Y-105769996D01*
X161419909Y-105770003D01*
X161438212Y-105932455D01*
X161492210Y-106086774D01*
X161492211Y-106086775D01*
X161579192Y-106225204D01*
X161694796Y-106340808D01*
X161833225Y-106427789D01*
X161987539Y-106481786D01*
X161987542Y-106481786D01*
X161987544Y-106481787D01*
X162149996Y-106500091D01*
X162150000Y-106500091D01*
X162150004Y-106500091D01*
X162312455Y-106481787D01*
X162312456Y-106481786D01*
X162312461Y-106481786D01*
X162466775Y-106427789D01*
X162605204Y-106340808D01*
X162720808Y-106225204D01*
X162807789Y-106086775D01*
X162861786Y-105932461D01*
X162861787Y-105932455D01*
X162880091Y-105770003D01*
X162880091Y-105769996D01*
X162861787Y-105607544D01*
X162861786Y-105607542D01*
X162861786Y-105607539D01*
X162807789Y-105453225D01*
X162720808Y-105314796D01*
X162605204Y-105199192D01*
X162531940Y-105153157D01*
X162466774Y-105112210D01*
X162312455Y-105058212D01*
X162150004Y-105039909D01*
X162149996Y-105039909D01*
X161987544Y-105058212D01*
X161833225Y-105112210D01*
X161694795Y-105199192D01*
X161579192Y-105314795D01*
X161492210Y-105453225D01*
X161438212Y-105607544D01*
X161419909Y-105769996D01*
X160340091Y-105769996D01*
X160321787Y-105607544D01*
X160321786Y-105607542D01*
X160321786Y-105607539D01*
X160267789Y-105453225D01*
X160180808Y-105314796D01*
X160065204Y-105199192D01*
X159991940Y-105153157D01*
X159926774Y-105112210D01*
X159772455Y-105058212D01*
X159610004Y-105039909D01*
X159609996Y-105039909D01*
X159447544Y-105058212D01*
X159293225Y-105112210D01*
X159154795Y-105199192D01*
X159039192Y-105314795D01*
X158952210Y-105453225D01*
X158898212Y-105607544D01*
X158879909Y-105769996D01*
X155260091Y-105769996D01*
X155241787Y-105607544D01*
X155241786Y-105607542D01*
X155241786Y-105607539D01*
X155187789Y-105453225D01*
X155100808Y-105314796D01*
X154985204Y-105199192D01*
X154911940Y-105153157D01*
X154846774Y-105112210D01*
X154692455Y-105058212D01*
X154530004Y-105039909D01*
X154529996Y-105039909D01*
X154367544Y-105058212D01*
X154213225Y-105112210D01*
X154074795Y-105199192D01*
X153959192Y-105314795D01*
X153872210Y-105453225D01*
X153818212Y-105607544D01*
X153799909Y-105769996D01*
X152720091Y-105769996D01*
X152701787Y-105607544D01*
X152701786Y-105607542D01*
X152701786Y-105607539D01*
X152647789Y-105453225D01*
X152560808Y-105314796D01*
X152445204Y-105199192D01*
X152371940Y-105153157D01*
X152306774Y-105112210D01*
X152152455Y-105058212D01*
X151990004Y-105039909D01*
X151989996Y-105039909D01*
X151827544Y-105058212D01*
X151673225Y-105112210D01*
X151534795Y-105199192D01*
X151419192Y-105314795D01*
X151332210Y-105453225D01*
X151278212Y-105607544D01*
X151259909Y-105769996D01*
X137493317Y-105769996D01*
X137502312Y-105748588D01*
X137559907Y-105709033D01*
X137612349Y-105703665D01*
X137625000Y-105705091D01*
X137718262Y-105694582D01*
X137787455Y-105686787D01*
X137787456Y-105686786D01*
X137787461Y-105686786D01*
X137941775Y-105632789D01*
X138080204Y-105545808D01*
X138195808Y-105430204D01*
X138282789Y-105291775D01*
X138336786Y-105137461D01*
X138336787Y-105137455D01*
X138355091Y-104975003D01*
X138355091Y-104974996D01*
X138343824Y-104874996D01*
X148894435Y-104874996D01*
X148894435Y-104875003D01*
X148914630Y-105054249D01*
X148914631Y-105054254D01*
X148974211Y-105224523D01*
X149032796Y-105317759D01*
X149070184Y-105377262D01*
X149197738Y-105504816D01*
X149262975Y-105545807D01*
X149340365Y-105594435D01*
X149350478Y-105600789D01*
X149520745Y-105660368D01*
X149520750Y-105660369D01*
X149699996Y-105680565D01*
X149700000Y-105680565D01*
X149700004Y-105680565D01*
X149879249Y-105660369D01*
X149879252Y-105660368D01*
X149879255Y-105660368D01*
X150049522Y-105600789D01*
X150202262Y-105504816D01*
X150329816Y-105377262D01*
X150425789Y-105224522D01*
X150485368Y-105054255D01*
X150486824Y-105041334D01*
X150505565Y-104875003D01*
X150505565Y-104874996D01*
X150485369Y-104695750D01*
X150485368Y-104695745D01*
X150460612Y-104624997D01*
X150425789Y-104525478D01*
X150411201Y-104502262D01*
X150375535Y-104445499D01*
X150329816Y-104372738D01*
X150202262Y-104245184D01*
X150202256Y-104245179D01*
X150114460Y-104190013D01*
X150068169Y-104137679D01*
X150057521Y-104068625D01*
X150085896Y-104004777D01*
X150144286Y-103966405D01*
X150166544Y-103961800D01*
X150179255Y-103960368D01*
X150349522Y-103900789D01*
X150502262Y-103804816D01*
X150629816Y-103677262D01*
X150725789Y-103524522D01*
X150785368Y-103354255D01*
X150786539Y-103343868D01*
X150798854Y-103234565D01*
X150825920Y-103170151D01*
X150883515Y-103130596D01*
X150953352Y-103128458D01*
X151009755Y-103160767D01*
X151044796Y-103195808D01*
X151183225Y-103282789D01*
X151337539Y-103336786D01*
X151337542Y-103336786D01*
X151337544Y-103336787D01*
X151499996Y-103355091D01*
X151500000Y-103355091D01*
X151500004Y-103355091D01*
X151662455Y-103336787D01*
X151662456Y-103336786D01*
X151662461Y-103336786D01*
X151816775Y-103282789D01*
X151955204Y-103195808D01*
X151976016Y-103174996D01*
X155144909Y-103174996D01*
X155144909Y-103175003D01*
X155163212Y-103337455D01*
X155163213Y-103337460D01*
X155163214Y-103337461D01*
X155169286Y-103354815D01*
X155217210Y-103491774D01*
X155228894Y-103510369D01*
X155304192Y-103630204D01*
X155419796Y-103745808D01*
X155558225Y-103832789D01*
X155712539Y-103886786D01*
X155712542Y-103886786D01*
X155712544Y-103886787D01*
X155874996Y-103905091D01*
X155875000Y-103905091D01*
X155875004Y-103905091D01*
X156037455Y-103886787D01*
X156037456Y-103886786D01*
X156037461Y-103886786D01*
X156191775Y-103832789D01*
X156330204Y-103745808D01*
X156445808Y-103630204D01*
X156532789Y-103491775D01*
X156586786Y-103337461D01*
X156586787Y-103337455D01*
X156605091Y-103175003D01*
X156605091Y-103174996D01*
X156586787Y-103012544D01*
X156586786Y-103012542D01*
X156586786Y-103012539D01*
X156532789Y-102858225D01*
X156445808Y-102719796D01*
X156330204Y-102604192D01*
X156295653Y-102582482D01*
X156191774Y-102517210D01*
X156045800Y-102466132D01*
X156037461Y-102463214D01*
X156037460Y-102463213D01*
X156037455Y-102463212D01*
X155875004Y-102444909D01*
X155874996Y-102444909D01*
X155712544Y-102463212D01*
X155558225Y-102517210D01*
X155419795Y-102604192D01*
X155304192Y-102719795D01*
X155217210Y-102858225D01*
X155163212Y-103012544D01*
X155144909Y-103174996D01*
X151976016Y-103174996D01*
X152070808Y-103080204D01*
X152157789Y-102941775D01*
X152211786Y-102787461D01*
X152218785Y-102725342D01*
X152230091Y-102625003D01*
X152230091Y-102624996D01*
X152211787Y-102462544D01*
X152211786Y-102462542D01*
X152211786Y-102462539D01*
X152157789Y-102308225D01*
X152070808Y-102169796D01*
X151955204Y-102054192D01*
X151867703Y-101999211D01*
X151816774Y-101967210D01*
X151682939Y-101920379D01*
X151662461Y-101913214D01*
X151662460Y-101913213D01*
X151662455Y-101913212D01*
X151500004Y-101894909D01*
X151499996Y-101894909D01*
X151337544Y-101913212D01*
X151183225Y-101967210D01*
X151044795Y-102054192D01*
X150929192Y-102169795D01*
X150842210Y-102308225D01*
X150788212Y-102462544D01*
X150779717Y-102537941D01*
X150752650Y-102602355D01*
X150695055Y-102641910D01*
X150625218Y-102644047D01*
X150568816Y-102611738D01*
X150502262Y-102545184D01*
X150349523Y-102449211D01*
X150179254Y-102389631D01*
X150179249Y-102389630D01*
X150000004Y-102369435D01*
X149999996Y-102369435D01*
X149820750Y-102389630D01*
X149820745Y-102389631D01*
X149650474Y-102449212D01*
X149593212Y-102485192D01*
X149525975Y-102504192D01*
X149492688Y-102494047D01*
X149495310Y-102513698D01*
X149465639Y-102576954D01*
X149460440Y-102582482D01*
X149370183Y-102672739D01*
X149274211Y-102825476D01*
X149214631Y-102995745D01*
X149214630Y-102995750D01*
X149194435Y-103174996D01*
X149194435Y-103175003D01*
X149214630Y-103354249D01*
X149214631Y-103354254D01*
X149274211Y-103524523D01*
X149337347Y-103625003D01*
X149370184Y-103677262D01*
X149497738Y-103804816D01*
X149522029Y-103820079D01*
X149585539Y-103859985D01*
X149631830Y-103912320D01*
X149642478Y-103981373D01*
X149614103Y-104045222D01*
X149555713Y-104083594D01*
X149533456Y-104088199D01*
X149520746Y-104089631D01*
X149520745Y-104089631D01*
X149350476Y-104149211D01*
X149197737Y-104245184D01*
X149070184Y-104372737D01*
X148974211Y-104525476D01*
X148914631Y-104695745D01*
X148914630Y-104695750D01*
X148894435Y-104874996D01*
X138343824Y-104874996D01*
X138336787Y-104812544D01*
X138336786Y-104812542D01*
X138336786Y-104812539D01*
X138282789Y-104658225D01*
X138195808Y-104519796D01*
X138080204Y-104404192D01*
X138069056Y-104397187D01*
X137941774Y-104317210D01*
X137787455Y-104263212D01*
X137625004Y-104244909D01*
X137624996Y-104244909D01*
X137462544Y-104263212D01*
X137308225Y-104317210D01*
X137169795Y-104404192D01*
X137054192Y-104519795D01*
X136967210Y-104658225D01*
X136913212Y-104812544D01*
X136899753Y-104931998D01*
X136872686Y-104996412D01*
X136815091Y-105035967D01*
X136762649Y-105041334D01*
X136750002Y-105039909D01*
X136749996Y-105039909D01*
X136587544Y-105058212D01*
X136433225Y-105112210D01*
X136294795Y-105199192D01*
X136179192Y-105314795D01*
X136092210Y-105453225D01*
X136038212Y-105607544D01*
X136019909Y-105769996D01*
X134940091Y-105769996D01*
X134921787Y-105607544D01*
X134921786Y-105607542D01*
X134921786Y-105607539D01*
X134867789Y-105453225D01*
X134780808Y-105314796D01*
X134665204Y-105199192D01*
X134591940Y-105153157D01*
X134526774Y-105112210D01*
X134372455Y-105058212D01*
X134210004Y-105039909D01*
X134209996Y-105039909D01*
X134047544Y-105058212D01*
X133893225Y-105112210D01*
X133754795Y-105199192D01*
X133639192Y-105314795D01*
X133552210Y-105453225D01*
X133498212Y-105607544D01*
X133479909Y-105769996D01*
X131025114Y-105769996D01*
X131017623Y-105748588D01*
X131000789Y-105700478D01*
X130992186Y-105686787D01*
X130938150Y-105600789D01*
X130904816Y-105547738D01*
X130777262Y-105420184D01*
X130714911Y-105381006D01*
X130624523Y-105324211D01*
X130454254Y-105264631D01*
X130454249Y-105264630D01*
X130275004Y-105244435D01*
X130274996Y-105244435D01*
X130095750Y-105264630D01*
X130095745Y-105264631D01*
X129925474Y-105324212D01*
X129873636Y-105356784D01*
X129806399Y-105375784D01*
X129739564Y-105355416D01*
X129702671Y-105317761D01*
X129700808Y-105314796D01*
X129585204Y-105199192D01*
X129511940Y-105153157D01*
X129446774Y-105112210D01*
X129292455Y-105058212D01*
X129130004Y-105039909D01*
X129129996Y-105039909D01*
X128967544Y-105058212D01*
X128813225Y-105112210D01*
X128674795Y-105199192D01*
X128559192Y-105314795D01*
X128472210Y-105453225D01*
X128418212Y-105607544D01*
X128399909Y-105769996D01*
X125826963Y-105769996D01*
X125792892Y-105748588D01*
X125674523Y-105674211D01*
X125504254Y-105614631D01*
X125504249Y-105614630D01*
X125325004Y-105594435D01*
X125324996Y-105594435D01*
X125145750Y-105614630D01*
X125145745Y-105614631D01*
X124975475Y-105674211D01*
X124949870Y-105690300D01*
X124882632Y-105709299D01*
X124815798Y-105688930D01*
X124770585Y-105635661D01*
X124763010Y-105612900D01*
X124761787Y-105607546D01*
X124761786Y-105607545D01*
X124761786Y-105607539D01*
X124707789Y-105453225D01*
X124662411Y-105381006D01*
X124643411Y-105313769D01*
X124663779Y-105246934D01*
X124679715Y-105227362D01*
X124779816Y-105127262D01*
X124875789Y-104974522D01*
X124935368Y-104804255D01*
X124935369Y-104804249D01*
X124955565Y-104625003D01*
X124955565Y-104624997D01*
X124947119Y-104550041D01*
X124959173Y-104481219D01*
X125006522Y-104429840D01*
X125056456Y-104412936D01*
X125079255Y-104410368D01*
X125249522Y-104350789D01*
X125402262Y-104254816D01*
X125529816Y-104127262D01*
X125625789Y-103974522D01*
X125685368Y-103804255D01*
X125685369Y-103804249D01*
X125705565Y-103625003D01*
X125705565Y-103618036D01*
X125708242Y-103618036D01*
X125718159Y-103561261D01*
X125765483Y-103509858D01*
X125833084Y-103492201D01*
X125899501Y-103513895D01*
X125934344Y-103550172D01*
X126019190Y-103685201D01*
X126019192Y-103685204D01*
X126134796Y-103800808D01*
X126273225Y-103887789D01*
X126427539Y-103941786D01*
X126427542Y-103941786D01*
X126427544Y-103941787D01*
X126589996Y-103960091D01*
X126590000Y-103960091D01*
X126590004Y-103960091D01*
X126752455Y-103941787D01*
X126752456Y-103941786D01*
X126752461Y-103941786D01*
X126906775Y-103887789D01*
X127045204Y-103800808D01*
X127160808Y-103685204D01*
X127247789Y-103546775D01*
X127301786Y-103392461D01*
X127301787Y-103392455D01*
X127320091Y-103230003D01*
X127320091Y-103229996D01*
X128399909Y-103229996D01*
X128399909Y-103230003D01*
X128418212Y-103392455D01*
X128472210Y-103546774D01*
X128472211Y-103546775D01*
X128559192Y-103685204D01*
X128674796Y-103800808D01*
X128813225Y-103887789D01*
X128967539Y-103941786D01*
X128967542Y-103941786D01*
X128967544Y-103941787D01*
X129129996Y-103960091D01*
X129130000Y-103960091D01*
X129130004Y-103960091D01*
X129292455Y-103941787D01*
X129292456Y-103941786D01*
X129292461Y-103941786D01*
X129446775Y-103887789D01*
X129585204Y-103800808D01*
X129700808Y-103685204D01*
X129787789Y-103546775D01*
X129841786Y-103392461D01*
X129841787Y-103392455D01*
X129860091Y-103230003D01*
X129860091Y-103229996D01*
X136019909Y-103229996D01*
X136019909Y-103230003D01*
X136038212Y-103392455D01*
X136092210Y-103546774D01*
X136092211Y-103546775D01*
X136179192Y-103685204D01*
X136294796Y-103800808D01*
X136433225Y-103887789D01*
X136587539Y-103941786D01*
X136587542Y-103941786D01*
X136587544Y-103941787D01*
X136749996Y-103960091D01*
X136750000Y-103960091D01*
X136750004Y-103960091D01*
X136912455Y-103941787D01*
X136912456Y-103941786D01*
X136912461Y-103941786D01*
X137066775Y-103887789D01*
X137205204Y-103800808D01*
X137320808Y-103685204D01*
X137407789Y-103546775D01*
X137461786Y-103392461D01*
X137461787Y-103392455D01*
X137480091Y-103230003D01*
X137480091Y-103229996D01*
X138559909Y-103229996D01*
X138559909Y-103230003D01*
X138578212Y-103392455D01*
X138632210Y-103546774D01*
X138632211Y-103546775D01*
X138719192Y-103685204D01*
X138834796Y-103800808D01*
X138973225Y-103887789D01*
X139127539Y-103941786D01*
X139127542Y-103941786D01*
X139127544Y-103941787D01*
X139289996Y-103960091D01*
X139290000Y-103960091D01*
X139290004Y-103960091D01*
X139452455Y-103941787D01*
X139452456Y-103941786D01*
X139452461Y-103941786D01*
X139606775Y-103887789D01*
X139745204Y-103800808D01*
X139860808Y-103685204D01*
X139947789Y-103546775D01*
X140001786Y-103392461D01*
X140001787Y-103392455D01*
X140020091Y-103230003D01*
X140020091Y-103229996D01*
X140001787Y-103067544D01*
X140001786Y-103067542D01*
X140001786Y-103067539D01*
X139947789Y-102913225D01*
X139860808Y-102774796D01*
X139811008Y-102724996D01*
X142094435Y-102724996D01*
X142094435Y-102725003D01*
X142114630Y-102904249D01*
X142114631Y-102904254D01*
X142174211Y-103074523D01*
X142246763Y-103189988D01*
X142270184Y-103227262D01*
X142397738Y-103354816D01*
X142438705Y-103380557D01*
X142542450Y-103445745D01*
X142550478Y-103450789D01*
X142684648Y-103497737D01*
X142720745Y-103510368D01*
X142720750Y-103510369D01*
X142899996Y-103530565D01*
X142900000Y-103530565D01*
X142900004Y-103530565D01*
X143079249Y-103510369D01*
X143079252Y-103510368D01*
X143079255Y-103510368D01*
X143249522Y-103450789D01*
X143257550Y-103445745D01*
X143334027Y-103397691D01*
X143401264Y-103378690D01*
X143465973Y-103397691D01*
X143550475Y-103450788D01*
X143720745Y-103510368D01*
X143720750Y-103510369D01*
X143899996Y-103530565D01*
X143900000Y-103530565D01*
X143900004Y-103530565D01*
X144079249Y-103510369D01*
X144079252Y-103510368D01*
X144079255Y-103510368D01*
X144249522Y-103450789D01*
X144402262Y-103354816D01*
X144529816Y-103227262D01*
X144625789Y-103074522D01*
X144685368Y-102904255D01*
X144685369Y-102904249D01*
X144705565Y-102725003D01*
X144705565Y-102724996D01*
X144685369Y-102545750D01*
X144685368Y-102545745D01*
X144675734Y-102518212D01*
X144625789Y-102375478D01*
X144617186Y-102361787D01*
X144559513Y-102270000D01*
X144529816Y-102222738D01*
X144402262Y-102095184D01*
X144329593Y-102049523D01*
X144249523Y-101999211D01*
X144079254Y-101939631D01*
X144079249Y-101939630D01*
X143900004Y-101919435D01*
X143899996Y-101919435D01*
X143720750Y-101939630D01*
X143720737Y-101939633D01*
X143550479Y-101999209D01*
X143465971Y-102052309D01*
X143398734Y-102071309D01*
X143334029Y-102052309D01*
X143249520Y-101999209D01*
X143079262Y-101939633D01*
X143079249Y-101939630D01*
X142900004Y-101919435D01*
X142899996Y-101919435D01*
X142720750Y-101939630D01*
X142720745Y-101939631D01*
X142550476Y-101999211D01*
X142397737Y-102095184D01*
X142270184Y-102222737D01*
X142174211Y-102375476D01*
X142114631Y-102545745D01*
X142114630Y-102545750D01*
X142094435Y-102724996D01*
X139811008Y-102724996D01*
X139745204Y-102659192D01*
X139690782Y-102624996D01*
X139606774Y-102572210D01*
X139452455Y-102518212D01*
X139290004Y-102499909D01*
X139289996Y-102499909D01*
X139127544Y-102518212D01*
X138973225Y-102572210D01*
X138834795Y-102659192D01*
X138719192Y-102774795D01*
X138632210Y-102913225D01*
X138578212Y-103067544D01*
X138559909Y-103229996D01*
X137480091Y-103229996D01*
X137461787Y-103067544D01*
X137461786Y-103067542D01*
X137461786Y-103067539D01*
X137407789Y-102913225D01*
X137320808Y-102774796D01*
X137205204Y-102659192D01*
X137150782Y-102624996D01*
X137066774Y-102572210D01*
X136912455Y-102518212D01*
X136750004Y-102499909D01*
X136749996Y-102499909D01*
X136587544Y-102518212D01*
X136433225Y-102572210D01*
X136294795Y-102659192D01*
X136179192Y-102774795D01*
X136092210Y-102913225D01*
X136038212Y-103067544D01*
X136019909Y-103229996D01*
X129860091Y-103229996D01*
X129841787Y-103067544D01*
X129841786Y-103067542D01*
X129841786Y-103067539D01*
X129787789Y-102913225D01*
X129700808Y-102774796D01*
X129585204Y-102659192D01*
X129530782Y-102624996D01*
X129446774Y-102572210D01*
X129292455Y-102518212D01*
X129130004Y-102499909D01*
X129129996Y-102499909D01*
X128967544Y-102518212D01*
X128813225Y-102572210D01*
X128674795Y-102659192D01*
X128559192Y-102774795D01*
X128472210Y-102913225D01*
X128418212Y-103067544D01*
X128399909Y-103229996D01*
X127320091Y-103229996D01*
X127301787Y-103067544D01*
X127301786Y-103067542D01*
X127301786Y-103067539D01*
X127247789Y-102913225D01*
X127160808Y-102774796D01*
X127045204Y-102659192D01*
X126990782Y-102624996D01*
X126906774Y-102572210D01*
X126752455Y-102518212D01*
X126590004Y-102499909D01*
X126589996Y-102499909D01*
X126427544Y-102518212D01*
X126273225Y-102572210D01*
X126134795Y-102659192D01*
X126019192Y-102774795D01*
X125932210Y-102913225D01*
X125878212Y-103067544D01*
X125859556Y-103233124D01*
X125832489Y-103297538D01*
X125774894Y-103337093D01*
X125705057Y-103339230D01*
X125645151Y-103303272D01*
X125630042Y-103281029D01*
X125629494Y-103281374D01*
X125572072Y-103189988D01*
X125529816Y-103122738D01*
X125402262Y-102995184D01*
X125371979Y-102976156D01*
X125249523Y-102899211D01*
X125079254Y-102839631D01*
X125079249Y-102839630D01*
X124900004Y-102819435D01*
X124899996Y-102819435D01*
X124720750Y-102839630D01*
X124720745Y-102839631D01*
X124550476Y-102899211D01*
X124397737Y-102995184D01*
X124270184Y-103122737D01*
X124174210Y-103275478D01*
X124157309Y-103323781D01*
X124116587Y-103380557D01*
X124051635Y-103406305D01*
X123983073Y-103392849D01*
X123957838Y-103374357D01*
X123957705Y-103374525D01*
X123953597Y-103371248D01*
X123952586Y-103370508D01*
X123952262Y-103370184D01*
X123799523Y-103274211D01*
X123629254Y-103214631D01*
X123629249Y-103214630D01*
X123450004Y-103194435D01*
X123449996Y-103194435D01*
X123270750Y-103214630D01*
X123270745Y-103214631D01*
X123100476Y-103274211D01*
X122947737Y-103370184D01*
X122820184Y-103497737D01*
X122724211Y-103650476D01*
X122664631Y-103820745D01*
X122664630Y-103820750D01*
X122644435Y-103999996D01*
X121609180Y-103999996D01*
X121680941Y-103892598D01*
X121760130Y-103701420D01*
X121800500Y-103498465D01*
X121800500Y-103291535D01*
X121760130Y-103088580D01*
X121680941Y-102897402D01*
X121565977Y-102725345D01*
X121565975Y-102725342D01*
X121419657Y-102579024D01*
X121327145Y-102517210D01*
X121247598Y-102464059D01*
X121245553Y-102463212D01*
X121056420Y-102384870D01*
X121056412Y-102384868D01*
X120853469Y-102344500D01*
X120853465Y-102344500D01*
X120246535Y-102344500D01*
X120246530Y-102344500D01*
X120050250Y-102383542D01*
X119980658Y-102377315D01*
X119925481Y-102334451D01*
X119902839Y-102275808D01*
X119885369Y-102120750D01*
X119885368Y-102120745D01*
X119851616Y-102024287D01*
X119825789Y-101950478D01*
X119818973Y-101939631D01*
X119729815Y-101797737D01*
X119602262Y-101670184D01*
X119449519Y-101574208D01*
X119356573Y-101541685D01*
X119299797Y-101500963D01*
X119274050Y-101436010D01*
X119287507Y-101367449D01*
X119331555Y-101319651D01*
X119425204Y-101260808D01*
X119540808Y-101145204D01*
X119627789Y-101006775D01*
X119681786Y-100852461D01*
X119681787Y-100852455D01*
X119700091Y-100690003D01*
X119700091Y-100689996D01*
X119681787Y-100527544D01*
X119681786Y-100527542D01*
X119681786Y-100527539D01*
X119627789Y-100373225D01*
X119540808Y-100234796D01*
X119425204Y-100119192D01*
X119361645Y-100079255D01*
X119286774Y-100032210D01*
X119152939Y-99985379D01*
X119132461Y-99978214D01*
X119132460Y-99978213D01*
X119132455Y-99978212D01*
X118970004Y-99959909D01*
X118969996Y-99959909D01*
X118807544Y-99978212D01*
X118653225Y-100032210D01*
X118514795Y-100119192D01*
X118399192Y-100234795D01*
X118312210Y-100373225D01*
X118258212Y-100527544D01*
X118239909Y-100689996D01*
X118239909Y-100690003D01*
X118258212Y-100852455D01*
X118258213Y-100852460D01*
X118258214Y-100852461D01*
X118259906Y-100857296D01*
X118312210Y-101006774D01*
X118357714Y-101079192D01*
X118399192Y-101145204D01*
X118514796Y-101260808D01*
X118653225Y-101347789D01*
X118704105Y-101365592D01*
X118760880Y-101406313D01*
X118786629Y-101471265D01*
X118773174Y-101539827D01*
X118729124Y-101587627D01*
X118597740Y-101670182D01*
X118597737Y-101670184D01*
X118470184Y-101797737D01*
X118374211Y-101950476D01*
X118314631Y-102120745D01*
X118314630Y-102120750D01*
X118294435Y-102299996D01*
X118294435Y-102300003D01*
X118314284Y-102476174D01*
X118302229Y-102544996D01*
X118254880Y-102596375D01*
X118187270Y-102613999D01*
X118152746Y-102607988D01*
X118013250Y-102562663D01*
X117955574Y-102523226D01*
X117928376Y-102458867D01*
X117940291Y-102390021D01*
X117946567Y-102378771D01*
X118005789Y-102284522D01*
X118065368Y-102114255D01*
X118067677Y-102093762D01*
X118085565Y-101935003D01*
X118085565Y-101934996D01*
X118065369Y-101755750D01*
X118065368Y-101755745D01*
X118047351Y-101704255D01*
X118005789Y-101585478D01*
X117998709Y-101574211D01*
X117909815Y-101432737D01*
X117782262Y-101305184D01*
X117629523Y-101209211D01*
X117459254Y-101149631D01*
X117459249Y-101149630D01*
X117280004Y-101129435D01*
X117279996Y-101129435D01*
X117100750Y-101149630D01*
X117100745Y-101149631D01*
X116930476Y-101209211D01*
X116777737Y-101305184D01*
X116650184Y-101432737D01*
X116554211Y-101585476D01*
X116494631Y-101755745D01*
X116494630Y-101755750D01*
X116474435Y-101934996D01*
X116474435Y-101935003D01*
X116494630Y-102114249D01*
X116494631Y-102114254D01*
X116554211Y-102284523D01*
X116650184Y-102437262D01*
X116745229Y-102532307D01*
X116778714Y-102593630D01*
X116773730Y-102663322D01*
X116731858Y-102719255D01*
X116730434Y-102720306D01*
X116609211Y-102808380D01*
X116478381Y-102939210D01*
X116478381Y-102939211D01*
X116478379Y-102939213D01*
X116451362Y-102976399D01*
X116369622Y-103088903D01*
X116285620Y-103253764D01*
X116285619Y-103253767D01*
X116228445Y-103429734D01*
X116215755Y-103509858D01*
X116199500Y-103612486D01*
X114750500Y-103612486D01*
X114750500Y-98152486D01*
X116199500Y-98152486D01*
X116199500Y-98337513D01*
X116228445Y-98520265D01*
X116285619Y-98696232D01*
X116285620Y-98696235D01*
X116361285Y-98844733D01*
X116369622Y-98861096D01*
X116478379Y-99010787D01*
X116609213Y-99141621D01*
X116730434Y-99229693D01*
X116773099Y-99285023D01*
X116779078Y-99354637D01*
X116746472Y-99416431D01*
X116745230Y-99417692D01*
X116650183Y-99512739D01*
X116554211Y-99665476D01*
X116494631Y-99835745D01*
X116494630Y-99835750D01*
X116474435Y-100014996D01*
X116474435Y-100015003D01*
X116494630Y-100194249D01*
X116494631Y-100194254D01*
X116554211Y-100364523D01*
X116650184Y-100517262D01*
X116777738Y-100644816D01*
X116849648Y-100690000D01*
X116928636Y-100739632D01*
X116930478Y-100740789D01*
X117100745Y-100800368D01*
X117100750Y-100800369D01*
X117279996Y-100820565D01*
X117280000Y-100820565D01*
X117280004Y-100820565D01*
X117459249Y-100800369D01*
X117459252Y-100800368D01*
X117459255Y-100800368D01*
X117629522Y-100740789D01*
X117782262Y-100644816D01*
X117909816Y-100517262D01*
X118005789Y-100364522D01*
X118065368Y-100194255D01*
X118065369Y-100194249D01*
X118085565Y-100015003D01*
X118085565Y-100014996D01*
X118065369Y-99835750D01*
X118065368Y-99835745D01*
X118025686Y-99722341D01*
X118005789Y-99665478D01*
X117991169Y-99642211D01*
X117946574Y-99571238D01*
X117927574Y-99504002D01*
X117947942Y-99437166D01*
X118001209Y-99391952D01*
X118013245Y-99387336D01*
X118176235Y-99334379D01*
X118341096Y-99250378D01*
X118490787Y-99141621D01*
X118621621Y-99010787D01*
X118730378Y-98861096D01*
X118814379Y-98696235D01*
X118871555Y-98520264D01*
X118882441Y-98451530D01*
X119299500Y-98451530D01*
X119299500Y-98658469D01*
X119339868Y-98861412D01*
X119339870Y-98861420D01*
X119407151Y-99023851D01*
X119419059Y-99052598D01*
X119457660Y-99110369D01*
X119534024Y-99224657D01*
X119680342Y-99370975D01*
X119680345Y-99370977D01*
X119852402Y-99485941D01*
X120043580Y-99565130D01*
X120218900Y-99600003D01*
X120246530Y-99605499D01*
X120246534Y-99605500D01*
X120246535Y-99605500D01*
X120853466Y-99605500D01*
X120853467Y-99605499D01*
X120881133Y-99599996D01*
X122294435Y-99599996D01*
X122294435Y-99600003D01*
X122314630Y-99779249D01*
X122314631Y-99779254D01*
X122374211Y-99949523D01*
X122446995Y-100065357D01*
X122470184Y-100102262D01*
X122597738Y-100229816D01*
X122750478Y-100325789D01*
X122886042Y-100373225D01*
X122896891Y-100377021D01*
X122953667Y-100417743D01*
X122972979Y-100453109D01*
X123024210Y-100599521D01*
X123081062Y-100690000D01*
X123120184Y-100752262D01*
X123247738Y-100879816D01*
X123306981Y-100917041D01*
X123397966Y-100974211D01*
X123400478Y-100975789D01*
X123469678Y-101000003D01*
X123570745Y-101035368D01*
X123570750Y-101035369D01*
X123749996Y-101055565D01*
X123750000Y-101055565D01*
X123750004Y-101055565D01*
X123929249Y-101035369D01*
X123929252Y-101035368D01*
X123929255Y-101035368D01*
X124099522Y-100975789D01*
X124102034Y-100974211D01*
X124193017Y-100917042D01*
X124252262Y-100879816D01*
X124252263Y-100879814D01*
X124257871Y-100876291D01*
X124325108Y-100857290D01*
X124391943Y-100877657D01*
X124411525Y-100893603D01*
X124497738Y-100979816D01*
X124540643Y-101006775D01*
X124641557Y-101070184D01*
X124650478Y-101075789D01*
X124820745Y-101135368D01*
X124820750Y-101135369D01*
X124999996Y-101155565D01*
X125000000Y-101155565D01*
X125000004Y-101155565D01*
X125179249Y-101135369D01*
X125179252Y-101135368D01*
X125179255Y-101135368D01*
X125349522Y-101075789D01*
X125502262Y-100979816D01*
X125629816Y-100852262D01*
X125652722Y-100815806D01*
X125705056Y-100769515D01*
X125774109Y-100758866D01*
X125837958Y-100787241D01*
X125876330Y-100845630D01*
X125877938Y-100851672D01*
X125878213Y-100852460D01*
X125878214Y-100852461D01*
X125879906Y-100857296D01*
X125932210Y-101006774D01*
X125977714Y-101079192D01*
X126019192Y-101145204D01*
X126134796Y-101260808D01*
X126273225Y-101347789D01*
X126427539Y-101401786D01*
X126427542Y-101401786D01*
X126427544Y-101401787D01*
X126589996Y-101420091D01*
X126590000Y-101420091D01*
X126590004Y-101420091D01*
X126752455Y-101401787D01*
X126752456Y-101401786D01*
X126752461Y-101401786D01*
X126906775Y-101347789D01*
X127045204Y-101260808D01*
X127160808Y-101145204D01*
X127247789Y-101006775D01*
X127301786Y-100852461D01*
X127301787Y-100852455D01*
X127320091Y-100690003D01*
X127320091Y-100689996D01*
X128399909Y-100689996D01*
X128399909Y-100690003D01*
X128418212Y-100852455D01*
X128418213Y-100852460D01*
X128418214Y-100852461D01*
X128419906Y-100857296D01*
X128472210Y-101006774D01*
X128517714Y-101079192D01*
X128559192Y-101145204D01*
X128674796Y-101260808D01*
X128813225Y-101347789D01*
X128967539Y-101401786D01*
X128967542Y-101401786D01*
X128967544Y-101401787D01*
X129129996Y-101420091D01*
X129130000Y-101420091D01*
X129130004Y-101420091D01*
X129292455Y-101401787D01*
X129292456Y-101401786D01*
X129292461Y-101401786D01*
X129446775Y-101347789D01*
X129585204Y-101260808D01*
X129700808Y-101145204D01*
X129787789Y-101006775D01*
X129790161Y-100999996D01*
X130844435Y-100999996D01*
X130844435Y-101000003D01*
X130864630Y-101179249D01*
X130864631Y-101179254D01*
X130924211Y-101349523D01*
X130976499Y-101432738D01*
X131020184Y-101502262D01*
X131147738Y-101629816D01*
X131211980Y-101670182D01*
X131277684Y-101711467D01*
X131300478Y-101725789D01*
X131386102Y-101755750D01*
X131470745Y-101785368D01*
X131470750Y-101785369D01*
X131649996Y-101805565D01*
X131650000Y-101805565D01*
X131650004Y-101805565D01*
X131829249Y-101785369D01*
X131829252Y-101785368D01*
X131829255Y-101785368D01*
X131999522Y-101725789D01*
X132152262Y-101629816D01*
X132257082Y-101524996D01*
X132894435Y-101524996D01*
X132894435Y-101525003D01*
X132914630Y-101704249D01*
X132914631Y-101704254D01*
X132974211Y-101874523D01*
X133015122Y-101939632D01*
X133070184Y-102027262D01*
X133197738Y-102154816D01*
X133221577Y-102169795D01*
X133305833Y-102222737D01*
X133350478Y-102250789D01*
X133446887Y-102284524D01*
X133520745Y-102310368D01*
X133520750Y-102310369D01*
X133699996Y-102330565D01*
X133700000Y-102330565D01*
X133700004Y-102330565D01*
X133879249Y-102310369D01*
X133879252Y-102310368D01*
X133879255Y-102310368D01*
X134049522Y-102250789D01*
X134202262Y-102154816D01*
X134329816Y-102027262D01*
X134425789Y-101874522D01*
X134485368Y-101704255D01*
X134485847Y-101700003D01*
X134505565Y-101525003D01*
X134505565Y-101524996D01*
X134485369Y-101345750D01*
X134485368Y-101345745D01*
X134455647Y-101260807D01*
X134425789Y-101175478D01*
X134396291Y-101128533D01*
X134363150Y-101075789D01*
X134329816Y-101022738D01*
X134307074Y-100999996D01*
X134919435Y-100999996D01*
X134919435Y-101000003D01*
X134939630Y-101179249D01*
X134939631Y-101179254D01*
X134999211Y-101349523D01*
X135051499Y-101432738D01*
X135095184Y-101502262D01*
X135222738Y-101629816D01*
X135286980Y-101670182D01*
X135352684Y-101711467D01*
X135375478Y-101725789D01*
X135461102Y-101755750D01*
X135545745Y-101785368D01*
X135545750Y-101785369D01*
X135724996Y-101805565D01*
X135725000Y-101805565D01*
X135725004Y-101805565D01*
X135904249Y-101785369D01*
X135904252Y-101785368D01*
X135904255Y-101785368D01*
X136074522Y-101725789D01*
X136227262Y-101629816D01*
X136354816Y-101502262D01*
X136450789Y-101349522D01*
X136463745Y-101312496D01*
X137594909Y-101312496D01*
X137594909Y-101312503D01*
X137613212Y-101474955D01*
X137667210Y-101629274D01*
X137715671Y-101706399D01*
X137754192Y-101767704D01*
X137869796Y-101883308D01*
X138008225Y-101970289D01*
X138162539Y-102024286D01*
X138162542Y-102024286D01*
X138162544Y-102024287D01*
X138324996Y-102042591D01*
X138325000Y-102042591D01*
X138325004Y-102042591D01*
X138487455Y-102024287D01*
X138487456Y-102024286D01*
X138487461Y-102024286D01*
X138641775Y-101970289D01*
X138780204Y-101883308D01*
X138895808Y-101767704D01*
X138982789Y-101629275D01*
X139036786Y-101474961D01*
X139036787Y-101474955D01*
X139055091Y-101312503D01*
X139055091Y-101312496D01*
X139036787Y-101150044D01*
X139036786Y-101150042D01*
X139036786Y-101150039D01*
X139029259Y-101128530D01*
X139025697Y-101058754D01*
X139060425Y-100998126D01*
X139105347Y-100970535D01*
X139141775Y-100957789D01*
X139280204Y-100870808D01*
X139395808Y-100755204D01*
X139482789Y-100616775D01*
X139494591Y-100583045D01*
X139535313Y-100526270D01*
X139600265Y-100500522D01*
X139611633Y-100500000D01*
X144650000Y-100500000D01*
X144650000Y-99899996D01*
X146294435Y-99899996D01*
X146294435Y-99900003D01*
X146314630Y-100079249D01*
X146314631Y-100079254D01*
X146374211Y-100249523D01*
X146437762Y-100350663D01*
X146470184Y-100402262D01*
X146597738Y-100529816D01*
X146750478Y-100625789D01*
X146750480Y-100625790D01*
X146913857Y-100682959D01*
X146970633Y-100723680D01*
X146996380Y-100788633D01*
X146982924Y-100857195D01*
X146934536Y-100907597D01*
X146913857Y-100917041D01*
X146750480Y-100974209D01*
X146597737Y-101070184D01*
X146470184Y-101197737D01*
X146374211Y-101350476D01*
X146314631Y-101520745D01*
X146314630Y-101520750D01*
X146294435Y-101699996D01*
X146294435Y-101700003D01*
X146314630Y-101879249D01*
X146314631Y-101879254D01*
X146374211Y-102049523D01*
X146449784Y-102169796D01*
X146470184Y-102202262D01*
X146597738Y-102329816D01*
X146670409Y-102375478D01*
X146692934Y-102389632D01*
X146750478Y-102425789D01*
X146865763Y-102466129D01*
X146920745Y-102485368D01*
X146920750Y-102485369D01*
X147099996Y-102505565D01*
X147100000Y-102505565D01*
X147100004Y-102505565D01*
X147279249Y-102485369D01*
X147279252Y-102485368D01*
X147279255Y-102485368D01*
X147449522Y-102425789D01*
X147602262Y-102329816D01*
X147729816Y-102202262D01*
X147825789Y-102049522D01*
X147882958Y-101886141D01*
X147923680Y-101829366D01*
X147988633Y-101803619D01*
X148057194Y-101817075D01*
X148107597Y-101865462D01*
X148117042Y-101886142D01*
X148174211Y-102049523D01*
X148249784Y-102169796D01*
X148270184Y-102202262D01*
X148397738Y-102329816D01*
X148470409Y-102375478D01*
X148492934Y-102389632D01*
X148550478Y-102425789D01*
X148665763Y-102466129D01*
X148720745Y-102485368D01*
X148720750Y-102485369D01*
X148899996Y-102505565D01*
X148900000Y-102505565D01*
X148900004Y-102505565D01*
X149079249Y-102485369D01*
X149079252Y-102485368D01*
X149079255Y-102485368D01*
X149249522Y-102425789D01*
X149306785Y-102389807D01*
X149374021Y-102370807D01*
X149407311Y-102380951D01*
X149404690Y-102361299D01*
X149434362Y-102298043D01*
X149439528Y-102292549D01*
X149529816Y-102202262D01*
X149625789Y-102049522D01*
X149685368Y-101879255D01*
X149685901Y-101874523D01*
X149705565Y-101700003D01*
X149705565Y-101699996D01*
X149685369Y-101520750D01*
X149685368Y-101520745D01*
X149683229Y-101514632D01*
X149625789Y-101350478D01*
X149625188Y-101349522D01*
X149569447Y-101260810D01*
X149529816Y-101197738D01*
X149402262Y-101070184D01*
X149352111Y-101038672D01*
X149249523Y-100974211D01*
X149131499Y-100932913D01*
X149086141Y-100917041D01*
X149029366Y-100876320D01*
X149003619Y-100811367D01*
X149017075Y-100742806D01*
X149065462Y-100692403D01*
X149086142Y-100682958D01*
X149249522Y-100625789D01*
X149402262Y-100529816D01*
X149529816Y-100402262D01*
X149625491Y-100249996D01*
X151869909Y-100249996D01*
X151869909Y-100250003D01*
X151888212Y-100412455D01*
X151888213Y-100412460D01*
X151888214Y-100412461D01*
X151895379Y-100432939D01*
X151942210Y-100566774D01*
X151994804Y-100650476D01*
X152029192Y-100705204D01*
X152144796Y-100820808D01*
X152283225Y-100907789D01*
X152437539Y-100961786D01*
X152437542Y-100961786D01*
X152437544Y-100961787D01*
X152515188Y-100970535D01*
X152600000Y-100980091D01*
X152607244Y-100979274D01*
X152676063Y-100991326D01*
X152727445Y-101038672D01*
X152745073Y-101106281D01*
X152723350Y-101172688D01*
X152708817Y-101190171D01*
X152704191Y-101194796D01*
X152617210Y-101333225D01*
X152563212Y-101487544D01*
X152544909Y-101649996D01*
X152544909Y-101650003D01*
X152563212Y-101812455D01*
X152617210Y-101966774D01*
X152669205Y-102049523D01*
X152704192Y-102105204D01*
X152819796Y-102220808D01*
X152958225Y-102307789D01*
X153112539Y-102361786D01*
X153112542Y-102361786D01*
X153112544Y-102361787D01*
X153274996Y-102380091D01*
X153275000Y-102380091D01*
X153275004Y-102380091D01*
X153437455Y-102361787D01*
X153437456Y-102361786D01*
X153437461Y-102361786D01*
X153591775Y-102307789D01*
X153730204Y-102220808D01*
X153845808Y-102105204D01*
X153932789Y-101966775D01*
X153986786Y-101812461D01*
X153987563Y-101805565D01*
X154005091Y-101650003D01*
X154005091Y-101649996D01*
X153986787Y-101487544D01*
X153986786Y-101487542D01*
X153986786Y-101487539D01*
X153932789Y-101333225D01*
X153845808Y-101194796D01*
X153730204Y-101079192D01*
X153665717Y-101038672D01*
X153591774Y-100992210D01*
X153437455Y-100938212D01*
X153275004Y-100919909D01*
X153275002Y-100919909D01*
X153275000Y-100919909D01*
X153267749Y-100920726D01*
X153198927Y-100908669D01*
X153147549Y-100861319D01*
X153129926Y-100793708D01*
X153151654Y-100727303D01*
X153166181Y-100709830D01*
X153170808Y-100705204D01*
X153257789Y-100566775D01*
X153311786Y-100412461D01*
X153316207Y-100373225D01*
X153330091Y-100250003D01*
X153330091Y-100249996D01*
X153311787Y-100087544D01*
X153311786Y-100087542D01*
X153311786Y-100087539D01*
X153257789Y-99933225D01*
X153170808Y-99794796D01*
X153055204Y-99679192D01*
X153033375Y-99665476D01*
X152916774Y-99592210D01*
X152782939Y-99545379D01*
X152762461Y-99538214D01*
X152762460Y-99538213D01*
X152762455Y-99538212D01*
X152600004Y-99519909D01*
X152599996Y-99519909D01*
X152437544Y-99538212D01*
X152283225Y-99592210D01*
X152144795Y-99679192D01*
X152029192Y-99794795D01*
X151942210Y-99933225D01*
X151888212Y-100087544D01*
X151869909Y-100249996D01*
X149625491Y-100249996D01*
X149625789Y-100249522D01*
X149685368Y-100079255D01*
X149686055Y-100073157D01*
X149705565Y-99900003D01*
X149705565Y-99899996D01*
X149685369Y-99720750D01*
X149685368Y-99720745D01*
X149666029Y-99665478D01*
X149625789Y-99550478D01*
X149615353Y-99533870D01*
X149562652Y-99449996D01*
X156919909Y-99449996D01*
X156919909Y-99450003D01*
X156938212Y-99612455D01*
X156992210Y-99766774D01*
X157066425Y-99884886D01*
X157079192Y-99905204D01*
X157194796Y-100020808D01*
X157333225Y-100107789D01*
X157487539Y-100161786D01*
X157487542Y-100161786D01*
X157487544Y-100161787D01*
X157649996Y-100180091D01*
X157650000Y-100180091D01*
X157650004Y-100180091D01*
X157812455Y-100161787D01*
X157812456Y-100161786D01*
X157812461Y-100161786D01*
X157966775Y-100107789D01*
X158105204Y-100020808D01*
X158220808Y-99905204D01*
X158307789Y-99766775D01*
X158361786Y-99612461D01*
X158362563Y-99605565D01*
X158380091Y-99450003D01*
X158380091Y-99449996D01*
X158361787Y-99287544D01*
X158361786Y-99287542D01*
X158361786Y-99287539D01*
X158307789Y-99133225D01*
X158220808Y-98994796D01*
X158105204Y-98879192D01*
X158076920Y-98861420D01*
X157966774Y-98792210D01*
X157812455Y-98738212D01*
X157650004Y-98719909D01*
X157649996Y-98719909D01*
X157487544Y-98738212D01*
X157333225Y-98792210D01*
X157194795Y-98879192D01*
X157079192Y-98994795D01*
X156992210Y-99133225D01*
X156938212Y-99287544D01*
X156919909Y-99449996D01*
X149562652Y-99449996D01*
X149544272Y-99420745D01*
X149529816Y-99397738D01*
X149402262Y-99270184D01*
X149370741Y-99250378D01*
X149249523Y-99174211D01*
X149079254Y-99114631D01*
X149079249Y-99114630D01*
X148900004Y-99094435D01*
X148899996Y-99094435D01*
X148720750Y-99114630D01*
X148720745Y-99114631D01*
X148550476Y-99174211D01*
X148397737Y-99270184D01*
X148270184Y-99397737D01*
X148174209Y-99550480D01*
X148117041Y-99713857D01*
X148076320Y-99770633D01*
X148011367Y-99796380D01*
X147942805Y-99782924D01*
X147892403Y-99734536D01*
X147882959Y-99713857D01*
X147825790Y-99550480D01*
X147825789Y-99550478D01*
X147729816Y-99397738D01*
X147602262Y-99270184D01*
X147570741Y-99250378D01*
X147449523Y-99174211D01*
X147279254Y-99114631D01*
X147279249Y-99114630D01*
X147100004Y-99094435D01*
X147099996Y-99094435D01*
X146920750Y-99114630D01*
X146920745Y-99114631D01*
X146750476Y-99174211D01*
X146597737Y-99270184D01*
X146470184Y-99397737D01*
X146374211Y-99550476D01*
X146314631Y-99720745D01*
X146314630Y-99720750D01*
X146294435Y-99899996D01*
X144650000Y-99899996D01*
X144650000Y-98324996D01*
X145094435Y-98324996D01*
X145094435Y-98325003D01*
X145114630Y-98504249D01*
X145114631Y-98504254D01*
X145174211Y-98674523D01*
X145248159Y-98792210D01*
X145270184Y-98827262D01*
X145397738Y-98954816D01*
X145461364Y-98994795D01*
X145507208Y-99023601D01*
X145550478Y-99050789D01*
X145624739Y-99076774D01*
X145720745Y-99110368D01*
X145720750Y-99110369D01*
X145899996Y-99130565D01*
X145900000Y-99130565D01*
X145900004Y-99130565D01*
X146079249Y-99110369D01*
X146079252Y-99110368D01*
X146079255Y-99110368D01*
X146249522Y-99050789D01*
X146402262Y-98954816D01*
X146529816Y-98827262D01*
X146625789Y-98674522D01*
X146685368Y-98504255D01*
X146689591Y-98466774D01*
X146705565Y-98325003D01*
X146705565Y-98324996D01*
X146685369Y-98145750D01*
X146685368Y-98145745D01*
X146669330Y-98099911D01*
X146625789Y-97975478D01*
X146533444Y-97828513D01*
X146514445Y-97761278D01*
X146534813Y-97694442D01*
X146588080Y-97649228D01*
X146657337Y-97639990D01*
X146704412Y-97657549D01*
X146779964Y-97705022D01*
X146781292Y-97705856D01*
X146935606Y-97759853D01*
X146935609Y-97759853D01*
X146935611Y-97759854D01*
X147098063Y-97778158D01*
X147098067Y-97778158D01*
X147098071Y-97778158D01*
X147260522Y-97759854D01*
X147260523Y-97759853D01*
X147260528Y-97759853D01*
X147414842Y-97705856D01*
X147553271Y-97618875D01*
X147668875Y-97503271D01*
X147755856Y-97364842D01*
X147809853Y-97210528D01*
X147825743Y-97069500D01*
X147828158Y-97048070D01*
X147828158Y-97048063D01*
X147809854Y-96885611D01*
X147809853Y-96885609D01*
X147809853Y-96885606D01*
X147755856Y-96731292D01*
X147668875Y-96592863D01*
X147553271Y-96477259D01*
X147430221Y-96399941D01*
X147414841Y-96390277D01*
X147260522Y-96336279D01*
X147098071Y-96317976D01*
X147098063Y-96317976D01*
X146935611Y-96336279D01*
X146781292Y-96390277D01*
X146642862Y-96477259D01*
X146527259Y-96592862D01*
X146440277Y-96731292D01*
X146386279Y-96885611D01*
X146367976Y-97048063D01*
X146367976Y-97048070D01*
X146386279Y-97210522D01*
X146440278Y-97364843D01*
X146519017Y-97490154D01*
X146538018Y-97557391D01*
X146517651Y-97624226D01*
X146464383Y-97669441D01*
X146395127Y-97678679D01*
X146348052Y-97661121D01*
X146249523Y-97599211D01*
X146079254Y-97539631D01*
X146079249Y-97539630D01*
X145900004Y-97519435D01*
X145899996Y-97519435D01*
X145720750Y-97539630D01*
X145720745Y-97539631D01*
X145550476Y-97599211D01*
X145397737Y-97695184D01*
X145270184Y-97822737D01*
X145174211Y-97975476D01*
X145114631Y-98145745D01*
X145114630Y-98145750D01*
X145094435Y-98324996D01*
X144650000Y-98324996D01*
X144650000Y-96199996D01*
X148669909Y-96199996D01*
X148669909Y-96200003D01*
X148688212Y-96362455D01*
X148742210Y-96516774D01*
X148742211Y-96516775D01*
X148829192Y-96655204D01*
X148944796Y-96770808D01*
X149083225Y-96857789D01*
X149237539Y-96911786D01*
X149237542Y-96911786D01*
X149237544Y-96911787D01*
X149399996Y-96930091D01*
X149400000Y-96930091D01*
X149400004Y-96930091D01*
X149562455Y-96911787D01*
X149562456Y-96911786D01*
X149562461Y-96911786D01*
X149716775Y-96857789D01*
X149855204Y-96770808D01*
X149970808Y-96655204D01*
X150057789Y-96516775D01*
X150111786Y-96362461D01*
X150111787Y-96362455D01*
X150130091Y-96200003D01*
X150130091Y-96199996D01*
X150111787Y-96037544D01*
X150111786Y-96037542D01*
X150111786Y-96037539D01*
X150057789Y-95883225D01*
X149970808Y-95744796D01*
X149855204Y-95629192D01*
X149824654Y-95609996D01*
X153799909Y-95609996D01*
X153799909Y-95610003D01*
X153818212Y-95772455D01*
X153872210Y-95926774D01*
X153941809Y-96037539D01*
X153959192Y-96065204D01*
X154074796Y-96180808D01*
X154213225Y-96267789D01*
X154367539Y-96321786D01*
X154367542Y-96321786D01*
X154367544Y-96321787D01*
X154529996Y-96340091D01*
X154530000Y-96340091D01*
X154530004Y-96340091D01*
X154692455Y-96321787D01*
X154692456Y-96321786D01*
X154692461Y-96321786D01*
X154846775Y-96267789D01*
X154985204Y-96180808D01*
X155100808Y-96065204D01*
X155187789Y-95926775D01*
X155241786Y-95772461D01*
X155241979Y-95770750D01*
X155260091Y-95610003D01*
X155260091Y-95609996D01*
X156339909Y-95609996D01*
X156339909Y-95610003D01*
X156358212Y-95772455D01*
X156412210Y-95926774D01*
X156481809Y-96037539D01*
X156499192Y-96065204D01*
X156614796Y-96180808D01*
X156753225Y-96267789D01*
X156907539Y-96321786D01*
X156907542Y-96321786D01*
X156907544Y-96321787D01*
X157069996Y-96340091D01*
X157070000Y-96340091D01*
X157070004Y-96340091D01*
X157232455Y-96321787D01*
X157232456Y-96321786D01*
X157232461Y-96321786D01*
X157386775Y-96267789D01*
X157525204Y-96180808D01*
X157640808Y-96065204D01*
X157727789Y-95926775D01*
X157781786Y-95772461D01*
X157781979Y-95770750D01*
X157800091Y-95610003D01*
X157800091Y-95609996D01*
X158879909Y-95609996D01*
X158879909Y-95610003D01*
X158898212Y-95772455D01*
X158952210Y-95926774D01*
X159021809Y-96037539D01*
X159039192Y-96065204D01*
X159154796Y-96180808D01*
X159293225Y-96267789D01*
X159447539Y-96321786D01*
X159447542Y-96321786D01*
X159447544Y-96321787D01*
X159609996Y-96340091D01*
X159610000Y-96340091D01*
X159610004Y-96340091D01*
X159772455Y-96321787D01*
X159772456Y-96321786D01*
X159772461Y-96321786D01*
X159926775Y-96267789D01*
X160065204Y-96180808D01*
X160180808Y-96065204D01*
X160267789Y-95926775D01*
X160321786Y-95772461D01*
X160321979Y-95770750D01*
X160340091Y-95610003D01*
X160340091Y-95609996D01*
X161419909Y-95609996D01*
X161419909Y-95610003D01*
X161438212Y-95772455D01*
X161492210Y-95926774D01*
X161561809Y-96037539D01*
X161579192Y-96065204D01*
X161694796Y-96180808D01*
X161833225Y-96267789D01*
X161987539Y-96321786D01*
X161987542Y-96321786D01*
X161987544Y-96321787D01*
X162149996Y-96340091D01*
X162150000Y-96340091D01*
X162150004Y-96340091D01*
X162312455Y-96321787D01*
X162312456Y-96321786D01*
X162312461Y-96321786D01*
X162466775Y-96267789D01*
X162605204Y-96180808D01*
X162720808Y-96065204D01*
X162807789Y-95926775D01*
X162861786Y-95772461D01*
X162861979Y-95770750D01*
X162880091Y-95610003D01*
X162880091Y-95609996D01*
X162861787Y-95447544D01*
X162861786Y-95447542D01*
X162861786Y-95447539D01*
X162807789Y-95293225D01*
X162720808Y-95154796D01*
X162605204Y-95039192D01*
X162531940Y-94993157D01*
X162466774Y-94952210D01*
X162332939Y-94905379D01*
X162312461Y-94898214D01*
X162312460Y-94898213D01*
X162312455Y-94898212D01*
X162150004Y-94879909D01*
X162149996Y-94879909D01*
X161987544Y-94898212D01*
X161833225Y-94952210D01*
X161694795Y-95039192D01*
X161579192Y-95154795D01*
X161492210Y-95293225D01*
X161438212Y-95447544D01*
X161419909Y-95609996D01*
X160340091Y-95609996D01*
X160321787Y-95447544D01*
X160321786Y-95447542D01*
X160321786Y-95447539D01*
X160267789Y-95293225D01*
X160180808Y-95154796D01*
X160065204Y-95039192D01*
X159991940Y-94993157D01*
X159926774Y-94952210D01*
X159792939Y-94905379D01*
X159772461Y-94898214D01*
X159772460Y-94898213D01*
X159772455Y-94898212D01*
X159610004Y-94879909D01*
X159609996Y-94879909D01*
X159447544Y-94898212D01*
X159293225Y-94952210D01*
X159154795Y-95039192D01*
X159039192Y-95154795D01*
X158952210Y-95293225D01*
X158898212Y-95447544D01*
X158879909Y-95609996D01*
X157800091Y-95609996D01*
X157781787Y-95447544D01*
X157781786Y-95447542D01*
X157781786Y-95447539D01*
X157727789Y-95293225D01*
X157640808Y-95154796D01*
X157525204Y-95039192D01*
X157451940Y-94993157D01*
X157386774Y-94952210D01*
X157252939Y-94905379D01*
X157232461Y-94898214D01*
X157232460Y-94898213D01*
X157232455Y-94898212D01*
X157070004Y-94879909D01*
X157069996Y-94879909D01*
X156907544Y-94898212D01*
X156753225Y-94952210D01*
X156614795Y-95039192D01*
X156499192Y-95154795D01*
X156412210Y-95293225D01*
X156358212Y-95447544D01*
X156339909Y-95609996D01*
X155260091Y-95609996D01*
X155241787Y-95447544D01*
X155241786Y-95447542D01*
X155241786Y-95447539D01*
X155187789Y-95293225D01*
X155100808Y-95154796D01*
X154985204Y-95039192D01*
X154911940Y-94993157D01*
X154846774Y-94952210D01*
X154712939Y-94905379D01*
X154692461Y-94898214D01*
X154692460Y-94898213D01*
X154692455Y-94898212D01*
X154530004Y-94879909D01*
X154529996Y-94879909D01*
X154367544Y-94898212D01*
X154213225Y-94952210D01*
X154074795Y-95039192D01*
X153959192Y-95154795D01*
X153872210Y-95293225D01*
X153818212Y-95447544D01*
X153799909Y-95609996D01*
X149824654Y-95609996D01*
X149716774Y-95542210D01*
X149562455Y-95488212D01*
X149400004Y-95469909D01*
X149399996Y-95469909D01*
X149237544Y-95488212D01*
X149083225Y-95542210D01*
X148944795Y-95629192D01*
X148829192Y-95744795D01*
X148742210Y-95883225D01*
X148688212Y-96037544D01*
X148669909Y-96199996D01*
X144650000Y-96199996D01*
X144650000Y-95750000D01*
X144410520Y-95750000D01*
X144343481Y-95730315D01*
X144297726Y-95677511D01*
X144287300Y-95612117D01*
X144305565Y-95450003D01*
X144305565Y-95449996D01*
X144285369Y-95270750D01*
X144285368Y-95270745D01*
X144248237Y-95164630D01*
X144225789Y-95100478D01*
X144194069Y-95049996D01*
X146269435Y-95049996D01*
X146269435Y-95050003D01*
X146289630Y-95229249D01*
X146289631Y-95229254D01*
X146349211Y-95399523D01*
X146445184Y-95552262D01*
X146572738Y-95679816D01*
X146653107Y-95730315D01*
X146722315Y-95773802D01*
X146725478Y-95775789D01*
X146827517Y-95811494D01*
X146895745Y-95835368D01*
X146895750Y-95835369D01*
X147074996Y-95855565D01*
X147075000Y-95855565D01*
X147075004Y-95855565D01*
X147254249Y-95835369D01*
X147254252Y-95835368D01*
X147254255Y-95835368D01*
X147424522Y-95775789D01*
X147577262Y-95679816D01*
X147704816Y-95552262D01*
X147800789Y-95399522D01*
X147860368Y-95229255D01*
X147860369Y-95229249D01*
X147880565Y-95050003D01*
X147880565Y-95049996D01*
X147860369Y-94870750D01*
X147860368Y-94870745D01*
X147800789Y-94700478D01*
X147782145Y-94670807D01*
X147709507Y-94555204D01*
X147704816Y-94547738D01*
X147577262Y-94420184D01*
X147566515Y-94413431D01*
X147424523Y-94324211D01*
X147254254Y-94264631D01*
X147254249Y-94264630D01*
X147075004Y-94244435D01*
X147074996Y-94244435D01*
X146895750Y-94264630D01*
X146895745Y-94264631D01*
X146725476Y-94324211D01*
X146572737Y-94420184D01*
X146445184Y-94547737D01*
X146349211Y-94700476D01*
X146289631Y-94870745D01*
X146289630Y-94870750D01*
X146269435Y-95049996D01*
X144194069Y-95049996D01*
X144129816Y-94947738D01*
X144002262Y-94820184D01*
X143960532Y-94793963D01*
X143849523Y-94724211D01*
X143679254Y-94664631D01*
X143679249Y-94664630D01*
X143500004Y-94644435D01*
X143499996Y-94644435D01*
X143320750Y-94664630D01*
X143320745Y-94664631D01*
X143150476Y-94724211D01*
X142997737Y-94820184D01*
X142870184Y-94947737D01*
X142774211Y-95100476D01*
X142714631Y-95270745D01*
X142714630Y-95270750D01*
X142694435Y-95449996D01*
X142694435Y-95450003D01*
X142712700Y-95612117D01*
X142700645Y-95680939D01*
X142653296Y-95732318D01*
X142589480Y-95750000D01*
X139500000Y-95750000D01*
X139500000Y-97917111D01*
X139480315Y-97984150D01*
X139427511Y-98029905D01*
X139358353Y-98039849D01*
X139335047Y-98034153D01*
X139279260Y-98014633D01*
X139279249Y-98014630D01*
X139100004Y-97994435D01*
X139099996Y-97994435D01*
X138920750Y-98014630D01*
X138920745Y-98014631D01*
X138750476Y-98074211D01*
X138597737Y-98170184D01*
X138470184Y-98297737D01*
X138374211Y-98450476D01*
X138314631Y-98620745D01*
X138314630Y-98620750D01*
X138294435Y-98799996D01*
X138294435Y-98800003D01*
X138314630Y-98979249D01*
X138314631Y-98979254D01*
X138374211Y-99149523D01*
X138470184Y-99302262D01*
X138592330Y-99424408D01*
X138625815Y-99485731D01*
X138620831Y-99555423D01*
X138578959Y-99611356D01*
X138545605Y-99629130D01*
X138508226Y-99642209D01*
X138369795Y-99729192D01*
X138254192Y-99844795D01*
X138167210Y-99983225D01*
X138113212Y-100137544D01*
X138094909Y-100299996D01*
X138094909Y-100300003D01*
X138113212Y-100462455D01*
X138120740Y-100483968D01*
X138124301Y-100553747D01*
X138089572Y-100614374D01*
X138044656Y-100641962D01*
X138008226Y-100654710D01*
X138008222Y-100654712D01*
X137869795Y-100741692D01*
X137754192Y-100857295D01*
X137667210Y-100995725D01*
X137613212Y-101150044D01*
X137594909Y-101312496D01*
X136463745Y-101312496D01*
X136510368Y-101179255D01*
X136511108Y-101172688D01*
X136530565Y-101000003D01*
X136530565Y-100999996D01*
X136510369Y-100820750D01*
X136510368Y-100820745D01*
X136500907Y-100793708D01*
X136450789Y-100650478D01*
X136447231Y-100644816D01*
X136372744Y-100526270D01*
X136354816Y-100497738D01*
X136227262Y-100370184D01*
X136196195Y-100350663D01*
X136074523Y-100274211D01*
X135904254Y-100214631D01*
X135904249Y-100214630D01*
X135725004Y-100194435D01*
X135724996Y-100194435D01*
X135545750Y-100214630D01*
X135545745Y-100214631D01*
X135375476Y-100274211D01*
X135222737Y-100370184D01*
X135095184Y-100497737D01*
X134999211Y-100650476D01*
X134939631Y-100820745D01*
X134939630Y-100820750D01*
X134919435Y-100999996D01*
X134307074Y-100999996D01*
X134202262Y-100895184D01*
X134177804Y-100879816D01*
X134049523Y-100799211D01*
X133879254Y-100739631D01*
X133879249Y-100739630D01*
X133700004Y-100719435D01*
X133699996Y-100719435D01*
X133520750Y-100739630D01*
X133520745Y-100739631D01*
X133350476Y-100799211D01*
X133197737Y-100895184D01*
X133070184Y-101022737D01*
X132974211Y-101175476D01*
X132914631Y-101345745D01*
X132914630Y-101345750D01*
X132894435Y-101524996D01*
X132257082Y-101524996D01*
X132279816Y-101502262D01*
X132375789Y-101349522D01*
X132435368Y-101179255D01*
X132436108Y-101172688D01*
X132455565Y-101000003D01*
X132455565Y-100999996D01*
X132435369Y-100820750D01*
X132435368Y-100820745D01*
X132425907Y-100793708D01*
X132375789Y-100650478D01*
X132372231Y-100644816D01*
X132297744Y-100526270D01*
X132279816Y-100497738D01*
X132152262Y-100370184D01*
X132121195Y-100350663D01*
X131999523Y-100274211D01*
X131829254Y-100214631D01*
X131829249Y-100214630D01*
X131650004Y-100194435D01*
X131649996Y-100194435D01*
X131470750Y-100214630D01*
X131470745Y-100214631D01*
X131300476Y-100274211D01*
X131147737Y-100370184D01*
X131020184Y-100497737D01*
X130924211Y-100650476D01*
X130864631Y-100820745D01*
X130864630Y-100820750D01*
X130844435Y-100999996D01*
X129790161Y-100999996D01*
X129841786Y-100852461D01*
X129841787Y-100852455D01*
X129860091Y-100690003D01*
X129860091Y-100689996D01*
X129841787Y-100527544D01*
X129841786Y-100527542D01*
X129841786Y-100527539D01*
X129787789Y-100373225D01*
X129700808Y-100234796D01*
X129585204Y-100119192D01*
X129521645Y-100079255D01*
X129446774Y-100032210D01*
X129312939Y-99985379D01*
X129292461Y-99978214D01*
X129292460Y-99978213D01*
X129292455Y-99978212D01*
X129130004Y-99959909D01*
X129129996Y-99959909D01*
X128967544Y-99978212D01*
X128813225Y-100032210D01*
X128674795Y-100119192D01*
X128559192Y-100234795D01*
X128472210Y-100373225D01*
X128418212Y-100527544D01*
X128399909Y-100689996D01*
X127320091Y-100689996D01*
X127301787Y-100527544D01*
X127301786Y-100527542D01*
X127301786Y-100527539D01*
X127247789Y-100373225D01*
X127160808Y-100234796D01*
X127045204Y-100119192D01*
X126981645Y-100079255D01*
X126906774Y-100032210D01*
X126772939Y-99985379D01*
X126752461Y-99978214D01*
X126752460Y-99978213D01*
X126752455Y-99978212D01*
X126590004Y-99959909D01*
X126589996Y-99959909D01*
X126427544Y-99978212D01*
X126273225Y-100032210D01*
X126134795Y-100119192D01*
X126019191Y-100234796D01*
X126015575Y-100240552D01*
X125963238Y-100286840D01*
X125894184Y-100297486D01*
X125830337Y-100269108D01*
X125791968Y-100210716D01*
X125787364Y-100188461D01*
X125785368Y-100170745D01*
X125725789Y-100000478D01*
X125629816Y-99847738D01*
X125502262Y-99720184D01*
X125437024Y-99679192D01*
X125349523Y-99624211D01*
X125179254Y-99564631D01*
X125179249Y-99564630D01*
X125000004Y-99544435D01*
X124999996Y-99544435D01*
X124820750Y-99564630D01*
X124820745Y-99564631D01*
X124650476Y-99624211D01*
X124492127Y-99723709D01*
X124424890Y-99742709D01*
X124358055Y-99722341D01*
X124338474Y-99706396D01*
X124252262Y-99620184D01*
X124099521Y-99524210D01*
X123953109Y-99472979D01*
X123896333Y-99432257D01*
X123877021Y-99396891D01*
X123850398Y-99320808D01*
X123825789Y-99250478D01*
X123729816Y-99097738D01*
X123602262Y-98970184D01*
X123577804Y-98954816D01*
X123449523Y-98874211D01*
X123279254Y-98814631D01*
X123279249Y-98814630D01*
X123100004Y-98794435D01*
X123099996Y-98794435D01*
X122920750Y-98814630D01*
X122920745Y-98814631D01*
X122750476Y-98874211D01*
X122597737Y-98970184D01*
X122470184Y-99097737D01*
X122374211Y-99250476D01*
X122314631Y-99420745D01*
X122314630Y-99420750D01*
X122294435Y-99599996D01*
X120881133Y-99599996D01*
X121056420Y-99565130D01*
X121247598Y-99485941D01*
X121419655Y-99370977D01*
X121565977Y-99224655D01*
X121680941Y-99052598D01*
X121760130Y-98861420D01*
X121782293Y-98749996D01*
X126739909Y-98749996D01*
X126739909Y-98750003D01*
X126758212Y-98912455D01*
X126812210Y-99066774D01*
X126879718Y-99174211D01*
X126899192Y-99205204D01*
X127014796Y-99320808D01*
X127153225Y-99407789D01*
X127307539Y-99461786D01*
X127307542Y-99461786D01*
X127307544Y-99461787D01*
X127469996Y-99480091D01*
X127470000Y-99480091D01*
X127470004Y-99480091D01*
X127632457Y-99461787D01*
X127632459Y-99461786D01*
X127632461Y-99461786D01*
X127786775Y-99407789D01*
X127799028Y-99400089D01*
X127866264Y-99381089D01*
X127930971Y-99400089D01*
X127943225Y-99407789D01*
X128097539Y-99461786D01*
X128097542Y-99461787D01*
X128259996Y-99480091D01*
X128260000Y-99480091D01*
X128260004Y-99480091D01*
X128422457Y-99461787D01*
X128422459Y-99461786D01*
X128422461Y-99461786D01*
X128576775Y-99407789D01*
X128591069Y-99398807D01*
X128658302Y-99379806D01*
X128723013Y-99398806D01*
X128753224Y-99417789D01*
X128787596Y-99429816D01*
X128907539Y-99471786D01*
X128907542Y-99471786D01*
X128907544Y-99471787D01*
X129069996Y-99490091D01*
X129070000Y-99490091D01*
X129070004Y-99490091D01*
X129232455Y-99471787D01*
X129232456Y-99471786D01*
X129232461Y-99471786D01*
X129386775Y-99417789D01*
X129525204Y-99330808D01*
X129640808Y-99215204D01*
X129727789Y-99076775D01*
X129781786Y-98922461D01*
X129782913Y-98912461D01*
X129800091Y-98760003D01*
X129800091Y-98759996D01*
X129781787Y-98597544D01*
X129781786Y-98597542D01*
X129781786Y-98597539D01*
X129727789Y-98443225D01*
X129640808Y-98304796D01*
X129525204Y-98189192D01*
X129466787Y-98152486D01*
X129462824Y-98149996D01*
X136019909Y-98149996D01*
X136019909Y-98150003D01*
X136038212Y-98312455D01*
X136092210Y-98466774D01*
X136115761Y-98504255D01*
X136179192Y-98605204D01*
X136294796Y-98720808D01*
X136433225Y-98807789D01*
X136587539Y-98861786D01*
X136587542Y-98861786D01*
X136587544Y-98861787D01*
X136749996Y-98880091D01*
X136750000Y-98880091D01*
X136750004Y-98880091D01*
X136912455Y-98861787D01*
X136912456Y-98861786D01*
X136912461Y-98861786D01*
X137066775Y-98807789D01*
X137205204Y-98720808D01*
X137320808Y-98605204D01*
X137407789Y-98466775D01*
X137461786Y-98312461D01*
X137463445Y-98297737D01*
X137480091Y-98150003D01*
X137480091Y-98149996D01*
X137461787Y-97987544D01*
X137461786Y-97987542D01*
X137461786Y-97987539D01*
X137407789Y-97833225D01*
X137320808Y-97694796D01*
X137205204Y-97579192D01*
X137167750Y-97555658D01*
X137066774Y-97492210D01*
X136912455Y-97438212D01*
X136750004Y-97419909D01*
X136749996Y-97419909D01*
X136587544Y-97438212D01*
X136433225Y-97492210D01*
X136294795Y-97579192D01*
X136179192Y-97694795D01*
X136092210Y-97833225D01*
X136038212Y-97987544D01*
X136019909Y-98149996D01*
X129462824Y-98149996D01*
X129386774Y-98102210D01*
X129232455Y-98048212D01*
X129070004Y-98029909D01*
X129069996Y-98029909D01*
X128907544Y-98048212D01*
X128753223Y-98102211D01*
X128738925Y-98111195D01*
X128671687Y-98130192D01*
X128606985Y-98111193D01*
X128576774Y-98092210D01*
X128442939Y-98045379D01*
X128422461Y-98038214D01*
X128422460Y-98038213D01*
X128422455Y-98038212D01*
X128322852Y-98026990D01*
X128284911Y-98011047D01*
X128269658Y-98018586D01*
X128262147Y-98019666D01*
X128097544Y-98038212D01*
X127943224Y-98092210D01*
X127930969Y-98099911D01*
X127863731Y-98118909D01*
X127799031Y-98099911D01*
X127786775Y-98092210D01*
X127646420Y-98043098D01*
X127632461Y-98038214D01*
X127632460Y-98038213D01*
X127632455Y-98038212D01*
X127537626Y-98027528D01*
X127501457Y-98012330D01*
X127489885Y-98018049D01*
X127475081Y-98019335D01*
X127307544Y-98038212D01*
X127153225Y-98092210D01*
X127014795Y-98179192D01*
X126899192Y-98294795D01*
X126812210Y-98433225D01*
X126758212Y-98587544D01*
X126739909Y-98749996D01*
X121782293Y-98749996D01*
X121800500Y-98658465D01*
X121800500Y-98451535D01*
X121760130Y-98248580D01*
X121680941Y-98057402D01*
X121565977Y-97885345D01*
X121565975Y-97885342D01*
X121419657Y-97739024D01*
X121324464Y-97675419D01*
X121247598Y-97624059D01*
X121240273Y-97621025D01*
X121056420Y-97544870D01*
X121056412Y-97544868D01*
X120853469Y-97504500D01*
X120853465Y-97504500D01*
X120246535Y-97504500D01*
X120246530Y-97504500D01*
X120043587Y-97544868D01*
X120043579Y-97544870D01*
X119852403Y-97624058D01*
X119680342Y-97739024D01*
X119534024Y-97885342D01*
X119419058Y-98057403D01*
X119339870Y-98248579D01*
X119339868Y-98248587D01*
X119299500Y-98451530D01*
X118882441Y-98451530D01*
X118900500Y-98337514D01*
X118900500Y-98152486D01*
X118871555Y-97969736D01*
X118832418Y-97849283D01*
X118814380Y-97793767D01*
X118814379Y-97793764D01*
X118763771Y-97694442D01*
X118730378Y-97628904D01*
X118621621Y-97479213D01*
X118490787Y-97348379D01*
X118341096Y-97239622D01*
X118287778Y-97212455D01*
X118176235Y-97155620D01*
X118176232Y-97155619D01*
X118000265Y-97098445D01*
X117908889Y-97083972D01*
X117817514Y-97069500D01*
X117282486Y-97069500D01*
X117221569Y-97079148D01*
X117099734Y-97098445D01*
X116923767Y-97155619D01*
X116923764Y-97155620D01*
X116758903Y-97239622D01*
X116673499Y-97301672D01*
X116609213Y-97348379D01*
X116609211Y-97348381D01*
X116609210Y-97348381D01*
X116478381Y-97479210D01*
X116478381Y-97479211D01*
X116478379Y-97479213D01*
X116443546Y-97527157D01*
X116369622Y-97628903D01*
X116285620Y-97793764D01*
X116285619Y-97793767D01*
X116228445Y-97969734D01*
X116199500Y-98152486D01*
X114750500Y-98152486D01*
X114750500Y-95609996D01*
X115699909Y-95609996D01*
X115699909Y-95610003D01*
X115718212Y-95772455D01*
X115772210Y-95926774D01*
X115841809Y-96037539D01*
X115859192Y-96065204D01*
X115974796Y-96180808D01*
X116113225Y-96267789D01*
X116267539Y-96321786D01*
X116267542Y-96321786D01*
X116267544Y-96321787D01*
X116429996Y-96340091D01*
X116430000Y-96340091D01*
X116430004Y-96340091D01*
X116592455Y-96321787D01*
X116592456Y-96321786D01*
X116592461Y-96321786D01*
X116746775Y-96267789D01*
X116885204Y-96180808D01*
X117000808Y-96065204D01*
X117087789Y-95926775D01*
X117141786Y-95772461D01*
X117141979Y-95770750D01*
X117160091Y-95610003D01*
X117160091Y-95609996D01*
X118239909Y-95609996D01*
X118239909Y-95610003D01*
X118258212Y-95772455D01*
X118312210Y-95926774D01*
X118381809Y-96037539D01*
X118399192Y-96065204D01*
X118514796Y-96180808D01*
X118653225Y-96267789D01*
X118807539Y-96321786D01*
X118807542Y-96321786D01*
X118807544Y-96321787D01*
X118969996Y-96340091D01*
X118970000Y-96340091D01*
X118970004Y-96340091D01*
X119132455Y-96321787D01*
X119132456Y-96321786D01*
X119132461Y-96321786D01*
X119286775Y-96267789D01*
X119425204Y-96180808D01*
X119540808Y-96065204D01*
X119627789Y-95926775D01*
X119681786Y-95772461D01*
X119681979Y-95770750D01*
X119700091Y-95610003D01*
X119700091Y-95609996D01*
X120779909Y-95609996D01*
X120779909Y-95610003D01*
X120798212Y-95772455D01*
X120852210Y-95926774D01*
X120921809Y-96037539D01*
X120939192Y-96065204D01*
X121054796Y-96180808D01*
X121193225Y-96267789D01*
X121347539Y-96321786D01*
X121347542Y-96321786D01*
X121347544Y-96321787D01*
X121509996Y-96340091D01*
X121510000Y-96340091D01*
X121510004Y-96340091D01*
X121672455Y-96321787D01*
X121672456Y-96321786D01*
X121672461Y-96321786D01*
X121826775Y-96267789D01*
X121965204Y-96180808D01*
X122080808Y-96065204D01*
X122167789Y-95926775D01*
X122221786Y-95772461D01*
X122221979Y-95770750D01*
X122240091Y-95610003D01*
X122240091Y-95609996D01*
X122221787Y-95447544D01*
X122221786Y-95447542D01*
X122221786Y-95447539D01*
X122167789Y-95293225D01*
X122080808Y-95154796D01*
X122025845Y-95099833D01*
X122519909Y-95099833D01*
X122519909Y-95099840D01*
X122538212Y-95262290D01*
X122538213Y-95262294D01*
X122538214Y-95262298D01*
X122585640Y-95397833D01*
X122589201Y-95467610D01*
X122585640Y-95479740D01*
X122547956Y-95587435D01*
X122529653Y-95749887D01*
X122529653Y-95749894D01*
X122547956Y-95912346D01*
X122547957Y-95912351D01*
X122547958Y-95912352D01*
X122553005Y-95926775D01*
X122593268Y-96041840D01*
X122596829Y-96111619D01*
X122593268Y-96123748D01*
X122553468Y-96237489D01*
X122535165Y-96399941D01*
X122535165Y-96399948D01*
X122553468Y-96562400D01*
X122553469Y-96562405D01*
X122553470Y-96562406D01*
X122600896Y-96697941D01*
X122604457Y-96767720D01*
X122600896Y-96779849D01*
X122563212Y-96887544D01*
X122544909Y-97049996D01*
X122544909Y-97050003D01*
X122563212Y-97212455D01*
X122617210Y-97366774D01*
X122672432Y-97454659D01*
X122704192Y-97505204D01*
X122819796Y-97620808D01*
X122958225Y-97707789D01*
X123112539Y-97761786D01*
X123112542Y-97761786D01*
X123112544Y-97761787D01*
X123274996Y-97780091D01*
X123275000Y-97780091D01*
X123275004Y-97780091D01*
X123437457Y-97761787D01*
X123437459Y-97761786D01*
X123437461Y-97761786D01*
X123591775Y-97707789D01*
X123596525Y-97704803D01*
X123663758Y-97685801D01*
X123728474Y-97704803D01*
X123733225Y-97707789D01*
X123859570Y-97751999D01*
X123887542Y-97761787D01*
X124049996Y-97780091D01*
X124050000Y-97780091D01*
X124050004Y-97780091D01*
X124212455Y-97761787D01*
X124212456Y-97761786D01*
X124212461Y-97761786D01*
X124366775Y-97707789D01*
X124505204Y-97620808D01*
X124570356Y-97555655D01*
X124631675Y-97522173D01*
X124701367Y-97527157D01*
X124757301Y-97569028D01*
X124763026Y-97577365D01*
X124763867Y-97578703D01*
X124879471Y-97694307D01*
X125017900Y-97781288D01*
X125172214Y-97835285D01*
X125172217Y-97835285D01*
X125172219Y-97835286D01*
X125334671Y-97853590D01*
X125334675Y-97853590D01*
X125334679Y-97853590D01*
X125497130Y-97835286D01*
X125497131Y-97835285D01*
X125497136Y-97835285D01*
X125651450Y-97781288D01*
X125738654Y-97726493D01*
X125805889Y-97707493D01*
X125870598Y-97726493D01*
X125955899Y-97780091D01*
X125980080Y-97795285D01*
X126134394Y-97849282D01*
X126134397Y-97849282D01*
X126134399Y-97849283D01*
X126296851Y-97867587D01*
X126296855Y-97867587D01*
X126296859Y-97867587D01*
X126459310Y-97849283D01*
X126459311Y-97849282D01*
X126459316Y-97849282D01*
X126613630Y-97795285D01*
X126752059Y-97708304D01*
X126867663Y-97592700D01*
X126867667Y-97592692D01*
X126869355Y-97590578D01*
X126870797Y-97589565D01*
X126872587Y-97587776D01*
X126872900Y-97588089D01*
X126926543Y-97550438D01*
X126996355Y-97547589D01*
X127053982Y-97580211D01*
X127094796Y-97621025D01*
X127233225Y-97708006D01*
X127387539Y-97762003D01*
X127387542Y-97762003D01*
X127387544Y-97762004D01*
X127482374Y-97772689D01*
X127518542Y-97787886D01*
X127530115Y-97782168D01*
X127544918Y-97780881D01*
X127712457Y-97762004D01*
X127712459Y-97762003D01*
X127712461Y-97762003D01*
X127866775Y-97708006D01*
X127871525Y-97705020D01*
X127938758Y-97686018D01*
X128003474Y-97705020D01*
X128008225Y-97708006D01*
X128061061Y-97726494D01*
X128162542Y-97762004D01*
X128262146Y-97773226D01*
X128300087Y-97789168D01*
X128315342Y-97781630D01*
X128322853Y-97780550D01*
X128487457Y-97762004D01*
X128487459Y-97762003D01*
X128487461Y-97762003D01*
X128641775Y-97708006D01*
X128641781Y-97708001D01*
X128648048Y-97704985D01*
X128648999Y-97706961D01*
X128706114Y-97690811D01*
X128760790Y-97706865D01*
X128761696Y-97704985D01*
X128767965Y-97708003D01*
X128767969Y-97708006D01*
X128916139Y-97759853D01*
X128922286Y-97762004D01*
X129084740Y-97780308D01*
X129084744Y-97780308D01*
X129084748Y-97780308D01*
X129247199Y-97762004D01*
X129247200Y-97762003D01*
X129247205Y-97762003D01*
X129401519Y-97708006D01*
X129539948Y-97621025D01*
X129655552Y-97505421D01*
X129742533Y-97366992D01*
X129796530Y-97212678D01*
X129796531Y-97212672D01*
X129814835Y-97050220D01*
X129814835Y-97050213D01*
X129796531Y-96887761D01*
X129796530Y-96887759D01*
X129796530Y-96887756D01*
X129779061Y-96837834D01*
X129775499Y-96768061D01*
X129810227Y-96707433D01*
X129872220Y-96675205D01*
X129937058Y-96679841D01*
X130095745Y-96735368D01*
X130095750Y-96735369D01*
X130274996Y-96755565D01*
X130275000Y-96755565D01*
X130275004Y-96755565D01*
X130454249Y-96735369D01*
X130454252Y-96735368D01*
X130454255Y-96735368D01*
X130624522Y-96675789D01*
X130777262Y-96579816D01*
X130904816Y-96452262D01*
X131000789Y-96299522D01*
X131060368Y-96129255D01*
X131060369Y-96129249D01*
X131080565Y-95950003D01*
X131080565Y-95949996D01*
X131060369Y-95770750D01*
X131060368Y-95770745D01*
X131046221Y-95730315D01*
X131004119Y-95609996D01*
X133479909Y-95609996D01*
X133479909Y-95610003D01*
X133498212Y-95772455D01*
X133552210Y-95926774D01*
X133621809Y-96037539D01*
X133639192Y-96065204D01*
X133754796Y-96180808D01*
X133893225Y-96267789D01*
X134047539Y-96321786D01*
X134047542Y-96321786D01*
X134047544Y-96321787D01*
X134209996Y-96340091D01*
X134210000Y-96340091D01*
X134210004Y-96340091D01*
X134372455Y-96321787D01*
X134372456Y-96321786D01*
X134372461Y-96321786D01*
X134526775Y-96267789D01*
X134665204Y-96180808D01*
X134780808Y-96065204D01*
X134867789Y-95926775D01*
X134921786Y-95772461D01*
X134921979Y-95770750D01*
X134940091Y-95610003D01*
X134940091Y-95609996D01*
X134921787Y-95447544D01*
X134921786Y-95447542D01*
X134921786Y-95447539D01*
X134867789Y-95293225D01*
X134780808Y-95154796D01*
X134665204Y-95039192D01*
X134591940Y-94993157D01*
X134526774Y-94952210D01*
X134392939Y-94905379D01*
X134377554Y-94899996D01*
X135444909Y-94899996D01*
X135444909Y-94900003D01*
X135463212Y-95062455D01*
X135517210Y-95216774D01*
X135551126Y-95270750D01*
X135604192Y-95355204D01*
X135719796Y-95470808D01*
X135858225Y-95557789D01*
X136012539Y-95611786D01*
X136012542Y-95611786D01*
X136012544Y-95611787D01*
X136174996Y-95630091D01*
X136175000Y-95630091D01*
X136175004Y-95630091D01*
X136337455Y-95611787D01*
X136337456Y-95611786D01*
X136337461Y-95611786D01*
X136491775Y-95557789D01*
X136630204Y-95470808D01*
X136745808Y-95355204D01*
X136832789Y-95216775D01*
X136886786Y-95062461D01*
X136888190Y-95050000D01*
X136905091Y-94900003D01*
X136905091Y-94899996D01*
X136886787Y-94737544D01*
X136886786Y-94737542D01*
X136886786Y-94737539D01*
X136832789Y-94583225D01*
X136745808Y-94444796D01*
X136630204Y-94329192D01*
X136563914Y-94287539D01*
X136491774Y-94242210D01*
X136337455Y-94188212D01*
X136175004Y-94169909D01*
X136174996Y-94169909D01*
X136012544Y-94188212D01*
X135858225Y-94242210D01*
X135719795Y-94329192D01*
X135604192Y-94444795D01*
X135517210Y-94583225D01*
X135463212Y-94737544D01*
X135444909Y-94899996D01*
X134377554Y-94899996D01*
X134372461Y-94898214D01*
X134372460Y-94898213D01*
X134372455Y-94898212D01*
X134210004Y-94879909D01*
X134209996Y-94879909D01*
X134047544Y-94898212D01*
X133893225Y-94952210D01*
X133754795Y-95039192D01*
X133639192Y-95154795D01*
X133552210Y-95293225D01*
X133498212Y-95447544D01*
X133479909Y-95609996D01*
X131004119Y-95609996D01*
X131000789Y-95600478D01*
X130992590Y-95587430D01*
X130930249Y-95488214D01*
X130904816Y-95447738D01*
X130777262Y-95320184D01*
X130725529Y-95287678D01*
X130624523Y-95224211D01*
X130454254Y-95164631D01*
X130454249Y-95164630D01*
X130275004Y-95144435D01*
X130274996Y-95144435D01*
X130095750Y-95164630D01*
X130095742Y-95164632D01*
X129952475Y-95214763D01*
X129882696Y-95218324D01*
X129822069Y-95183595D01*
X129789842Y-95121601D01*
X129788301Y-95111604D01*
X129787047Y-95100478D01*
X129780490Y-95042281D01*
X129771531Y-94962761D01*
X129771530Y-94962759D01*
X129771530Y-94962756D01*
X129717533Y-94808442D01*
X129630552Y-94670013D01*
X129514948Y-94554409D01*
X129403880Y-94484620D01*
X129376518Y-94467427D01*
X129241504Y-94420184D01*
X129222205Y-94413431D01*
X129222204Y-94413430D01*
X129222199Y-94413429D01*
X129059748Y-94395126D01*
X129059740Y-94395126D01*
X128897288Y-94413429D01*
X128742964Y-94467429D01*
X128736697Y-94470448D01*
X128735748Y-94468478D01*
X128678582Y-94484620D01*
X128623947Y-94468578D01*
X128623047Y-94470448D01*
X128616779Y-94467429D01*
X128481760Y-94420184D01*
X128462461Y-94413431D01*
X128462460Y-94413430D01*
X128462455Y-94413429D01*
X128300004Y-94395126D01*
X128299996Y-94395126D01*
X128137544Y-94413429D01*
X127983225Y-94467427D01*
X127844795Y-94554409D01*
X127729192Y-94670012D01*
X127642211Y-94808441D01*
X127617045Y-94880363D01*
X127593470Y-94947737D01*
X127589173Y-94960016D01*
X127548451Y-95016792D01*
X127486015Y-95042281D01*
X127372288Y-95055095D01*
X127217969Y-95109093D01*
X127079539Y-95196075D01*
X126963936Y-95311678D01*
X126876954Y-95450108D01*
X126822956Y-95604427D01*
X126803873Y-95773802D01*
X126801769Y-95773564D01*
X126784968Y-95830783D01*
X126732164Y-95876538D01*
X126663006Y-95886482D01*
X126614682Y-95868738D01*
X126603085Y-95861451D01*
X126448763Y-95807452D01*
X126286312Y-95789149D01*
X126286304Y-95789149D01*
X126123852Y-95807452D01*
X125969533Y-95861450D01*
X125868375Y-95925013D01*
X125801139Y-95944013D01*
X125736431Y-95925013D01*
X125641705Y-95865492D01*
X125487386Y-95811494D01*
X125324935Y-95793191D01*
X125324927Y-95793191D01*
X125162475Y-95811494D01*
X125008153Y-95865493D01*
X124950312Y-95901837D01*
X124883075Y-95920837D01*
X124816240Y-95900469D01*
X124771027Y-95847200D01*
X124761121Y-95782959D01*
X124764835Y-95750000D01*
X124764823Y-95749894D01*
X124746531Y-95587545D01*
X124746530Y-95587543D01*
X124746530Y-95587539D01*
X124699112Y-95452029D01*
X124695552Y-95382252D01*
X124699114Y-95370121D01*
X124727962Y-95287678D01*
X124736786Y-95262461D01*
X124736786Y-95262459D01*
X124736787Y-95262457D01*
X124755091Y-95100003D01*
X124755091Y-95099996D01*
X124736787Y-94937546D01*
X124736786Y-94937545D01*
X124736786Y-94937539D01*
X124694240Y-94815952D01*
X124690680Y-94746176D01*
X124694237Y-94734058D01*
X124736786Y-94612461D01*
X124736787Y-94612453D01*
X124755091Y-94450003D01*
X124755091Y-94449996D01*
X124736787Y-94287544D01*
X124736786Y-94287542D01*
X124736786Y-94287539D01*
X124682789Y-94133225D01*
X124661910Y-94099996D01*
X131319909Y-94099996D01*
X131319909Y-94100003D01*
X131338212Y-94262455D01*
X131392210Y-94416774D01*
X131424038Y-94467427D01*
X131479192Y-94555204D01*
X131594796Y-94670808D01*
X131733225Y-94757789D01*
X131887539Y-94811786D01*
X131887542Y-94811786D01*
X131887544Y-94811787D01*
X132049996Y-94830091D01*
X132050000Y-94830091D01*
X132050004Y-94830091D01*
X132212455Y-94811787D01*
X132212456Y-94811786D01*
X132212461Y-94811786D01*
X132366775Y-94757789D01*
X132505204Y-94670808D01*
X132620808Y-94555204D01*
X132707789Y-94416775D01*
X132761786Y-94262461D01*
X132764068Y-94242210D01*
X132780091Y-94100003D01*
X132780091Y-94099996D01*
X132761787Y-93937544D01*
X132761786Y-93937542D01*
X132761786Y-93937539D01*
X132707789Y-93783225D01*
X132620808Y-93644796D01*
X132505204Y-93529192D01*
X132390439Y-93457080D01*
X132366774Y-93442210D01*
X132212455Y-93388212D01*
X132050004Y-93369909D01*
X132049996Y-93369909D01*
X131887544Y-93388212D01*
X131733225Y-93442210D01*
X131594795Y-93529192D01*
X131479192Y-93644795D01*
X131392210Y-93783225D01*
X131338212Y-93937544D01*
X131319909Y-94099996D01*
X124661910Y-94099996D01*
X124595808Y-93994796D01*
X124480204Y-93879192D01*
X124353592Y-93799636D01*
X124341774Y-93792210D01*
X124187455Y-93738212D01*
X124025004Y-93719909D01*
X124024996Y-93719909D01*
X123862544Y-93738212D01*
X123708220Y-93792212D01*
X123701953Y-93795231D01*
X123700979Y-93793209D01*
X123644011Y-93809295D01*
X123589181Y-93793191D01*
X123588304Y-93795015D01*
X123582031Y-93791994D01*
X123427713Y-93737995D01*
X123265260Y-93719692D01*
X123265252Y-93719692D01*
X123102800Y-93737995D01*
X122948481Y-93791993D01*
X122810051Y-93878975D01*
X122694448Y-93994578D01*
X122607466Y-94133008D01*
X122553468Y-94287327D01*
X122535165Y-94449779D01*
X122535165Y-94449786D01*
X122553468Y-94612239D01*
X122588395Y-94712057D01*
X122591956Y-94781836D01*
X122588395Y-94793963D01*
X122538212Y-94937380D01*
X122519909Y-95099833D01*
X122025845Y-95099833D01*
X121965204Y-95039192D01*
X121891940Y-94993157D01*
X121826774Y-94952210D01*
X121692939Y-94905379D01*
X121672461Y-94898214D01*
X121672460Y-94898213D01*
X121672455Y-94898212D01*
X121510004Y-94879909D01*
X121509996Y-94879909D01*
X121347544Y-94898212D01*
X121193225Y-94952210D01*
X121054795Y-95039192D01*
X120939192Y-95154795D01*
X120852210Y-95293225D01*
X120798212Y-95447544D01*
X120779909Y-95609996D01*
X119700091Y-95609996D01*
X119681787Y-95447544D01*
X119681786Y-95447542D01*
X119681786Y-95447539D01*
X119627789Y-95293225D01*
X119540808Y-95154796D01*
X119425204Y-95039192D01*
X119351940Y-94993157D01*
X119286774Y-94952210D01*
X119152939Y-94905379D01*
X119132461Y-94898214D01*
X119132460Y-94898213D01*
X119132455Y-94898212D01*
X118970004Y-94879909D01*
X118969996Y-94879909D01*
X118807544Y-94898212D01*
X118653225Y-94952210D01*
X118514795Y-95039192D01*
X118399192Y-95154795D01*
X118312210Y-95293225D01*
X118258212Y-95447544D01*
X118239909Y-95609996D01*
X117160091Y-95609996D01*
X117141787Y-95447544D01*
X117141786Y-95447542D01*
X117141786Y-95447539D01*
X117087789Y-95293225D01*
X117000808Y-95154796D01*
X116885204Y-95039192D01*
X116811940Y-94993157D01*
X116746774Y-94952210D01*
X116612939Y-94905379D01*
X116592461Y-94898214D01*
X116592460Y-94898213D01*
X116592455Y-94898212D01*
X116430004Y-94879909D01*
X116429996Y-94879909D01*
X116267544Y-94898212D01*
X116113225Y-94952210D01*
X115974795Y-95039192D01*
X115859192Y-95154795D01*
X115772210Y-95293225D01*
X115718212Y-95447544D01*
X115699909Y-95609996D01*
X114750500Y-95609996D01*
X114750500Y-91503246D01*
X114750585Y-91500000D01*
X115294564Y-91500000D01*
X115314289Y-91826099D01*
X115373178Y-92147452D01*
X115470366Y-92459342D01*
X115470370Y-92459354D01*
X115470373Y-92459361D01*
X115604455Y-92757279D01*
X115736074Y-92975003D01*
X115773473Y-93036868D01*
X115974954Y-93294039D01*
X116205960Y-93525045D01*
X116463131Y-93726526D01*
X116463134Y-93726528D01*
X116463137Y-93726530D01*
X116742721Y-93895545D01*
X117040639Y-94029627D01*
X117040652Y-94029631D01*
X117040657Y-94029633D01*
X117352547Y-94126821D01*
X117673896Y-94185710D01*
X118000000Y-94205436D01*
X118326104Y-94185710D01*
X118647453Y-94126821D01*
X118959361Y-94029627D01*
X119257279Y-93895545D01*
X119536863Y-93726530D01*
X119794036Y-93525048D01*
X120025048Y-93294036D01*
X120200572Y-93069996D01*
X120779909Y-93069996D01*
X120779909Y-93070003D01*
X120798212Y-93232455D01*
X120852210Y-93386774D01*
X120887043Y-93442210D01*
X120939192Y-93525204D01*
X121054796Y-93640808D01*
X121193225Y-93727789D01*
X121347539Y-93781786D01*
X121347542Y-93781786D01*
X121347544Y-93781787D01*
X121509996Y-93800091D01*
X121510000Y-93800091D01*
X121510004Y-93800091D01*
X121672455Y-93781787D01*
X121672456Y-93781786D01*
X121672461Y-93781786D01*
X121826775Y-93727789D01*
X121965204Y-93640808D01*
X122080808Y-93525204D01*
X122167789Y-93386775D01*
X122221786Y-93232461D01*
X122240091Y-93070000D01*
X122240091Y-93069996D01*
X125859909Y-93069996D01*
X125859909Y-93070003D01*
X125878212Y-93232455D01*
X125932210Y-93386774D01*
X125967043Y-93442210D01*
X126019192Y-93525204D01*
X126134796Y-93640808D01*
X126273225Y-93727789D01*
X126427539Y-93781786D01*
X126427542Y-93781786D01*
X126427544Y-93781787D01*
X126589996Y-93800091D01*
X126590000Y-93800091D01*
X126590004Y-93800091D01*
X126752455Y-93781787D01*
X126752456Y-93781786D01*
X126752461Y-93781786D01*
X126906775Y-93727789D01*
X127045204Y-93640808D01*
X127160808Y-93525204D01*
X127247789Y-93386775D01*
X127301786Y-93232461D01*
X127320091Y-93070000D01*
X127316357Y-93036863D01*
X127301787Y-92907544D01*
X127301786Y-92907542D01*
X127301786Y-92907539D01*
X127247789Y-92753225D01*
X127160808Y-92614796D01*
X127045204Y-92499192D01*
X126981807Y-92459357D01*
X126906774Y-92412210D01*
X126752455Y-92358212D01*
X126590004Y-92339909D01*
X126589996Y-92339909D01*
X126427544Y-92358212D01*
X126273225Y-92412210D01*
X126134795Y-92499192D01*
X126019192Y-92614795D01*
X125932210Y-92753225D01*
X125878212Y-92907544D01*
X125859909Y-93069996D01*
X122240091Y-93069996D01*
X122236357Y-93036863D01*
X122221787Y-92907544D01*
X122221786Y-92907542D01*
X122221786Y-92907539D01*
X122167789Y-92753225D01*
X122080808Y-92614796D01*
X121965204Y-92499192D01*
X121901807Y-92459357D01*
X121826774Y-92412210D01*
X121672455Y-92358212D01*
X121510004Y-92339909D01*
X121509996Y-92339909D01*
X121347544Y-92358212D01*
X121193225Y-92412210D01*
X121054795Y-92499192D01*
X120939192Y-92614795D01*
X120852210Y-92753225D01*
X120798212Y-92907544D01*
X120779909Y-93069996D01*
X120200572Y-93069996D01*
X120226530Y-93036863D01*
X120395545Y-92757279D01*
X120529627Y-92459361D01*
X120626821Y-92147453D01*
X120685710Y-91826104D01*
X120705436Y-91500000D01*
X120687289Y-91199996D01*
X122894909Y-91199996D01*
X122894909Y-91200003D01*
X122913212Y-91362455D01*
X122913213Y-91362460D01*
X122913214Y-91362461D01*
X122920379Y-91382939D01*
X122967210Y-91516774D01*
X122987787Y-91549522D01*
X123054192Y-91655204D01*
X123169796Y-91770808D01*
X123308225Y-91857789D01*
X123462539Y-91911786D01*
X123462542Y-91911786D01*
X123462544Y-91911787D01*
X123624996Y-91930091D01*
X123625000Y-91930091D01*
X123625004Y-91930091D01*
X123787455Y-91911787D01*
X123787456Y-91911786D01*
X123787461Y-91911786D01*
X123941775Y-91857789D01*
X124080204Y-91770808D01*
X124195808Y-91655204D01*
X124282789Y-91516775D01*
X124336786Y-91362461D01*
X124338190Y-91350000D01*
X124355091Y-91200003D01*
X124355091Y-91199996D01*
X127044909Y-91199996D01*
X127044909Y-91200003D01*
X127063212Y-91362455D01*
X127063213Y-91362460D01*
X127063214Y-91362461D01*
X127070379Y-91382939D01*
X127117210Y-91516774D01*
X127137787Y-91549522D01*
X127204192Y-91655204D01*
X127319796Y-91770808D01*
X127458225Y-91857789D01*
X127612539Y-91911786D01*
X127612542Y-91911786D01*
X127612544Y-91911787D01*
X127774996Y-91930091D01*
X127775000Y-91930091D01*
X127775004Y-91930091D01*
X127937455Y-91911787D01*
X127937456Y-91911786D01*
X127937461Y-91911786D01*
X128091775Y-91857789D01*
X128230204Y-91770808D01*
X128345808Y-91655204D01*
X128432789Y-91516775D01*
X128486786Y-91362461D01*
X128488190Y-91350000D01*
X128505091Y-91200003D01*
X128505091Y-91199996D01*
X128486787Y-91037544D01*
X128486786Y-91037542D01*
X128486786Y-91037539D01*
X128432789Y-90883225D01*
X128345808Y-90744796D01*
X128230204Y-90629192D01*
X128091928Y-90542307D01*
X128091774Y-90542210D01*
X127937455Y-90488212D01*
X127775004Y-90469909D01*
X127774996Y-90469909D01*
X127612544Y-90488212D01*
X127458225Y-90542210D01*
X127319795Y-90629192D01*
X127204192Y-90744795D01*
X127117210Y-90883225D01*
X127063212Y-91037544D01*
X127044909Y-91199996D01*
X124355091Y-91199996D01*
X124336787Y-91037544D01*
X124336786Y-91037542D01*
X124336786Y-91037539D01*
X124282789Y-90883225D01*
X124195808Y-90744796D01*
X124080204Y-90629192D01*
X123941928Y-90542307D01*
X123941774Y-90542210D01*
X123787455Y-90488212D01*
X123625004Y-90469909D01*
X123624996Y-90469909D01*
X123462544Y-90488212D01*
X123308225Y-90542210D01*
X123169795Y-90629192D01*
X123054192Y-90744795D01*
X122967210Y-90883225D01*
X122913212Y-91037544D01*
X122894909Y-91199996D01*
X120687289Y-91199996D01*
X120685710Y-91173896D01*
X120626821Y-90852547D01*
X120612033Y-90805091D01*
X120529633Y-90540657D01*
X120529631Y-90540652D01*
X120529627Y-90540639D01*
X120395545Y-90242721D01*
X120294151Y-90074996D01*
X121569909Y-90074996D01*
X121569909Y-90075003D01*
X121588212Y-90237455D01*
X121642210Y-90391774D01*
X121702808Y-90488214D01*
X121729192Y-90530204D01*
X121844796Y-90645808D01*
X121983225Y-90732789D01*
X122137539Y-90786786D01*
X122137542Y-90786786D01*
X122137544Y-90786787D01*
X122299996Y-90805091D01*
X122300000Y-90805091D01*
X122300004Y-90805091D01*
X122462455Y-90786787D01*
X122462456Y-90786786D01*
X122462461Y-90786786D01*
X122616775Y-90732789D01*
X122755204Y-90645808D01*
X122870808Y-90530204D01*
X122957789Y-90391775D01*
X123011786Y-90237461D01*
X123011787Y-90237455D01*
X123030091Y-90075003D01*
X123030091Y-90074996D01*
X123011787Y-89912544D01*
X123011786Y-89912542D01*
X123011786Y-89912539D01*
X122957789Y-89758225D01*
X122870808Y-89619796D01*
X122755204Y-89504192D01*
X122686153Y-89460804D01*
X122616774Y-89417210D01*
X122462455Y-89363212D01*
X122300004Y-89344909D01*
X122299996Y-89344909D01*
X122137544Y-89363212D01*
X121983225Y-89417210D01*
X121844795Y-89504192D01*
X121729192Y-89619795D01*
X121642210Y-89758225D01*
X121588212Y-89912544D01*
X121569909Y-90074996D01*
X120294151Y-90074996D01*
X120226530Y-89963137D01*
X120226528Y-89963134D01*
X120226526Y-89963131D01*
X120025045Y-89705960D01*
X119794039Y-89474954D01*
X119536868Y-89273473D01*
X119477287Y-89237455D01*
X119257279Y-89104455D01*
X118959361Y-88970373D01*
X118959354Y-88970370D01*
X118959342Y-88970366D01*
X118647452Y-88873178D01*
X118326099Y-88814289D01*
X118000000Y-88794564D01*
X117673900Y-88814289D01*
X117352547Y-88873178D01*
X117040657Y-88970366D01*
X117040641Y-88970372D01*
X117040639Y-88970373D01*
X116850933Y-89055752D01*
X116763014Y-89095322D01*
X116742721Y-89104455D01*
X116672825Y-89146708D01*
X116463131Y-89273473D01*
X116205960Y-89474954D01*
X115974954Y-89705960D01*
X115773473Y-89963131D01*
X115651948Y-90164158D01*
X115607639Y-90237455D01*
X115604454Y-90242723D01*
X115604453Y-90242725D01*
X115556173Y-90350000D01*
X115475070Y-90530204D01*
X115470372Y-90540642D01*
X115470366Y-90540657D01*
X115373178Y-90852547D01*
X115314289Y-91173900D01*
X115294564Y-91500000D01*
X114750585Y-91500000D01*
X114750670Y-91496756D01*
X114767961Y-91166821D01*
X114769318Y-91153913D01*
X114790409Y-91020750D01*
X114820493Y-90830804D01*
X114823186Y-90818129D01*
X114907863Y-90502113D01*
X114911871Y-90489781D01*
X114912473Y-90488214D01*
X115029109Y-90184365D01*
X115034375Y-90172536D01*
X115182912Y-89881014D01*
X115189373Y-89869824D01*
X115367570Y-89595425D01*
X115375179Y-89584953D01*
X115581072Y-89330696D01*
X115589739Y-89321071D01*
X115821071Y-89089739D01*
X115830696Y-89081072D01*
X116084953Y-88875179D01*
X116095425Y-88867570D01*
X116369824Y-88689373D01*
X116381014Y-88682912D01*
X116672536Y-88534375D01*
X116684365Y-88529109D01*
X116989785Y-88411869D01*
X117002113Y-88407863D01*
X117318129Y-88323186D01*
X117330804Y-88320493D01*
X117653915Y-88269317D01*
X117666819Y-88267961D01*
X117996756Y-88250669D01*
X118003246Y-88250500D01*
X118065892Y-88250500D01*
X139443131Y-88250500D01*
X139510170Y-88270185D01*
G37*
%TD.AperFunction*%
%TD*%
M02*
